<svg width="45" height="45" viewBox="0 0 45 45" fill="none" xmlns="http://www.w3.org/2000/svg">
<g clip-path="url(#clip0_1186_1176)">
<path d="M44.1198 41.4846H28.3886C27.9032 41.4846 27.5098 41.8781 27.5098 42.3634C27.5098 42.8488 27.9033 43.2423 28.3886 43.2423H44.1198C44.6052 43.2423 44.9986 42.8488 44.9986 42.3634C44.9986 41.8781 44.6051 41.4846 44.1198 41.4846Z" fill="#217C6A"/>
<path d="M16.5241 41.4846H0.880771C0.395351 41.4846 0.00195312 41.8781 0.00195312 42.3634C0.00195312 42.8488 0.395439 43.2423 0.880771 43.2423H16.5241C17.0095 43.2423 17.4029 42.8488 17.4029 42.3634C17.4029 41.8781 17.0094 41.4846 16.5241 41.4846Z" fill="#217C6A"/>
<path d="M22.8478 17.9785H16.037C15.5516 17.9785 15.1582 18.372 15.1582 18.8573C15.1582 19.3428 15.5517 19.7362 16.037 19.7362H22.8478C23.3333 19.7362 23.7267 19.3427 23.7267 18.8573C23.7267 18.372 23.3332 17.9785 22.8478 17.9785Z" fill="#217C6A"/>
<path d="M29.6886 18.2358C29.5251 18.0723 29.2984 17.9783 29.0673 17.9783C28.8353 17.9783 28.6085 18.0723 28.446 18.2358C28.2816 18.3993 28.1885 18.626 28.1885 18.8571C28.1885 19.0882 28.2816 19.315 28.446 19.4784C28.6095 19.6419 28.8354 19.7359 29.0673 19.7359C29.2984 19.7359 29.5252 19.6419 29.6886 19.4784C29.852 19.3149 29.9461 19.0882 29.9461 18.8571C29.9461 18.626 29.8521 18.3993 29.6886 18.2358Z" fill="#217C6A"/>
<path d="M26.6172 18.2358C26.4529 18.0723 26.227 17.9783 25.995 17.9783C25.7639 17.9783 25.5371 18.0723 25.3737 18.2358C25.2103 18.3993 25.1162 18.626 25.1162 18.8571C25.1162 19.0891 25.2103 19.315 25.3737 19.4784C25.5381 19.6419 25.764 19.7359 25.995 19.7359C26.2261 19.7359 26.4529 19.6419 26.6172 19.4784C26.7807 19.3149 26.8738 19.0882 26.8738 18.8571C26.8738 18.626 26.7807 18.3993 26.6172 18.2358Z" fill="#217C6A"/>
<path d="M22.8478 25.0092H16.037C15.5516 25.0092 15.1582 25.4026 15.1582 25.888C15.1582 26.3733 15.5517 26.7668 16.037 26.7668H22.8478C23.3333 26.7668 23.7267 26.3733 23.7267 25.888C23.7267 25.4026 23.3332 25.0092 22.8478 25.0092Z" fill="#217C6A"/>
<path d="M29.6886 25.2666C29.5251 25.1031 29.2984 25.009 29.0673 25.009C28.8353 25.009 28.6094 25.1031 28.446 25.2666C28.2816 25.43 28.1885 25.6568 28.1885 25.8879C28.1885 26.1199 28.2816 26.3458 28.446 26.5091C28.6095 26.6726 28.8354 26.7667 29.0673 26.7667C29.2984 26.7667 29.5252 26.6726 29.6886 26.5091C29.852 26.3457 29.9461 26.1189 29.9461 25.8879C29.9461 25.6568 29.8521 25.43 29.6886 25.2666Z" fill="#217C6A"/>
<path d="M26.6172 25.2667C26.4529 25.1032 26.227 25.0092 25.995 25.0092C25.7639 25.0092 25.5371 25.1032 25.3737 25.2667C25.2103 25.4302 25.1162 25.6569 25.1162 25.888C25.1162 26.119 25.2103 26.3459 25.3737 26.5093C25.5372 26.6727 25.764 26.7668 25.995 26.7668C26.2271 26.7668 26.4529 26.6727 26.6172 26.5093C26.7807 26.3458 26.8738 26.119 26.8738 25.888C26.8738 25.6569 26.7807 25.4302 26.6172 25.2667Z" fill="#217C6A"/>
<path d="M22.8478 32.0399H16.037C15.5516 32.0399 15.1582 32.4334 15.1582 32.9187C15.1582 33.4041 15.5517 33.7976 16.037 33.7976H22.8478C23.3333 33.7976 23.7267 33.4041 23.7267 32.9187C23.7267 32.4334 23.3332 32.0399 22.8478 32.0399Z" fill="#217C6A"/>
<path d="M29.6886 32.2972C29.5242 32.1337 29.2984 32.0397 29.0673 32.0397C28.8353 32.0397 28.6094 32.1337 28.4451 32.2972C28.2816 32.4607 28.1885 32.6874 28.1885 32.9185C28.1885 33.1496 28.2816 33.3764 28.4451 33.5398C28.6095 33.7033 28.8354 33.7973 29.0673 33.7973C29.2984 33.7973 29.5252 33.7033 29.6886 33.5398C29.852 33.3763 29.9461 33.1496 29.9461 32.9185C29.9461 32.6874 29.8521 32.4607 29.6886 32.2972Z" fill="#217C6A"/>
<path d="M26.6163 32.2972C26.4529 32.1337 26.227 32.0397 25.995 32.0397C25.7639 32.0397 25.5371 32.1337 25.3737 32.2972C25.2103 32.4607 25.1162 32.6874 25.1162 32.9185C25.1162 33.1496 25.2103 33.3764 25.3737 33.5398C25.5372 33.7033 25.764 33.7973 25.995 33.7973C26.2271 33.7973 26.4529 33.7033 26.6163 33.5398C26.7807 33.3763 26.8738 33.1496 26.8738 32.9185C26.8738 32.6874 26.7807 32.4607 26.6163 32.2972Z" fill="#217C6A"/>
<path d="M33.9367 26.0135C33.9367 24.5776 33.2444 23.3005 32.176 22.4982C33.2443 21.6958 33.9367 20.4188 33.9367 18.9828C33.9367 16.5598 31.9655 14.5886 29.5425 14.5886H15.4811C13.0581 14.5886 11.0869 16.5598 11.0869 18.9828C11.0869 20.4188 11.7792 21.6958 12.8476 22.4982C11.7793 23.3005 11.0869 24.5776 11.0869 26.0135C11.0869 27.4495 11.7792 28.7265 12.8476 29.5289C11.7793 30.3312 11.0869 31.6083 11.0869 33.0442C11.0869 35.4672 13.0581 37.4384 15.4811 37.4384H21.6218V39.878C20.599 40.2408 19.8642 41.2176 19.8642 42.3634C19.8641 43.8172 21.0469 44.9999 22.5007 44.9999C23.9544 44.9999 25.1372 43.8172 25.1372 42.3634C25.1372 41.2177 24.4024 40.2408 23.3796 39.878V37.4384H29.5426C31.9656 37.4384 33.9368 35.4672 33.9368 33.0442C33.9368 31.6083 33.2445 30.3312 32.1761 29.5289C33.2443 28.7265 33.9367 27.4495 33.9367 26.0135ZM12.8445 18.9829C12.8445 17.5291 14.0272 16.3463 15.481 16.3463H29.5424C30.9962 16.3463 32.179 17.5291 32.179 18.9829C32.179 20.4367 30.9962 21.6194 29.5424 21.6194H15.481C14.0272 21.6193 12.8445 20.4366 12.8445 18.9829ZM22.5007 43.2423C22.016 43.2423 21.6218 42.848 21.6218 42.3635C21.6218 41.8788 22.0161 41.4846 22.5007 41.4846C22.9852 41.4846 23.3795 41.8789 23.3795 42.3635C23.3795 42.848 22.9853 43.2423 22.5007 43.2423ZM32.179 33.0442C32.179 34.498 30.9962 35.6808 29.5424 35.6808H15.481C14.0272 35.6808 12.8445 34.498 12.8445 33.0442C12.8445 31.5904 14.0272 30.4077 15.481 30.4077H29.5424C30.9962 30.4078 32.179 31.5905 32.179 33.0442ZM29.5424 28.6501H15.481C14.0272 28.6501 12.8445 27.4673 12.8445 26.0135C12.8445 24.5597 14.0272 23.377 15.481 23.377H29.5424C30.9962 23.377 32.179 24.5597 32.179 26.0135C32.179 27.4673 30.9962 28.6501 29.5424 28.6501Z" fill="#217C6A"/>
<path d="M43.1118 13.6085C41.9833 11.9705 40.4421 10.6904 38.6374 9.88699C36.4254 3.95692 30.7497 0 24.3898 0C20.6892 0 17.123 1.34534 14.3485 3.78809C11.8116 6.02148 10.0969 9.02268 9.46215 12.3113C9.32574 12.3051 9.1896 12.3021 9.05399 12.3021C4.06268 12.3021 0.00195312 16.3628 0.00195312 21.3541C0.00195312 23.5261 0.782949 25.6266 2.20106 27.2685C3.60424 28.893 5.53924 29.9688 7.64976 30.2978C7.69564 30.3049 7.74116 30.3084 7.78616 30.3084C8.21182 30.3084 8.58579 29.9985 8.65347 29.5648C8.72826 29.0852 8.39999 28.6359 7.92046 28.5611C4.35061 28.0047 1.75959 24.9738 1.75959 21.3542C1.75959 17.332 5.03176 14.0598 9.05399 14.0598C9.39263 14.0598 9.73602 14.0838 10.0747 14.1312C10.3064 14.1636 10.5411 14.1024 10.7272 13.9613C10.9136 13.8201 11.0359 13.6106 11.0673 13.3791C11.9659 6.75378 17.6934 1.75773 24.3898 1.75773C30.132 1.75773 35.2434 5.40431 37.1088 10.8317C37.1917 11.0733 37.3757 11.2666 37.6126 11.3617C41.0316 12.7336 43.2408 16.0004 43.2408 19.6843C43.2408 23.9244 40.231 27.6177 36.0841 28.4663C35.6086 28.5636 35.3021 29.028 35.3994 29.5035C35.4967 29.9791 35.9609 30.2854 36.4366 30.1882C41.3977 29.1731 44.9985 24.7555 44.9985 19.6843C44.9985 17.501 44.3461 15.4001 43.1118 13.6085Z" fill="#217C6A"/>
</g>
<defs>
<clipPath id="clip0_1186_1176">
<rect width="45" height="45" fill="white"/>
</clipPath>
</defs>
</svg>
