<svg width="48" height="48" viewBox="0 0 48 48" fill="none" xmlns="http://www.w3.org/2000/svg">
<path d="M4.57031 24.3161V40.1225C4.57031 40.5343 4.90338 40.8673 5.3151 40.8673H21.1215C21.5332 40.8673 21.8663 40.5343 21.8663 40.1225V24.3161C21.8663 23.9044 21.5332 23.5713 21.1215 23.5713H10.8851C11.2648 19.043 15.0716 15.4732 19.6975 15.4732C20.1092 15.4732 20.4423 15.1401 20.4423 14.7284V9.93522C20.4423 9.5235 20.1092 9.19043 19.6975 9.19043C11.3564 9.19043 4.57031 15.9765 4.57031 24.3161ZM18.9527 10.7004V14.0098C13.6009 14.3924 9.36498 18.8699 9.36498 24.3161C9.36498 24.7278 9.69806 25.0609 10.1098 25.0609H20.3769V39.3777H6.0599V24.3161C6.0599 17.0471 11.7783 11.0873 18.9527 10.7004Z" fill="#2B9982"/>
<path d="M42.0339 15.4732C42.4456 15.4732 42.7787 15.1401 42.7787 14.7284V9.93522C42.7787 9.5235 42.4456 9.19043 42.0339 9.19043C33.6943 9.19043 26.9082 15.9765 26.9082 24.3161V40.1225C26.9082 40.5343 27.2413 40.8673 27.653 40.8673H43.4581C43.8698 40.8673 44.2029 40.5343 44.2029 40.1225V24.3161C44.2029 23.9044 43.8698 23.5713 43.4581 23.5713H33.2215C33.6012 19.0428 37.4081 15.4732 42.0339 15.4732ZM31.7014 24.3161C31.7014 24.7278 32.0345 25.0609 32.4462 25.0609H42.7133V39.3777H28.3978V24.3161C28.3978 17.0471 34.1147 11.0873 41.2891 10.7004V14.0098C35.9375 14.3924 31.7014 18.8697 31.7014 24.3161Z" fill="#2B9982"/>
</svg>
