<svg width="48" height="48" viewBox="0 0 48 48" fill="none" xmlns="http://www.w3.org/2000/svg">
<path d="M40.4581 20.2129C36.5069 20.2129 33.2922 23.4275 33.2922 27.3788C33.2922 31.3301 36.5068 34.5448 40.4581 34.5448C44.4094 34.5448 47.6267 31.3302 47.6267 27.3788C47.6267 23.4274 44.4109 20.2129 40.4581 20.2129ZM40.4581 33.4206C37.1267 33.4206 34.4164 30.7102 34.4164 27.3788C34.4164 24.0474 37.1267 21.337 40.4581 21.337C43.7895 21.337 46.5026 24.0473 46.5026 27.3788C46.5026 30.7103 43.7911 33.4206 40.4581 33.4206ZM43.4232 26.3818L39.4081 24.0635C39.0466 23.8518 38.6146 23.8516 38.2556 24.0618C37.895 24.2702 37.6797 24.6428 37.6797 25.0588V29.6988C37.6797 30.1148 37.8951 30.4875 38.2526 30.6939C38.4339 30.8001 38.6328 30.8531 38.8313 30.8531C39.0297 30.8531 39.2261 30.8005 39.4051 30.6957L43.4231 28.3758C43.7838 28.1675 43.9991 27.7948 43.9991 27.3787C43.9991 26.9627 43.7839 26.59 43.4232 26.3818ZM42.8736 27.393C42.8736 27.393 42.8705 27.3969 42.8611 27.4023L38.84 29.724C38.8342 29.7273 38.8304 29.7285 38.8313 29.7287C38.8303 29.7285 38.8267 29.7274 38.8177 29.7222C38.8085 29.7169 38.8056 29.7132 38.8055 29.7132C38.8055 29.7129 38.8037 29.7088 38.8037 29.6988V25.0588C38.8037 25.0488 38.8054 25.0446 38.8053 25.0446C38.8055 25.0443 38.8085 25.0406 38.8207 25.0336C38.8265 25.0302 38.8303 25.0291 38.8295 25.0289C38.8304 25.0291 38.8342 25.0302 38.843 25.0354L42.861 27.3554C42.8705 27.3607 42.8735 27.3637 42.8734 27.3634C42.8738 27.3647 42.8751 27.3697 42.8751 27.3789C42.8751 27.3889 42.8735 27.393 42.8736 27.393ZM14.1158 10.5429C15.2537 12.9984 17.7404 14.7066 20.6199 14.7066C21.6522 14.7066 22.6333 14.4855 23.5208 14.0909C23.5379 14.0845 23.5543 14.0763 23.5709 14.0682C25.4597 13.2108 26.9125 11.5584 27.5001 9.53969C27.5042 9.52478 27.5098 9.51035 27.5127 9.49525C27.6893 8.8735 27.7859 8.21838 27.7859 7.54075C27.7859 3.58947 24.5713 0.374878 20.6199 0.374878C16.6686 0.374878 13.4541 3.58947 13.4541 7.54075C13.4541 8.58794 13.6817 9.58235 14.0872 10.4799C14.0949 10.5016 14.1052 10.5222 14.1158 10.5429ZM15.2987 10.3992L17.3325 8.36735L18.8991 9.93391L22.3063 13.3412C21.7706 13.4972 21.2051 13.5825 20.6198 13.5825C18.3218 13.5825 16.3199 12.2928 15.2987 10.3992ZM23.4378 12.8829L20.0914 9.5365L23.2028 6.42503L26.3191 9.54354C25.8113 10.9844 24.7722 12.1761 23.4378 12.8829ZM20.6199 1.49894C23.9514 1.49894 26.6618 4.20925 26.6618 7.54075C26.6618 7.78169 26.646 8.01897 26.6184 8.25269L23.6006 5.23272C23.4952 5.12725 23.3523 5.068 23.2031 5.068C23.0541 5.068 22.9111 5.12716 22.8057 5.23263L19.2967 8.74169L17.7302 7.17522C17.5106 6.95575 17.155 6.95566 16.9355 7.17503L14.8332 9.27522C14.6681 8.72547 14.5782 8.14347 14.5782 7.54066C14.5782 4.20916 17.2885 1.49894 20.6199 1.49894ZM19.6074 6.31432C20.6105 6.31432 21.4265 5.49832 21.4265 4.49528C21.4265 3.49225 20.6105 2.67888 19.6074 2.67888C18.6044 2.67888 17.791 3.49366 17.791 4.49528C17.791 5.49691 18.6058 6.31432 19.6074 6.31432ZM19.6074 3.80303C19.9907 3.80303 20.3024 4.11353 20.3024 4.49528C20.3024 4.87703 19.9907 5.19025 19.6074 5.19025C19.2242 5.19025 18.9151 4.87853 18.9151 4.49528C18.9151 4.11203 19.2256 3.80303 19.6074 3.80303ZM33.4686 15.219L37.5947 14.1101C38.4981 14.5062 39.4601 14.7067 40.4581 14.7067C44.4109 14.7067 47.6267 11.4921 47.6267 7.54075C47.6267 3.58938 44.4109 0.374878 40.4581 0.374878C36.5053 0.374878 33.2922 3.58947 33.2922 7.54075C33.2922 8.54416 33.4953 9.51185 33.8962 10.4202L32.7803 14.5288C32.7276 14.7229 32.7826 14.9305 32.9247 15.073C33.0316 15.1802 33.1754 15.2382 33.3227 15.2382C33.3713 15.2382 33.4204 15.232 33.4686 15.219ZM34.9994 10.1292C34.6125 9.31769 34.4163 8.44685 34.4163 7.54085C34.4163 4.20935 37.1266 1.49903 40.458 1.49903C43.7894 1.49903 46.5025 4.20935 46.5025 7.54085C46.5025 10.8723 43.791 13.5827 40.458 13.5827C39.5571 13.5827 38.6911 13.389 37.8843 13.0068C37.7638 12.9497 37.6268 12.9375 37.4979 12.972L34.1214 13.8794L35.0344 10.5183C35.0695 10.3885 35.0573 10.2505 34.9994 10.1292ZM37.4458 5.06941C37.4458 4.759 37.6974 4.50738 38.0078 4.50738H42.911C43.2215 4.50738 43.473 4.759 43.473 5.06941C43.473 5.37982 43.2214 5.63144 42.911 5.63144H38.0078C37.6973 5.63144 37.4458 5.37982 37.4458 5.06941ZM37.4458 7.54085C37.4458 7.23044 37.6974 6.97882 38.0078 6.97882H42.911C43.2215 6.97882 43.473 7.23044 43.473 7.54085C43.473 7.85125 43.2214 8.10288 42.911 8.10288H38.0078C37.6973 8.10288 37.4458 7.85125 37.4458 7.54085ZM37.4458 10.0123C37.4458 9.70188 37.6974 9.45025 38.0078 9.45025H42.911C43.2215 9.45025 43.473 9.70188 43.473 10.0123C43.473 10.3227 43.2214 10.5743 42.911 10.5743H38.0078C37.6973 10.5743 37.4458 10.3227 37.4458 10.0123ZM23.5988 30.5851C25.3774 29.4704 25.9716 27.1306 24.9148 25.2986C23.8564 23.4669 21.5327 22.8116 19.6799 23.7962L16.5061 18.2982C15.8666 17.1947 14.4463 16.8138 13.339 17.4503C12.3395 18.0277 11.9326 19.2453 12.3353 20.2923C12.1215 20.6868 11.9154 21.0739 11.7153 21.45C10.0989 24.488 8.7017 27.1131 5.10263 29.9863L2.29735 31.6066C0.462386 32.6659 -0.170146 35.0224 0.88726 36.8596C0.887073 36.8594 0.887448 36.8598 0.88726 36.8596L2.88882 40.3255C3.60029 41.5579 4.89695 42.248 6.22895 42.248C6.26495 42.248 6.30095 42.2456 6.33695 42.2446L8.62632 46.2092C9.15057 47.1171 10.1048 47.6254 11.0845 47.6254C11.5646 47.6254 12.051 47.5033 12.4959 47.2464L14.4623 46.109C14.7308 45.9537 14.8228 45.6102 14.6677 45.3415L11.5249 39.8976C15.509 38.4417 18.3685 38.5409 21.6532 38.6563C22.0782 38.6712 22.5159 38.6864 22.9636 38.6988C23.4121 39.2526 24.0826 39.5582 24.7688 39.5582C25.1615 39.5582 25.5593 39.4583 25.9228 39.2483C26.4581 38.9407 26.8416 38.4408 27.0025 37.8405C27.1634 37.2404 27.0816 36.6159 26.7727 36.0829L23.5988 30.5851ZM23.9413 25.8606C24.6893 27.1572 24.2783 28.8111 23.037 29.6117L20.2419 24.7698C21.5584 24.0946 23.1931 24.5658 23.9413 25.8606ZM3.86232 39.7634L1.86151 36.2986C1.1131 34.9978 1.56067 33.3298 2.85957 32.58L5.21617 31.2188L9.93985 39.4004L7.58382 40.7612C7.27107 40.9412 6.93704 41.0514 6.59963 41.098C6.58116 41.0996 6.5627 41.102 6.54432 41.1055C5.49498 41.2286 4.42248 40.7335 3.86232 39.7634ZM11.9334 46.2732C11.1178 46.7441 10.071 46.4629 9.59973 45.647L7.50901 42.0264C7.72576 41.9495 7.93885 41.8537 8.1452 41.735L10.5019 40.3739L13.4134 45.4172L11.9334 46.2732ZM10.9543 38.9093L6.14841 30.5854C9.67454 27.678 11.0844 25.029 12.7076 21.9779C12.7972 21.8096 12.8883 21.6386 12.9803 21.4664L22.2675 37.5526C22.0739 37.5461 21.8816 37.5394 21.6925 37.5328C18.2371 37.4112 15.2367 37.3064 10.9543 38.9093ZM25.9165 37.5494C25.8336 37.8588 25.6369 38.116 25.3614 38.2743C24.7913 38.6037 24.0592 38.4072 23.7297 37.8367L13.4643 20.0564C13.136 19.4849 13.3321 18.7524 13.9002 18.4241C14.471 18.0961 15.2036 18.2926 15.5331 18.8609L19.0002 24.8672C19.0008 24.8681 19.0013 24.8691 19.0019 24.8702L25.7993 36.6456C25.9578 36.9191 25.9995 37.2401 25.9165 37.5494ZM28.4508 24.0283C28.3623 24.0794 28.2656 24.1037 28.1704 24.1037C27.9761 24.1037 27.7871 24.0029 27.6831 23.8225C27.5279 23.5536 27.6201 23.2099 27.8888 23.0548L29.3346 22.2203C29.6036 22.0652 29.9472 22.1573 30.1023 22.4261C30.2574 22.695 30.1653 23.0387 29.8965 23.1938L28.4508 24.0283ZM24.1691 17.7712C24.469 17.8513 24.6473 18.1593 24.5672 18.4593L24.1366 20.0723C24.0696 20.3237 23.8423 20.4895 23.594 20.4895C23.546 20.4895 23.4972 20.4833 23.4487 20.4704C23.1488 20.3903 22.9704 20.0823 23.0506 19.7823L23.4812 18.1693C23.5613 17.8695 23.8696 17.6913 24.1691 17.7712ZM31.0059 29.914C30.9384 30.1649 30.7115 30.3302 30.4636 30.3302C30.4152 30.3302 30.3661 30.3239 30.3172 30.3108L28.7067 29.8775C28.407 29.7969 28.2293 29.4886 28.3101 29.1888C28.3907 28.8889 28.6989 28.7113 28.9989 28.792L30.6093 29.2252C30.909 29.3058 31.0867 29.6142 31.0059 29.914Z" fill="#217C6A"/>
</svg>
