<svg width="45" height="36" viewBox="0 0 45 36" fill="none" xmlns="http://www.w3.org/2000/svg">
<g clip-path="url(#clip0_1186_1120)">
<path d="M18.3781 27.209C17.9792 27.209 17.6246 26.9421 17.5359 26.5417L14.0784 13.5955H12.3496V12.7057H13.9011C14.3887 12.7057 14.8763 13.0616 15.0093 13.551L15.9845 17.199H31.5434C31.8094 17.199 32.0753 17.3325 32.2526 17.555C32.4299 17.7774 32.4743 18.0443 32.4299 18.3113L30.4795 26.5861C30.3909 26.9865 30.0363 27.2535 29.6373 27.2535H18.3781V27.209ZM19.309 24.7621H28.6178V22.9826H19.309V24.7621ZM18.4225 21.5589H29.5043V19.7794H18.4225V21.5589Z" fill="#217C6A"/>
<path d="M20.6391 28.1433C21.437 28.1433 22.0576 28.7661 22.0576 29.5669C22.0576 30.3677 21.437 30.9905 20.6391 30.9905C19.8412 30.9905 19.2206 30.3677 19.2206 29.5669C19.2206 28.7661 19.8855 28.1433 20.6391 28.1433ZM20.6391 27.6984C19.6196 27.6984 18.7773 28.5436 18.7773 29.5669C18.7773 30.5901 19.6196 31.4354 20.6391 31.4354C21.6586 31.4354 22.5009 30.5901 22.5009 29.5669C22.5009 28.5436 21.703 27.6984 20.6391 27.6984Z" fill="#217C6A"/>
<path d="M27.5082 28.1433C28.3061 28.1433 28.9267 28.7661 28.9267 29.5669C28.9267 30.3677 28.3061 30.9905 27.5082 30.9905C26.7103 30.9905 26.0898 30.3677 26.0898 29.5669C26.0898 28.7661 26.7103 28.1433 27.5082 28.1433ZM27.5082 27.6984C26.4887 27.6984 25.6465 28.5436 25.6465 29.5669C25.6465 30.5901 26.4887 31.4354 27.5082 31.4354C28.5278 31.4354 29.37 30.5901 29.37 29.5669C29.37 28.5436 28.5721 27.6984 27.5082 27.6984Z" fill="#217C6A"/>
<path d="M1.26741 9.9032C0.779806 9.9032 0.380859 9.50281 0.380859 9.01343C0.380859 8.52406 0.779806 8.12366 1.26741 8.12366H43.7331C44.2207 8.12366 44.6196 8.52406 44.6196 9.01343C44.6196 9.50281 44.2207 9.9032 43.7331 9.9032H1.26741Z" fill="#217C6A"/>
<path d="M27.9971 3.58582H30.2578V5.85474H27.9971V3.58582Z" fill="#217C6A"/>
<path d="M33.0059 3.58582H35.2666V5.85474H33.0059V3.58582Z" fill="#217C6A"/>
<path d="M38.0146 3.58582H40.2753V5.85474H38.0146V3.58582Z" fill="#217C6A"/>
<path d="M0.248047 35.8399V0.160034H44.7971V35.8844H0.248047V35.8399ZM2.02114 34.0604H43.024V1.93958H2.02114V34.0604Z" fill="#217C6A"/>
</g>
<defs>
<clipPath id="clip0_1186_1120">
<rect width="45" height="36" fill="white"/>
</clipPath>
</defs>
</svg>
