<svg width="781" height="1029" viewBox="0 0 781 1029" fill="none" xmlns="http://www.w3.org/2000/svg">
<path d="M710.228 5.5H708.042V514H710.228V5.5Z" fill="url(#paint0_linear_1186_168)" fill-opacity="0.15"/>
<path d="M549.156 5.5H547.499V513.897H549.156V5.5Z" fill="url(#paint1_linear_1186_168)" fill-opacity="0.15"/>
<path d="M388.091 0H386.434V513.897H388.091V0Z" fill="url(#paint2_linear_1186_168)" fill-opacity="0.15"/>
<path d="M227.027 0H225.369V513.897H227.027V0Z" fill="url(#paint3_linear_1186_168)" fill-opacity="0.15"/>
<path d="M62.2815 0H61.1888V514H62.2815V0Z" fill="url(#paint4_linear_1186_168)" fill-opacity="0.15"/>
<path d="M781 477.617H0V479.182H781V477.617Z" fill="url(#paint5_linear_1186_168)" fill-opacity="0.15"/>
<path d="M781 371.32H0V372.885H781V371.32Z" fill="url(#paint6_linear_1186_168)" fill-opacity="0.15"/>
<path d="M781 265.023H0V266.589H781V265.023Z" fill="url(#paint7_linear_1186_168)" fill-opacity="0.15"/>
<path d="M781 155.242H0V156.807H781V155.242Z" fill="url(#paint8_linear_1186_168)" fill-opacity="0.15"/>
<path d="M781 45.4497H0V47.0149H781V45.4497Z" fill="url(#paint9_linear_1186_168)" fill-opacity="0.15"/>
<g opacity="0.31">
<path d="M215.508 393.451H238.536C239.512 393.451 240.286 394.276 240.223 395.251L239.774 406.819C239.716 408.477 238.727 410.333 237.331 412.523C236.611 413.653 236.104 415.124 234.353 416.135C233.675 416.526 232.91 416.828 232.113 417.088C231.386 419.212 229.393 420.749 227.023 420.749C224.652 420.749 222.66 419.212 221.932 417.088C221.136 416.828 220.371 416.526 219.692 416.135C217.942 415.124 217.435 413.653 216.715 412.523C215.361 410.399 214.396 408.59 214.291 406.969C214.272 406.969 213.821 395.249 213.821 395.249C213.759 394.275 214.533 393.451 215.508 393.451Z" fill="#B1B2F2"/>
<path d="M210.813 380.779C206.263 376.478 203.424 370.387 203.424 363.631C203.424 350.356 214.385 339.641 227.751 340.043C239.973 340.411 250.022 350.28 250.596 362.495C250.955 370.148 247.665 377.046 242.318 381.6C240.426 383.212 238.928 385.19 237.707 387.355C237.475 387.765 237.168 388.164 236.791 393.448H217.257C216.92 388.205 216.636 387.85 216.415 387.485C214.9 384.981 212.94 382.79 210.813 380.779Z" fill="#FAC634"/>
<path d="M227.021 330.454C226.276 330.454 225.672 329.85 225.672 329.105V319.349C225.672 318.604 226.276 318 227.021 318C227.766 318 228.37 318.604 228.37 319.349V329.105C228.37 329.85 227.766 330.454 227.021 330.454Z" fill="#FAC634"/>
<path d="M244.48 335.132C244.251 335.132 244.019 335.073 243.806 334.951C243.161 334.578 242.94 333.753 243.313 333.108L248.191 324.659C248.563 324.014 249.388 323.792 250.033 324.165C250.678 324.538 250.899 325.363 250.527 326.008L245.649 334.457C245.4 334.89 244.946 335.132 244.48 335.132Z" fill="#FAC634"/>
<path d="M257.261 347.912C256.794 347.912 256.341 347.67 256.091 347.237C255.719 346.592 255.94 345.767 256.585 345.395L265.034 340.517C265.679 340.144 266.504 340.366 266.876 341.011C267.249 341.656 267.028 342.481 266.383 342.853L257.934 347.731C257.721 347.854 257.489 347.912 257.261 347.912Z" fill="#FAC634"/>
<path d="M271.693 365.37H261.937C261.192 365.37 260.588 364.766 260.588 364.021C260.588 363.276 261.192 362.672 261.937 362.672H271.693C272.438 362.672 273.042 363.276 273.042 364.021C273.042 364.766 272.438 365.37 271.693 365.37Z" fill="#FAC634"/>
<path d="M265.707 387.706C265.478 387.706 265.246 387.648 265.034 387.525L256.585 382.647C255.94 382.275 255.719 381.45 256.091 380.805C256.463 380.159 257.289 379.938 257.934 380.311L266.382 385.189C267.028 385.561 267.249 386.386 266.876 387.032C266.627 387.464 266.173 387.706 265.707 387.706Z" fill="#FAC634"/>
<path d="M188.334 387.706C187.868 387.706 187.414 387.465 187.164 387.032C186.792 386.387 187.013 385.561 187.658 385.189L196.107 380.311C196.752 379.938 197.577 380.159 197.95 380.805C198.322 381.45 198.101 382.275 197.456 382.647L189.007 387.525C188.795 387.648 188.563 387.706 188.334 387.706Z" fill="#FAC634"/>
<path d="M192.105 365.37H182.349C181.604 365.37 181 364.766 181 364.021C181 363.276 181.604 362.672 182.349 362.672H192.105C192.85 362.672 193.454 363.276 193.454 364.021C193.454 364.766 192.85 365.37 192.105 365.37Z" fill="#FAC634"/>
<path d="M196.78 347.912C196.551 347.912 196.319 347.853 196.107 347.731L187.658 342.853C187.013 342.48 186.792 341.655 187.164 341.01C187.537 340.365 188.362 340.143 189.007 340.516L197.455 345.394C198.1 345.767 198.321 346.591 197.949 347.237C197.7 347.67 197.246 347.912 196.78 347.912Z" fill="#FAC634"/>
<path d="M209.565 335.132C209.099 335.132 208.646 334.889 208.396 334.457L203.518 326.008C203.145 325.363 203.366 324.538 204.012 324.165C204.657 323.792 205.482 324.014 205.855 324.659L210.732 333.108C211.105 333.753 210.884 334.578 210.239 334.951C210.026 335.074 209.794 335.132 209.565 335.132Z" fill="#FAC634"/>
<path d="M236.516 400.933L217.841 396.435L217.525 397.747L236.2 402.244L236.516 400.933ZM217.525 402.244L236.2 406.741L236.516 405.43L217.841 400.933L217.525 402.244ZM217.525 406.741L236.2 411.238L236.516 409.927L217.841 405.43L217.525 406.741Z" fill="#C2C3F2"/>
<path d="M233.783 365.767H228.63V360.613C228.63 357.772 230.942 355.46 233.783 355.46C236.625 355.46 238.937 357.772 238.937 360.613C238.937 363.455 236.625 365.767 233.783 365.767ZM229.979 364.418H233.783C235.881 364.418 237.588 362.712 237.588 360.613C237.588 358.516 235.882 356.809 233.783 356.809C231.686 356.809 229.979 358.515 229.979 360.613V364.418Z" fill="white"/>
<path d="M225.417 365.767H220.264C217.422 365.767 215.11 363.455 215.11 360.613C215.11 357.771 217.422 355.46 220.264 355.46C223.106 355.46 225.417 357.771 225.417 360.613V365.767ZM220.264 356.809C218.166 356.809 216.459 358.515 216.459 360.613C216.459 362.711 218.166 364.418 220.264 364.418H224.068V360.613C224.068 358.515 222.361 356.809 220.264 356.809Z" fill="white"/>
<path d="M229.981 393.451H228.632V365.767H225.419V393.451H224.07V364.418H229.981V393.451Z" fill="white"/>
</g>
<g opacity="0.11">
<path d="M544.933 192.745C564.778 192.745 580.866 176.657 580.866 156.812C580.866 136.966 564.778 120.879 544.933 120.879C525.088 120.879 509 136.966 509 156.812C509 176.657 525.088 192.745 544.933 192.745Z" fill="#ED637F"/>
<path d="M544.933 185.994C561.049 185.994 574.115 172.928 574.115 156.812C574.115 140.695 561.049 127.63 544.933 127.63C528.816 127.63 515.751 140.695 515.751 156.812C515.751 172.928 528.816 185.994 544.933 185.994Z" fill="white"/>
<path d="M545.878 179.228C558.256 178.718 567.877 168.27 567.367 155.892C566.856 143.513 556.408 133.893 544.03 134.403C531.652 134.913 522.031 145.362 522.541 157.74C523.052 170.118 533.5 179.739 545.878 179.228Z" fill="#ED637F"/>
<path d="M544.934 172.491C536.289 172.491 529.255 165.457 529.255 156.812C529.255 148.166 536.289 141.133 544.934 141.133C553.58 141.133 560.614 148.166 560.614 156.812C560.614 165.457 553.58 172.491 544.934 172.491Z" fill="white"/>
<path d="M544.934 165.74C540.011 165.74 536.006 161.735 536.006 156.812C536.006 151.889 540.011 147.883 544.934 147.883C549.857 147.883 553.862 151.889 553.862 156.812C553.862 161.735 549.857 165.74 544.934 165.74Z" fill="#ED637F"/>
<path d="M544.933 155.193L596.232 103.894L597.851 105.513L546.552 156.812C546.105 157.259 545.38 157.259 544.933 156.812C544.486 156.365 544.486 155.64 544.933 155.193Z" fill="#8384D6"/>
<path d="M599.536 116.161L606.745 108.952L597.851 105.512L583.899 119.464C589.306 121.556 595.437 120.26 599.536 116.161Z" fill="#8384D6"/>
<path d="M585.581 102.209L592.791 95L596.23 103.894L582.278 117.846C580.187 112.439 581.482 106.308 585.581 102.209Z" fill="#B1B2F2"/>
</g>
<g clip-path="url(#clip0_1186_168)">
<path fill-rule="evenodd" clip-rule="evenodd" d="M509.985 885.689C507.686 888.313 507.408 889.91 507.686 898.81C507.921 907.109 508.86 913.817 511.06 922.958C512.512 928.867 515.46 938.478 516.116 939.32C516.864 940.304 518.927 939.79 519.582 938.478C520.003 937.538 520.003 936.647 519.489 934.258C519.02 932.071 518.829 927.506 518.785 918.081C518.785 904.96 518.272 898.247 516.678 889.904C515.553 884.044 512.884 882.36 509.985 885.689ZM513.495 903.878C513.402 904.49 513.304 904.113 513.304 903.085C513.304 902.057 513.353 901.582 513.495 901.992C513.585 902.617 513.582 903.253 513.484 903.878H513.495Z" fill="#FFF3EB"/>
<path fill-rule="evenodd" clip-rule="evenodd" d="M542.481 907.863C538.659 912.237 536.066 916.397 531.987 924.811C528.526 932.033 527.544 935.499 528.947 935.969C529.886 936.297 531.103 934.422 535.176 926.407C539.811 917.217 541.541 914.495 545.194 910.323C547.116 908.071 547.814 906.945 547.721 906.103C547.728 905.931 547.698 905.759 547.634 905.6C547.57 905.44 547.473 905.295 547.349 905.176C547.226 905.056 547.078 904.964 546.917 904.905C546.755 904.846 546.583 904.822 546.411 904.835C545.472 904.769 544.632 905.447 542.481 907.863Z" fill="#FFF3EB"/>
<path fill-rule="evenodd" clip-rule="evenodd" d="M483.202 906.272C480.473 907.628 480.249 911.663 482.826 912.975C484.605 913.915 486.647 913.161 487.652 911.242C488.869 908.897 488.542 907.207 486.62 906.179C485.31 905.523 484.654 905.523 483.202 906.272Z" fill="#FFF3EB"/>
<path fill-rule="evenodd" clip-rule="evenodd" d="M492.8 920.667C492.095 921.793 498.046 934.334 501.365 938.708C504.597 942.972 505.864 941.567 503.549 936.363C501.769 932.328 496.288 922.438 495.213 921.219C494.203 920.104 493.285 919.912 492.8 920.667Z" fill="#FFF3EB"/>
<path fill-rule="evenodd" clip-rule="evenodd" d="M560.081 929.387C554.649 931.311 539.483 941.857 537.234 945.279C537.034 945.618 536.912 945.997 536.879 946.389C536.845 946.781 536.9 947.175 537.04 947.543C537.179 947.91 537.4 948.242 537.685 948.512C537.969 948.783 538.312 948.986 538.686 949.106C540.231 949.483 561.02 940.195 564.716 937.478C567.67 935.291 568.467 931.382 566.261 929.649C564.803 928.446 562.893 928.408 560.081 929.387Z" fill="#FFF3EB"/>
<path fill-rule="evenodd" clip-rule="evenodd" d="M464.286 931.027C462.457 932.481 462.599 934.684 464.756 937.04C467.141 939.714 470.417 941.682 475.849 943.65C479.502 944.962 482.22 946.416 486.948 949.603C496.922 956.262 497.015 956.262 498.375 954.343C499.357 952.933 499.308 952.561 497.905 949.56C496.267 946.088 493.035 942.95 486.386 938.445C479.502 933.76 475.101 931.65 470.373 930.759C465.738 929.857 465.782 929.857 464.286 931.027Z" fill="#FFF3EB"/>
<path fill-rule="evenodd" clip-rule="evenodd" d="M583.825 951.096C583.445 951.402 583.146 951.798 582.955 952.249C582.765 952.699 582.688 953.189 582.733 953.676C582.733 955.781 583.825 956.907 585.779 956.907C586.442 956.904 587.088 956.696 587.629 956.312C588.169 955.927 588.577 955.384 588.798 954.758C589.018 954.132 589.04 953.453 588.861 952.814C588.681 952.175 588.308 951.608 587.794 951.189C586.26 949.97 585.228 949.97 583.825 951.096Z" fill="#FFF3EB"/>
<path fill-rule="evenodd" clip-rule="evenodd" d="M564.909 954.283C561.349 954.611 551.468 956.393 550.343 956.864C548.94 957.52 548.798 959.395 550.158 959.816C551.189 960.144 572.165 957 573.944 956.3C574.223 956.176 574.465 955.981 574.646 955.735C574.827 955.488 574.941 955.199 574.976 954.895C574.976 954.004 574.692 953.955 570.898 954.048C568.627 954.103 565.935 954.19 564.909 954.283Z" fill="#FFF3EB"/>
<path fill-rule="evenodd" clip-rule="evenodd" d="M443.026 956.579C441.437 957.673 441.764 960.472 443.544 961.456C444.663 962.068 444.947 962.068 446.116 961.456C447.852 960.472 448.179 957.662 446.585 956.579C446.353 956.342 446.077 956.153 445.771 956.025C445.465 955.896 445.137 955.829 444.805 955.829C444.474 955.829 444.146 955.896 443.84 956.025C443.534 956.153 443.257 956.342 443.026 956.579Z" fill="#FFF3EB"/>
<path fill-rule="evenodd" clip-rule="evenodd" d="M469.858 959.438C466.419 959.723 463.015 960.336 459.693 961.27C457.777 961.877 457.449 962.161 457.449 963.194C457.449 964.413 457.449 964.413 460.397 964.08C467.374 963.331 473.554 963.238 477.583 963.752C482.732 964.457 484.604 964.178 484.604 962.631C484.604 961.647 484.233 961.456 481.465 960.8C475.847 959.57 472.714 959.209 469.858 959.438Z" fill="#FFF3EB"/>
<path fill-rule="evenodd" clip-rule="evenodd" d="M539.014 969.519C537.655 970.881 538.594 972.335 542.012 974.024C545.053 975.571 551.375 980.492 556.244 985.182C561.676 990.387 563.08 991.196 566.17 990.857C569.025 990.48 570.199 989.873 570.57 988.419C571.416 984.996 567.807 981.241 559.755 977.069C554.295 974.259 541.542 968.956 540.232 968.956C539.774 968.989 539.343 969.182 539.014 969.503V969.519ZM564.717 985.652C565.564 986.544 565.607 986.746 565.045 986.746C564.297 986.746 559.897 983.515 559.242 982.482C558.728 981.618 563.549 984.433 564.717 985.652Z" fill="#FFF3EB"/>
<path fill-rule="evenodd" clip-rule="evenodd" d="M495.84 970.974C493.219 972.193 476.224 982.602 473.506 984.641C466.905 989.468 466.015 995.099 471.682 995.941C474.166 996.319 476.552 995.236 482.263 991.021C486.434 987.976 498.559 976.063 500.055 973.527C501.698 970.881 499.214 969.41 495.84 970.974ZM484.135 983.258C484.135 983.586 476.83 988.982 475.52 989.682L474.537 990.152L475.476 989.211C476.224 988.419 483.622 983.121 484.042 983.023C484.091 983.023 484.135 983.121 484.135 983.258Z" fill="#FFF3EB"/>
<path fill-rule="evenodd" clip-rule="evenodd" d="M522.221 980.071C521.653 980.18 521.132 980.458 520.725 980.869C520.206 981.476 517.727 991.885 515.991 1000.61C514.73 1006.98 514.168 1021.09 515.009 1024.62C516.417 1030.08 520.626 1030.52 522.783 1025.41C523.908 1022.67 525.311 1015.1 525.589 1010.22C526.479 993.858 526.856 983.433 526.577 982.416C525.998 980.12 524.917 979.557 522.221 980.071ZM521.423 1005.62C521.238 1008.81 520.91 1012.33 520.675 1013.5C520.397 1015.33 520.299 1015 520.255 1011.31C520.206 1007.14 521.003 999.921 521.516 999.921C521.642 999.905 521.593 1002.49 521.407 1005.62H521.423Z" fill="#FFF3EB"/>
<path fill-rule="evenodd" clip-rule="evenodd" d="M503.381 985.324C500.248 988.462 488.772 1012.37 489.476 1014.3C489.615 1014.51 489.816 1014.67 490.05 1014.76C490.285 1014.86 490.542 1014.87 490.787 1014.81C491.633 1014.72 492.894 1012.52 497.436 1003.61C500.575 997.51 503.9 991.229 504.883 989.682C506.755 986.68 506.941 985.888 506.051 984.996C505.254 984.198 504.413 984.291 503.381 985.324Z" fill="#FFF3EB"/>
<path fill-rule="evenodd" clip-rule="evenodd" d="M536.343 985.838C535.638 986.637 535.688 986.932 537.435 990.338C538.466 992.404 541.136 997.089 543.336 1000.8C545.536 1004.5 547.365 1007.88 547.365 1008.2C547.365 1009.14 549.423 1008.75 549.609 1007.83C549.702 1007.41 549.33 1005.91 548.768 1004.5C547.551 1001.22 540.388 988.643 538.515 986.544C537.183 985.04 537.091 984.997 536.343 985.838Z" fill="#FFF3EB"/>
<path fill-rule="evenodd" clip-rule="evenodd" d="M551.095 1015.52C550.76 1015.69 550.469 1015.93 550.244 1016.24C550.019 1016.54 549.866 1016.89 549.798 1017.26C549.73 1017.63 549.748 1018.01 549.851 1018.37C549.954 1018.73 550.138 1019.07 550.391 1019.35C552.498 1021.41 555.915 1020.52 556.15 1017.84C556.268 1017.07 556.12 1016.27 555.73 1015.59C555.075 1014.79 552.683 1014.72 551.095 1015.52Z" fill="#FFF3EB"/>
</g>
<defs>
<linearGradient id="paint0_linear_1186_168" x1="69.5001" y1="-30.2085" x2="731.337" y2="592.496" gradientUnits="userSpaceOnUse">
<stop stop-color="#FFEBCC" stop-opacity="0"/>
<stop offset="0.47" stop-color="#F16615"/>
<stop offset="0.81325" stop-color="#FBC699" stop-opacity="0.276596"/>
<stop offset="1" stop-color="#FFE6C6" stop-opacity="0"/>
</linearGradient>
<linearGradient id="paint1_linear_1186_168" x1="69.5001" y1="-30.2085" x2="731.337" y2="592.496" gradientUnits="userSpaceOnUse">
<stop stop-color="#FFEBCC" stop-opacity="0"/>
<stop offset="0.47" stop-color="#F16615"/>
<stop offset="0.81325" stop-color="#FBC699" stop-opacity="0.276596"/>
<stop offset="1" stop-color="#FFE6C6" stop-opacity="0"/>
</linearGradient>
<linearGradient id="paint2_linear_1186_168" x1="69.5001" y1="-30.2085" x2="731.337" y2="592.496" gradientUnits="userSpaceOnUse">
<stop stop-color="#FFEBCC" stop-opacity="0"/>
<stop offset="0.47" stop-color="#F16615"/>
<stop offset="0.81325" stop-color="#FBC699" stop-opacity="0.276596"/>
<stop offset="1" stop-color="#FFE6C6" stop-opacity="0"/>
</linearGradient>
<linearGradient id="paint3_linear_1186_168" x1="69.5001" y1="-30.2085" x2="731.337" y2="592.496" gradientUnits="userSpaceOnUse">
<stop stop-color="#FFEBCC" stop-opacity="0"/>
<stop offset="0.47" stop-color="#F16615"/>
<stop offset="0.81325" stop-color="#FBC699" stop-opacity="0.276596"/>
<stop offset="1" stop-color="#FFE6C6" stop-opacity="0"/>
</linearGradient>
<linearGradient id="paint4_linear_1186_168" x1="69.5001" y1="-30.2085" x2="731.337" y2="592.496" gradientUnits="userSpaceOnUse">
<stop stop-color="#FFEBCC" stop-opacity="0"/>
<stop offset="0.47" stop-color="#F16615"/>
<stop offset="0.81325" stop-color="#FBC699" stop-opacity="0.276596"/>
<stop offset="1" stop-color="#FFE6C6" stop-opacity="0"/>
</linearGradient>
<linearGradient id="paint5_linear_1186_168" x1="69.5001" y1="-30.2085" x2="731.337" y2="592.496" gradientUnits="userSpaceOnUse">
<stop stop-color="#FFEBCC" stop-opacity="0"/>
<stop offset="0.47" stop-color="#F16615"/>
<stop offset="0.81325" stop-color="#FBC699" stop-opacity="0.276596"/>
<stop offset="1" stop-color="#FFE6C6" stop-opacity="0"/>
</linearGradient>
<linearGradient id="paint6_linear_1186_168" x1="69.5001" y1="-30.2085" x2="731.337" y2="592.496" gradientUnits="userSpaceOnUse">
<stop stop-color="#FFEBCC" stop-opacity="0"/>
<stop offset="0.47" stop-color="#F16615"/>
<stop offset="0.81325" stop-color="#FBC699" stop-opacity="0.276596"/>
<stop offset="1" stop-color="#FFE6C6" stop-opacity="0"/>
</linearGradient>
<linearGradient id="paint7_linear_1186_168" x1="69.5001" y1="-30.2085" x2="731.337" y2="592.496" gradientUnits="userSpaceOnUse">
<stop stop-color="#FFEBCC" stop-opacity="0"/>
<stop offset="0.47" stop-color="#F16615"/>
<stop offset="0.81325" stop-color="#FBC699" stop-opacity="0.276596"/>
<stop offset="1" stop-color="#FFE6C6" stop-opacity="0"/>
</linearGradient>
<linearGradient id="paint8_linear_1186_168" x1="69.5001" y1="-30.2085" x2="731.337" y2="592.496" gradientUnits="userSpaceOnUse">
<stop stop-color="#FFEBCC" stop-opacity="0"/>
<stop offset="0.47" stop-color="#F16615"/>
<stop offset="0.81325" stop-color="#FBC699" stop-opacity="0.276596"/>
<stop offset="1" stop-color="#FFE6C6" stop-opacity="0"/>
</linearGradient>
<linearGradient id="paint9_linear_1186_168" x1="69.5001" y1="-30.2085" x2="731.337" y2="592.496" gradientUnits="userSpaceOnUse">
<stop stop-color="#FFEBCC" stop-opacity="0"/>
<stop offset="0.47" stop-color="#F16615"/>
<stop offset="0.81325" stop-color="#FBC699" stop-opacity="0.276596"/>
<stop offset="1" stop-color="#FFE6C6" stop-opacity="0"/>
</linearGradient>
<clipPath id="clip0_1186_168">
<rect width="147" height="145" fill="white" transform="translate(442 884)"/>
</clipPath>
</defs>
</svg>
