<svg width="87" height="80" viewBox="0 0 87 80" fill="none" xmlns="http://www.w3.org/2000/svg">
<path d="M43.5002 27.45C36.3053 27.45 30.4502 33.3051 30.4502 40.5C30.4502 47.6949 36.3053 53.55 43.5002 53.55C50.6951 53.55 56.5502 47.6949 56.5502 40.5C56.5502 33.3051 50.6951 27.45 43.5002 27.45ZM43.5002 51.81C37.2623 51.81 32.1902 46.7379 32.1902 40.5C32.1902 34.2621 37.2623 29.19 43.5002 29.19C49.7381 29.19 54.8102 34.2621 54.8102 40.5C54.8102 46.7379 49.7381 51.81 43.5002 51.81Z" fill="#3147FF"/>
<path d="M72.1666 67.1481C78.9265 59.8836 82.6501 50.4528 82.6501 40.5C82.6501 31.9479 79.9444 23.8221 74.8201 17.01V9.87598C74.8201 9.54538 74.6287 9.24088 74.3329 9.09298C74.0371 8.94508 73.6804 8.97988 73.4194 9.17998L70.0525 11.7465C62.7967 5.03878 53.4094 1.34998 43.5001 1.34998C34.948 1.34998 26.8222 4.05568 20.0101 9.17998H13.0501C12.7195 9.17998 12.415 9.36268 12.2671 9.65848C12.1192 9.95428 12.154 10.311 12.3541 10.572L14.8336 13.8432C8.0737 21.1077 4.3501 30.5385 4.3501 40.4913C4.3501 49.0434 7.0558 57.1692 12.1801 63.9813V70.9413C12.1801 71.2719 12.3628 71.5764 12.6586 71.7243C12.7804 71.7852 12.9109 71.8113 13.0501 71.8113C13.2328 71.8113 13.4242 71.7504 13.5721 71.6373L16.8433 69.1578C24.1078 75.9177 33.5386 79.6413 43.4914 79.6413C52.0435 79.6413 60.1693 76.9356 66.9814 71.8113H73.9414C74.272 71.8113 74.5765 71.6286 74.7244 71.3328C74.8723 71.037 74.8375 70.6803 74.6374 70.4193L72.1579 67.1481H72.1666ZM43.5001 3.08998C53.0701 3.08998 62.1442 6.69178 69.1042 13.2342C69.313 13.9563 70.4875 14.0172 70.8007 13.3647L73.0801 11.6334V27.45H57.2461L59.3863 24.0135C59.3863 24.0135 59.4385 23.9874 59.4559 23.9613C59.7778 23.6046 59.743 23.0565 59.3863 22.7346C55.0102 18.8196 49.3639 16.662 43.4914 16.662C39.5242 16.662 35.644 17.6451 32.1814 19.5156V10.05C32.1814 9.57148 31.7899 9.17998 31.3114 9.17998H23.0377C29.119 5.19538 36.1399 3.08998 43.4914 3.08998H43.5001ZM60.4129 54.6897L56.1412 52.0101C55.8715 51.8448 55.5322 51.8361 55.2538 51.984C54.9754 52.1406 54.8014 52.4277 54.8014 52.7496V59.4747C51.391 61.5105 47.4934 62.598 43.4914 62.598C38.2801 62.598 33.2776 60.7536 29.3017 57.4128L31.9813 53.1411C32.1466 52.8714 32.1553 52.5321 32.0074 52.2537C31.8508 51.9753 31.5637 51.8013 31.2505 51.8013H24.5254C22.4896 48.3909 21.4021 44.4933 21.4021 40.4913C21.4021 35.28 23.2465 30.2775 26.5873 26.3016L30.859 28.9812C30.9982 29.0682 31.1635 29.1117 31.3201 29.1117C31.468 29.1117 31.6072 29.0769 31.7377 29.0073C32.0161 28.8507 32.1901 28.5636 32.1901 28.2417V21.5166C35.6005 19.4808 39.4981 18.3933 43.5001 18.3933C48.6853 18.3933 53.6704 20.2203 57.6376 23.535L54.9493 27.8502C54.784 28.1199 54.7753 28.4592 54.9232 28.7289C55.0798 29.0073 55.3669 29.1726 55.6801 29.1726H62.4748C64.5106 32.583 65.5981 36.4806 65.5981 40.4826C65.5981 45.6939 63.7537 50.6964 60.4129 54.6723V54.6897ZM6.0901 40.5C6.0901 30.9387 9.6832 21.882 16.2169 14.922C16.3561 14.9046 16.4953 14.8611 16.6258 14.7654C17.0086 14.4783 17.0869 13.9302 16.7911 13.5474L14.7988 10.92H30.4501V26.6757L26.944 24.4746C26.5525 24.2745 26.0566 24.2397 25.7347 24.6051C21.8197 28.9812 19.6621 34.6188 19.6621 40.5C19.6621 44.4672 20.6452 48.3474 22.5157 51.81H13.0501C12.5716 51.81 12.1801 52.2015 12.1801 52.68V60.9537C8.1955 54.8724 6.0901 47.8515 6.0901 40.5ZM43.5001 77.91C33.9388 77.91 24.8821 74.3169 17.9221 67.7832C17.9047 67.644 17.8612 67.5048 17.7655 67.3743C17.4784 66.9915 16.9303 66.9132 16.5475 67.209L13.9201 69.2013V53.55C13.9201 53.55 23.9599 53.6196 24.073 53.6196C24.1861 53.6196 29.6845 53.55 29.6845 53.55L27.4834 57.0561C27.2833 57.4476 27.2485 57.9435 27.6139 58.2654C31.99 62.1804 37.6276 64.338 43.5088 64.338C47.476 64.338 51.3562 63.3549 54.8188 61.4844V70.95C54.8188 71.4285 55.2103 71.82 55.6888 71.82H63.9625C57.8812 75.8046 50.8603 77.91 43.5088 77.91H43.5001ZM56.5501 70.08V54.3243L60.0562 56.5254C60.4477 56.7255 60.9436 56.769 61.2655 56.3949C65.1805 52.0188 67.3381 46.3812 67.3381 40.5C67.3381 36.5328 66.355 32.6526 64.4845 29.19H73.9501C74.4286 29.19 74.8201 28.7985 74.8201 28.32V20.0463C78.8047 26.1276 80.9101 33.1485 80.9101 40.5C80.9101 50.0613 77.317 59.118 70.7833 66.078C70.6441 66.0954 70.4962 66.1389 70.3744 66.2346C69.9916 66.5217 69.9133 67.0698 70.2091 67.4526L72.2014 70.08H56.5501Z" fill="#3147FF"/>
<path d="M43.265 39.9171C41.3075 39.9171 40.8899 39.0036 40.8899 38.2293C40.8899 38.1423 40.916 36.0543 43.265 36.0543C45.4313 36.0543 45.7184 37.4985 45.7532 37.7943C45.8054 38.2641 46.2317 38.6121 46.7015 38.5686C47.18 38.5251 47.528 38.0988 47.4845 37.6203C47.3888 36.6285 46.6058 34.8711 44.3699 34.4187V33.54C44.3699 33.0615 43.9784 32.67 43.4999 32.67C43.0214 32.67 42.6299 33.0615 42.6299 33.54V34.3491C40.0895 34.6536 39.1499 36.7677 39.1499 38.2206C39.1499 39.8736 40.2287 41.6484 43.265 41.6484C44.1176 41.6484 46.1099 41.7876 46.1099 43.1187C46.1099 43.8843 45.2051 44.937 43.4999 44.937C42.2384 44.937 40.8899 44.5716 40.8899 43.5537C40.8899 43.0752 40.4984 42.6837 40.0199 42.6837C39.5414 42.6837 39.1499 43.0752 39.1499 43.5537C39.1499 44.85 40.0895 46.3377 42.6299 46.6161V47.4426C42.6299 47.9211 43.0214 48.3126 43.4999 48.3126C43.9784 48.3126 44.3699 47.9211 44.3699 47.4426V46.5987C46.5362 46.2507 47.8499 44.6325 47.8499 43.11C47.8499 42.3531 47.5193 39.8997 43.265 39.8997V39.9171Z" fill="#3147FF"/>
</svg>
