<svg width="78" height="78" viewBox="0 0 78 78" fill="none" xmlns="http://www.w3.org/2000/svg">
<g clip-path="url(#clip0_7_2)">
<path d="M39 22.8982C35.8154 22.8984 32.7024 23.8429 30.0545 25.6123C27.4067 27.3817 25.3431 29.8965 24.1245 32.8387C22.9059 35.781 22.5872 39.0185 23.2086 42.1419C23.83 45.2653 25.3636 48.1342 27.6155 50.386C29.8674 52.6378 32.7365 54.1713 35.8599 54.7925C38.9833 55.4137 42.2208 55.0948 45.163 53.8761C48.1052 52.6573 50.6199 50.5935 52.3891 47.9456C54.1584 45.2977 55.1027 42.1846 55.1027 39C55.0979 34.7309 53.3998 30.638 50.3809 27.6193C47.3621 24.6007 43.2691 22.9028 39 22.8982ZM46.8359 27.8122C46.3908 28.1239 45.9275 28.4088 45.4484 28.6653C45.0944 27.8575 44.6677 27.0836 44.1734 26.3532C45.1124 26.739 46.0054 27.2284 46.8359 27.8122ZM39 25.5051C40.4799 25.5051 42.0469 27.0285 43.2054 29.6199C40.4718 30.5054 37.5284 30.5054 34.7948 29.6199C35.9531 27.0279 37.5203 25.5051 39 25.5051ZM39 32.7213C40.7104 32.7206 42.4098 32.4473 44.0342 31.9118C44.5699 33.8251 44.8758 35.7955 44.9452 37.7813H33.0549C33.1243 35.7953 33.4301 33.8248 33.9659 31.9113C35.5903 32.4469 37.2896 32.7203 39 32.7213ZM44.9452 40.2188C44.8797 42.0292 44.6211 43.8274 44.1737 45.5829C40.819 44.4416 37.1811 44.4416 33.8264 45.5829C33.379 43.8274 33.1204 42.0292 33.0549 40.2188H44.9452ZM33.8267 26.3536C33.3325 27.0839 32.9058 27.8576 32.5519 28.6652C32.0726 28.4087 31.6091 28.1238 31.1639 27.812C31.9945 27.2284 32.8876 26.7392 33.8267 26.3536ZM29.2535 29.4328C30.0218 30.0171 30.8411 30.5309 31.7017 30.9681C31.0525 33.1841 30.6869 35.4734 30.6136 37.7813H25.3907C25.6714 34.6348 27.0369 31.6836 29.2535 29.4328ZM25.3907 40.2188H30.6136C30.6842 42.3588 31.0025 44.4835 31.5624 46.5503C30.6388 47.03 29.7639 47.5983 28.9502 48.2473C26.9095 46.0377 25.6579 43.2146 25.3907 40.2188ZM30.7855 49.9124C31.2861 49.5353 31.8122 49.1931 32.3599 48.8883C32.7515 49.856 33.2431 50.7802 33.8267 51.6458C32.7429 51.2007 31.7207 50.6181 30.7855 49.9124ZM39 52.4949C37.4308 52.4949 35.7625 50.7823 34.589 47.8979C37.4484 46.9199 40.5517 46.9199 43.4111 47.8979C42.2376 50.7823 40.5691 52.4949 39 52.4949ZM44.1734 51.6464C44.7571 50.7809 45.2486 49.8567 45.64 48.8889C46.1878 49.1937 46.7138 49.5359 47.2145 49.913C46.2793 50.6188 45.2573 51.2014 44.1734 51.6464ZM49.0499 48.2479C48.2362 47.5987 47.3613 47.0302 46.4376 46.5503C46.9975 44.4836 47.3159 42.3589 47.3864 40.2188H52.6095C52.3423 43.2146 51.0906 46.0383 49.0499 48.2479ZM47.3864 37.7813C47.3132 35.4735 46.9476 33.1844 46.2983 30.9687C47.1588 30.5314 47.9781 30.0174 48.7462 29.4328C50.9628 31.6836 52.3285 34.6347 52.6095 37.7813H47.3864ZM2.84106 21.4066H4.59301V24.614C4.59302 24.828 4.64933 25.0381 4.7563 25.2234C4.86327 25.4087 5.01713 25.5625 5.2024 25.6695C5.38767 25.7764 5.59783 25.8327 5.81177 25.8327C6.0257 25.8327 6.23586 25.7764 6.42113 25.6695L13.8046 21.4066H23.9719C24.7251 21.4056 25.4471 21.1059 25.9796 20.5733C26.5121 20.0406 26.8116 19.3185 26.8125 18.5654V3.82093C26.8116 3.0677 26.512 2.34556 25.9794 1.81294C25.4468 1.28032 24.7247 0.980722 23.9714 0.979875H2.84106C2.08782 0.980722 1.36568 1.28032 0.833062 1.81294C0.300444 2.34556 0.000846763 3.0677 0 3.82093V18.5654C0.000846687 19.3186 0.300439 20.0408 0.833052 20.5734C1.36567 21.1061 2.08781 21.4057 2.84106 21.4066ZM2.4375 3.82093C2.43888 3.71433 2.48184 3.61249 2.55723 3.5371C2.63261 3.46172 2.73446 3.41876 2.84106 3.41737H23.9711C24.0778 3.41868 24.1797 3.4616 24.2552 3.537C24.3306 3.61239 24.3736 3.71428 24.375 3.82093V18.5654C24.3736 18.672 24.3307 18.7739 24.2553 18.8493C24.1799 18.9247 24.078 18.9677 23.9714 18.9691H13.4777C13.2638 18.9691 13.0536 19.0254 12.8683 19.1324L7.03005 22.5032V20.1875C7.03005 19.8643 6.90165 19.5543 6.67309 19.3257C6.44453 19.0972 6.13454 18.9688 5.8113 18.9688H2.8406C2.73412 18.9672 2.63243 18.9242 2.55716 18.8489C2.48188 18.7736 2.43896 18.6719 2.4375 18.5654V3.82093ZM5.87331 11.1933C5.87331 10.8701 6.00171 10.5601 6.23027 10.3315C6.45883 10.103 6.76882 9.97455 7.09206 9.97455C7.3331 9.97455 7.56873 10.046 7.76916 10.18C7.96958 10.3139 8.12579 10.5042 8.21803 10.7269C8.31028 10.9496 8.33441 11.1947 8.28739 11.4311C8.24036 11.6675 8.12429 11.8846 7.95384 12.0551C7.7834 12.2255 7.56624 12.3416 7.32982 12.3886C7.09341 12.4357 6.84836 12.4115 6.62566 12.3193C6.40296 12.227 6.21262 12.0708 6.0787 11.8704C5.94478 11.67 5.87331 11.4344 5.87331 11.1933ZM12.1875 11.1933C12.1875 10.8701 12.3159 10.5601 12.5445 10.3315C12.773 10.103 13.083 9.97455 13.4062 9.97455C13.6473 9.97455 13.8829 10.046 14.0833 10.18C14.2838 10.3139 14.44 10.5042 14.5322 10.7269C14.6245 10.9496 14.6486 11.1947 14.6016 11.4311C14.5546 11.6675 14.4385 11.8846 14.268 12.0551C14.0976 12.2255 13.8804 12.3416 13.644 12.3886C13.4076 12.4357 13.1625 12.4115 12.9398 12.3193C12.7172 12.227 12.5268 12.0708 12.3929 11.8704C12.259 11.67 12.1875 11.4344 12.1875 11.1933ZM18.5018 11.1933C18.5018 10.8701 18.6302 10.5601 18.8588 10.3315C19.0874 10.103 19.3974 9.97455 19.7206 9.97455C19.9616 9.97455 20.1973 10.046 20.3977 10.18C20.5981 10.3139 20.7543 10.5042 20.8466 10.7269C20.9388 10.9496 20.9629 11.1947 20.9159 11.4311C20.8689 11.6675 20.7528 11.8846 20.5824 12.0551C20.4119 12.2255 20.1948 12.3416 19.9584 12.3886C19.7219 12.4357 19.4769 12.4115 19.2542 12.3193C19.0315 12.227 18.8412 12.0708 18.7072 11.8704C18.5733 11.67 18.5018 11.4344 18.5018 11.1933ZM51.1875 57.5381V71.6494C51.1885 72.4284 51.4983 73.1751 52.0492 73.7259C52.6 74.2767 53.3468 74.5866 54.1257 74.5875H75.0617C75.8407 74.5866 76.5875 74.2767 77.1383 73.7259C77.6891 73.1751 77.999 72.4284 78 71.6494V57.5381C77.999 56.7591 77.6891 56.0124 77.1383 55.4616C76.5875 54.9108 75.8407 54.6009 75.0617 54.6H54.1257C53.3468 54.6009 52.6 54.9108 52.0492 55.4616C51.4983 56.0124 51.1885 56.7591 51.1875 57.5381ZM53.625 69.888V58.7491L59.1945 64.3185L53.625 69.888ZM54.8101 72.1503L60.9181 66.0422L62.7223 67.8464C63.2294 68.3521 63.9162 68.6361 64.6323 68.6361C65.3483 68.6361 66.0352 68.3521 66.5422 67.8464L68.3079 66.0806L74.3774 72.15L54.8101 72.1503ZM75.5625 58.8262V69.888L70.0315 64.357L75.5625 58.8262ZM73.9041 57.0375L64.8187 66.123C64.7689 66.1716 64.702 66.1988 64.6323 66.1988C64.5627 66.1988 64.4958 66.1716 64.446 66.123L55.3605 57.0375H73.9041ZM64.5937 0C61.0382 0 57.6282 1.41244 55.1141 3.9266C52.5999 6.44076 51.1875 9.85069 51.1875 13.4063C51.1875 16.9618 52.5999 20.3717 55.1141 22.8859C57.6282 25.4001 61.0382 26.8125 64.5937 26.8125C64.917 26.8125 65.227 26.6841 65.4555 26.4555C65.6841 26.227 65.8125 25.917 65.8125 25.5938C65.8125 25.2705 65.6841 24.9605 65.4555 24.732C65.227 24.5034 64.917 24.375 64.5937 24.375C62.157 24.3741 59.7899 23.5615 57.8664 22.0655C55.9429 20.5696 54.5726 18.4755 53.9717 16.114C53.3709 13.7524 53.5738 11.258 54.5485 9.0247C55.5231 6.79136 57.214 4.94632 59.354 3.78095C61.494 2.61557 63.9613 2.19627 66.3661 2.58926C68.771 2.98225 70.9764 4.16513 72.6341 5.9511C74.2919 7.73708 75.3074 10.0244 75.5205 12.4518C75.7335 14.8792 75.1318 17.3085 73.8105 19.3559C73.6503 19.6034 73.4143 19.7925 73.1378 19.8948C72.8613 19.9972 72.5591 20.0074 72.2763 19.9239C71.9935 19.8403 71.7454 19.6676 71.5688 19.4314C71.3923 19.1953 71.2969 18.9084 71.2969 18.6135V13.4151C71.2969 13.4122 71.2969 13.4093 71.2969 13.4063C71.2969 13.4032 71.2969 13.4003 71.2969 13.3974V13.2908C71.2969 13.2547 71.2946 13.219 71.2914 13.1841C71.2421 11.6699 70.6816 10.2169 69.7012 9.06187C68.7208 7.90682 67.3782 7.11773 65.8921 6.82311C64.406 6.52849 62.8639 6.74571 61.517 7.43938C60.17 8.13305 59.0977 9.26231 58.4745 10.6432C57.8512 12.0242 57.7139 13.5754 58.0849 15.0444C58.4558 16.5133 59.3132 17.8134 60.5173 18.7328C61.7215 19.6523 63.2014 20.137 64.7162 20.108C66.231 20.079 67.6913 19.538 68.8594 18.5731V18.6135C68.8594 19.4344 69.125 20.2332 69.6164 20.8907C70.1078 21.5483 70.7988 22.0292 71.5861 22.2616C72.3733 22.4941 73.2147 22.4657 73.9845 22.1806C74.7542 21.8955 75.4112 21.3691 75.8571 20.6799C77.164 18.6552 77.9011 16.3156 77.9908 13.9074C78.0805 11.4992 77.5195 9.11136 76.3668 6.99502C75.2141 4.87869 73.5124 3.11212 71.4406 1.88116C69.3688 0.650209 67.0036 0.000366488 64.5937 0ZM68.8594 13.4151C68.857 14.5456 68.406 15.629 67.6053 16.4272C66.8046 17.2254 65.7199 17.673 64.5893 17.6719C63.4588 17.6707 62.3749 17.2208 61.5759 16.4209C60.7769 15.6211 60.3281 14.5368 60.3281 13.4063C60.3281 12.2757 60.7769 11.1914 61.5759 10.3916C62.3749 9.59173 63.4588 9.1418 64.5893 9.14063C65.7199 9.13946 66.8046 9.58714 67.6053 10.3853C68.406 11.1835 68.857 12.2669 68.8594 13.3974V13.4151ZM11.1113 57.1062L8.87326 52.6643C8.62028 52.1614 8.21543 51.7509 7.71608 51.4909C7.21673 51.231 6.64823 51.1348 6.09116 51.216L4.07687 51.5074C3.68359 51.5624 3.30789 51.7059 2.97801 51.927C2.13438 52.4891 1.43272 53.2393 0.928249 54.1187C0.423782 54.998 0.130279 55.9824 0.0708398 56.9944C-0.0639558 58.3115 -0.00141538 59.6414 0.256394 60.9401C0.519652 62.269 0.937423 63.5625 1.50119 64.7944C3.92483 69.9362 8.06262 74.074 13.2044 76.4977C14.4362 77.0617 15.7298 77.4795 17.0587 77.7427C17.9216 77.9113 18.7987 77.9974 19.6779 78C20.1211 78.0003 20.5639 77.9768 21.0045 77.9295C22.0167 77.8698 23.0011 77.5762 23.8806 77.0717C24.76 76.5671 25.5104 75.8655 26.0727 75.0218C26.2934 74.6921 26.4366 74.3168 26.4918 73.9239L26.784 71.9088C26.8652 71.3518 26.769 70.7833 26.509 70.284C26.2491 69.7847 25.8386 69.3799 25.3357 69.1269L20.8938 66.8887C20.339 66.6106 19.7051 66.5329 19.0996 66.6687C18.494 66.8044 17.954 67.1453 17.571 67.6336L16.3553 69.1903C13.217 67.9244 10.0757 64.7833 8.80988 61.645L10.3667 60.4291C10.855 60.0461 11.1958 59.506 11.3315 58.9004C11.4672 58.2949 11.3894 57.661 11.1113 57.1062ZM8.86625 58.5078L7.00979 59.9575C6.69084 60.2061 6.45858 60.5492 6.34614 60.9376C6.2337 61.3261 6.24683 61.7402 6.38366 62.1208C7.83671 66.1693 11.8296 70.1622 15.8779 71.6151C16.2586 71.7522 16.6728 71.7655 17.0615 71.6531C17.4502 71.5407 17.7935 71.3083 18.0422 70.9891L19.4921 69.1327C19.5265 69.087 19.5761 69.0551 19.6319 69.0426C19.6877 69.0301 19.7461 69.0378 19.7968 69.0644L24.2386 71.3024C24.286 71.3241 24.3248 71.361 24.3489 71.4073C24.373 71.4536 24.381 71.5065 24.3716 71.5578L24.0794 73.5729C24.0755 73.6092 24.0623 73.6439 24.0411 73.6736C23.6877 74.2037 23.2158 74.6442 22.6628 74.9604C22.1097 75.2766 21.4907 75.4597 20.8546 75.4953C20.8223 75.497 20.7891 75.4999 20.748 75.5042C19.6701 75.6138 18.5819 75.5616 17.5195 75.3492C16.3777 75.1221 15.2665 74.7621 14.2083 74.2767C9.60707 72.0974 5.90211 68.3924 3.72282 63.7911C3.23757 62.7331 2.87778 61.622 2.65078 60.4805C2.43841 59.4184 2.38604 58.3306 2.49539 57.2531C2.49905 57.2194 2.50209 57.185 2.50438 57.1464C2.53982 56.5102 2.72292 55.891 3.03917 55.3378C3.35542 54.7846 3.79614 54.3126 4.32641 53.9592C4.35612 53.938 4.39081 53.9249 4.42711 53.921L6.44185 53.6288C6.45557 53.6268 6.46942 53.6257 6.48329 53.6258C6.52832 53.6252 6.57253 53.6378 6.61053 53.662C6.64853 53.6861 6.67869 53.7208 6.69733 53.7618L8.93526 58.2034C8.96177 58.2541 8.9694 58.3126 8.95678 58.3684C8.94417 58.4242 8.91199 58.4734 8.86625 58.5078ZM11.7771 51.8054V26.231C11.7771 25.9078 11.9055 25.5978 12.134 25.3692C12.3626 25.1407 12.6726 25.0123 12.9958 25.0123C13.3191 25.0123 13.6291 25.1407 13.8576 25.3692C14.0862 25.5978 14.2146 25.9078 14.2146 26.231V51.8057C14.2146 52.1289 14.0862 52.4389 13.8576 52.6675C13.6291 52.8961 13.3191 53.0245 12.9958 53.0245C12.6726 53.0245 12.3626 52.8961 12.134 52.6675C11.9055 52.4389 11.7771 52.1286 11.7771 51.8054ZM26.1407 66.2238C25.8174 66.2238 25.5074 66.0954 25.2789 65.8669C25.0503 65.6383 24.9219 65.3283 24.9219 65.0051C24.9219 64.6818 25.0503 64.3719 25.2789 64.1433C25.5074 63.9147 25.8174 63.7863 26.1407 63.7863H46.9219C47.2451 63.7863 47.5551 63.9147 47.7836 64.1433C48.0122 64.3719 48.1406 64.6818 48.1406 65.0051C48.1406 65.3283 48.0122 65.6383 47.7836 65.8669C47.5551 66.0954 47.2451 66.2238 46.9219 66.2238H26.1407ZM65.0051 52.891C64.6818 52.891 64.3718 52.7626 64.1433 52.534C63.9147 52.3055 63.7863 51.9955 63.7863 51.6723V31.0781C63.7863 30.7549 63.9147 30.4449 64.1433 30.2163C64.3718 29.9878 64.6818 29.8594 65.0051 29.8594C65.3283 29.8594 65.6383 29.9878 65.8668 30.2163C66.0954 30.4449 66.2238 30.7549 66.2238 31.0781V51.6723C66.2238 51.9955 66.0954 52.3055 65.8668 52.534C65.6383 52.7626 65.3283 52.891 65.0051 52.891ZM31.0781 14.2146C30.7549 14.2146 30.4449 14.0862 30.2163 13.8576C29.9878 13.6291 29.8594 13.3191 29.8594 12.9958C29.8594 12.6726 29.9878 12.3626 30.2163 12.134C30.4449 11.9055 30.7549 11.7771 31.0781 11.7771H46.9266C47.2498 11.7771 47.5598 11.9055 47.7884 12.134C48.0169 12.3626 48.1453 12.6726 48.1453 12.9958C48.1453 13.3191 48.0169 13.6291 47.7884 13.8576C47.5598 14.0862 47.2498 14.2146 46.9266 14.2146H31.0781Z" fill="#3147FF"/>
</g>
<defs>
<clipPath id="clip0_7_2">
<rect width="78" height="78" fill="white"/>
</clipPath>
</defs>
</svg>
