<svg width="73" height="74" viewBox="0 0 73 74" fill="none" xmlns="http://www.w3.org/2000/svg">
<g clip-path="url(#clip0_793_87)">
<path d="M25.6615 39.4281C25.5907 39.6896 25.574 39.9628 25.6124 40.231C25.6507 40.4992 25.7434 40.7567 25.8847 40.9879L27.374 43.4541C27.6603 43.9144 28.1118 44.2476 28.636 44.3854C29.1602 44.5232 29.7173 44.4552 30.1929 44.1953L30.6276 43.9548C31.1861 44.3561 31.7886 44.6924 32.4233 44.9573V45.3608C32.4294 45.9084 32.6524 46.4312 33.0434 46.8147C33.4344 47.1981 33.9615 47.4108 34.5092 47.4062H37.49C38.0366 47.4096 38.5624 47.1965 38.9523 46.8134C39.3423 46.4304 39.5648 45.9085 39.5712 45.3619V44.9584C40.2058 44.6934 40.8083 44.3571 41.3669 43.9559L41.8016 44.1964C42.277 44.4561 42.8337 44.5241 43.3576 44.3865C43.8815 44.2489 44.333 43.9162 44.6194 43.4564L46.111 40.989C46.2518 40.7577 46.3442 40.5001 46.3823 40.2319C46.4205 39.9638 46.4037 39.6907 46.333 39.4292C46.2601 39.1628 46.1345 38.9138 45.9637 38.6967C45.7929 38.4796 45.5804 38.299 45.3386 38.1655L44.9582 37.9562C45.0322 37.3208 45.0322 36.6791 44.9582 36.0437L45.3386 35.8345C45.5804 35.7009 45.7929 35.5203 45.9637 35.3032C46.1345 35.0861 46.2601 34.8371 46.333 34.5707C46.4038 34.3092 46.4205 34.036 46.3822 33.7678C46.3438 33.4996 46.2511 33.242 46.1098 33.0109L44.6252 30.5446C44.3391 30.0842 43.8875 29.7508 43.3633 29.6129C42.839 29.4751 42.2818 29.5433 41.8063 29.8035L41.3715 30.044C40.813 29.6426 40.2106 29.3063 39.5759 29.0415V28.638C39.5695 28.0905 39.3463 27.568 38.9553 27.1848C38.5643 26.8016 38.0374 26.5891 37.49 26.5937H34.5092C33.9625 26.5903 33.4368 26.8034 33.0468 27.1865C32.6568 27.5695 32.4343 28.0914 32.4279 28.638V29.0415C31.7933 29.3065 31.1909 29.6428 30.6323 30.044L30.1975 29.8035C29.7221 29.5438 29.1654 29.4758 28.6415 29.6134C28.1176 29.751 27.6662 30.0837 27.3797 30.5435L25.8882 33.0109C25.7473 33.2422 25.655 33.4998 25.6168 33.768C25.5787 34.0361 25.5955 34.3092 25.6662 34.5707C25.7391 34.8371 25.8647 35.0861 26.0354 35.3032C26.2062 35.5203 26.4188 35.7009 26.6605 35.8345L27.041 36.0437C26.967 36.6791 26.967 37.3208 27.041 37.9562L26.6605 38.1655C26.418 38.2984 26.2047 38.4786 26.0331 38.6955C25.8615 38.9124 25.7351 39.1615 25.6615 39.4281ZM29.2933 37C29.2931 36.7144 29.314 36.4292 29.3558 36.1466C29.4116 35.7411 29.3418 35.3281 29.1557 34.9634C28.9696 34.5988 28.6763 34.2999 28.3151 34.107L28.0249 33.9463L29.2471 31.9217L29.6217 32.1287C29.9818 32.3224 30.3897 32.4096 30.7975 32.3801C31.2054 32.3507 31.5964 32.2057 31.925 31.9622C32.3827 31.6262 32.8811 31.3495 33.4084 31.1389C33.7958 30.9914 34.1298 30.7309 34.3672 30.391C34.6045 30.0512 34.7342 29.6479 34.7393 29.2334V28.9062H37.2668V29.2334C37.2719 29.6479 37.4016 30.0512 37.6389 30.391C37.8763 30.7309 38.2103 30.9914 38.5977 31.1389C39.1255 31.3497 39.6244 31.6267 40.0823 31.9633C40.4105 32.2071 40.8015 32.3521 41.2093 32.3814C41.617 32.4107 42.0247 32.323 42.3844 32.1287L42.759 31.9217L43.9777 33.9463L43.6886 34.1059C43.3268 34.2991 43.033 34.5988 42.8469 34.9643C42.6608 35.3299 42.5914 35.7438 42.648 36.1501C42.6878 36.4316 42.7071 36.7156 42.7058 37C42.706 37.2855 42.6852 37.5707 42.6434 37.8533C42.5876 38.2588 42.6574 38.6718 42.8434 39.0365C43.0295 39.4012 43.3229 39.7 43.684 39.8929L43.9742 40.0536L42.7521 42.0782L42.3775 41.8712C42.0172 41.6778 41.6095 41.5907 41.2017 41.6202C40.7939 41.6497 40.4028 41.7945 40.0742 42.0377C39.6165 42.3737 39.118 42.6504 38.5907 42.861C38.2034 43.0085 37.8693 43.269 37.632 43.6089C37.3946 43.9487 37.265 44.352 37.2599 44.7665V45.0937H34.7358V44.7665C34.7307 44.352 34.601 43.9487 34.3637 43.6089C34.1264 43.269 33.7923 43.0085 33.405 42.861C32.8771 42.6502 32.3783 42.3732 31.9203 42.0366C31.5918 41.7936 31.2009 41.6491 30.7933 41.6198C30.3857 41.5905 29.9782 41.6777 29.6182 41.8712L29.2436 42.0782L28.0215 40.0536L28.3105 39.894C28.6724 39.7008 28.9662 39.4011 29.1523 39.0356C29.3384 38.67 29.4078 38.2561 29.3511 37.8498C29.3114 37.5683 29.292 37.2843 29.2933 37Z" fill="#3147FF"/>
<path d="M36 41.625C36.9147 41.625 37.8089 41.3538 38.5695 40.8455C39.3301 40.3373 39.9229 39.615 40.2729 38.7699C40.623 37.9248 40.7146 36.9949 40.5361 36.0977C40.3577 35.2005 39.9172 34.3765 39.2704 33.7296C38.6235 33.0828 37.7995 32.6423 36.9023 32.4639C36.0051 32.2854 35.0752 32.377 34.2301 32.7271C33.385 33.0771 32.6627 33.6699 32.1545 34.4305C31.6463 35.1911 31.375 36.0853 31.375 37C31.375 38.2266 31.8623 39.403 32.7296 40.2704C33.597 41.1377 34.7734 41.625 36 41.625ZM36 34.6875C36.4574 34.6875 36.9045 34.8231 37.2848 35.0772C37.665 35.3313 37.9614 35.6925 38.1365 36.115C38.3115 36.5376 38.3573 37.0026 38.2681 37.4512C38.1788 37.8997 37.9586 38.3118 37.6352 38.6352C37.3118 38.9586 36.8997 39.1788 36.4511 39.2681C36.0026 39.3573 35.5376 39.3115 35.115 39.1365C34.6925 38.9614 34.3313 38.665 34.0772 38.2848C33.8231 37.9045 33.6875 37.4574 33.6875 37C33.6875 36.3867 33.9311 35.7985 34.3648 35.3648C34.7985 34.9311 35.3867 34.6875 36 34.6875Z" fill="#3147FF"/>
<path d="M36 19.6563C37.8295 19.6563 39.6179 19.1138 41.139 18.0973C42.6602 17.0809 43.8458 15.6363 44.5459 13.9461C45.246 12.2559 45.4292 10.396 45.0723 8.60167C44.7154 6.80734 43.8344 5.15915 42.5407 3.86552C41.2471 2.57188 39.5989 1.6909 37.8046 1.33399C36.0103 0.977077 34.1504 1.16026 32.4602 1.86037C30.77 2.56048 29.3253 3.74607 28.3089 5.26723C27.2925 6.78838 26.75 8.57678 26.75 10.4063C26.7528 12.8587 27.7282 15.2098 29.4623 16.944C31.1964 18.6781 33.5476 19.6535 36 19.6563ZM36 3.46875C37.3721 3.46875 38.7134 3.87563 39.8543 4.63793C40.9951 5.40024 41.8843 6.48373 42.4094 7.75139C42.9345 9.01905 43.0719 10.4139 42.8042 11.7597C42.5365 13.1054 41.8758 14.3416 40.9056 15.3118C39.9353 16.282 38.6992 16.9428 37.3534 17.2105C36.0077 17.4781 34.6128 17.3408 33.3451 16.8157C32.0775 16.2906 30.994 15.4014 30.2317 14.2605C29.4694 13.1197 29.0625 11.7784 29.0625 10.4063C29.0643 8.56688 29.7958 6.80337 31.0965 5.50273C32.3971 4.20209 34.1606 3.47059 36 3.46875Z" fill="#3147FF"/>
<path d="M71.8438 37C71.8438 35.1705 71.3013 33.3821 70.2848 31.861C69.2684 30.3398 67.8238 29.1542 66.1336 28.4541C64.4434 27.754 62.5835 27.5708 60.7892 27.9277C58.9948 28.2847 57.3467 29.1656 56.053 30.4593C54.7594 31.7529 53.8784 33.4011 53.5215 35.1954C53.1646 36.9897 53.3478 38.8496 54.0479 40.5398C54.748 42.23 55.9336 43.6747 57.4547 44.6911C58.9759 45.7075 60.7643 46.25 62.5938 46.25C65.0462 46.2472 67.3973 45.2718 69.1315 43.5377C70.8656 41.8036 71.841 39.4524 71.8438 37ZM62.5938 43.9375C61.2216 43.9375 59.8804 43.5306 58.7395 42.7683C57.5986 42.006 56.7094 40.9225 56.1843 39.6549C55.6593 38.3872 55.5219 36.9923 55.7896 35.6466C56.0572 34.3008 56.718 33.0647 57.6882 32.0945C58.6584 31.1242 59.8946 30.4635 61.2403 30.1958C62.5861 29.9281 63.981 30.0655 65.2486 30.5906C66.5163 31.1157 67.5998 32.0049 68.3621 33.1457C69.1244 34.2866 69.5313 35.6279 69.5313 37C69.5294 38.8394 68.7979 40.6029 67.4973 41.9035C66.1966 43.2042 64.4331 43.9357 62.5938 43.9375Z" fill="#3147FF"/>
<path d="M9.40625 46.25C11.2357 46.25 13.0241 45.7075 14.5453 44.6911C16.0664 43.6747 17.252 42.23 17.9521 40.5398C18.6522 38.8496 18.8354 36.9897 18.4785 35.1954C18.1216 33.4011 17.2406 31.7529 15.947 30.4593C14.6534 29.1656 13.0052 28.2847 11.2108 27.9277C9.41651 27.5708 7.55664 27.754 5.86643 28.4541C4.17621 29.1542 2.73156 30.3398 1.71516 31.861C0.698753 33.3821 0.15625 35.1705 0.15625 37C0.159004 39.4524 1.13444 41.8036 2.86855 43.5377C4.60267 45.2718 6.95384 46.2472 9.40625 46.25ZM9.40625 30.0625C10.7784 30.0625 12.1197 30.4694 13.2605 31.2317C14.4014 31.994 15.2906 33.0775 15.8157 34.3451C16.3407 35.6128 16.4781 37.0077 16.2104 38.3534C15.9428 39.6992 15.282 40.9353 14.3118 41.9056C13.3416 42.8758 12.1054 43.5365 10.7597 43.8042C9.41395 44.0719 8.01905 43.9345 6.75138 43.4094C5.48372 42.8843 4.40023 41.9951 3.63793 40.8543C2.87563 39.7134 2.46875 38.3721 2.46875 37C2.47059 35.1606 3.20209 33.3971 4.50273 32.0965C5.80336 30.7958 7.56687 30.0643 9.40625 30.0625Z" fill="#3147FF"/>
<path d="M45.25 63.5938C45.25 61.7643 44.7075 59.9759 43.6911 58.4547C42.6747 56.9336 41.23 55.748 39.5398 55.0479C37.8496 54.3478 35.9897 54.1646 34.1954 54.5215C32.4011 54.8784 30.7529 55.7594 29.4593 57.053C28.1656 58.3467 27.2847 59.9948 26.9277 61.7892C26.5708 63.5835 26.754 65.4434 27.4541 67.1336C28.1542 68.8238 29.3398 70.2684 30.861 71.2848C32.3821 72.3013 34.1705 72.8438 36 72.8438C38.4524 72.841 40.8036 71.8656 42.5377 70.1315C44.2718 68.3973 45.2472 66.0462 45.25 63.5938ZM29.0625 63.5938C29.0625 62.2216 29.4694 60.8804 30.2317 59.7395C30.994 58.5986 32.0775 57.7094 33.3451 57.1843C34.6128 56.6593 36.0077 56.5219 37.3534 56.7896C38.6992 57.0572 39.9353 57.718 40.9056 58.6882C41.8758 59.6584 42.5365 60.8946 42.8042 62.2403C43.0719 63.5861 42.9345 64.981 42.4094 66.2486C41.8843 67.5163 40.9951 68.5998 39.8543 69.3621C38.7134 70.1244 37.3721 70.5313 36 70.5313C34.1606 70.5294 32.3971 69.7979 31.0965 68.4973C29.7958 67.1966 29.0643 65.4331 29.0625 63.5938Z" fill="#3147FF"/>
<path d="M8.25 16.1875C8.25184 14.6547 8.86152 13.1853 9.94532 12.1015C11.0291 11.0177 12.4985 10.408 14.0312 10.4062H18.6562L16.8062 11.7937L18.1938 13.6437L22.8188 10.175C22.9624 10.0673 23.0789 9.9276 23.1592 9.76704C23.2395 9.60649 23.2812 9.42946 23.2812 9.24995C23.2812 9.07045 23.2395 8.89341 23.1592 8.73286C23.0789 8.57231 22.9624 8.43265 22.8188 8.32495L18.1938 4.8562L16.8062 6.7062L18.6562 8.0937H14.0312C11.8854 8.09615 9.82815 8.94967 8.31081 10.467C6.79347 11.9844 5.93995 14.0416 5.9375 16.1875V24.2812H8.25V16.1875Z" fill="#3147FF"/>
<path d="M63.75 16.1875V19.6562L62.3625 17.8062L60.5125 19.1938L63.9813 23.8188C64.089 23.9624 64.2286 24.0789 64.3892 24.1592C64.5497 24.2395 64.7268 24.2812 64.9063 24.2812C65.0858 24.2812 65.2628 24.2395 65.4233 24.1592C65.5839 24.0789 65.7236 23.9624 65.8313 23.8188L69.3 19.1938L67.45 17.8062L66.0625 19.6562V16.1875C66.0601 14.0417 65.2065 11.9844 63.6892 10.4671C62.1719 8.94972 60.1146 8.0962 57.9688 8.09375H48.7188V10.4062H57.9688C59.5015 10.4081 60.9709 11.0178 62.0547 12.1016C63.1385 13.1854 63.7482 14.6548 63.75 16.1875Z" fill="#3147FF"/>
<path d="M53.8063 69.1438L55.1937 67.2938L53.3438 65.9063H57.9688C60.1146 65.9038 62.1719 65.0503 63.6892 63.533C65.2065 62.0156 66.0601 59.9584 66.0625 57.8125V49.7188H63.75V57.8125C63.7482 59.3452 63.1385 60.8146 62.0547 61.8984C60.9709 62.9822 59.5015 63.5919 57.9688 63.5938H53.3438L55.1937 62.2063L53.8063 60.3563L49.1813 63.825C49.0377 63.9327 48.9211 64.0724 48.8408 64.2329C48.7605 64.3935 48.7188 64.5705 48.7188 64.75C48.7188 64.9295 48.7605 65.1065 48.8408 65.2671C48.9211 65.4276 49.0377 65.5673 49.1813 65.675L53.8063 69.1438Z" fill="#3147FF"/>
<path d="M9.6377 56.1938L11.4877 54.8063L8.01895 50.1813C7.90657 50.0447 7.76535 49.9347 7.60541 49.8592C7.44548 49.7837 7.27081 49.7445 7.09395 49.7445C6.91708 49.7445 6.74241 49.7837 6.58248 49.8592C6.42255 49.9347 6.28132 50.0447 6.16895 50.1813L2.7002 54.8063L4.5502 56.1938L5.9377 54.3438V57.8125C5.94015 59.9584 6.79366 62.0156 8.31101 63.533C9.82835 65.0503 11.8856 65.9038 14.0315 65.9063H23.2815V63.5938H14.0315C12.4987 63.5919 11.0293 62.9823 9.94552 61.8985C8.86172 60.8147 8.25203 59.3452 8.2502 57.8125V54.3438L9.6377 56.1938Z" fill="#3147FF"/>
<path d="M34.8438 9.25H37.1562V11.5625H34.8438V9.25Z" fill="#3147FF"/>
<path d="M59.125 35.8438H61.4375V38.1562H59.125V35.8438Z" fill="#3147FF"/>
<path d="M63.75 35.8438H66.0625V38.1562H63.75V35.8438Z" fill="#3147FF"/>
<path d="M32.5312 64.75H34.8438V67.0625H32.5312V64.75Z" fill="#3147FF"/>
<path d="M37.1562 64.75H39.4688V67.0625H37.1562V64.75Z" fill="#3147FF"/>
<path d="M34.8438 60.125H37.1562V62.4375H34.8438V60.125Z" fill="#3147FF"/>
<path d="M5.9375 38.1562H8.25V40.4688H5.9375V38.1562Z" fill="#3147FF"/>
<path d="M10.5625 38.1562H12.875V40.4688H10.5625V38.1562Z" fill="#3147FF"/>
<path d="M5.9375 33.5312H8.25V35.8438H5.9375V33.5312Z" fill="#3147FF"/>
<path d="M10.5625 33.5312H12.875V35.8438H10.5625V33.5312Z" fill="#3147FF"/>
</g>
<defs>
<clipPath id="clip0_793_87">
<rect width="73" height="74" fill="white"/>
</clipPath>
</defs>
</svg>
