<svg width="76" height="76" viewBox="0 0 76 76" fill="none" xmlns="http://www.w3.org/2000/svg">
<g clip-path="url(#clip0_793_75)">
<path d="M74.8125 38C74.8124 45.2807 72.6533 52.3979 68.6083 58.4515C64.5633 64.5052 58.814 69.2234 52.0875 72.0096C45.361 74.7958 37.9593 75.5248 30.8185 74.1044C23.6777 72.6841 17.1184 69.1781 11.97 64.03C5.88832 57.9475 2.12804 49.9277 1.34173 41.3624C0.555418 32.797 2.79271 24.2267 7.66536 17.1386C7.75237 17.0067 7.86482 16.8936 7.99611 16.8057C8.1274 16.7179 8.27489 16.6571 8.42996 16.627C8.58502 16.5969 8.74454 16.598 8.89917 16.6303C9.05381 16.6626 9.20044 16.7254 9.33049 16.815C9.46054 16.9047 9.5714 17.0194 9.65657 17.1525C9.74174 17.2855 9.7995 17.4342 9.82649 17.5898C9.85348 17.7455 9.84914 17.9049 9.81373 18.0589C9.77832 18.2128 9.71255 18.3582 9.62028 18.4864C4.7544 25.5638 2.70862 34.204 3.88427 42.7119C5.05993 51.2199 9.37217 58.9815 15.975 64.4741C22.5779 69.9668 30.9948 72.7941 39.5746 72.4013C48.1544 72.0085 56.2778 68.4241 62.3512 62.3511C68.3969 56.3036 71.9766 48.2232 72.3937 39.6822C72.8109 31.1411 70.0356 22.7504 64.608 16.1425C59.1804 9.53458 51.4886 5.18221 43.0292 3.93221C34.5699 2.68222 25.948 4.624 18.8412 9.37974L20.7204 11.6152L12.5593 13.0625L15.3856 5.27099L17.3049 7.55396C22.8388 3.79278 29.2932 1.61095 35.9743 1.24302C42.6553 0.875097 49.3102 2.33498 55.2237 5.46574C61.1372 8.5965 66.0856 13.2797 69.537 19.012C72.9884 24.7443 74.8123 31.3088 74.8125 38Z" fill="#3147FF"/>
<path d="M38 67.6874C54.3697 67.6874 67.6875 54.3696 67.6875 37.9999C67.6875 21.6303 54.3697 8.31244 38 8.31244C21.6303 8.31244 8.3125 21.6303 8.3125 37.9999C8.3125 54.3696 21.6303 67.6874 38 67.6874ZM38 10.6874C53.0602 10.6874 65.3125 22.9398 65.3125 37.9999C65.3125 53.0601 53.0602 65.3124 38 65.3124C22.9398 65.3124 10.6875 53.0601 10.6875 37.9999C10.6875 22.9398 22.9398 10.6874 38 10.6874Z" fill="#3147FF"/>
<path d="M38 15.4375C38.3149 15.4375 38.617 15.3124 38.8397 15.0897C39.0624 14.867 39.1875 14.5649 39.1875 14.25V13.0625C39.1875 12.7476 39.0624 12.4455 38.8397 12.2228C38.617 12.0001 38.3149 11.875 38 11.875C37.6851 11.875 37.383 12.0001 37.1603 12.2228C36.9376 12.4455 36.8125 12.7476 36.8125 13.0625V14.25C36.8125 14.5649 36.9376 14.867 37.1603 15.0897C37.383 15.3124 37.6851 15.4375 38 15.4375Z" fill="#3147FF"/>
<path d="M38 60.5624C37.6851 60.5624 37.383 60.6875 37.1603 60.9102C36.9376 61.1329 36.8125 61.435 36.8125 61.7499V62.9374C36.8125 63.2524 36.9376 63.5544 37.1603 63.7771C37.383 63.9998 37.6851 64.1249 38 64.1249C38.3149 64.1249 38.617 63.9998 38.8397 63.7771C39.0624 63.5544 39.1875 63.2524 39.1875 62.9374V61.7499C39.1875 61.435 39.0624 61.1329 38.8397 60.9102C38.617 60.6875 38.3149 60.5624 38 60.5624Z" fill="#3147FF"/>
<path d="M61.75 39.1875H62.9375C63.2524 39.1875 63.5545 39.0624 63.7772 38.8397C63.9999 38.617 64.125 38.3149 64.125 38C64.125 37.6851 63.9999 37.383 63.7772 37.1603C63.5545 36.9376 63.2524 36.8125 62.9375 36.8125H61.75C61.4351 36.8125 61.133 36.9376 60.9103 37.1603C60.6876 37.383 60.5625 37.6851 60.5625 38C60.5625 38.3149 60.6876 38.617 60.9103 38.8397C61.133 39.0624 61.4351 39.1875 61.75 39.1875Z" fill="#3147FF"/>
<path d="M13.0625 39.1875H14.25C14.5649 39.1875 14.867 39.0624 15.0897 38.8397C15.3124 38.617 15.4375 38.3149 15.4375 38C15.4375 37.6851 15.3124 37.383 15.0897 37.1603C14.867 36.9376 14.5649 36.8125 14.25 36.8125H13.0625C12.7476 36.8125 12.4455 36.9376 12.2228 37.1603C12.0001 37.383 11.875 37.6851 11.875 38C11.875 38.3149 12.0001 38.617 12.2228 38.8397C12.4455 39.0624 12.7476 39.1875 13.0625 39.1875Z" fill="#3147FF"/>
<path d="M54.7935 22.3937C54.9495 22.3939 55.1039 22.3632 55.248 22.3036C55.3921 22.2439 55.5229 22.1563 55.6331 22.0459L56.4728 21.2062C56.5851 21.0964 56.6745 20.9654 56.7358 20.8208C56.7972 20.6762 56.8292 20.5209 56.8301 20.3638C56.831 20.2067 56.8007 20.0511 56.741 19.9058C56.6813 19.7605 56.5934 19.6285 56.4824 19.5174C56.3713 19.4064 56.2393 19.3184 56.0941 19.2587C55.9488 19.199 55.7931 19.1687 55.6361 19.1696C55.479 19.1704 55.3237 19.2025 55.1791 19.2638C55.0345 19.3251 54.9035 19.4145 54.7936 19.5267L53.9538 20.3665C53.7877 20.5325 53.6746 20.7441 53.6288 20.9745C53.583 21.2048 53.6065 21.4436 53.6964 21.6606C53.7862 21.8776 53.9384 22.0631 54.1337 22.1935C54.329 22.324 54.5586 22.3937 54.7935 22.3937Z" fill="#3147FF"/>
<path d="M20.3667 56.8209C20.5227 56.8212 20.6772 56.7905 20.8213 56.7309C20.9654 56.6712 21.0963 56.5836 21.2065 56.4731L22.0463 55.6334C22.1566 55.5232 22.2441 55.3922 22.3038 55.2481C22.3634 55.104 22.3942 54.9496 22.3942 54.7937C22.3942 54.6377 22.3634 54.4833 22.3038 54.3392C22.2441 54.1951 22.1566 54.0642 22.0463 53.9539C21.936 53.8436 21.8051 53.7561 21.661 53.6964C21.5169 53.6367 21.3625 53.606 21.2065 53.606C21.0506 53.606 20.8961 53.6367 20.752 53.6964C20.6079 53.7561 20.477 53.8436 20.3667 53.9539L19.527 54.7937C19.3609 54.9598 19.2478 55.1714 19.202 55.4018C19.1562 55.6321 19.1797 55.8709 19.2696 56.0879C19.3595 56.3049 19.5117 56.4903 19.707 56.6208C19.9023 56.7513 20.1319 56.8209 20.3667 56.8209Z" fill="#3147FF"/>
<path d="M55.6334 53.9539C55.5231 53.8436 55.3922 53.7561 55.2481 53.6964C55.104 53.6367 54.9496 53.606 54.7936 53.606C54.6376 53.606 54.4832 53.6367 54.3391 53.6964C54.195 53.7561 54.0641 53.8436 53.9538 53.9539C53.8435 54.0642 53.756 54.1951 53.6964 54.3392C53.6367 54.4833 53.606 54.6377 53.606 54.7937C53.606 54.9496 53.6367 55.1041 53.6964 55.2481C53.756 55.3922 53.8435 55.5232 53.9538 55.6334L54.7937 56.4732C55.0164 56.6959 55.3184 56.821 55.6334 56.821C55.9483 56.821 56.2504 56.6959 56.4731 56.4732C56.6958 56.2504 56.8209 55.9484 56.8209 55.6334C56.8209 55.3185 56.6958 55.0164 56.4731 54.7937L55.6334 53.9539Z" fill="#3147FF"/>
<path d="M20.3665 22.0459C20.4765 22.1572 20.6075 22.2457 20.7518 22.3063C20.8962 22.3669 21.0511 22.3983 21.2077 22.3988C21.3642 22.3992 21.5193 22.3687 21.664 22.309C21.8088 22.2493 21.9402 22.1616 22.0509 22.0509C22.1616 21.9402 22.2493 21.8087 22.309 21.664C22.3687 21.5193 22.3992 21.3642 22.3987 21.2076C22.3982 21.0511 22.3668 20.8961 22.3062 20.7518C22.2456 20.6074 22.1571 20.4765 22.0458 20.3665L21.2059 19.5267C21.0961 19.4145 20.9651 19.3251 20.8205 19.2638C20.6759 19.2025 20.5205 19.1704 20.3635 19.1696C20.2064 19.1687 20.0507 19.199 19.9055 19.2587C19.7602 19.3184 19.6282 19.4064 19.5172 19.5174C19.4061 19.6285 19.3182 19.7605 19.2585 19.9058C19.1988 20.0511 19.1686 20.2067 19.1695 20.3638C19.1703 20.5209 19.2024 20.6762 19.2637 20.8208C19.3251 20.9654 19.4145 21.0964 19.5268 21.2062L20.3665 22.0459Z" fill="#3147FF"/>
<path d="M20.4631 41.8806L30.629 52.0463C30.7393 52.1566 30.8702 52.2441 31.0143 52.3038C31.1584 52.3634 31.3128 52.3942 31.4687 52.3942C31.6247 52.3942 31.7791 52.3634 31.9232 52.3038C32.0673 52.2441 32.1982 52.1566 32.3084 52.0463L55.5368 28.8181C55.6471 28.7078 55.7346 28.5769 55.7943 28.4328C55.854 28.2887 55.8847 28.1343 55.8847 27.9783C55.8847 27.8223 55.854 27.6679 55.7943 27.5238C55.7346 27.3797 55.6471 27.2488 55.5368 27.1385L53.0177 24.6194C52.9074 24.5091 52.7765 24.4216 52.6324 24.3619C52.4883 24.3022 52.3339 24.2715 52.1779 24.2715C52.0219 24.2715 51.8675 24.3022 51.7234 24.3619C51.5793 24.4216 51.4484 24.5091 51.3381 24.6194L31.4687 44.4891L24.6618 37.6819C24.5516 37.5716 24.4206 37.4841 24.2766 37.4244C24.1325 37.3647 23.978 37.334 23.8221 37.334C23.6661 37.334 23.5116 37.3647 23.3676 37.4244C23.2235 37.4841 23.0925 37.5716 22.9823 37.6819L20.4631 40.201C20.3528 40.3113 20.2653 40.4422 20.2057 40.5863C20.146 40.7304 20.1152 40.8848 20.1152 41.0408C20.1152 41.1968 20.146 41.3512 20.2057 41.4953C20.2653 41.6394 20.3528 41.7703 20.4631 41.8806ZM23.822 40.201L30.629 47.0082C30.7393 47.1185 30.8702 47.206 31.0143 47.2656C31.1584 47.3253 31.3128 47.3561 31.4687 47.3561C31.6247 47.3561 31.7791 47.3253 31.9232 47.2656C32.0673 47.206 32.1982 47.1185 32.3084 47.0082L52.178 27.1385L53.0177 27.9782L31.4687 49.5272L22.9823 41.0407L23.822 40.201Z" fill="#3147FF"/>
</g>
<defs>
<clipPath id="clip0_793_75">
<rect width="76" height="76" fill="white"/>
</clipPath>
</defs>
</svg>
