<svg width="65" height="80" viewBox="0 0 65 80" fill="none" xmlns="http://www.w3.org/2000/svg">
<path d="M7.6043 24.0434H18.9886C18.7376 25.0015 18.5998 26.0121 18.5998 27.0572V28.268C18.5998 29.9808 19.909 31.3737 21.5184 31.3737H42.0591C43.6685 31.3737 44.9777 29.9808 44.9777 28.268V27.0572C44.9777 26.0121 44.8399 25.0015 44.5889 24.0434H55.9732C57.3103 24.0434 58.3981 22.8933 58.3981 21.4807V20.58C58.3981 16.357 55.5302 12.8461 51.7962 12.2145C52.4131 11.6698 52.9282 10.9594 53.3154 10.0898C54.5114 7.40907 54.1948 3.79149 52.6099 2.02453C51.4861 0.772735 50.1277 0.188672 48.3328 0.188672C46.5331 0.188672 45.1713 0.772735 44.0475 2.02453C42.4627 3.79149 42.146 7.40907 43.342 10.0882C43.7309 10.9577 44.246 11.6698 44.8645 12.2145C42.315 12.6541 40.0952 14.4621 38.996 16.9985C37.9444 16.4801 36.7976 16.152 35.5934 16.0535C36.6729 15.3152 37.5506 14.2275 38.1774 12.8264C39.7359 9.33516 39.3356 4.63805 37.2865 2.3543C35.8509 0.748125 34.1053 0 31.797 0C29.482 0 27.7331 0.748125 26.291 2.3543C24.2419 4.63805 23.8432 9.33516 25.4002 12.8248C26.0252 14.2275 26.9046 15.3152 27.9841 16.0535C26.7799 16.152 25.6331 16.4801 24.5815 16.9985C23.4806 14.4621 21.2625 12.6541 18.713 12.2145C19.3315 11.6698 19.8466 10.9577 20.2355 10.0882C21.4315 7.40743 21.1149 3.78985 19.53 2.02289C18.4062 0.771094 17.0477 0.187031 15.2529 0.187031C13.4531 0.187031 12.0914 0.771094 10.9676 2.02289C9.38274 3.78985 9.0661 7.40743 10.2621 10.0866C10.6493 10.9545 11.1645 11.6665 11.7813 12.2112C8.04563 12.8428 5.17945 16.3538 5.17945 20.5767V21.4774C5.17945 22.8933 6.26719 24.0434 7.6043 24.0434ZM43.0123 28.268C43.0123 28.8849 42.5775 29.4049 42.0624 29.4049H21.5217C21.0066 29.4049 20.5718 28.8849 20.5718 28.268V27.0572C20.5718 22.0566 24.2452 17.9862 28.7602 17.9862H34.8256C39.3406 17.9862 43.0139 22.0549 43.0139 27.0572V28.268H43.0123ZM45.5175 3.33867C46.2607 2.51016 47.104 2.15742 48.3377 2.15742C49.5649 2.15742 50.4066 2.51016 51.1498 3.33867C52.1046 4.4018 52.4656 7.17118 51.5222 9.28594C51.0694 10.3015 50.1474 11.5123 48.3345 11.5123C46.5199 11.5123 45.5979 10.3015 45.1451 9.2843C44.2017 7.17117 44.5643 4.4018 45.5175 3.33867ZM46.0753 14.0799H50.5903C53.8125 14.0799 56.4326 16.9952 56.4326 20.5784V21.4791C56.4326 21.8006 56.2242 22.073 55.9765 22.073H43.8818C43.132 20.4701 42.0328 19.092 40.6941 18.0567C41.6013 15.686 43.7325 14.0799 46.0753 14.0799ZM27.1983 12.0225C25.9711 9.27282 26.232 5.36813 27.7561 3.66844C28.8258 2.47734 30.0333 1.96875 31.797 1.96875C33.5524 1.96875 34.7566 2.47734 35.8263 3.66844C37.3505 5.36813 37.6113 9.27282 36.3842 12.0225C35.7345 13.4794 34.4105 15.2135 31.792 15.2135C29.1736 15.2152 27.848 13.4794 27.1983 12.0225ZM12.4327 3.33867C13.1759 2.51016 14.0191 2.15742 15.2529 2.15742C16.4801 2.15742 17.3217 2.51016 18.0649 3.33867C19.0198 4.4018 19.3807 7.17282 18.4373 9.28594C17.9845 10.3015 17.0625 11.5123 15.2496 11.5123C13.4351 11.5123 12.5131 10.3015 12.0602 9.28594C11.1169 7.17282 11.4795 4.4018 12.4327 3.33867ZM7.14821 20.5784C7.14821 16.9952 9.76993 14.0799 12.9905 14.0799H17.5055C19.8483 14.0799 21.9811 15.686 22.8867 18.0584C21.5463 19.0936 20.4488 20.4717 19.699 22.0746H7.6043C7.35656 22.0746 7.14821 21.8023 7.14821 21.4807V20.5784ZM35.7673 48.7906C36.1512 49.1745 36.1512 49.7979 35.7673 50.1835L32.7534 53.1973C32.5615 53.3892 32.3088 53.486 32.0578 53.486C31.8068 53.486 31.5541 53.3892 31.3622 53.1973L28.3484 50.1835C27.9645 49.7996 27.9645 49.1761 28.3484 48.7906C28.7323 48.4067 29.3557 48.4067 29.7413 48.7906L31.0751 50.1244V39.2159C31.0751 38.6728 31.5164 38.2315 32.0595 38.2315C32.6025 38.2315 33.0438 38.6728 33.0438 39.2159V50.1244L34.3777 48.7906C34.7599 48.4067 35.3834 48.4067 35.7673 48.7906ZM48.8824 43.1599C49.2663 43.5439 49.2663 44.1673 48.8824 44.5528L45.8686 47.5667C45.6849 47.7504 45.4338 47.8554 45.173 47.8554C44.9121 47.8554 44.6611 47.7521 44.4774 47.5667L41.4635 44.5528C41.0796 44.1689 41.0796 43.5455 41.4635 43.1599C41.8474 42.776 42.4709 42.776 42.8564 43.1599L44.1902 44.4938V38.4628C44.1902 37.9198 44.6316 37.4785 45.1746 37.4785C45.7177 37.4785 46.159 37.9198 46.159 38.4628V44.4938L47.4928 43.1599C47.8751 42.7744 48.4985 42.7744 48.8824 43.1599ZM22.6538 43.1599C23.0377 43.5439 23.0377 44.1673 22.6538 44.5528L19.6399 47.5667C19.4562 47.7504 19.2052 47.8554 18.9443 47.8554C18.6834 47.8554 18.4324 47.7521 18.2487 47.5667L15.2348 44.5528C14.8509 44.1689 14.8509 43.5455 15.2348 43.1599C15.6188 42.776 16.2422 42.776 16.6277 43.1599L17.9616 44.4938V38.4628C17.9616 37.9198 18.4029 37.4785 18.9459 37.4785C19.489 37.4785 19.9303 37.9198 19.9303 38.4628V44.4938L21.2641 43.1599C21.6464 42.7744 22.2682 42.7744 22.6538 43.1599ZM64.1156 42.4676V36.2185C64.1156 34.7419 62.9147 33.541 61.4381 33.541H2.6775C1.20094 33.541 0 34.7419 0 36.2185V42.4414C0 43.3552 0.436407 44.1689 1.1993 44.6742L27.131 61.845V74.9832C27.131 75.3359 27.3197 75.6607 27.6249 75.8363C27.7758 75.9232 27.9464 75.9675 28.1154 75.9675C28.2877 75.9675 28.4583 75.9232 28.6125 75.833L36.2709 71.3557C38.7237 75.9479 43.5668 79.0798 49.1269 79.0798C57.1577 79.0798 63.6924 72.5468 63.6924 64.5143C63.6924 58.2373 59.7024 52.8757 54.1242 50.8332L62.9705 44.6644C63.6973 44.1558 64.1156 43.3552 64.1156 42.4676ZM61.722 64.5127C61.722 71.4575 56.0717 77.1094 49.1253 77.1094C42.1788 77.1094 36.5285 71.4591 36.5285 64.5127C36.5285 57.5663 42.1788 51.916 49.1253 51.916C56.0717 51.916 61.722 57.5679 61.722 64.5127ZM62.1469 42.4676C62.1469 42.717 62.0485 42.9073 61.8434 43.0484L51.6354 50.1654C50.82 50.0227 49.98 49.9489 49.1253 49.9489C41.0944 49.9489 34.5598 56.4818 34.5598 64.5143C34.5598 66.2829 34.8764 67.9793 35.4572 69.5494L29.0981 73.2671V61.3167C29.0981 60.9739 28.9226 60.672 28.6568 60.4964L2.28703 43.032C2.07375 42.8909 1.97039 42.6973 1.97039 42.4414V36.2185C1.97039 35.828 2.28867 35.5097 2.67914 35.5097H61.4398C61.8302 35.5097 62.1485 35.828 62.1485 36.2185V42.4676H62.1469ZM49.1253 55.5877C49.6683 55.5877 50.1096 56.029 50.1096 56.5721V57.8058C51.6781 58.2209 52.8331 59.6039 52.8331 61.2429C52.8331 61.786 52.3917 62.2273 51.8487 62.2273C51.3056 62.2273 50.8643 61.786 50.8643 61.2429C50.8643 60.3635 50.085 59.6466 49.1253 59.6466C48.1671 59.6466 47.3862 60.3619 47.3862 61.2429C47.3862 62.1666 48.4723 62.6555 49.3828 62.9016C52.3852 63.7153 52.8331 65.4807 52.8331 66.4618C52.8331 68.0991 51.6781 69.4821 50.1096 69.8989V71.1326C50.1096 71.6757 49.6683 72.117 49.1253 72.117C48.5822 72.117 48.1409 71.6757 48.1409 71.1326V69.8989C46.5724 69.4838 45.4174 68.1007 45.4174 66.4618C45.4174 65.9187 45.8588 65.4774 46.4018 65.4774C46.9449 65.4774 47.3862 65.9187 47.3862 66.4618C47.3862 67.3411 48.1655 68.0581 49.1253 68.0581C50.085 68.0581 50.8643 67.3428 50.8643 66.4618C50.8643 65.5381 49.7782 65.0492 48.8677 64.8031C45.8653 63.9893 45.4174 62.224 45.4174 61.2446C45.4174 59.6072 46.5724 58.2242 48.1409 57.8074V56.5737C48.1409 56.029 48.5822 55.5877 49.1253 55.5877Z" fill="#3147FF"/>
</svg>
