<svg width="497" height="362" viewBox="0 0 497 362" fill="none" xmlns="http://www.w3.org/2000/svg">
<path d="M193.35 359.194L125.737 280.085L68.7823 351.53L3.4209 295.213L5.43579 293.074L68.3699 347.3L125.654 275.441L193.313 354.605L303.964 221.089L306.323 222.878L193.35 359.194Z" fill="#FF9A60"/>
<path d="M71.7302 349.771C71.9276 348.11 70.6801 346.61 68.9437 346.42C67.2074 346.231 65.6398 347.424 65.4424 349.084C65.245 350.745 66.4925 352.246 68.2288 352.435C69.9651 352.625 71.5328 351.432 71.7302 349.771Z" fill="#FF9A60"/>
<path d="M68.577 353.878C66.0027 353.878 63.9082 351.874 63.9082 349.412C63.9082 346.95 66.0027 344.946 68.577 344.946C71.1512 344.946 73.2457 346.95 73.2457 349.412C73.2467 351.875 71.1522 353.878 68.577 353.878ZM68.577 347.825C67.6624 347.825 66.9173 348.537 66.9173 349.413C66.9173 350.289 67.6614 351.001 68.577 351.001C69.4915 351.001 70.2366 350.289 70.2366 349.413C70.2366 348.537 69.4925 347.825 68.577 347.825Z" fill="#FF9A60"/>
<path d="M125.756 280.792C127.504 280.792 128.92 279.437 128.92 277.766C128.92 276.094 127.504 274.739 125.756 274.739C124.008 274.739 122.592 276.094 122.592 277.766C122.592 279.437 124.008 280.792 125.756 280.792Z" fill="#FF9A60"/>
<path d="M125.759 282.23C123.184 282.23 121.09 280.227 121.09 277.765C121.09 275.302 123.184 273.299 125.759 273.299C128.333 273.299 130.427 275.302 130.427 277.765C130.427 280.227 128.333 282.23 125.759 282.23ZM125.759 276.177C124.844 276.177 124.099 276.889 124.099 277.765C124.099 278.64 124.843 279.352 125.759 279.352C126.673 279.352 127.418 278.64 127.418 277.765C127.418 276.889 126.673 276.177 125.759 276.177Z" fill="#FF9A60"/>
<path d="M7.8333 294.46C7.8333 296.132 6.41656 297.487 4.66909 297.487C2.92163 297.487 1.50488 296.132 1.50488 294.46C1.50488 292.789 2.92163 291.434 4.66909 291.434C6.41656 291.434 7.8333 292.789 7.8333 294.46Z" fill="#FF9A60"/>
<path d="M4.66874 298.925C2.0945 298.925 0 296.921 0 294.459C0 291.997 2.0945 289.993 4.66874 289.993C7.24298 289.993 9.33748 291.997 9.33748 294.459C9.33748 296.921 7.24298 298.925 4.66874 298.925ZM4.66874 292.871C3.75418 292.871 3.00906 293.583 3.00906 294.459C3.00906 295.335 3.75316 296.046 4.66874 296.046C5.58432 296.046 6.32842 295.335 6.32842 294.459C6.3274 293.583 5.5833 292.871 4.66874 292.871Z" fill="#FF9A60"/>
<path d="M193.335 359.927C195.083 359.927 196.499 358.572 196.499 356.901C196.499 355.229 195.083 353.874 193.335 353.874C191.588 353.874 190.171 355.229 190.171 356.901C190.171 358.572 191.588 359.927 193.335 359.927Z" fill="#FF9A60"/>
<path d="M193.335 361.365C190.761 361.365 188.666 359.362 188.666 356.899C188.666 354.437 190.761 352.434 193.335 352.434C195.909 352.434 198.004 354.437 198.004 356.899C198.004 359.362 195.909 361.365 193.335 361.365ZM193.335 355.312C192.419 355.312 191.675 356.024 191.675 356.899C191.675 357.775 192.419 358.487 193.335 358.487C194.25 358.487 194.994 357.775 194.994 356.899C194.993 356.024 194.249 355.312 193.335 355.312Z" fill="#FF9A60"/>
<path d="M307.984 223.014C307.984 224.685 306.567 226.041 304.819 226.041C303.072 226.041 301.655 224.685 301.655 223.014C301.655 221.342 303.072 219.987 304.819 219.987C306.567 219.987 307.984 221.342 307.984 223.014Z" fill="#FF9A60"/>
<path d="M304.822 227.478C302.248 227.478 300.153 225.475 300.153 223.013C300.153 220.55 302.248 218.547 304.822 218.547C307.396 218.547 309.491 220.55 309.491 223.013C309.491 225.475 307.397 227.478 304.822 227.478ZM304.822 221.425C303.906 221.425 303.162 222.137 303.162 223.013C303.162 223.887 303.906 224.6 304.822 224.6C305.738 224.6 306.482 223.888 306.482 223.013C306.482 222.138 305.738 221.425 304.822 221.425Z" fill="#FF9A60"/>
<path d="M405.883 206.696C408.244 208.14 411.328 207.397 412.771 205.037C414.215 202.676 413.472 199.592 411.112 198.148C408.751 196.704 405.667 197.447 404.223 199.808C402.78 202.168 403.523 205.252 405.883 206.696Z" fill="#FF7322"/>
<path d="M320.919 64.3802C323.28 65.8241 326.364 65.0811 327.808 62.7206C329.252 60.3602 328.508 57.2761 326.148 55.8322C323.788 54.3883 320.704 55.1313 319.26 57.4918C317.816 59.8522 318.559 62.9363 320.919 64.3802Z" fill="#FFC9C8"/>
<path d="M251.827 111.653L250.277 110.74L251.191 109.187C251.373 108.877 251.424 108.507 251.334 108.159C251.244 107.811 251.02 107.513 250.71 107.33C250.557 107.239 250.387 107.18 250.211 107.155C250.034 107.13 249.855 107.141 249.682 107.185C249.51 107.23 249.348 107.308 249.205 107.415C249.063 107.523 248.943 107.657 248.853 107.81L247.941 109.36L246.387 108.446C246.077 108.263 245.708 108.211 245.359 108.302C245.011 108.392 244.713 108.617 244.53 108.927C244.348 109.237 244.296 109.607 244.386 109.955C244.476 110.303 244.701 110.601 245.011 110.784L246.564 111.698L245.65 113.252C245.559 113.405 245.5 113.574 245.475 113.75C245.45 113.926 245.46 114.105 245.504 114.277C245.549 114.449 245.627 114.611 245.734 114.753C245.842 114.895 245.976 115.014 246.129 115.104C246.282 115.194 246.452 115.254 246.628 115.279C246.804 115.304 246.984 115.294 247.156 115.25C247.328 115.206 247.49 115.128 247.632 115.021C247.775 114.914 247.894 114.78 247.985 114.626L248.899 113.073L250.452 113.987C250.606 114.088 250.778 114.157 250.959 114.19C251.14 114.222 251.326 114.217 251.505 114.176C251.684 114.134 251.853 114.057 252.001 113.948C252.149 113.839 252.274 113.701 252.367 113.543C252.46 113.384 252.52 113.208 252.544 113.026C252.567 112.844 252.553 112.658 252.502 112.482C252.452 112.305 252.366 112.14 252.25 111.998C252.134 111.855 251.99 111.738 251.827 111.653Z" fill="#56AF5A"/>
<path d="M425.087 146.931L423.83 146.189L424.57 144.936C424.717 144.684 424.758 144.385 424.686 144.103C424.613 143.821 424.432 143.579 424.182 143.43C424.058 143.357 423.921 143.309 423.778 143.289C423.635 143.269 423.49 143.278 423.35 143.314C423.211 143.35 423.08 143.413 422.965 143.5C422.85 143.587 422.753 143.696 422.68 143.82L421.938 145.077L420.681 144.335C420.557 144.262 420.42 144.214 420.277 144.194C420.134 144.174 419.989 144.182 419.849 144.218C419.71 144.254 419.579 144.318 419.464 144.405C419.349 144.491 419.252 144.6 419.179 144.724C419.106 144.848 419.058 144.986 419.038 145.129C419.018 145.271 419.026 145.417 419.062 145.556C419.099 145.696 419.162 145.827 419.249 145.942C419.336 146.057 419.444 146.154 419.568 146.227L420.825 146.969L420.083 148.225C420.01 148.35 419.962 148.487 419.942 148.63C419.922 148.772 419.931 148.918 419.967 149.057C420.003 149.197 420.066 149.328 420.153 149.443C420.24 149.558 420.349 149.655 420.473 149.728C420.597 149.801 420.735 149.849 420.877 149.869C421.02 149.889 421.165 149.88 421.305 149.844C421.444 149.808 421.575 149.745 421.69 149.658C421.805 149.571 421.902 149.462 421.975 149.338L422.717 148.081L423.971 148.821C424.095 148.894 424.232 148.943 424.375 148.963C424.518 148.983 424.663 148.975 424.802 148.939C424.942 148.903 425.073 148.84 425.188 148.753C425.303 148.667 425.4 148.558 425.474 148.434C425.547 148.31 425.595 148.173 425.615 148.03C425.635 147.887 425.627 147.742 425.591 147.602C425.555 147.463 425.492 147.332 425.406 147.217C425.319 147.101 425.211 147.004 425.087 146.931Z" fill="url(#paint0_linear_593_1866)"/>
<path d="M305.158 84.1817L304.339 83.6807L304.84 82.8617C304.936 82.6964 304.963 82.4996 304.915 82.3144C304.867 82.1292 304.747 81.9707 304.582 81.8734C304.417 81.7768 304.22 81.7495 304.034 81.7973C303.848 81.8452 303.689 81.9643 303.591 82.1289L303.09 82.948L302.271 82.447C302.189 82.3905 302.096 82.3515 301.999 82.3324C301.901 82.3133 301.801 82.3145 301.704 82.3359C301.607 82.3572 301.515 82.3984 301.435 82.4567C301.354 82.515 301.287 82.5893 301.236 82.6749C301.186 82.7605 301.153 82.8555 301.141 82.9542C301.129 83.0528 301.137 83.1529 301.165 83.2482C301.194 83.3435 301.241 83.432 301.305 83.5081C301.369 83.5842 301.448 83.6464 301.537 83.6907L302.356 84.1917L301.855 85.0108C301.806 85.0925 301.775 85.183 301.762 85.277C301.748 85.3709 301.754 85.4666 301.778 85.5584C301.802 85.6503 301.844 85.7365 301.901 85.8121C301.958 85.8877 302.03 85.9512 302.112 85.999C302.193 86.0476 302.284 86.0796 302.377 86.0931C302.471 86.1066 302.567 86.1014 302.658 86.0778C302.75 86.0541 302.836 86.0125 302.912 85.9554C302.987 85.8982 303.051 85.8266 303.098 85.7448L303.599 84.9257L304.418 85.4268C304.584 85.5244 304.781 85.5523 304.967 85.5044C305.153 85.4564 305.312 85.3366 305.41 85.1713C305.508 85.0059 305.535 84.8085 305.488 84.6226C305.44 84.4366 305.32 84.2774 305.154 84.1798L305.158 84.1817Z" fill="url(#paint1_linear_593_1866)"/>
<path d="M467.8 157.564L466.547 156.824L467.285 155.565C467.359 155.442 467.407 155.304 467.427 155.162C467.448 155.019 467.44 154.874 467.404 154.735C467.368 154.596 467.305 154.465 467.218 154.35C467.132 154.235 467.023 154.138 466.899 154.065C466.648 153.918 466.348 153.877 466.066 153.949C465.785 154.022 465.543 154.203 465.393 154.453L464.655 155.711L463.398 154.969C463.147 154.822 462.848 154.78 462.566 154.853C462.284 154.926 462.043 155.108 461.896 155.359C461.748 155.61 461.706 155.909 461.779 156.191C461.852 156.473 462.034 156.714 462.285 156.861L463.539 157.601L462.802 158.857C462.729 158.981 462.68 159.118 462.66 159.261C462.639 159.403 462.647 159.549 462.683 159.688C462.718 159.828 462.781 159.959 462.868 160.075C462.954 160.19 463.062 160.287 463.186 160.361C463.438 160.508 463.737 160.55 464.019 160.478C464.302 160.405 464.543 160.224 464.692 159.973L465.431 158.714L466.687 159.456C466.812 159.529 466.949 159.577 467.092 159.597C467.235 159.617 467.38 159.609 467.519 159.572C467.659 159.536 467.79 159.473 467.905 159.386C468.02 159.299 468.117 159.191 468.19 159.066C468.263 158.942 468.311 158.805 468.331 158.662C468.351 158.519 468.342 158.374 468.306 158.235C468.27 158.095 468.207 157.964 468.12 157.849C468.033 157.734 467.924 157.637 467.8 157.564Z" fill="white"/>
<path d="M331.528 189.828L330.134 182.792L323.225 184.723C311.757 187.741 304.405 199.698 306.887 211.294L308.281 218.33L315.19 216.399C326.658 213.381 334.01 201.424 331.528 189.828Z" fill="#FFAC1A"/>
<path d="M346.653 225.902C348.747 223.986 350.444 221.597 351.874 219.272C355.55 213.294 357.362 206.626 357.436 199.806C357.508 187.035 351.092 174.393 339.467 167.245C327.843 160.097 313.666 160.076 302.302 165.904C296.517 168.984 291.117 173.673 287.44 179.652C286.011 181.976 284.709 184.838 283.88 187.303C280.018 173.486 281.66 157.789 289.829 144.503C296.365 133.875 305.672 126.554 316.284 122.323C331.595 116.404 349.17 117.599 364.115 126.789C379.061 135.979 388.122 151.391 389.686 167.457C390.698 178.836 388.429 190.715 381.83 201.075C373.993 214.564 360.726 223.113 346.653 225.902Z" fill="#FFAC1A"/>
<path d="M340.88 202.901C384.948 184.456 409.338 136.976 396.358 88.4862L393.787 78.8956L384.069 80.9297C334.94 91.2284 303.576 134.42 307.002 182.07L340.88 202.901Z" fill="#035389"/>
<path d="M307.916 159.745C306.833 167.089 306.619 174.509 307.004 182.07L340.55 202.697C347.535 199.897 353.996 196.089 360.061 191.808L307.916 159.745Z" fill="#015288"/>
<path d="M399.679 121.423C400.263 110.797 399.314 99.6862 396.36 88.4864L393.789 78.8959L384.071 80.93C372.743 83.3479 362.4 87.5149 353.181 92.8311L399.679 121.423Z" fill="#FF7322"/>
<path d="M307.006 182.073C307.109 184.883 307.544 187.897 307.916 190.642L332.493 205.755C335.379 204.783 337.997 203.876 340.551 202.7L307.006 182.073Z" fill="#FFD200"/>
<path d="M372.654 150.916C381.988 143.821 383.802 130.502 376.706 121.168C369.611 111.835 356.292 110.021 346.959 117.116C337.625 124.212 335.811 137.531 342.907 146.864C350.002 156.198 363.321 158.012 372.654 150.916Z" fill="#035389"/>
<path d="M374.282 130.566C376.189 138.563 371.252 146.593 363.254 148.501C355.256 150.408 347.226 145.47 345.319 137.472C343.412 129.475 348.349 121.445 356.347 119.538C364.345 117.63 372.375 122.568 374.282 130.566Z" fill="#BAE6DD"/>
<path d="M338.619 64.69C338.331 64.5138 338.24 64.1367 338.416 63.8488L340.669 60.166C340.845 59.878 341.222 59.7872 341.51 59.9633C341.798 60.1396 341.889 60.5166 341.713 60.8046L339.46 64.4873C339.284 64.7754 338.907 64.8662 338.619 64.69Z" fill="#4C8EB4"/>
<path d="M341.578 63.9703L337.895 61.7175C337.607 61.5413 337.516 61.1641 337.692 60.876C337.869 60.588 338.246 60.4971 338.534 60.6734L342.217 62.9263C342.505 63.1025 342.596 63.4796 342.42 63.7676C342.243 64.0558 341.866 64.1466 341.578 63.9703Z" fill="#4C8EB4"/>
<path d="M420.536 87.8023C420.248 87.6261 420.157 87.249 420.333 86.9611L422.586 83.2783C422.762 82.9903 423.139 82.8995 423.427 83.0756C423.715 83.2519 423.806 83.6289 423.63 83.9169L421.377 87.5996C421.201 87.8877 420.824 87.9785 420.536 87.8023Z" fill="#4C8EB4"/>
<path d="M423.509 87.0918L419.826 84.8389C419.538 84.6628 419.447 84.2857 419.623 83.9975C419.799 83.7096 420.176 83.6187 420.464 83.7949L424.147 86.0477C424.435 86.224 424.526 86.6011 424.35 86.8891C424.174 87.1772 423.797 87.2681 423.509 87.0918Z" fill="#4C8EB4"/>
<path d="M386.182 50.3891C387.086 50.9419 388.267 50.6574 388.82 49.7536C389.373 48.8497 389.088 47.6688 388.184 47.1159C387.281 46.563 386.1 46.8475 385.547 47.7513C384.994 48.6552 385.278 49.8362 386.182 50.3891Z" fill="#738598"/>
<path d="M404.713 163.623C405.617 164.176 406.798 163.892 407.351 162.988C407.904 162.084 407.62 160.903 406.716 160.35C405.812 159.797 404.631 160.082 404.078 160.986C403.525 161.89 403.81 163.071 404.713 163.623Z" fill="#738598"/>
<defs>
<linearGradient id="paint0_linear_593_1866" x1="419.166" y1="144.735" x2="425.459" y2="148.442" gradientUnits="userSpaceOnUse">
<stop stop-color="#6CEFFC"/>
<stop offset="1" stop-color="#C7FFFE"/>
</linearGradient>
<linearGradient id="paint1_linear_593_1866" x1="301.288" y1="82.6947" x2="305.393" y2="85.2057" gradientUnits="userSpaceOnUse">
<stop stop-color="#5900D7"/>
<stop offset="1" stop-color="#454DEF"/>
</linearGradient>
</defs>
</svg>
