<svg width="132" height="44" viewBox="0 0 132 44" fill="none" xmlns="http://www.w3.org/2000/svg">
<path fill-rule="evenodd" clip-rule="evenodd" d="M24.2831 3.10838L24.1009 3.01728C22.1603 2.21312 19.9532 1.78826 17.7169 1.78826C7.78251 1.78826 0 9.49984 0 19.3431C0 28.8318 7.79147 36.5523 17.3697 36.5523C19.5739 36.5523 21.9572 36.0745 24.083 35.2083L24.2876 35.1359V34.894L24.2853 30.5096L24.2831 29.8838L23.7455 30.2049C21.6855 31.4339 19.3753 32.1134 17.2398 32.1134C10.3652 32.1134 4.77419 26.326 4.77419 19.2132C4.77419 12.0534 10.4056 6.22794 17.3272 6.22794C19.6963 6.22794 21.7392 6.76256 23.7515 7.91243L24.2801 8.21483L24.2831 3.10838ZM39.3994 3.08971C39.8862 2.76341 40.6172 2.07275 40.6172 1.58517C40.6172 0.772054 39.8056 0 38.9917 0C38.0987 0 37.1631 1.0976 36.4724 1.78826L31.3122 7.15232H33.3028L39.3994 3.08971ZM37.9762 21.2531C37.9762 22.0252 37.9359 22.7577 37.6918 23.3662C37.2042 24.6669 36.1476 25.7645 34.7252 25.7645C32.8153 25.7645 32.0843 24.4227 32.0843 22.6352C32.0843 19.3431 35.4577 19.0191 37.9762 19.0191V21.2531ZM37.9762 18.1649C34.3191 17.9626 27.8163 18.9788 27.8163 23.8142C27.8163 26.4148 29.6054 27.7558 32.0432 27.7558C34.3191 27.7558 36.512 26.6575 37.9762 24.8707C38.2196 26.6582 39.3576 27.7558 41.1466 27.7558C42.8527 27.7558 43.9503 26.9024 45.0069 25.601L44.5193 25.032C44.1937 25.3583 43.5845 25.9668 43.0969 25.9668C42.6093 25.9668 42.1217 25.7242 42.1217 25.1948V14.386C42.1217 13.1264 41.7559 12.4761 40.6179 11.9071C39.0335 11.0955 37.1639 10.8102 35.4167 10.8102C32.9392 10.8102 28.9557 11.9071 28.9557 14.9953C28.9557 16.2968 29.9309 16.9053 31.0688 16.9053C32.0036 16.9053 33.0191 16.1736 33.0191 15.117C33.0191 14.345 32.6943 13.4923 32.4494 13.1667C31.8409 12.3947 33.7508 11.6226 35.295 11.6226C35.9856 11.6226 37.977 12.0281 37.977 13.0846L37.9762 18.1649ZM88.2792 21.2531C88.2792 22.0252 88.2381 22.7577 87.9947 23.3662C87.5079 24.6669 86.4506 25.7645 85.0282 25.7645C83.119 25.7645 82.3873 24.4227 82.3873 22.6352C82.3873 19.3431 85.7607 19.0191 88.2792 19.0191V21.2531ZM88.2792 18.1649C84.622 17.9626 78.1208 18.9788 78.1208 23.8142C78.1208 26.4148 79.9091 27.7558 82.3469 27.7558C84.622 27.7558 86.8165 26.6575 88.2792 24.8707C88.5241 26.6582 89.662 27.7558 91.4495 27.7558C93.1557 27.7558 94.2525 26.9024 95.3098 25.601L94.823 25.032C94.4959 25.3583 93.8882 25.9668 93.3998 25.9668C92.913 25.9668 92.4254 25.7242 92.4254 25.1948V14.386C92.4254 13.1264 92.0596 12.4761 90.9202 11.9071C89.3365 11.0955 87.4668 10.8102 85.7196 10.8102C83.2407 10.8102 79.2595 11.9071 79.2595 14.9953C79.2595 16.2968 80.2339 16.9053 81.371 16.9053C82.3059 16.9053 83.3221 16.1736 83.3221 15.117C83.3221 14.345 82.9965 13.4923 82.7516 13.1667C82.1438 12.3947 84.0523 11.6226 85.5972 11.6226C86.2886 11.6226 88.2792 12.0281 88.2792 13.0846V18.1649ZM124.195 21.2531C124.195 22.0252 124.156 22.7577 123.911 23.3662C123.424 24.6669 122.367 25.7645 120.944 25.7645C119.034 25.7645 118.303 24.4227 118.303 22.6352C118.303 19.3431 121.677 19.0191 124.195 19.0191V21.2531ZM124.195 18.1649C120.54 17.9626 114.038 18.9788 114.038 23.8142C114.038 26.4148 115.824 27.7558 118.262 27.7558C120.539 27.7558 122.733 26.6575 124.195 24.8707C124.44 26.6582 125.577 27.7558 127.365 27.7558C129.073 27.7558 130.169 26.9024 131.225 25.601L130.738 25.032C130.411 25.3583 129.804 25.9668 129.315 25.9668C128.828 25.9668 128.341 25.7242 128.341 25.1948V14.386C128.341 13.1264 127.975 12.4761 126.836 11.9071C125.252 11.0955 123.382 10.8102 121.635 10.8102C119.156 10.8102 115.173 11.9071 115.173 14.9953C115.173 16.2968 116.149 16.9053 117.286 16.9053C118.221 16.9053 119.238 16.1736 119.238 15.117C119.238 14.345 118.912 13.4923 118.669 13.1667C118.059 12.3947 119.969 11.6226 121.513 11.6226C122.204 11.6226 124.195 12.0281 124.195 13.0846L124.195 18.1649Z" fill="#C32738"/>
<path fill-rule="evenodd" clip-rule="evenodd" d="M24.5253 22.0253C23.306 24.8708 21.6387 26.6994 18.4706 26.6994C15.8699 26.6994 15.3413 25.6429 15.3413 21.457V16.2147C15.3413 12.3544 16.5606 11.8669 18.3481 11.8669C18.9985 11.8669 20.5023 11.9482 20.5023 12.7606C20.5023 13.1668 20.2178 13.4923 19.9736 13.6544C19.6488 13.8985 19.2829 14.6706 19.2829 15.2395C19.2829 16.7837 20.4209 18.0433 21.965 18.0433C23.5905 18.0433 24.809 16.9449 24.809 15.2395C24.809 13.6544 22.8595 10.8096 18.3892 10.8096C13.5941 10.8096 9.12305 14.4667 9.12305 19.4657C9.12305 24.2197 13.7964 27.7559 18.2667 27.7559C21.5991 27.7559 24.3215 25.6429 25.4198 22.5136L24.5253 22.0253ZM53.0995 10.891C50.5384 10.9723 48.0595 11.1351 45.9882 11.0537V12.0699H48.792V26.1297H46.1495V27.1451H55.3343V26.1297H53.0995V18.3681C53.0995 15.362 55.1312 12.273 57.1225 12.273C59.5604 12.273 59.0728 14.5496 59.0728 16.4178V26.1297H56.9598V27.1451H65.6159V26.1297H63.3796V18.2867C63.3796 15.8085 64.5989 12.2723 67.6461 12.2723C69.5583 12.2723 69.3537 14.1412 69.3537 15.2791V26.1289H67.2003V27.1444H76.2626V26.1289H73.6612V18.2867C73.6612 14.1016 74.1092 10.8096 68.7862 10.8096C66.4298 10.8096 64.6818 12.1909 63.5036 14.183C62.7718 12.0281 61.0642 10.8096 58.8294 10.8096C56.066 10.8096 54.1971 12.3537 53.1816 14.7915H53.1002L53.0995 10.891ZM103.891 10.891C101.412 10.9723 98.9337 11.1351 96.8191 11.0537V12.0699H99.5026V26.1297H97.1036V27.1451H107.548V26.1297H103.891V22.3508C103.891 17.0271 104.867 14.8319 106.411 13.2878C106.939 12.7599 107.346 12.3544 108.117 12.3544C108.563 12.3544 108.524 12.5978 108.4 13.2482C108.36 13.4513 108.32 13.6954 108.32 13.8575C108.32 14.8737 109.296 15.7271 110.271 15.7271C111.734 15.7271 112.831 15.0365 112.831 13.4505C112.831 11.6219 111.164 10.8096 109.58 10.8096C106.613 10.8096 105.19 13.1661 103.891 15.4008V10.891Z" fill="#C32738"/>
<path fill-rule="evenodd" clip-rule="evenodd" d="M66.7712 40.3941C66.2829 42.2145 65.3227 43.6787 63.2507 43.5779C61.9694 43.5107 61.1772 42.7864 60.8576 41.7075C60.5381 40.6136 60.5709 39.2988 60.5709 38.3385C60.5709 36.9736 60.4029 35.0204 61.1944 33.8063C61.7842 32.8968 62.3405 32.6616 63.4194 32.6616C65.0696 32.6616 66.3516 33.8235 66.6025 35.6603H67.0908V32.4093H66.7205L66.0477 33.1164C65.3063 32.5101 64.3782 32.2398 63.4359 32.2398C62.6601 32.2398 61.8178 32.4093 61.1443 32.796C59.2583 33.925 58.0957 35.9977 58.0957 38.1877C58.0957 40.9847 60.3365 43.9998 63.3007 43.9998C64.2953 43.9998 65.425 43.6966 66.1829 43.0403L66.8743 43.8489H67.2446V40.3949L66.7712 40.3941ZM73.5099 41.3036C73.5099 41.6231 73.4942 41.9263 73.3934 42.1794C73.1911 42.7192 72.752 43.1732 72.1629 43.1732C71.3722 43.1732 71.0676 42.6177 71.0676 41.8763C71.0676 40.5113 72.4661 40.3769 73.5099 40.3769V41.3036ZM73.5099 40.023C71.9934 39.9394 69.2979 40.3605 69.2979 42.3653C69.2979 43.4435 70.0386 43.999 71.0496 43.999C71.9934 43.999 72.9029 43.5451 73.5099 42.8029C73.6107 43.5443 74.0833 43.999 74.824 43.999C75.5311 43.999 75.9866 43.6459 76.4256 43.1068L76.2233 42.8708C76.0904 43.006 75.835 43.2583 75.6342 43.2583C75.4333 43.2583 75.2287 43.1583 75.2287 42.938V38.4565C75.2287 37.9353 75.0786 37.6643 74.606 37.4299C73.9497 37.0924 73.1739 36.9744 72.4504 36.9744C71.4222 36.9744 69.7698 37.4299 69.7698 38.7096C69.7698 39.2495 70.1753 39.5026 70.6464 39.5026C71.0347 39.5026 71.4558 39.1987 71.4558 38.7604C71.4558 38.4408 71.3199 38.0869 71.2199 37.9525C70.9675 37.6322 71.7597 37.3126 72.3996 37.3126C72.6871 37.3126 73.5106 37.4806 73.5106 37.9189L73.5099 40.023ZM80.1993 37.0072C79.1555 37.0408 78.1273 37.108 77.2679 37.0744V37.4956H78.414V43.3255H77.2679V43.7452H81.2611V43.3255H80.1993V41.1012C80.1993 40.3083 80.1993 39.5332 80.4196 38.9769C80.6704 38.355 81.3282 37.5799 82.0533 37.5799C83.1822 37.5799 83.0127 38.7253 83.0127 40.2926V43.3255H81.951V43.7452H85.8605V43.3255H84.7973V40.2075C84.7973 38.5401 84.9839 36.9729 82.7439 36.9729C81.5291 36.9729 80.772 37.5456 80.2329 38.5909H80.1993V37.0072ZM87.7593 37.2768H86.6804V37.7823H87.7593V42.5512C87.7593 43.4771 88.0102 43.999 89.5446 43.999C90.522 43.999 91.2462 43.5615 91.6009 42.6177L91.2627 42.4482C91.0932 42.9208 90.7743 43.342 90.2345 43.342C89.5946 43.342 89.5782 42.9529 89.5782 42.4153V37.7815H91.1783V37.276H89.5782V35.2205C88.9719 35.2556 88.3648 35.3228 87.7593 35.3228V37.2768ZM96.9015 41.3036C96.9015 41.6231 96.8843 41.9263 96.7835 42.1794C96.5812 42.7192 96.1436 43.1732 95.5545 43.1732C94.7623 43.1732 94.4591 42.6177 94.4591 41.8763C94.4591 40.5113 95.8577 40.3769 96.9015 40.3769V41.3036ZM96.9015 40.023C95.385 39.9394 92.6895 40.3605 92.6895 42.3653C92.6895 43.4435 93.4287 43.999 94.4412 43.999C95.385 43.999 96.2944 43.5451 96.9015 42.8029C97.0023 43.5443 97.4734 43.999 98.2156 43.999C98.9227 43.999 99.3782 43.6459 99.8157 43.1068L99.6141 42.8708C99.4782 43.006 99.2259 43.2583 99.0235 43.2583C98.8212 43.2583 98.6196 43.1583 98.6196 42.938V38.4565C98.6196 37.9353 98.468 37.6643 97.9968 37.4299C97.3405 37.0924 96.5647 36.9744 95.8397 36.9744C94.8116 36.9744 93.1607 37.4299 93.1607 38.7096C93.1607 39.2495 93.5661 39.5026 94.0373 39.5026C94.4255 39.5026 94.8452 39.1987 94.8452 38.7604C94.8452 38.4408 94.7108 38.0869 94.6092 37.9525C94.3568 37.6322 95.1491 37.3126 95.7904 37.3126C96.0764 37.3126 96.9015 37.4806 96.9015 37.9189V40.023ZM101.753 43.3255H100.54V43.7452C101.535 43.7452 102.547 43.6951 103.573 43.8803V42.8372C104.011 43.51 104.803 43.999 105.628 43.999C107.515 43.999 108.829 42.3145 108.829 40.5621C108.829 38.7589 107.481 36.9729 105.577 36.9729C104.718 36.9729 104.011 37.4784 103.573 38.2198V32.2383C102.578 32.4242 101.567 32.5257 100.54 32.4914V32.9125H101.753V43.3255ZM106.842 42.0786C106.842 42.9373 106.505 43.6623 105.546 43.6623C104.517 43.6623 103.574 42.7192 103.574 41.6747V39.3159C103.657 38.2713 104.5 37.3111 105.561 37.3111C106.454 37.3111 106.842 38.0526 106.842 38.8784V42.0786ZM113.071 37.0072C112.042 37.0408 111.014 37.108 110.139 37.0744V37.4956H111.25V43.3255H110.256V43.7452H114.587V43.3255H113.071V41.7575C113.071 39.5511 113.475 38.6402 114.114 38.0011C114.333 37.7815 114.503 37.6135 114.822 37.6135C115.007 37.6135 114.991 37.7143 114.939 37.9831C114.924 38.0675 114.906 38.1698 114.906 38.2355C114.906 38.6574 115.31 39.0113 115.715 39.0113C116.322 39.0113 116.776 38.7253 116.776 38.0675C116.776 37.3096 116.086 36.9721 115.428 36.9721C114.199 36.9721 113.609 37.9503 113.07 38.8769V37.0072H113.071ZM121.606 43.7459V43.3263H120.359V37.008C119.332 37.0416 118.304 37.1088 117.309 37.0752V37.4963H118.54V43.3263H117.309V43.7459H121.606ZM120.309 33.9071C120.309 33.4023 119.803 32.9969 119.315 32.9969C118.86 32.9969 118.405 33.4524 118.405 33.9071C118.405 34.3961 118.793 34.9181 119.315 34.9181C119.889 34.9181 120.309 34.4805 120.309 33.9071ZM126.841 41.3036C126.841 41.6231 126.824 41.9263 126.723 42.1794C126.521 42.7192 126.082 43.1732 125.493 43.1732C124.701 43.1732 124.399 42.6177 124.399 41.8763C124.399 40.5113 125.796 40.3769 126.841 40.3769V41.3036ZM126.841 40.023C125.325 39.9394 122.628 40.3605 122.628 42.3653C122.628 43.4435 123.37 43.999 124.381 43.999C125.325 43.999 126.234 43.5451 126.841 42.8029C126.942 43.5443 127.413 43.999 128.155 43.999C128.863 43.999 129.318 43.6459 129.756 43.1068L129.553 42.8708C129.419 43.006 129.166 43.2583 128.964 43.2583C128.763 43.2583 128.56 43.1583 128.56 42.938V38.4565C128.56 37.9353 128.409 37.6643 127.936 37.4299C127.28 37.0924 126.505 36.9744 125.779 36.9744C124.752 36.9744 123.101 37.4299 123.101 38.7096C123.101 39.2495 123.505 39.5026 123.978 39.5026C124.365 39.5026 124.786 39.1987 124.786 38.7604C124.786 38.4408 124.651 38.0869 124.55 37.9525C124.297 37.6322 125.09 37.3126 125.73 37.3126C126.016 37.3126 126.842 37.4806 126.842 37.9189V40.023H126.841Z" fill="black"/>
</svg>
