<svg width="30" height="52" viewBox="0 0 30 52" fill="none" xmlns="http://www.w3.org/2000/svg">
<path d="M18.9267 4.08176H20.6269V5.76778H18.9267V4.08176Z" fill="#217C6A"/>
<path d="M5.32518 26.8431H8.72556V28.5291H5.32518V26.8431Z" fill="#217C6A"/>
<path d="M24.0273 0.709717H5.32518C3.97284 0.711056 2.67627 1.24439 1.72002 2.19267C0.763773 3.14095 0.22596 4.42671 0.224609 5.76778V46.2323C0.22596 47.5734 0.763773 48.8591 1.72002 49.8074C2.67627 50.7557 3.97284 51.289 5.32518 51.2904H24.0273C25.3796 51.289 26.6762 50.7557 27.6324 49.8074C28.5887 48.8591 29.1265 47.5734 29.1278 46.2323V5.76778C29.1265 4.42671 28.5887 3.14095 27.6324 2.19267C26.6762 1.24439 25.3796 0.711056 24.0273 0.709717ZM24.0273 49.6043H5.32518C4.42334 49.6043 3.55844 49.2491 2.92075 48.6167C2.28305 47.9843 1.9248 47.1266 1.9248 46.2323V9.13982H25.7275V7.4538H1.9248V5.76778C1.9248 4.87346 2.28305 4.01577 2.92075 3.38339C3.55844 2.75101 4.42334 2.39574 5.32518 2.39574H24.0273C24.9291 2.39574 25.794 2.75101 26.4317 3.38339C27.0694 4.01577 27.4276 4.87346 27.4276 5.76778V41.1742H3.62499V42.8603H27.4276V46.2323C27.4276 47.1266 27.0694 47.9843 26.4317 48.6167C25.794 49.2491 24.9291 49.6043 24.0273 49.6043Z" fill="#217C6A"/>
<path d="M14.6762 43.7033C14.1718 43.7033 13.6788 43.8516 13.2594 44.1295C12.84 44.4074 12.5131 44.8024 12.3201 45.2645C12.127 45.7266 12.0765 46.2351 12.1749 46.7257C12.2733 47.2163 12.5162 47.6669 12.8729 48.0206C13.2296 48.3743 13.684 48.6152 14.1787 48.7127C14.6734 48.8103 15.1862 48.7602 15.6522 48.5688C16.1182 48.3774 16.5165 48.0533 16.7967 47.6374C17.0769 47.2215 17.2265 46.7325 17.2265 46.2323C17.2265 45.5616 16.9578 44.9183 16.4795 44.444C16.0013 43.9697 15.3526 43.7033 14.6762 43.7033ZM14.6762 47.0753C14.5081 47.0753 14.3437 47.0259 14.2039 46.9332C14.0641 46.8406 13.9552 46.7089 13.8908 46.5549C13.8265 46.4009 13.8097 46.2314 13.8425 46.0678C13.8753 45.9043 13.9562 45.7541 14.0751 45.6362C14.194 45.5183 14.3455 45.438 14.5104 45.4055C14.6753 45.373 14.8462 45.3897 15.0015 45.4535C15.1569 45.5173 15.2896 45.6253 15.3831 45.764C15.4765 45.9026 15.5263 46.0656 15.5263 46.2323C15.5263 46.4559 15.4368 46.6703 15.2773 46.8284C15.1179 46.9865 14.9017 47.0753 14.6762 47.0753Z" fill="#217C6A"/>
<path d="M12.1259 4.08176H17.2265V5.76778H12.1259V4.08176Z" fill="#217C6A"/>
<path d="M11.0271 21.189L8.2277 18.4129L11.0271 15.6369L9.82502 14.4449L5.82363 18.4129L9.82502 22.381L11.0271 21.189Z" fill="#217C6A"/>
<path d="M19.5275 22.381L23.5289 18.4129L19.5275 14.4449L18.3255 15.6369L21.1248 18.4129L18.3255 21.189L19.5275 22.381Z" fill="#217C6A"/>
<path d="M11.445 21.9604L16.0474 14.0554L17.5198 14.8984L12.9174 22.8034L11.445 21.9604Z" fill="#217C6A"/>
<path d="M10.4257 26.8431H24.0273V28.5291H10.4257V26.8431Z" fill="#217C6A"/>
<path d="M5.32518 30.2151H24.0273V31.9011H5.32518V30.2151Z" fill="#217C6A"/>
<path d="M5.32518 33.5871H24.0273V35.2732H5.32518V33.5871Z" fill="#217C6A"/>
</svg>
