<svg width="51" height="53" viewBox="0 0 51 53" fill="none" xmlns="http://www.w3.org/2000/svg">
<path d="M18.5061 11.3504C18.5061 10.8585 18.9049 10.4598 19.3967 10.4598H33.6379C34.1298 10.4598 34.5285 10.8585 34.5285 11.3504C34.5285 11.8422 34.1298 12.241 33.6379 12.241H19.3967C18.9049 12.241 18.5061 11.8422 18.5061 11.3504ZM19.3967 21.9534H33.6379C34.1298 21.9534 34.5285 21.5546 34.5285 21.0628C34.5285 20.5709 34.1298 20.1721 33.6379 20.1721H19.3967C18.9049 20.1721 18.5061 20.5709 18.5061 21.0628C18.5061 21.5546 18.9049 21.9534 19.3967 21.9534ZM13.7846 28.847L11.623 31.0087L10.8571 30.2427C10.5092 29.895 9.9454 29.895 9.5975 30.2427C9.24971 30.5906 9.24971 31.1543 9.5975 31.5022L10.9932 32.8979C11.1672 33.0718 11.395 33.1588 11.623 33.1588C11.851 33.1588 12.0789 33.0718 12.2528 32.8979L15.0441 30.1066C15.3919 29.7587 15.3919 29.1949 15.0441 28.847C14.6961 28.4991 14.1323 28.4994 13.7846 28.847ZM10.9933 13.2784C11.1672 13.4523 11.3951 13.5392 11.623 13.5392C11.8509 13.5392 12.0789 13.4523 12.2527 13.2784L15.044 10.4871C15.3919 10.1394 15.3919 9.57548 15.0441 9.22769C14.6963 8.8799 14.1325 8.8799 13.7847 9.22758L11.623 11.3891L10.857 10.6232C10.5095 10.2756 9.94552 10.2754 9.5975 10.6233C9.24971 10.9711 9.24971 11.535 9.59762 11.8828L10.9933 13.2784ZM13.7846 19.0371L11.623 21.1988L10.857 20.4329C10.5092 20.0851 9.94529 20.0852 9.5975 20.433C9.24971 20.7808 9.24971 21.3446 9.59762 21.6924L10.9933 23.088C11.1672 23.2619 11.3951 23.3489 11.623 23.3489C11.8509 23.3489 12.0789 23.2619 12.2528 23.088L15.0441 20.2967C15.3919 19.9488 15.3919 19.385 15.0441 19.0371C14.6961 18.6894 14.1323 18.6896 13.7846 19.0371ZM13.5434 42.5604C13.8057 43.5398 13.6711 44.5625 13.1642 45.4405C12.6574 46.3184 11.839 46.9464 10.8597 47.209C10.5327 47.2966 10.2008 47.3399 9.87115 47.3399C9.21353 47.3399 8.56449 47.1674 7.97968 46.8298C7.10175 46.3229 6.47375 45.5045 6.21124 44.5253C5.94895 43.5459 6.08354 42.5233 6.59042 41.6452C7.0973 40.7673 7.91567 40.1393 8.89491 39.8768C9.87449 39.6145 10.897 39.7491 11.775 40.256C12.6529 40.7628 13.281 41.5812 13.5434 42.5604ZM11.8228 43.0216C11.6836 42.5019 11.3504 42.0676 10.8843 41.7985C10.5741 41.6195 10.2295 41.5279 9.8805 41.5279C9.7056 41.5279 9.52948 41.5508 9.35592 41.5973C8.83624 41.7366 8.40195 42.0698 8.13287 42.5358C7.8639 43.0018 7.79243 43.5446 7.9317 44.0643C8.07097 44.5839 8.40418 45.0182 8.8702 45.2873C9.3361 45.5562 9.87894 45.6278 10.3986 45.4885C10.9183 45.3492 11.3526 45.016 11.6217 44.55C11.8906 44.0841 11.9621 43.5412 11.8228 43.0216ZM50.2864 19.1167L40.4482 28.955V40.6378C40.4482 41.1297 40.0494 41.5284 39.5576 41.5284H18.9855C19.0935 41.7275 19.169 41.9487 19.2037 42.1862C19.3355 43.0871 19.3363 43.9993 19.2061 44.8971C19.0658 45.866 18.2544 46.5684 17.2758 46.5684C17.2737 46.5684 17.2716 46.5685 17.2698 46.5684C16.8266 46.5684 16.414 46.8062 16.1929 47.1894C15.9713 47.5731 15.972 48.0503 16.1947 48.4346C16.6863 49.2824 16.4845 50.3384 15.7145 50.9451C15.002 51.5066 14.2117 51.9618 13.3653 52.2983C12.4564 52.6595 11.4423 52.3068 10.9541 51.4592C10.7326 51.0746 10.3199 50.8357 9.87705 50.8357C9.43407 50.8357 9.02127 51.0746 8.79984 51.4596C8.44025 52.0843 7.79577 52.4404 7.11811 52.4405C6.87408 52.4405 6.6256 52.3943 6.38446 52.2979C5.5426 51.9612 4.75429 51.5061 4.04145 50.9451C3.27073 50.3387 3.06822 49.2827 3.55962 48.4342C3.78217 48.0501 3.78284 47.5732 3.5614 47.1895C3.3402 46.8063 2.9275 46.5684 2.48419 46.5684C2.48308 46.5685 2.48186 46.5685 2.48041 46.5684C1.5035 46.5685 0.692034 45.8671 0.550536 44.9C0.418835 43.9985 0.418055 43.0865 0.548198 42.1887C0.688471 41.2199 1.49994 40.5176 2.47852 40.5176C2.48074 40.5176 2.48286 40.5177 2.48453 40.5176C2.92772 40.5176 3.34031 40.2798 3.5614 39.8966C3.78306 39.5128 3.78228 39.0357 3.55962 38.6514C3.0749 37.8154 3.26549 36.7784 4.00861 36.1679V1.4502C4.00861 0.958348 4.40739 0.55957 4.89923 0.55957H39.5573C40.0492 0.55957 40.448 0.958348 40.448 1.4502V19.7741L45.6958 14.5264C45.8629 14.3594 46.0893 14.2655 46.3255 14.2655C46.5618 14.2655 46.7882 14.3594 46.9553 14.5264L50.2861 17.8572C50.6342 18.2051 50.6342 18.7688 50.2864 19.1167ZM17.4412 42.4437C17.4287 42.3568 17.3612 42.2986 17.2735 42.2986C17.2737 42.2994 17.2712 42.2987 17.2702 42.2986C16.1925 42.2986 15.189 41.7197 14.6505 40.787C14.1114 39.8531 14.1124 38.6928 14.6532 37.759C14.6973 37.6826 14.6806 37.595 14.6115 37.5407C14.0328 37.0851 13.3925 36.7155 12.7082 36.4417C12.6265 36.4089 12.5422 36.4384 12.4984 36.5145C11.96 37.45 10.9557 38.0312 9.87727 38.0312C8.79928 38.0312 7.79521 37.4504 7.25672 36.5157C7.21297 36.4395 7.1288 36.4108 7.04709 36.4426C6.36075 36.7156 5.71995 37.0849 5.14249 37.5398C5.07346 37.5942 5.05665 37.6818 5.10074 37.7579C5.64224 38.692 5.64357 39.8526 5.10419 40.787C4.5657 41.7197 3.56218 42.2986 2.48453 42.2986C2.48252 42.2986 2.47974 42.2985 2.47885 42.2986C2.39112 42.2986 2.32366 42.3568 2.31108 42.4439C2.20576 43.1714 2.20643 43.911 2.31331 44.6421C2.32589 44.7286 2.39335 44.7869 2.48096 44.7869H2.48419C3.56218 44.7869 4.56558 45.3659 5.10419 46.2986C5.64335 47.2326 5.64224 48.3928 5.10129 49.3267C5.05721 49.4029 5.07402 49.4906 5.14315 49.545C5.72217 50.0006 6.36253 50.3702 7.04631 50.6438C7.12847 50.6767 7.21252 50.6471 7.25638 50.5708C7.79466 49.6356 8.79895 49.0543 9.87738 49.0543C10.9554 49.0543 11.9594 49.6351 12.4979 50.57C12.5418 50.6462 12.6261 50.6749 12.7076 50.643C13.394 50.3699 14.0349 50.0007 14.6123 49.5458C14.6813 49.4915 14.6981 49.4039 14.6539 49.3277C14.1124 48.3936 14.1111 47.233 14.6505 46.2986C15.189 45.3659 16.1925 44.787 17.2701 44.787C17.2721 44.787 17.2752 44.7872 17.2758 44.787C17.3635 44.787 17.431 44.7288 17.4436 44.6417C17.5488 43.9141 17.5481 43.1746 17.4412 42.4437ZM38.6669 30.7363L33.6321 35.7711C33.5334 35.8697 33.4129 35.9439 33.2804 35.9873L28.319 37.6179C28.2278 37.648 28.134 37.6625 28.041 37.6625C27.8084 37.6625 27.5808 37.5714 27.4111 37.4016C27.1735 37.1639 27.0899 36.8129 27.1949 36.4937L28.7818 31.6653H19.3968C18.905 31.6653 18.5062 31.2665 18.5062 30.7747C18.5062 30.2828 18.905 29.8841 19.3968 29.8841H30.3383L38.6671 21.5553V2.34082H5.78997V35.0505C5.98624 34.9562 6.18597 34.8682 6.38903 34.7875C7.29802 34.4263 8.312 34.7791 8.80017 35.6266C9.02171 36.0111 9.4343 36.25 9.87727 36.25C10.3202 36.25 10.7331 36.0111 10.9545 35.6263C11.4434 34.7764 12.4593 34.4239 13.3696 34.7879C14.2121 35.125 15.0004 35.5802 15.713 36.1408C16.4837 36.7473 16.6861 37.8034 16.1945 38.6518C16.0002 38.9874 15.9753 39.3939 16.1199 39.7472H38.6668V30.7363H38.6669ZM48.397 18.487L46.3258 16.4157L30.4514 32.2901L29.4374 35.3754L32.5227 34.3615L48.397 18.487Z" fill="#FF7322"/>
</svg>
