<svg width="54" height="58" viewBox="0 0 54 58" fill="none" xmlns="http://www.w3.org/2000/svg">
<path d="M26.2059 6.91938V0.791992C26.2059 0.353594 26.5605 -0.000976562 26.9989 -0.000976562C27.4373 -0.000976562 27.7918 0.353594 27.7918 0.791992V6.91824C27.7918 7.35664 27.4373 7.71121 26.9989 7.71121C26.5605 7.71121 26.2059 7.35664 26.2059 6.91938ZM36.2256 10.1841C36.3502 10.2566 36.4873 10.2906 36.6221 10.2906C36.8962 10.2906 37.1625 10.1479 37.3097 9.89414L40.3728 4.58918C40.5915 4.20969 40.4623 3.72484 40.0828 3.50621C39.7034 3.28758 39.2185 3.41672 38.9999 3.79621L35.9368 9.10117C35.717 9.48066 35.8461 9.96551 36.2256 10.1841ZM43.6682 17.3356C43.803 17.3356 43.9389 17.3016 44.0647 17.2291L49.3696 14.166C49.7491 13.9473 49.8794 13.4614 49.6596 13.083C49.441 12.7035 48.955 12.5732 48.5767 12.793L43.2717 15.8561C42.8922 16.0748 42.7619 16.5607 42.9817 16.9391C43.1278 17.194 43.3941 17.3356 43.6682 17.3356ZM52.3727 25.3763H46.2465C45.8081 25.3763 45.4535 25.7309 45.4535 26.1693C45.4535 26.6077 45.8081 26.9622 46.2465 26.9622H52.3727C52.8111 26.9622 53.1657 26.6077 53.1657 26.1693C53.1657 25.7309 52.8111 25.3763 52.3727 25.3763ZM7.74785 25.3763H1.625C1.1866 25.3763 0.832031 25.7309 0.832031 26.1693C0.832031 26.6077 1.1866 26.9622 1.625 26.9622H7.74898C8.18738 26.9622 8.54195 26.6077 8.54195 26.1693C8.54195 25.7309 8.18625 25.3763 7.74785 25.3763ZM11.0137 16.9391C11.2324 16.5596 11.1032 16.0748 10.7237 15.8561L5.41879 12.7919C5.0393 12.5721 4.55445 12.7024 4.33582 13.0819C4.11719 13.4614 4.24633 13.9462 4.62582 14.1648L9.93078 17.228C10.0554 17.3005 10.1925 17.3345 10.3273 17.3345C10.6003 17.3356 10.8665 17.194 11.0137 16.9391ZM16.6846 9.89414C16.8319 10.149 17.0981 10.2906 17.3722 10.2906C17.507 10.2906 17.643 10.2566 17.7676 10.1841C18.1471 9.96551 18.2773 9.48066 18.0587 9.10117L14.999 3.79621C14.7804 3.41672 14.2944 3.28645 13.916 3.50508C13.5365 3.72371 13.4062 4.20856 13.6249 4.58805L16.6846 9.89414ZM50.7188 46.0059C51.8199 47.107 51.8199 48.9003 50.7188 50.0014C50.1683 50.5519 49.4444 50.8272 48.7205 50.8272C47.9967 50.8272 47.2739 50.5519 46.7223 50.0014L41.3539 44.633L40.4521 45.5347C39.9809 46.0059 39.3522 46.2654 38.6804 46.2654C38.0087 46.2654 37.38 46.0059 36.9087 45.5347C35.9334 44.5548 35.9345 42.9666 36.9087 41.9924L37.8104 41.0907L37.0016 40.2818C35.6807 41.9618 34.3553 43.8955 33.2916 46.4421V52.3724C33.2916 55.4763 30.4687 58.0013 26.9977 58.0013C23.5257 58.0013 20.7004 55.4763 20.7004 52.3724V46.4398C19.2606 42.9949 17.4039 40.7474 15.6062 38.5736C12.935 35.3428 10.4122 32.2921 10.4122 26.1557C10.4122 17.0105 17.8525 9.57016 26.9977 9.57016C36.1407 9.57016 43.5798 17.0105 43.5798 26.1557C43.5798 30.7413 42.1684 33.5529 40.5439 35.8299L41.807 37.0918L42.7076 36.1913C43.6818 35.217 45.2711 35.2159 46.2487 36.1901L46.2499 36.1913C47.2264 37.1677 47.2264 38.7571 46.2499 39.7336L45.3482 40.6353L50.7188 46.0059ZM31.7068 52.1095V50.2857H22.2886V52.1095H31.7068ZM31.7068 47.0742H22.2886V48.6986H31.7068V47.0742ZM31.4463 53.6955H22.5492C23.1892 55.2769 24.9417 56.4154 27 56.4154C29.0549 56.4154 30.8062 55.2769 31.4463 53.6955ZM35.8733 39.1524L34.1798 37.4589C32.1543 38.7344 29.8309 39.405 27.4191 39.405C20.415 39.405 14.7158 33.707 14.7158 26.7017C14.7158 19.6964 20.415 13.9983 27.4191 13.9983C34.4233 13.9983 40.1225 19.6975 40.1225 26.7017C40.1225 29.1146 39.4519 31.438 38.1763 33.4623L39.4066 34.6914C40.98 32.4213 41.995 29.9857 41.995 26.1557C41.995 17.885 35.2684 11.1561 26.9989 11.1561C18.7282 11.1561 11.9993 17.885 11.9993 26.1557C11.9993 31.7212 14.2377 34.4275 16.8296 37.562C18.5583 39.6531 20.5079 42.0094 22.0202 45.486H31.973C33.1149 42.8647 34.5015 40.8822 35.8733 39.1524ZM38.933 39.9681L40.6866 38.2145L38.9693 36.4982C38.9534 36.4835 38.9387 36.4688 38.924 36.4529L36.5949 34.1261C36.3219 33.8531 36.2845 33.4238 36.5077 33.1077C37.8353 31.2261 38.5366 29.0115 38.5366 26.7028C38.5366 20.5732 33.5499 15.5854 27.4191 15.5854C21.2884 15.5854 16.3017 20.572 16.3017 26.7028C16.3017 32.8325 21.2884 37.8202 27.4191 37.8202C29.7278 37.8202 31.9425 37.119 33.8241 35.7914C34.139 35.5693 34.5695 35.6056 34.8425 35.8786L37.4966 38.5328L37.5 38.5362L38.933 39.9681ZM40.7614 42.9825C40.7716 42.9711 40.7807 42.9598 40.7909 42.9496C40.8011 42.9394 40.8124 42.9292 40.8237 42.9202L43.6342 40.1097C43.6444 40.0983 43.6535 40.087 43.6648 40.0757C43.6761 40.0643 43.6875 40.0553 43.6988 40.0451L45.1295 38.6143C45.4818 38.262 45.4818 37.6673 45.1307 37.315C44.9505 37.136 44.7149 37.0465 44.4793 37.0465C44.2437 37.0465 44.0092 37.136 43.8302 37.3139L42.37 38.7741L42.3689 38.7752L42.3677 38.7763L39.5244 41.6197C39.5142 41.631 39.5051 41.6424 39.4938 41.6537C39.4825 41.665 39.4711 41.6741 39.4598 41.6843L38.0291 43.115C37.6722 43.473 37.6722 44.0564 38.0302 44.4155C38.2001 44.5854 38.4312 44.6806 38.6782 44.6806C38.9251 44.6806 39.1562 44.5865 39.3284 44.4143L40.7614 42.9825ZM49.5962 47.1274L44.2278 41.759L42.4753 43.5115L47.8437 48.8799C48.3263 49.3625 49.1125 49.3625 49.5962 48.8799C50.0799 48.3973 50.0799 47.61 49.5962 47.1274Z" fill="#E28094"/>
</svg>
