<svg width="50" height="50" viewBox="0 0 50 50" fill="none" xmlns="http://www.w3.org/2000/svg">
<path d="M45.6055 11.269H37.3047V6.87451C37.3047 4.45137 35.3333 2.47998 32.9102 2.47998H4.39453C1.97139 2.47998 0 4.45137 0 6.87451V34.825L6.95439 27.8706H10.7422V34.2183C10.7422 36.6414 12.7136 38.6128 15.1367 38.6128H41.0925L50 47.5204V15.6636C50 13.2404 48.0286 11.269 45.6055 11.269ZM10.7422 15.6636V24.9409H5.74092L2.92969 27.7521V6.87451C2.92969 6.0668 3.58682 5.40967 4.39453 5.40967H32.9102C33.7179 5.40967 34.375 6.0668 34.375 6.87451V11.269H15.1367C12.7136 11.269 10.7422 13.2404 10.7422 15.6636ZM47.0703 40.4475L42.306 35.6831H15.1367C14.329 35.6831 13.6719 35.026 13.6719 34.2183V15.6636C13.6719 14.8559 14.329 14.1987 15.1367 14.1987H45.6055C46.4132 14.1987 47.0703 14.8559 47.0703 15.6636V40.4475Z" fill="#B8A2E1"/>
<path d="M44.1406 20.0576H16.6016V22.9873H44.1406V20.0576Z" fill="#B8A2E1"/>
<path d="M38.2812 25.917H16.6016V28.8467H38.2812V25.917Z" fill="#B8A2E1"/>
</svg>
