<svg width="53" height="53" viewBox="0 0 53 53" fill="none" xmlns="http://www.w3.org/2000/svg">
<path d="M26.5 0C11.8645 0 0 11.8645 0 26.5C0 41.1355 11.8645 53 26.5 53C41.1355 53 53 41.1355 53 26.5C52.9845 11.871 41.1291 0.0156383 26.5 0ZM37.6602 27.3444C37.4767 27.7124 37.1785 28.0107 36.8104 28.1941V28.2036L21.6676 35.7751C20.7324 36.2423 19.5955 35.8631 19.1282 34.9279C18.9953 34.6621 18.9269 34.3686 18.9285 34.0715V18.9286C18.9281 17.8832 19.7751 17.0354 20.8205 17.0349C21.1146 17.0347 21.4046 17.1031 21.6676 17.2345L36.8104 24.806C37.746 25.2722 38.1266 26.4087 37.6602 27.3444Z" fill="#013228"/>
</svg>
