<svg width="99" height="61" viewBox="0 0 99 61" fill="none" xmlns="http://www.w3.org/2000/svg">
<path d="M98.6041 3.15014C98.102 1.90863 97.1411 0.922052 95.9319 0.40647C95.337 0.146121 94.6981 0.00802772 94.0514 0H69.3086C67.9962 0 66.7375 0.535306 65.8094 1.48816C64.8814 2.44101 64.36 3.73335 64.36 5.08088C64.36 6.42841 64.8814 7.72075 65.8094 8.6736C66.7375 9.62645 67.9962 10.1618 69.3086 10.1618H82.1254L54.4629 38.5639L38.1821 21.797C37.7221 21.3207 37.1748 20.9428 36.5718 20.6848C35.9687 20.4269 35.3219 20.2941 34.6687 20.2941C34.0154 20.2941 33.3686 20.4269 32.7655 20.6848C32.1625 20.9428 31.6152 21.3207 31.1552 21.797L1.46378 52.2822C0.999956 52.7546 0.631811 53.3165 0.380579 53.9357C0.129347 54.5548 0 55.2189 0 55.8897C0 56.5604 0.129347 57.2245 0.380579 57.8437C0.631811 58.4628 0.999956 59.0247 1.46378 59.4971C1.92381 59.9733 2.47113 60.3513 3.07416 60.6093C3.67718 60.8672 4.32399 61 4.97726 61C5.63053 61 6.27733 60.8672 6.88036 60.6093C7.48339 60.3513 8.03071 59.9733 8.49074 59.4971L34.6687 32.5684L50.9494 49.3353C51.4095 49.8116 51.9568 50.1895 52.5598 50.4475C53.1628 50.7054 53.8096 50.8382 54.4629 50.8382C55.1162 50.8382 55.763 50.7054 56.366 50.4475C56.969 50.1895 57.5164 49.8116 57.9764 49.3353L89.1029 17.3258V30.4853C89.1029 31.8328 89.6242 33.1251 90.5523 34.078C91.4803 35.0308 92.739 35.5662 94.0514 35.5662C95.3639 35.5662 96.6226 35.0308 97.5506 34.078C98.4786 33.1251 99 31.8328 99 30.4853V5.08088C98.9922 4.41692 98.8577 3.76098 98.6041 3.15014Z" fill="url(#paint0_linear_1008_113)"/>
<defs>
<linearGradient id="paint0_linear_1008_113" x1="17.1535" y1="98.9918" x2="173.058" y2="-51.8858" gradientUnits="userSpaceOnUse">
<stop stop-color="#F2FFC5"/>
<stop offset="1" stop-color="#D4E794"/>
</linearGradient>
</defs>
</svg>
