<svg width="45" height="46" viewBox="0 0 45 46" fill="none" xmlns="http://www.w3.org/2000/svg">
<path d="M8.50909 0.561401C7.28614 0.561401 6.27977 1.56777 6.27977 2.79075V26.5856C6.27977 27.5781 7.7684 27.5781 7.7684 26.5856V8.00024H37.5076V26.5856C37.4851 27.5996 39.0176 27.5996 38.9948 26.5856V2.79075C38.9948 1.56777 37.9899 0.561401 36.7669 0.561401H8.50909ZM8.50909 2.05006H36.7669C37.1918 2.05006 37.5076 2.36592 37.5076 2.79075V6.51158H7.7684V2.79075C7.7684 2.36592 8.08429 2.05006 8.50909 2.05006ZM9.99772 3.53581C9.58703 3.53581 9.25413 3.86875 9.25413 4.27941C9.25413 4.69009 9.58703 5.02292 9.99772 5.02292C10.4084 5.02292 10.7413 4.69009 10.7413 4.27941C10.7413 3.86875 10.4084 3.53581 9.99772 3.53581ZM12.9721 3.53581C12.5614 3.53581 12.2285 3.86875 12.2285 4.27941C12.2285 4.69009 12.5614 5.02292 12.9721 5.02292C13.3828 5.02292 13.7157 4.69009 13.7157 4.27941C13.7157 3.86875 13.3828 3.53581 12.9721 3.53581ZM15.9464 3.53581C15.5358 3.53581 15.2028 3.86875 15.2028 4.27941C15.2028 4.69009 15.5358 5.02292 15.9464 5.02292C16.3571 5.02292 16.69 4.69009 16.69 4.27941C16.69 3.86875 16.3571 3.53581 15.9464 3.53581ZM26.3189 3.53726C25.315 3.60556 25.3835 5.04906 26.3538 5.02447H35.2798C36.2495 5.00198 36.2495 3.55876 35.2798 3.53726H26.3189ZM2.56473 5.02447C1.34175 5.02447 0.331055 6.02937 0.331055 7.25235V34.0229C0.331055 35.2459 1.34175 36.2523 2.56473 36.2523H42.7171C43.9401 36.2523 44.9464 35.2459 44.9464 34.0229V7.25227C44.9464 6.02929 43.9401 5.02438 42.7171 5.02438H41.2299C40.2162 5.0019 40.2162 6.53407 41.2299 6.51158H42.7171C43.1419 6.51158 43.4578 6.82744 43.4578 7.25227V28.8193H1.81823V7.25227C1.81823 6.82744 2.13993 6.51158 2.56473 6.51158H4.04609C5.05979 6.53407 5.05979 5.0019 4.04609 5.02438L2.56473 5.02447ZM24.8782 10.9601C24.5513 10.9578 24.2614 11.1695 24.1637 11.4815L19.7007 24.8646C19.386 25.8058 20.7977 26.2777 21.1124 25.3366L25.5753 11.9491C25.7437 11.4676 25.3883 10.9634 24.8782 10.9601ZM28.1111 15.259L31.8871 18.409L28.1111 21.5548C27.3043 22.1864 28.3005 23.3783 29.0653 22.6964L33.5224 18.9798C33.8784 18.6826 33.8784 18.1356 33.5224 17.8383L29.0653 14.116C28.932 14.0019 28.7628 13.9387 28.5497 13.9389C27.8468 14.0005 27.592 14.8388 28.1111 15.259ZM16.6711 13.9403C16.5037 13.9459 16.343 14.0078 16.2151 14.116L11.7536 17.8382C11.3977 18.1355 11.3977 18.6825 11.7536 18.9797L16.2151 22.6963C16.9824 23.4109 18.0072 22.1793 17.1649 21.5547L13.3889 18.4089L17.1649 15.2589C17.7144 14.809 17.3809 13.9187 16.6711 13.9403ZM1.81823 30.3079H43.4578V34.0229C43.4578 34.4478 43.1419 34.7636 42.7171 34.7636H2.56473C2.13993 34.7636 1.81823 34.4478 1.81823 34.0229V30.3079ZM24.1666 31.7937L21.1153 31.7951C20.1674 31.9084 20.2311 33.2511 21.1501 33.2765H24.1259C25.1471 33.3667 25.2321 31.8142 24.1666 31.7937ZM18.4677 37.6813C18.1692 37.6757 17.8959 37.8477 17.7735 38.1199C17.4154 38.888 16.7739 39.7848 15.6661 40.7138H14.4593C13.2363 40.7138 12.2314 41.726 12.2314 42.949V44.4303C12.2299 44.841 12.5614 45.1752 12.9721 45.1768H32.304C32.7169 45.1783 33.052 44.8433 33.0504 44.4303V42.949C33.0504 41.726 32.0398 40.7138 30.8168 40.7138H29.6113C28.5037 39.7849 27.8621 38.8879 27.504 38.1199C27.3781 37.8406 27.0939 37.6671 26.788 37.6828C26.2568 37.7109 25.925 38.2698 26.1563 38.7489C26.4461 39.3706 26.8888 40.0375 27.4851 40.7138H17.7923C18.3887 40.0375 18.8313 39.3706 19.1212 38.7489C19.3573 38.2612 19.0094 37.6929 18.4677 37.6813ZM14.4593 42.2025H30.8168C31.2415 42.2025 31.5633 42.5242 31.5633 42.949V43.6897H13.7186V42.949C13.7186 42.5242 14.0344 42.2025 14.4593 42.2025Z" fill="#FF8137"/>
</svg>
