<svg width="101" height="96" viewBox="0 0 101 96" fill="none" xmlns="http://www.w3.org/2000/svg">
<path d="M101 48.0201L91.8758 42.7675L83.1364 37.7368C78.4233 16.1608 59.16 0 36.107 0C35.4004 0 34.6994 0.0181236 34 0.0495756V95.9512C34.6986 95.9811 35.3997 96 36.107 96C59.1419 96 78.3941 79.8651 83.1261 58.3127L91.8758 53.2741L101 48.0201Z" fill="#B39BE2"/>
<path d="M71 63C69.0962 67.5204 66.3057 71.6277 62.7878 75.0874C59.27 78.5471 55.0937 81.2915 50.4975 83.1639C45.9012 85.0363 40.975 86 36 86C31.025 86 26.0988 85.0363 21.5025 83.1639C16.9063 81.2915 12.73 78.5471 9.21216 75.0874C5.69433 71.6276 2.90383 67.5204 1 63" stroke="#B7A3E0" stroke-width="2"/>
</svg>
