<svg width="54" height="54" viewBox="0 0 54 54" fill="none" xmlns="http://www.w3.org/2000/svg">
<g clip-path="url(#clip0_687_3751)">
<path d="M0.593262 33.6062C0.910457 40.9597 11.3556 40.9597 11.6728 33.6062V28.0664H6.13301C4.66451 28.0688 3.25682 28.6532 2.21843 29.6916C1.18003 30.73 0.595625 32.1377 0.593262 33.6062Z" fill="#E1185A"/>
<path d="M33.93 25.2297C35.3985 25.225 36.8055 24.6392 37.8435 23.6003C38.8815 22.5615 39.4662 21.154 39.4697 19.6855V5.81373C39.1525 -1.53984 28.7074 -1.54431 28.3857 5.81373V19.7123C28.3963 21.1769 28.9847 22.5782 30.0229 23.6114C31.0611 24.6446 32.4653 25.2262 33.93 25.2297Z" fill="#2BB77D"/>
<path d="M20.0092 28.0664C18.5407 28.0688 17.133 28.6532 16.0946 29.6916C15.0563 30.73 14.4718 32.1377 14.4695 33.6062V47.4823C14.7867 54.8314 25.2318 54.8359 25.549 47.4823V33.6062C25.5466 32.1377 24.9622 30.73 23.9238 29.6916C22.8854 28.6532 21.4777 28.0688 20.0092 28.0664Z" fill="#E1185A"/>
<path d="M53.3459 19.6857C53.0243 12.3366 42.5836 12.3366 42.262 19.6857V25.2299H47.8062C49.2747 25.2252 50.6817 24.6394 51.7197 23.6005C52.7578 22.5617 53.3424 21.1542 53.3459 19.6857Z" fill="#2BB77D"/>
<path d="M6.13313 25.2295H20.0093C27.3584 24.9078 27.3673 14.4672 20.0093 14.1455H6.13313C-1.21597 14.4627 -1.22044 24.9078 6.13313 25.2295Z" fill="#33C6F1"/>
<path d="M33.93 41.9385H28.3857V47.4827C28.3893 48.952 28.9745 50.3602 30.0135 51.3991C31.0525 52.4381 32.4606 53.0234 33.93 53.0269C41.2835 52.7053 41.2791 42.2601 33.93 41.9385Z" fill="#EDB429"/>
<path d="M47.8062 28.0664H33.93C26.5764 28.3836 26.5764 38.8287 33.93 39.1459H47.8062C55.1553 38.8287 55.1597 28.3836 47.8062 28.0664Z" fill="#EDB429"/>
<path d="M20.0091 0.269531C12.6555 0.591194 12.6555 11.0318 20.0091 11.3535H25.5488V5.80929C25.5453 4.34114 24.9605 2.93413 23.9224 1.896C22.8842 0.857857 21.4772 0.27307 20.0091 0.269531Z" fill="#33C6F1"/>
</g>
<defs>
<clipPath id="clip0_687_3751">
<rect width="52.7527" height="52.7527" fill="white" transform="translate(0.593262 0.269531)"/>
</clipPath>
</defs>
</svg>
