<svg width="19" height="19" viewBox="0 0 19 19" fill="none" xmlns="http://www.w3.org/2000/svg">
<g clip-path="url(#clip0_1084_66)">
<path d="M8.3043 18.126L3.02667 12.6454C2.36629 11.9592 2.36629 10.8469 3.02667 10.1608C3.68739 9.47504 4.75848 9.47504 5.41919 10.1608L9.50056 14.3992L13.5819 10.1608C14.2426 9.47504 15.3137 9.47504 15.9744 10.1608C16.6348 10.8469 16.6348 11.9592 15.9744 12.6454L10.6968 18.126C10.0361 18.8118 8.96501 18.8118 8.3043 18.126Z" fill="white"/>
<path d="M8.3043 9.13208L3.02667 3.65147C2.36629 2.96533 2.36629 1.85305 3.02667 1.16692C3.68739 0.481143 4.75848 0.481143 5.41919 1.16692L9.50056 5.40526L13.5819 1.16692C14.2426 0.481143 15.3137 0.481143 15.9744 1.16692C16.6348 1.85305 16.6348 2.96534 15.9744 3.65147L10.6968 9.13208C10.0361 9.81786 8.96501 9.81786 8.3043 9.13208Z" fill="white"/>
</g>
<defs>
<clipPath id="clip0_1084_66">
<rect width="17.9876" height="17.3214" fill="white" transform="translate(18.1611 0.652588) rotate(90)"/>
</clipPath>
</defs>
</svg>
