<svg width="20" height="20" viewBox="0 0 20 20" fill="none" xmlns="http://www.w3.org/2000/svg">
<g clip-path="url(#clip0_687_3394)">
<path d="M14.3991 4.86399L6.59953 4.86402C6.2481 4.86399 5.96318 5.14891 5.96318 5.50037C5.96318 5.85183 6.24807 6.13673 6.59953 6.13673L12.8629 6.13676L4.95007 14.0505C4.70159 14.299 4.70162 14.7019 4.95013 14.9504C5.19863 15.1989 5.6016 15.1988 5.85008 14.9503L13.7628 7.03677L13.7628 13.2999C13.7628 13.6514 14.0477 13.9363 14.3992 13.9363C14.5749 13.9363 14.734 13.8651 14.8491 13.75C14.9643 13.6348 15.0355 13.4757 15.0355 13.3L15.0355 5.50034C15.0355 5.33157 14.9684 5.1697 14.8491 5.05037C14.7298 4.93103 14.5679 4.86396 14.3991 4.86399Z" fill="#161616"/>
</g>
<defs>
<clipPath id="clip0_687_3394">
<rect width="14" height="14" fill="white" transform="translate(0 10) rotate(-45)"/>
</clipPath>
</defs>
</svg>
