<svg width="18" height="18" viewBox="0 0 18 18" fill="none" xmlns="http://www.w3.org/2000/svg">
<path d="M8.24994 1.50016L8.24994 14.6897L4.28019 10.7199C4.211 10.6483 4.12825 10.5911 4.03674 10.5518C3.94524 10.5125 3.84682 10.4918 3.74724 10.491C3.64766 10.4901 3.5489 10.5091 3.45672 10.5468C3.36455 10.5845 3.28081 10.6402 3.21039 10.7106C3.13997 10.781 3.08428 10.8648 3.04657 10.9569C3.00886 11.0491 2.98989 11.1479 2.99075 11.2475C2.99162 11.347 3.01231 11.4455 3.05161 11.537C3.09092 11.6285 3.14806 11.7112 3.21969 11.7804L8.46969 17.0304C8.61034 17.171 8.80107 17.25 8.99994 17.25C9.19881 17.25 9.38955 17.171 9.53019 17.0304L14.7802 11.7804C14.9168 11.639 14.9924 11.4495 14.9907 11.2529C14.989 11.0562 14.9101 10.8681 14.7711 10.729C14.632 10.59 14.4439 10.5111 14.2472 10.5094C14.0506 10.5077 13.8611 10.5833 13.7197 10.7199L9.74994 14.6897L9.74994 1.50016C9.74994 1.30124 9.67092 1.11048 9.53027 0.969824C9.38962 0.829172 9.19885 0.750155 8.99994 0.750155C8.80103 0.750155 8.61026 0.829172 8.46961 0.969824C8.32896 1.11048 8.24994 1.30124 8.24994 1.50016Z" fill="white"/>
</svg>
