<svg width="23" height="22" viewBox="0 0 23 22" fill="none" xmlns="http://www.w3.org/2000/svg">
<path d="M11.1999 1.83331C6.14537 1.83331 2.0332 5.94548 2.0332 11C2.0332 16.0545 6.14537 20.1666 11.1999 20.1666C16.2544 20.1666 20.3665 16.0545 20.3665 11C20.3665 5.94548 16.2544 1.83331 11.1999 1.83331ZM11.1999 18.3333C7.15645 18.3333 3.86654 15.0434 3.86654 11C3.86654 6.95656 7.15645 3.66665 11.1999 3.66665C15.2433 3.66665 18.5332 6.95656 18.5332 11C18.5332 15.0434 15.2433 18.3333 11.1999 18.3333Z" fill="#161616"/>
<path d="M8.44971 15.5834L15.783 11L8.44971 6.41669V15.5834Z" fill="#161616"/>
</svg>
