<svg width="15" height="14" viewBox="0 0 15 14" fill="none" xmlns="http://www.w3.org/2000/svg">
<path d="M3.83101 12.1188C3.81102 12.2043 3.81066 12.2933 3.82995 12.379C3.84925 12.4647 3.88769 12.545 3.94241 12.6137C3.99713 12.6825 4.0667 12.7379 4.1459 12.776C4.22511 12.814 4.31189 12.8336 4.39976 12.8333C4.51498 12.8334 4.62764 12.7993 4.72351 12.7353L7.89976 10.6178L11.076 12.7353C11.1754 12.8013 11.2926 12.8353 11.4118 12.8327C11.531 12.83 11.6466 12.791 11.743 12.7207C11.8394 12.6505 11.9119 12.5524 11.9509 12.4396C11.9898 12.3269 11.9933 12.205 11.9609 12.0902L10.894 8.35684L13.54 5.97568C13.6248 5.89937 13.6853 5.79989 13.7141 5.68956C13.7429 5.57922 13.7387 5.46286 13.7021 5.35486C13.6655 5.24686 13.598 5.15196 13.508 5.08191C13.4181 5.01185 13.3095 4.9697 13.1958 4.96068L9.87026 4.69584L8.43117 1.51026C8.38534 1.40766 8.3108 1.32051 8.21653 1.25934C8.12227 1.19817 8.01232 1.16559 7.89994 1.16553C7.78757 1.16547 7.67758 1.19793 7.58325 1.25899C7.48892 1.32006 7.41428 1.40712 7.36834 1.50968L5.92926 4.69584L2.60367 4.96009C2.49194 4.96894 2.38512 5.0098 2.296 5.07777C2.20687 5.14574 2.13922 5.23795 2.10113 5.34336C2.06303 5.44877 2.05612 5.56293 2.08121 5.67217C2.10629 5.78141 2.16232 5.88111 2.24259 5.95934L4.70075 8.35509L3.83101 12.1188ZM7.89976 3.16693L9.09092 5.80418L9.43392 5.83159L11.7515 6.01534L9.84342 7.73268L9.84284 7.73384L9.57276 7.97651L9.67251 8.32476V8.32651L10.4034 10.8844L7.89976 9.21551V3.16693Z" fill="#F8BF39"/>
</svg>
