<svg width="16" height="16" viewBox="0 0 16 16" fill="none" xmlns="http://www.w3.org/2000/svg">
<path fill-rule="evenodd" clip-rule="evenodd" d="M7.09973 8.97707L10.5283 5.54846L11.4711 6.49127L7.09973 10.8627L4.52832 8.29127L5.47113 7.34847L7.09973 8.97707Z" fill="#505359"/>
<path fill-rule="evenodd" clip-rule="evenodd" d="M7.99967 2.66658C5.05415 2.66658 2.66634 5.0544 2.66634 7.99992C2.66634 10.9454 5.05415 13.3332 7.99967 13.3332C10.9452 13.3332 13.333 10.9454 13.333 7.99992C13.333 5.0544 10.9452 2.66658 7.99967 2.66658ZM1.33301 7.99992C1.33301 4.31802 4.31777 1.33325 7.99967 1.33325C11.6815 1.33325 14.6663 4.31802 14.6663 7.99992C14.6663 11.6818 11.6815 14.6666 7.99967 14.6666C4.31777 14.6666 1.33301 11.6818 1.33301 7.99992Z" fill="#505359"/>
</svg>
