<svg width="15" height="14" viewBox="0 0 15 14" fill="none" xmlns="http://www.w3.org/2000/svg">
<g clip-path="url(#clip0_793_31)">
<path d="M7.5 14C11.366 14 14.5 10.866 14.5 7C14.5 3.13401 11.366 0 7.5 0C3.63401 0 0.5 3.13401 0.5 7C0.5 10.866 3.63401 14 7.5 14Z" fill="#1BB121"/>
<path d="M11.0246 4.35667C10.9284 4.26039 10.8141 4.18401 10.6884 4.13191C10.5626 4.0798 10.4278 4.05298 10.2917 4.05298C10.1556 4.05298 10.0208 4.0798 9.89501 4.13191C9.76925 4.18401 9.65499 4.26039 9.55875 4.35667L6.47054 7.4446L5.44133 6.41538C5.34509 6.3191 5.23082 6.24272 5.10506 6.19062C4.9793 6.13851 4.8445 6.11169 4.70838 6.11169C4.57225 6.11169 4.43745 6.13851 4.31169 6.19062C4.18593 6.24272 4.07166 6.3191 3.97543 6.41538C3.87919 6.51161 3.80285 6.62586 3.75077 6.75159C3.69868 6.87733 3.67187 7.01209 3.67188 7.14819C3.67188 7.28429 3.69868 7.41905 3.75077 7.54479C3.80285 7.67052 3.87919 7.78477 3.97543 7.881L5.73773 9.64331C5.83397 9.73959 5.94823 9.81596 6.07399 9.86807C6.19976 9.92018 6.33455 9.947 6.47068 9.947C6.60681 9.947 6.74161 9.92018 6.86737 9.86807C6.99313 9.81596 7.10739 9.73959 7.20363 9.64331L11.0246 5.82229C11.1209 5.72606 11.1972 5.61181 11.2493 5.48608C11.3014 5.36034 11.3282 5.22558 11.3282 5.08948C11.3282 4.95338 11.3014 4.81862 11.2493 4.69288C11.1972 4.56715 11.1209 4.4529 11.0246 4.35667Z" fill="white"/>
</g>
<defs>
<clipPath id="clip0_793_31">
<rect width="14" height="14" fill="white" transform="translate(0.5)"/>
</clipPath>
</defs>
</svg>
