<svg width="21" height="22" viewBox="0 0 21 22" fill="none" xmlns="http://www.w3.org/2000/svg">
<path fill-rule="evenodd" clip-rule="evenodd" d="M10.504 1.81769C15.5773 1.81769 19.6916 5.93201 19.6916 11.0053C19.6916 16.0786 15.5773 20.1929 10.504 20.1929C5.43073 20.1929 1.31641 16.0786 1.31641 11.0053C1.31641 5.93201 5.43073 1.81769 10.504 1.81769ZM8.59609 13.9895L6.34674 11.7383C5.96353 11.3548 5.96345 10.7296 6.34674 10.3462C6.73011 9.96291 7.35817 9.96531 7.73875 10.3462L9.32453 11.9332L13.2694 7.98834C13.6528 7.60497 14.2781 7.60497 14.6614 7.98834C15.0448 8.37163 15.0442 8.99752 14.6614 9.38035L10.0194 14.0224C9.63659 14.4052 9.01069 14.4057 8.6274 14.0224C8.61663 14.0116 8.60624 14.0006 8.59609 13.9895Z" fill="#F66715"/>
</svg>
