<svg width="100" height="95" viewBox="0 0 100 95" fill="none" xmlns="http://www.w3.org/2000/svg">
<g opacity="0.16">
<path d="M65.8738 83.7265L82.6699 0.235487L8.26859 51.7039C8.25753 51.7112 8.2486 51.7211 8.2426 51.7329C8.2366 51.7446 8.23376 51.7578 8.23441 51.7709C8.23505 51.7841 8.23913 51.7969 8.24625 51.808C8.25337 51.8191 8.26324 51.8282 8.27494 51.8343L65.7609 83.7755C65.7712 83.7817 65.7828 83.7853 65.7948 83.7861C65.8068 83.7869 65.8189 83.7849 65.8299 83.7801C65.841 83.7753 65.8507 83.7679 65.8584 83.7586C65.866 83.7493 65.8713 83.7383 65.8738 83.7265Z" fill="#719BFF"/>
<path d="M79.3913 5.93835L43.4377 71.3739L38.9024 84.6773C38.898 84.6921 38.8891 84.7051 38.8771 84.7147C38.865 84.7243 38.8503 84.7299 38.8349 84.7308C38.8195 84.7318 38.8042 84.728 38.791 84.7201C38.7778 84.7121 38.7672 84.7003 38.761 84.6862L28.523 63.11C28.5163 63.0805 28.5096 63.051 30.9694 60.2279L79.3913 5.93835Z" fill="#B1C0FB"/>
<path d="M39.0531 84.6666L49.865 75.0602C49.8734 75.0511 49.8794 75.0402 49.8826 75.0283C49.8858 75.0165 49.886 75.004 49.8832 74.992C49.8805 74.9801 49.8749 74.9689 49.8669 74.9596C49.859 74.9503 49.8488 74.9431 49.8374 74.9385L43.5038 71.4173C43.4943 71.411 43.4838 71.4067 43.4727 71.4046C43.4615 71.4026 43.45 71.4028 43.4389 71.4054C43.4279 71.4079 43.4175 71.4126 43.4084 71.4193C43.3992 71.4259 43.3914 71.4344 43.3857 71.4442L38.9148 84.5702C38.902 84.5885 38.897 84.6112 38.9009 84.6332C38.9048 84.6552 38.9174 84.6747 38.9358 84.6875C38.9541 84.7003 38.9767 84.7053 38.9987 84.7014C39.0208 84.6974 39.0403 84.6849 39.0531 84.6666Z" fill="#5388F2"/>
</g>
</svg>
