<svg width="53" height="72" viewBox="0 0 53 72" fill="none" xmlns="http://www.w3.org/2000/svg">
<g clip-path="url(#clip0_1129_1667)">
<path d="M47.7543 12.9712L43.4945 60.6916L24.3466 66.0001L5.25137 60.6991L0.996094 12.9712H47.7543Z" fill="#004CE8"/>
<path d="M39.8513 57.6509L43.4916 16.8716H24.3789V61.9405L39.8513 57.6509Z" fill="#0065F4"/>
<path d="M10.7598 34.5742L11.2844 40.4278H24.3837L26.9016 37.501L24.3837 34.5742H10.7598Z" fill="#EBEBEB"/>
<path d="M24.3813 22.7271H24.361H9.70312L10.2352 28.5807H24.3813L26.8992 25.6538L24.3813 22.7271Z" fill="#EBEBEB"/>
<path d="M24.3846 55.8682L26.9025 52.7641L24.3846 49.778L24.359 49.7848L17.8398 48.0245L17.423 43.356H14.2552H11.5469L12.367 52.547L24.3577 55.8757L24.3846 55.8682Z" fill="#EBEBEB"/>
<path d="M12.0039 0H19.0937V2.96481H14.9687V5.92962H19.0937V8.89443H12.0039V0Z" fill="black"/>
<path d="M20.5117 0H27.6015V2.5781H23.4765V3.09372H27.6015V9.02334H20.5117V6.31634H24.6367V5.80072H20.5117V0Z" fill="black"/>
<path d="M29.0195 0H36.1093V2.5781H31.9843V3.09372H36.1093V9.02334H29.0195V6.31634H33.1445V5.80072H29.0195V0Z" fill="black"/>
<path d="M31.5655 40.4285L30.8861 48.0202L24.3574 49.7824V55.8723L36.3577 52.5465L36.4457 51.5575L37.8213 36.1468L37.9641 34.575L39.0209 22.7271H24.3574V28.5807H32.6058L32.0731 34.575H24.3574V40.4285H31.5655Z" fill="white"/>
</g>
<defs>
<clipPath id="clip0_1129_1667">
<rect width="52" height="72" fill="white" transform="translate(0.5)"/>
</clipPath>
</defs>
</svg>
