<svg width="53" height="53" viewBox="0 0 53 53" fill="none" xmlns="http://www.w3.org/2000/svg">
<g clip-path="url(#clip0_1093_2147)">
<path d="M47.9677 6.26804C42.1438 6.26804 31.5468 5.08206 28.2274 0.711365C27.6633 -0.174987 26.4288 -0.253836 25.7547 0.592079C21.8466 4.96197 11.225 6.26804 4.96875 6.26804C4.11111 6.26804 3.41602 6.96556 3.41602 7.82644V32.764C3.41602 43.9958 16.3449 50.8569 26.1393 52.9903C27.4041 53.2653 49.5204 47.6629 49.5204 32.764V7.82644C49.5204 6.96597 48.8254 6.26804 47.9677 6.26804ZM46.415 32.764C46.415 44.4689 29.0919 49.2149 26.468 49.8655C23.8442 49.2149 6.52148 44.4689 6.52148 32.764V9.36745C18.5119 9.09046 24.4915 5.63684 26.8687 3.76467C31.6588 8.00112 40.0354 9.22269 46.415 9.36785V32.764Z" fill="#E09268"/>
<path d="M18.7103 20.2435V24.9712H17.1523C16.2951 24.9712 15.5996 25.6691 15.5996 26.5296V38.9984C15.5996 39.8592 16.2951 40.5572 17.1523 40.5572H35.7851C36.6428 40.5572 37.3379 39.8592 37.3379 38.9984V26.5296C37.3379 25.6691 36.6428 24.9712 35.7851 24.9712H21.8158V20.2435C21.8158 17.8076 23.7341 15.6196 26.5156 15.6196C29.0558 15.6196 31.1221 17.6936 31.1221 20.2435C31.1221 21.1039 31.8176 21.8019 32.6748 21.8019C33.5325 21.8019 34.2275 21.1039 34.2275 20.2435C34.2275 15.9751 30.7683 12.5024 26.5156 12.5024C21.9945 12.5024 18.7103 16.1158 18.7103 20.2435ZM34.2324 37.44H18.7051V28.0884H34.2324V37.44Z" fill="#E09268"/>
<path d="M28.0215 32.764C28.0215 31.9031 27.3264 31.2056 26.4687 31.2056C25.6115 31.2056 24.916 31.9031 24.916 32.764C24.916 33.6248 25.6115 34.3228 26.4687 34.3228C27.3264 34.3228 28.0215 33.6248 28.0215 32.764Z" fill="#E09268"/>
</g>
<defs>
<clipPath id="clip0_1093_2147">
<rect width="53" height="53" fill="white"/>
</clipPath>
</defs>
</svg>
