<svg width="198" height="49" viewBox="0 0 198 49" fill="none" xmlns="http://www.w3.org/2000/svg">
<path d="M195.177 35.5991C194.38 35.5991 193.704 35.3555 193.151 34.8684C192.597 34.3813 192.32 33.6838 192.32 32.776C192.32 31.846 192.597 31.1153 193.151 30.5839C193.726 30.0525 194.402 29.7867 195.177 29.7867C195.952 29.7867 196.616 30.0525 197.169 30.5839C197.723 31.0931 198 31.8128 198 32.7427C198 33.6727 197.723 34.3813 197.169 34.8684C196.616 35.3555 195.952 35.5991 195.177 35.5991Z" fill="#292929"/>
<path d="M180.608 35.3998C178.837 35.3998 177.287 35.0455 175.958 34.337C174.63 33.6063 173.6 32.5766 172.869 31.2481C172.139 29.8974 171.773 28.3032 171.773 26.4654C171.773 24.5833 172.139 22.9669 172.869 21.6162C173.622 20.2434 174.663 19.1916 175.992 18.4609C177.32 17.7302 178.848 17.3649 180.575 17.3649C182.346 17.3649 183.885 17.7413 185.192 18.4941C186.498 19.247 187.517 20.2987 188.247 21.6494C188.978 23.0001 189.343 24.6165 189.343 26.4986C189.343 28.3364 188.978 29.9306 188.247 31.2813C187.539 32.6099 186.531 33.6284 185.225 34.337C183.941 35.0455 182.402 35.3998 180.608 35.3998ZM180.542 31.1485C181.56 31.1485 182.38 30.927 183 30.4842C183.62 30.0413 184.062 29.4657 184.328 28.7571C184.616 28.0264 184.76 27.2625 184.76 26.4654C184.76 25.6682 184.616 24.9043 184.328 24.1736C184.062 23.4429 183.62 22.8451 183 22.3801C182.402 21.893 181.582 21.6494 180.542 21.6494C179.545 21.6494 178.737 21.893 178.117 22.3801C177.497 22.8451 177.043 23.4429 176.755 24.1736C176.49 24.9043 176.357 25.6682 176.357 26.4654C176.357 27.2846 176.49 28.0485 176.755 28.7571C177.043 29.4657 177.497 30.0413 178.117 30.4842C178.737 30.927 179.545 31.1485 180.542 31.1485Z" fill="#292929"/>
<path d="M144.152 35.167V17.6635H148.337L148.736 19.6231C149.179 19.0031 149.666 18.5382 150.197 18.2282C150.751 17.896 151.304 17.6746 151.858 17.5639C152.411 17.4532 152.921 17.3978 153.386 17.3978C154.426 17.3978 155.345 17.5971 156.142 17.9957C156.94 18.3942 157.582 19.0364 158.069 19.9221C158.534 19.2799 159.043 18.7817 159.597 18.4274C160.15 18.051 160.737 17.7853 161.357 17.6303C161.977 17.4753 162.608 17.3978 163.25 17.3978C164.601 17.3978 165.686 17.6857 166.505 18.2614C167.346 18.8149 167.955 19.5899 168.332 20.5863C168.73 21.5827 168.93 22.7452 168.93 24.0737V35.167H164.28V25.3026C164.28 24.9041 164.258 24.4944 164.213 24.0737C164.169 23.653 164.058 23.2545 163.881 22.8781C163.726 22.5016 163.483 22.1916 163.15 21.9481C162.84 21.7045 162.398 21.5827 161.822 21.5827C161.268 21.5827 160.803 21.7045 160.427 21.9481C160.051 22.1916 159.752 22.5238 159.53 22.9445C159.309 23.343 159.143 23.7859 159.032 24.273C158.943 24.738 158.899 25.2141 158.899 25.7012V35.167H154.249V25.2694C154.249 24.893 154.227 24.4944 154.183 24.0737C154.139 23.653 154.039 23.2545 153.884 22.8781C153.729 22.5016 153.474 22.1916 153.12 21.9481C152.788 21.7045 152.323 21.5827 151.725 21.5827C150.906 21.5827 150.275 21.8263 149.832 22.3134C149.411 22.7784 149.134 23.343 149.002 24.0073C148.869 24.6494 148.802 25.2473 148.802 25.8008V35.167H144.152Z" fill="#292929"/>
<path d="M130.822 35.3995C130.025 35.3995 129.25 35.2999 128.497 35.1006C127.767 34.8792 127.113 34.5471 126.538 34.1042C125.962 33.6614 125.508 33.1078 125.176 32.4435C124.844 31.7793 124.678 31.0043 124.678 30.1186C124.678 28.9229 124.921 27.9708 125.408 27.2622C125.896 26.5315 126.549 25.978 127.368 25.6016C128.187 25.2251 129.128 24.9705 130.191 24.8376C131.276 24.7048 132.394 24.6384 133.546 24.6384H136.07C136.07 23.9962 135.948 23.4316 135.705 22.9445C135.483 22.4352 135.14 22.0477 134.675 21.782C134.21 21.4942 133.612 21.3502 132.881 21.3502C132.416 21.3502 131.963 21.4167 131.52 21.5495C131.099 21.6602 130.745 21.8263 130.457 22.0477C130.169 22.2691 129.981 22.557 129.892 22.9113H125.176C125.309 21.937 125.619 21.1067 126.106 20.4203C126.593 19.7117 127.202 19.136 127.933 18.6932C128.663 18.2503 129.46 17.9292 130.324 17.73C131.21 17.5085 132.118 17.3978 133.048 17.3978C135.594 17.3978 137.476 18.1285 138.694 19.5899C139.912 21.0292 140.521 23.0773 140.521 25.7344V35.167H136.336L136.269 32.9085C135.716 33.6835 135.085 34.2481 134.376 34.6024C133.69 34.9567 133.025 35.1781 132.383 35.2667C131.741 35.3553 131.221 35.3995 130.822 35.3995ZM131.885 31.7128C132.66 31.7128 133.369 31.5578 134.011 31.2479C134.653 30.9379 135.162 30.5172 135.539 29.9857C135.915 29.4543 136.103 28.8565 136.103 28.1922V27.7604H132.915C132.45 27.7604 131.996 27.7826 131.553 27.8269C131.132 27.8711 130.745 27.9597 130.39 28.0926C130.058 28.2033 129.793 28.3915 129.593 28.6572C129.394 28.9229 129.294 29.2772 129.294 29.72C129.294 30.1629 129.405 30.5393 129.627 30.8493C129.87 31.1371 130.191 31.3586 130.59 31.5136C130.988 31.6464 131.42 31.7128 131.885 31.7128Z" fill="#292929"/>
<path d="M105.168 35.1673V17.6638H109.519L109.751 19.6898C110.239 19.092 110.792 18.627 111.412 18.2948C112.054 17.9406 112.696 17.697 113.338 17.5641C114.003 17.4313 114.601 17.3649 115.132 17.3649C116.815 17.3649 118.121 17.7302 119.051 18.4609C120.003 19.1916 120.679 20.1769 121.077 21.4169C121.498 22.6347 121.708 23.9965 121.708 25.5022V35.1673H117.058V26.1C117.058 25.5686 117.014 25.0372 116.926 24.5058C116.837 23.9744 116.671 23.4872 116.427 23.0444C116.206 22.6015 115.885 22.2473 115.464 21.9815C115.043 21.7158 114.49 21.583 113.803 21.583C112.918 21.583 112.176 21.8044 111.578 22.2473C110.98 22.6901 110.537 23.2879 110.25 24.0408C109.962 24.7936 109.818 25.624 109.818 26.5318V35.1673H105.168Z" fill="#292929"/>
<path d="M92.4379 43.2381C91.0872 43.2381 89.7698 43.0609 88.4855 42.7067C87.2013 42.3524 85.9945 41.7545 84.8652 40.9131L86.4263 37.1932C87.1348 37.7246 87.943 38.1453 88.8509 38.4553C89.7587 38.7875 90.7662 38.9535 91.8733 38.9535C93.5783 38.9535 94.8404 38.555 95.6596 37.7579C96.501 36.9607 96.9217 35.8093 96.9217 34.3037V33.3737C96.5453 33.8829 96.0693 34.2926 95.4936 34.6026C94.94 34.8904 94.3422 35.1008 93.7 35.2336C93.0579 35.3665 92.4158 35.4329 91.7737 35.4329C90.0908 35.4329 88.7402 35.0786 87.7216 34.3701C86.7031 33.6615 85.9613 32.6983 85.4963 31.4805C85.0535 30.2405 84.832 28.8345 84.832 27.2624V17.6637H89.4819V26.2992C89.4819 26.8749 89.5151 27.4506 89.5816 28.0263C89.648 28.602 89.803 29.1334 90.0465 29.6206C90.2901 30.1077 90.6555 30.5062 91.1426 30.8162C91.6297 31.1041 92.2829 31.248 93.1022 31.248C94.165 31.248 94.9621 30.9934 95.4936 30.4841C96.025 29.9527 96.3793 29.2884 96.5564 28.4913C96.7557 27.6942 96.8553 26.8638 96.8553 26.0003V17.6637H101.505V32.643C101.505 34.2372 101.35 35.6875 101.04 36.9939C100.752 38.3003 100.254 39.4185 99.5456 40.3485C98.8592 41.2785 97.9292 41.987 96.7557 42.4742C95.6043 42.9834 94.165 43.2381 92.4379 43.2381Z" fill="#292929"/>
<path d="M61.1035 35.1673V11.6521H69.9715C72.4293 11.6521 74.5218 12.1171 76.2489 13.0471C77.9981 13.977 79.3266 15.3167 80.2345 17.0659C81.1645 18.8151 81.6295 20.9519 81.6295 23.4761C81.6295 25.956 81.1755 28.0706 80.2677 29.8199C79.382 31.547 78.0756 32.8755 76.3485 33.8055C74.6214 34.7133 72.5068 35.1673 70.0047 35.1673H61.1035ZM65.853 30.7831H69.9715C71.6101 30.7831 72.9275 30.4731 73.9239 29.8531C74.9203 29.2331 75.651 28.3696 76.116 27.2624C76.581 26.1553 76.8135 24.8821 76.8135 23.4429C76.8135 22.0479 76.581 20.7969 76.116 19.6898C75.6732 18.5605 74.9425 17.6748 73.9239 17.0327C72.9275 16.3906 71.5768 16.0695 69.8719 16.0695H65.853V30.7831Z" fill="#292929"/>
<rect width="48.8434" height="48.1921" rx="18" fill="#FF7322"/>
<path fill-rule="evenodd" clip-rule="evenodd" d="M17.6082 30.5853C18.8917 31.8688 20.527 32.7429 22.3072 33.097C24.0875 33.4511 25.9327 33.2694 27.6097 32.5747C29.2867 31.8801 30.72 30.7038 31.7284 29.1946C32.7368 27.6854 33.2751 25.911 33.2751 24.0959C33.2751 22.2808 32.7368 20.5064 31.7284 18.9972C30.72 17.488 29.2867 16.3117 27.6097 15.6171C25.9327 14.9225 24.0875 14.7407 22.3072 15.0948L21.5821 11.4496L22.3072 15.0948C20.527 15.4489 18.8917 16.323 17.6082 17.6065L12.3521 12.3504C14.6751 10.0273 17.6349 8.44528 20.8571 7.80435C24.0792 7.16342 27.4191 7.49237 30.4543 8.7496C33.4895 10.0068 36.0838 12.1359 37.909 14.8675C39.7342 17.5991 40.7084 20.8106 40.7084 24.0959C40.7084 27.3812 39.7342 30.5927 37.909 33.3243C36.0838 36.056 33.4895 38.185 30.4543 39.4422C27.4191 40.6995 24.0792 41.0284 20.8571 40.3875C17.6349 39.7465 14.6751 38.1645 12.3521 35.8415L17.6082 30.5853Z" fill="white"/>
</svg>
