<svg width="51" height="50" viewBox="0 0 51 50" fill="none" xmlns="http://www.w3.org/2000/svg">
<rect width="50.6757" height="50" rx="18" fill="#FF7322"/>
<path fill-rule="evenodd" clip-rule="evenodd" d="M18.271 31.7355C19.6027 33.0671 21.2993 33.974 23.1463 34.3414C24.9933 34.7088 26.9078 34.5202 28.6477 33.7995C30.3876 33.0789 31.8747 31.8584 32.9209 30.2926C33.9672 28.7268 34.5256 26.8858 34.5256 25.0026C34.5256 23.1194 33.9672 21.2785 32.9209 19.7126C31.8747 18.1468 30.3876 16.9264 28.6477 16.2057C26.9078 15.485 24.9933 15.2965 23.1463 15.6639L22.394 11.8819L23.1463 15.6639C21.2993 16.0313 19.6027 16.9381 18.271 18.2698L12.8177 12.8164C15.2279 10.4062 18.2987 8.76487 21.6417 8.09989C24.9848 7.43492 28.4499 7.77621 31.599 9.0806C34.7481 10.385 37.4397 12.5939 39.3333 15.428C41.227 18.2621 42.2378 21.5941 42.2378 25.0026C42.2378 28.4112 41.227 31.7432 39.3333 34.5772C37.4397 37.4113 34.7481 39.6203 31.599 40.9246C28.4499 42.229 24.9848 42.5703 21.6417 41.9053C18.2987 41.2404 15.2279 39.599 12.8177 37.1888L18.271 31.7355Z" fill="white"/>
</svg>
