<svg width="159" height="40" viewBox="0 0 159 40" fill="none" xmlns="http://www.w3.org/2000/svg">
<path d="M155.871 28.1965C155.265 28.1965 154.752 28.0115 154.331 27.6413C153.911 27.2712 153.7 26.7412 153.7 26.0514C153.7 25.3448 153.911 24.7896 154.331 24.3858C154.769 23.982 155.282 23.7802 155.871 23.7802C156.459 23.7802 156.964 23.982 157.385 24.3858C157.805 24.7728 158.016 25.3196 158.016 26.0262C158.016 26.7328 157.805 27.2712 157.385 27.6413C156.964 28.0115 156.459 28.1965 155.871 28.1965Z" fill="white"/>
<path d="M144.802 28.0441C143.456 28.0441 142.278 27.7749 141.269 27.2366C140.259 26.6813 139.477 25.899 138.922 24.8896C138.366 23.8633 138.089 22.6519 138.089 21.2555C138.089 19.8254 138.366 18.5973 138.922 17.571C139.494 16.5279 140.284 15.7287 141.294 15.1735C142.303 14.6183 143.464 14.3407 144.777 14.3407C146.122 14.3407 147.292 14.6267 148.284 15.1987C149.277 15.7708 150.051 16.5699 150.606 17.5962C151.161 18.6225 151.439 19.8507 151.439 21.2807C151.439 22.6772 151.161 23.8885 150.606 24.9148C150.068 25.9243 149.302 26.6982 148.31 27.2366C147.334 27.7749 146.165 28.0441 144.802 28.0441ZM144.751 24.8138C145.525 24.8138 146.148 24.6456 146.619 24.3091C147.09 23.9726 147.426 23.5352 147.628 22.9968C147.847 22.4416 147.956 21.8612 147.956 21.2555C147.956 20.6498 147.847 20.0694 147.628 19.5142C147.426 18.959 147.09 18.5047 146.619 18.1514C146.165 17.7813 145.542 17.5962 144.751 17.5962C143.994 17.5962 143.38 17.7813 142.909 18.1514C142.438 18.5047 142.093 18.959 141.874 19.5142C141.672 20.0694 141.572 20.6498 141.572 21.2555C141.572 21.878 141.672 22.4584 141.874 22.9968C142.093 23.5352 142.438 23.9726 142.909 24.3091C143.38 24.6456 143.994 24.8138 144.751 24.8138Z" fill="white"/>
<path d="M117.103 27.8683V14.5687H120.282L120.585 16.0577C120.922 15.5866 121.292 15.2333 121.696 14.9977C122.116 14.7454 122.537 14.5771 122.957 14.493C123.378 14.4089 123.765 14.3668 124.118 14.3668C124.909 14.3668 125.607 14.5182 126.213 14.8211C126.819 15.1239 127.306 15.6118 127.677 16.2848C128.03 15.7969 128.417 15.4183 128.838 15.1492C129.258 14.8631 129.704 14.6612 130.175 14.5435C130.646 14.4257 131.126 14.3668 131.614 14.3668C132.64 14.3668 133.464 14.5855 134.087 15.023C134.726 15.4436 135.189 16.0324 135.475 16.7895C135.778 17.5466 135.929 18.4299 135.929 19.4394V27.8683H132.396V20.3731C132.396 20.0703 132.379 19.759 132.345 19.4394C132.312 19.1197 132.228 18.8169 132.093 18.5308C131.975 18.2448 131.79 18.0093 131.538 17.8242C131.302 17.6392 130.966 17.5466 130.528 17.5466C130.108 17.5466 129.754 17.6392 129.468 17.8242C129.182 18.0093 128.955 18.2617 128.787 18.5813C128.619 18.8842 128.493 19.2206 128.408 19.5908C128.341 19.9441 128.308 20.3058 128.308 20.6759V27.8683H124.774V20.3479C124.774 20.0619 124.758 19.759 124.724 19.4394C124.69 19.1197 124.615 18.8169 124.497 18.5308C124.379 18.2448 124.186 18.0093 123.916 17.8242C123.664 17.6392 123.311 17.5466 122.856 17.5466C122.234 17.5466 121.754 17.7317 121.418 18.1018C121.098 18.4551 120.888 18.8842 120.787 19.3889C120.686 19.8768 120.636 20.331 120.636 20.7517V27.8683H117.103Z" fill="white"/>
<path d="M106.973 28.045C106.368 28.045 105.779 27.9693 105.207 27.8179C104.652 27.6496 104.155 27.3973 103.718 27.0608C103.28 26.7243 102.936 26.3037 102.683 25.7989C102.431 25.2942 102.305 24.7054 102.305 24.0324C102.305 23.1239 102.49 22.4004 102.86 21.8621C103.23 21.3069 103.726 20.8862 104.349 20.6002C104.971 20.3142 105.686 20.1207 106.494 20.0198C107.318 19.9188 108.168 19.8684 109.043 19.8684H110.961C110.961 19.3805 110.868 18.9514 110.683 18.5813C110.515 18.1944 110.254 17.8999 109.901 17.698C109.548 17.4793 109.093 17.37 108.538 17.37C108.185 17.37 107.84 17.4204 107.503 17.5214C107.184 17.6055 106.915 17.7317 106.696 17.8999C106.477 18.0682 106.334 18.2869 106.267 18.5561H102.683C102.784 17.8158 103.02 17.1849 103.39 16.6633C103.76 16.125 104.223 15.6875 104.778 15.351C105.333 15.0146 105.939 14.7706 106.595 14.6192C107.268 14.4509 107.958 14.3668 108.664 14.3668C110.599 14.3668 112.029 14.922 112.954 16.0324C113.88 17.126 114.342 18.6823 114.342 20.7012V27.8683H111.163L111.112 26.1523C110.692 26.7411 110.212 27.1701 109.674 27.4393C109.152 27.7085 108.647 27.8768 108.16 27.944C107.672 28.0113 107.276 28.045 106.973 28.045ZM107.781 25.2437C108.37 25.2437 108.908 25.126 109.396 24.8904C109.884 24.6549 110.271 24.3352 110.557 23.9314C110.843 23.5277 110.986 23.0734 110.986 22.5687V22.2406H108.563C108.21 22.2406 107.865 22.2574 107.529 22.2911C107.209 22.3247 106.915 22.392 106.645 22.493C106.393 22.5771 106.191 22.7201 106.04 22.922C105.888 23.1239 105.813 23.3931 105.813 23.7296C105.813 24.066 105.897 24.3521 106.065 24.5876C106.25 24.8063 106.494 24.9746 106.797 25.0923C107.1 25.1933 107.428 25.2437 107.781 25.2437Z" fill="white"/>
<path d="M87.4805 27.8675V14.5678H90.7864L90.9631 16.1073C91.3332 15.653 91.7538 15.2997 92.2249 15.0473C92.7128 14.7781 93.2007 14.5931 93.6886 14.4921C94.1934 14.3912 94.6476 14.3407 95.0514 14.3407C96.3301 14.3407 97.3227 14.6183 98.0293 15.1735C98.7528 15.7287 99.2659 16.4774 99.5687 17.4195C99.8884 18.3449 100.048 19.3796 100.048 20.5236V27.8675H96.5151V20.9779C96.5151 20.5741 96.4815 20.1703 96.4142 19.7665C96.3469 19.3628 96.2207 18.9926 96.0356 18.6561C95.8674 18.3197 95.6234 18.0505 95.3038 17.8486C94.9841 17.6467 94.5635 17.5457 94.042 17.5457C93.369 17.5457 92.8054 17.714 92.3511 18.0505C91.8969 18.3869 91.5604 18.8412 91.3417 19.4132C91.1229 19.9853 91.0136 20.6162 91.0136 21.306V27.8675H87.4805Z" fill="white"/>
<path d="M77.8104 34.0002C76.7841 34.0002 75.7831 33.8656 74.8073 33.5964C73.8315 33.3273 72.9145 32.873 72.0565 32.2337L73.2426 29.4072C73.781 29.811 74.3951 30.1306 75.0849 30.3662C75.7747 30.6185 76.5402 30.7447 77.3814 30.7447C78.6769 30.7447 79.6358 30.4419 80.2583 29.8362C80.8977 29.2305 81.2173 28.3557 81.2173 27.2116V26.505C80.9313 26.8919 80.5696 27.2032 80.1322 27.4387C79.7116 27.6574 79.2573 27.8173 78.7694 27.9182C78.2815 28.0192 77.7936 28.0696 77.3057 28.0696C76.027 28.0696 75.0007 27.8005 74.2268 27.2621C73.4529 26.7237 72.8893 25.9918 72.536 25.0665C72.1995 24.1243 72.0312 23.056 72.0312 21.8615V14.5681H75.5644V21.1296C75.5644 21.567 75.5896 22.0045 75.6401 22.4419C75.6905 22.8793 75.8083 23.2831 75.9934 23.6533C76.1784 24.0234 76.456 24.3262 76.8262 24.5618C77.1963 24.7805 77.6926 24.8898 78.3151 24.8898C79.1227 24.8898 79.7284 24.6964 80.1322 24.3094C80.5359 23.9056 80.8051 23.4009 80.9397 22.7952C81.0912 22.1895 81.1669 21.5586 81.1669 20.9025V14.5681H84.7V25.9498C84.7 27.1611 84.5822 28.2631 84.3467 29.2558C84.1279 30.2484 83.7494 31.098 83.211 31.8046C82.6895 32.5113 81.9828 33.0496 81.0912 33.4198C80.2163 33.8067 79.1227 34.0002 77.8104 34.0002Z" fill="white"/>
<path d="M54 27.8676V10.0001H60.7381C62.6056 10.0001 64.1955 10.3534 65.5078 11.0601C66.837 11.7667 67.8464 12.7845 68.5362 14.1137C69.2428 15.4428 69.5962 17.0663 69.5962 18.9843C69.5962 20.8686 69.2513 22.4754 68.5615 23.8045C67.8885 25.1168 66.8958 26.1262 65.5836 26.8329C64.2713 27.5227 62.6645 27.8676 60.7634 27.8676H54ZM57.6088 24.5364H60.7381C61.9831 24.5364 62.9842 24.3008 63.7413 23.8297C64.4984 23.3586 65.0536 22.7025 65.4069 21.8613C65.7602 21.0201 65.9369 20.0527 65.9369 18.9591C65.9369 17.8991 65.7602 16.9486 65.4069 16.1074C65.0704 15.2493 64.5152 14.5763 63.7413 14.0884C62.9842 13.6005 61.9579 13.3566 60.6624 13.3566H57.6088V24.5364Z" fill="white"/>
<rect x="0.567383" y="0.546631" width="39.4326" height="38.9068" rx="8" fill="#F2CC4D"/>
<path fill-rule="evenodd" clip-rule="evenodd" d="M15.6883 24.3596C16.5451 25.2165 17.6368 25.8 18.8252 26.0364C20.0137 26.2728 21.2456 26.1514 22.3651 25.6877C23.4846 25.224 24.4415 24.4387 25.1147 23.4312C25.7879 22.4237 26.1472 21.2391 26.1472 20.0274C26.1472 18.8157 25.7879 17.6311 25.1147 16.6236C24.4415 15.6161 23.4846 14.8308 22.3651 14.3671C21.2456 13.9034 20.0137 13.782 18.8252 14.0184C17.6368 14.2548 16.5451 14.8383 15.6883 15.6952L12.1601 12.167C13.7148 10.6124 15.6955 9.55366 17.8518 9.12474C20.0082 8.69581 22.2433 8.91595 24.2745 9.75732C26.3057 10.5987 28.0419 12.0235 29.2633 13.8515C30.4848 15.6796 31.1368 17.8288 31.1368 20.0274C31.1368 22.226 30.4848 24.3752 29.2633 26.2033C28.0419 28.0313 26.3057 29.4561 24.2745 30.2975C22.2433 31.1388 20.0082 31.359 17.8518 30.9301L18.3385 28.4832L17.8518 30.9301C15.6955 30.5011 13.7148 29.4424 12.1601 27.8878L15.6883 24.3596Z" fill="#191B1E"/>
</svg>
