<svg width="56" height="56" viewBox="0 0 56 56" fill="none" xmlns="http://www.w3.org/2000/svg">
<path d="M8.9759 12.4353H4.28178C2.88178 12.4353 1.64648 13.5882 1.64648 15.0706C1.64648 16.5529 2.79943 17.7059 4.28178 17.7059H8.9759C9.47001 17.7059 9.79943 17.3765 9.79943 16.8824V15.8941H11.1994C11.9406 15.8941 12.6818 16.3882 12.8465 17.1294L18.2818 39.5294C18.6112 41.0118 19.9288 42.0824 21.4935 42.0824H51.3053C52.1288 42.0824 52.7877 42.7412 52.7877 43.5647C52.7877 44.3882 52.1288 45.0471 51.3053 45.0471H15.3994C14.9053 45.0471 14.5759 45.3765 14.5759 45.8706C14.5759 46.3647 14.9053 46.6941 15.3994 46.6941H23.3053V48.8353C22.1524 49.1647 21.2465 50.3177 21.2465 51.553C21.2465 53.1177 22.5641 54.4353 24.1288 54.4353C25.6935 54.4353 27.0112 53.1177 27.0112 51.553C27.0112 50.2353 26.1053 49.1647 24.9524 48.8353V46.6941H45.7053V48.8353C44.5524 49.1647 43.6465 50.3177 43.6465 51.553C43.6465 53.1177 44.9641 54.4353 46.5288 54.4353C48.0935 54.4353 49.4112 53.1177 49.4112 51.553C49.4112 50.2353 48.5053 49.1647 47.3524 48.8353V46.6941H51.223C52.9524 46.6941 54.3524 45.2941 54.3524 43.5647C54.3524 42.1647 53.3641 40.9294 52.0465 40.6L54.023 21.8235C54.27 19.8471 52.7053 18.2 50.7288 18.2H45.2935C44.7994 18.2 44.47 18.5294 44.47 19.0235C44.47 19.5177 44.7994 19.8471 45.2935 19.8471H50.7288C51.7171 19.8471 52.4582 20.6706 52.3759 21.6588L50.3994 40.353H47.5171V31.9529C47.5171 31.4588 47.1877 31.1294 46.6935 31.1294C46.1994 31.1294 45.87 31.4588 45.87 31.9529V40.353H40.7641V35.5765C40.7641 35.0824 40.4347 34.753 39.9406 34.753C39.4465 34.753 39.1171 35.0824 39.1171 35.5765V40.353H32.1994V33.3529C32.1994 32.8588 31.87 32.5294 31.3759 32.5294C30.8818 32.5294 30.5524 32.8588 30.5524 33.3529V40.353H25.1171V37.8C25.1171 37.3059 24.7877 36.9765 24.2935 36.9765C23.7994 36.9765 23.47 37.3059 23.47 37.8V40.353C23.3877 40.353 21.3288 40.353 21.4112 40.353C20.67 40.353 20.0112 39.8588 19.8465 39.1177L15.07 19.6824H27.1759C27.67 19.6824 27.9994 19.3529 27.9994 18.8588C27.9994 18.3647 27.67 18.0353 27.1759 18.0353H14.7406L14.4112 16.7177C13.9994 15.2353 12.6818 14.2471 11.1994 14.2471H9.79943V13.2588C9.79943 12.7647 9.38766 12.4353 8.9759 12.4353ZM25.3641 51.4706C25.3641 52.1294 24.7877 52.7059 24.1288 52.7059C23.47 52.7059 22.8935 52.1294 22.8935 51.4706C22.8935 50.8118 23.47 50.2353 24.1288 50.2353C24.7877 50.2353 25.3641 50.7294 25.3641 51.4706ZM47.8465 51.4706C47.8465 52.1294 47.27 52.7059 46.6112 52.7059C45.9524 52.7059 45.3759 52.1294 45.3759 51.4706C45.3759 50.8118 45.9524 50.2353 46.6112 50.2353C47.27 50.2353 47.8465 50.7294 47.8465 51.4706ZM8.15237 15.9765H4.28178C3.78766 15.9765 3.29354 15.5647 3.29354 14.9882C3.29354 14.4118 3.70531 14 4.28178 14H8.15237V15.9765Z" fill="#EBAF3D"/>
<path d="M36.2342 1.64697C30.7166 1.64697 26.2695 6.09403 26.2695 11.6117C26.2695 17.1293 30.7166 21.5764 36.2342 21.5764C41.7519 21.5764 46.1989 17.1293 46.1989 11.6117C46.1989 6.17638 41.7519 1.64697 36.2342 1.64697ZM36.2342 19.9293C31.6225 19.9293 27.9166 16.2234 27.9166 11.6117C27.9166 7.08227 31.7048 3.29403 36.2342 3.29403C40.7636 3.29403 44.5519 6.99991 44.5519 11.6117C44.5519 16.2234 40.846 19.9293 36.2342 19.9293Z" fill="#EBAF3D"/>
<path d="M39.1178 11.1998C39.5296 10.7057 39.7766 10.0469 39.7766 9.3057C39.7766 7.65864 38.459 6.25864 36.7296 6.25864H35.906V5.68217C35.906 5.18805 35.5766 4.85864 35.0825 4.85864C34.5884 4.85864 34.259 5.18805 34.259 5.68217V6.25864C34.0943 6.25864 32.1178 6.25864 32.2825 6.25864C31.7884 6.25864 31.459 6.58805 31.459 7.08217C31.459 7.57629 31.7884 7.9057 32.2825 7.9057H33.0237C33.0237 7.98805 33.0237 15.3175 33.0237 15.0704H32.2825C31.7884 15.0704 31.459 15.3998 31.459 15.8939C31.459 16.3881 31.7884 16.7175 32.2825 16.7175H33.8472H34.259V17.3763C34.259 17.8704 34.5884 18.1998 35.0825 18.1998C35.5766 18.1998 35.906 17.8704 35.906 17.3763V16.7175H37.4707C39.1178 16.7175 40.5178 15.3998 40.5178 13.6704C40.5178 12.6822 40.0237 11.7763 39.1178 11.1998ZM38.1296 9.3057C38.1296 10.0469 37.4707 10.7057 36.7296 10.7057H34.5884V7.98805H36.7296C37.5531 7.98805 38.1296 8.64688 38.1296 9.3057ZM37.5531 15.0704H34.6707V12.3528C35.0002 12.3528 37.6355 12.3528 37.5531 12.3528C38.2943 12.3528 38.9531 12.9292 38.9531 13.7528C38.8707 14.4116 38.3766 15.0704 37.5531 15.0704Z" fill="#EBAF3D"/>
<path d="M46.3638 27.0117C47.7638 27.0117 48.8344 25.9411 48.8344 24.5411C48.8344 23.1411 47.7638 22.0706 46.3638 22.0706C44.9638 22.0706 43.8932 23.1411 43.8932 24.5411C43.8932 24.8706 43.9755 25.2 44.0579 25.5294L41.2579 27.8353C40.8461 27.5059 40.352 27.3411 39.7755 27.3411C39.0344 27.3411 38.2932 27.7529 37.8814 28.247L33.4344 25.5294C33.4344 25.5294 33.4344 25.5294 33.352 25.5294C33.352 24.2117 32.2814 23.0588 30.8814 23.0588C29.4814 23.0588 28.4108 24.1294 28.4108 25.5294C28.4108 25.7764 28.4932 26.1059 28.5755 26.3529L25.1991 30.1411C24.8696 29.9764 24.5402 29.9764 24.2108 29.9764C22.8108 29.9764 21.7402 31.047 21.7402 32.447C21.7402 33.847 22.8108 34.9176 24.2108 34.9176C25.6108 34.9176 26.6814 33.847 26.6814 32.447C26.6814 32.0353 26.5991 31.6235 26.352 31.2941L29.6461 27.5882C30.0579 27.8353 30.4696 27.9176 30.8814 27.9176C31.6226 27.9176 32.3638 27.5882 32.7755 27.0117L37.3049 29.8117C37.3049 31.1294 38.4579 32.2 39.7755 32.2C41.1755 32.2 42.2461 31.1294 42.2461 29.7294C42.2461 29.5647 42.2461 29.3176 42.1638 29.1529L45.2108 26.6823C45.5402 26.847 45.8696 27.0117 46.3638 27.0117ZM24.1285 33.1882C23.6344 33.1882 23.3049 32.8588 23.3049 32.3647C23.3049 31.8706 23.6344 31.5411 24.1285 31.5411C24.6226 31.5411 24.952 31.8706 24.952 32.3647C24.952 32.7764 24.6226 33.1882 24.1285 33.1882ZM30.8814 26.2706C30.3873 26.2706 30.0579 25.9411 30.0579 25.447C30.0579 24.9529 30.3873 24.6235 30.8814 24.6235C31.3755 24.6235 31.7049 24.9529 31.7049 25.447C31.7049 25.8588 31.2932 26.2706 30.8814 26.2706ZM46.3638 23.7176C46.8579 23.7176 47.1873 24.047 47.1873 24.5411C47.1873 25.0353 46.8579 25.3647 46.3638 25.3647C45.8696 25.3647 45.5402 25.0353 45.5402 24.5411C45.5402 24.047 45.8696 23.7176 46.3638 23.7176ZM39.7755 30.5529C39.2814 30.5529 38.952 30.2235 38.952 29.7294C38.952 29.2353 39.2814 28.9058 39.7755 28.9058C40.2696 28.9058 40.5991 29.2353 40.5991 29.7294C40.5991 30.1411 40.1873 30.5529 39.7755 30.5529Z" fill="#EBAF3D"/>
</svg>
