<svg width="1310" height="638" viewBox="0 0 1310 638" fill="none" xmlns="http://www.w3.org/2000/svg">
<g opacity="0.16">
<path d="M932.636 377.805C929.574 378.501 926.542 379.149 923.54 379.749C923.44 379.772 923.337 379.774 923.236 379.756C923.135 379.737 923.039 379.699 922.953 379.642C922.868 379.585 922.795 379.512 922.739 379.426C922.683 379.34 922.645 379.244 922.627 379.143C922.599 378.943 922.646 378.74 922.757 378.571C922.869 378.403 923.038 378.282 923.234 378.23C926.219 377.632 929.236 376.989 932.208 376.313C932.409 376.266 932.62 376.297 932.799 376.401C932.977 376.504 933.109 376.672 933.168 376.87C933.197 376.967 933.207 377.069 933.196 377.17C933.185 377.271 933.154 377.369 933.104 377.458C933.054 377.547 932.987 377.625 932.907 377.687C932.826 377.749 932.734 377.794 932.636 377.82L932.636 377.805ZM941.674 375.621C941.575 375.645 941.473 375.649 941.372 375.633C941.272 375.617 941.176 375.582 941.089 375.529C940.914 375.422 940.789 375.25 940.741 375.05C940.694 374.851 940.727 374.641 940.834 374.466C940.941 374.291 941.113 374.166 941.313 374.118C944.288 373.356 947.301 372.543 950.265 371.695C950.461 371.643 950.671 371.67 950.848 371.769C951.026 371.868 951.159 372.032 951.219 372.226C951.249 372.324 951.259 372.427 951.248 372.528C951.238 372.63 951.206 372.729 951.156 372.818C951.106 372.907 951.038 372.985 950.957 373.048C950.876 373.11 950.783 373.155 950.684 373.181C947.709 374.028 944.684 374.844 941.695 375.613L941.674 375.621ZM914.435 381.428L914.387 381.439C911.356 381.958 908.268 382.443 905.206 382.891C905.105 382.909 905.002 382.905 904.902 382.881C904.803 382.857 904.709 382.814 904.627 382.753C904.545 382.691 904.477 382.614 904.425 382.526C904.374 382.438 904.341 382.34 904.328 382.238C904.311 382.137 904.315 382.033 904.339 381.934C904.363 381.834 904.407 381.74 904.468 381.658C904.53 381.576 904.607 381.507 904.696 381.456C904.785 381.405 904.884 381.372 904.986 381.36C908.034 380.919 911.107 380.433 914.125 379.913C914.326 379.873 914.535 379.915 914.706 380.029C914.876 380.143 914.994 380.319 915.035 380.521C915.075 380.722 915.033 380.93 914.919 381.101C914.805 381.272 914.628 381.39 914.427 381.43L914.435 381.428ZM959.547 370.537C959.349 370.591 959.138 370.563 958.96 370.461C958.782 370.358 958.652 370.189 958.599 369.991C958.546 369.793 958.573 369.582 958.676 369.404C958.778 369.226 958.947 369.097 959.145 369.043C962.074 368.129 965.042 367.164 967.957 366.171C968.151 366.105 968.363 366.119 968.548 366.209C968.732 366.299 968.872 366.459 968.939 366.653C969.005 366.848 968.991 367.06 968.901 367.244C968.81 367.428 968.65 367.569 968.456 367.635C965.526 368.631 962.549 369.603 959.609 370.519L959.547 370.537ZM896.083 384.086L895.995 384.106C892.944 384.467 889.836 384.798 886.756 385.083C886.655 385.095 886.552 385.086 886.453 385.057C886.355 385.028 886.264 384.979 886.185 384.913C886.107 384.848 886.042 384.767 885.996 384.676C885.949 384.585 885.922 384.485 885.915 384.383C885.903 384.282 885.912 384.179 885.941 384.081C885.97 383.983 886.019 383.893 886.084 383.814C886.149 383.735 886.229 383.671 886.32 383.624C886.41 383.578 886.51 383.55 886.611 383.542C889.68 383.259 892.774 382.916 895.812 382.57C896.014 382.535 896.221 382.582 896.389 382.699C896.556 382.817 896.67 382.997 896.705 383.199C896.74 383.4 896.694 383.608 896.576 383.775C896.458 383.943 896.278 384.056 896.077 384.092L896.083 384.086ZM977.127 364.555C976.931 364.613 976.72 364.59 976.54 364.493C976.361 364.395 976.227 364.23 976.169 364.034C976.111 363.838 976.134 363.627 976.231 363.448C976.329 363.268 976.494 363.135 976.69 363.077C979.555 362.037 982.47 360.906 985.34 359.768C985.433 359.731 985.533 359.712 985.634 359.714C985.734 359.715 985.833 359.736 985.926 359.776C986.018 359.815 986.102 359.873 986.172 359.945C986.242 360.017 986.297 360.102 986.335 360.195C986.372 360.289 986.39 360.388 986.389 360.489C986.388 360.589 986.367 360.689 986.327 360.781C986.287 360.873 986.23 360.957 986.158 361.027C986.086 361.097 986.001 361.152 985.907 361.19C983.027 362.333 980.102 363.452 977.222 364.514L977.127 364.555ZM877.619 385.804C877.58 385.817 877.541 385.826 877.501 385.831C874.446 386.038 871.307 386.216 868.221 386.352C868.017 386.361 867.818 386.289 867.668 386.151C867.518 386.013 867.429 385.821 867.42 385.618C867.411 385.414 867.484 385.215 867.621 385.065C867.759 384.915 867.951 384.826 868.155 384.817C871.226 384.684 874.342 384.507 877.397 384.301C877.599 384.27 877.805 384.322 877.97 384.444C878.134 384.566 878.243 384.748 878.274 384.95C878.304 385.152 878.252 385.358 878.13 385.523C878.008 385.687 877.826 385.796 877.624 385.827L877.619 385.804ZM994.377 357.702C994.185 357.764 993.977 357.748 993.798 357.657C993.618 357.566 993.482 357.407 993.419 357.216C993.357 357.024 993.373 356.816 993.464 356.636C993.555 356.457 993.714 356.321 993.905 356.258C996.734 355.057 999.574 353.806 1002.36 352.54C1002.46 352.495 1002.56 352.47 1002.66 352.465C1002.76 352.46 1002.86 352.476 1002.96 352.512C1003.06 352.547 1003.14 352.602 1003.22 352.673C1003.29 352.744 1003.35 352.829 1003.39 352.923C1003.47 353.11 1003.48 353.323 1003.41 353.516C1003.34 353.708 1003.19 353.863 1003 353.949C1000.19 355.224 997.318 356.482 994.493 357.683L994.377 357.702ZM859.078 386.606C859.028 386.623 858.976 386.635 858.923 386.641C855.836 386.707 852.74 386.73 849.636 386.722C849.534 386.722 849.433 386.702 849.339 386.663C849.245 386.624 849.16 386.567 849.088 386.495C849.016 386.423 848.959 386.338 848.92 386.243C848.881 386.149 848.861 386.049 848.861 385.947C848.861 385.845 848.881 385.744 848.92 385.65C848.959 385.556 849.016 385.471 849.088 385.399C849.16 385.327 849.245 385.27 849.339 385.231C849.434 385.192 849.534 385.172 849.636 385.172C852.738 385.172 855.835 385.15 858.899 385.085C859.099 385.06 859.3 385.116 859.459 385.24C859.618 385.365 859.721 385.547 859.745 385.747C859.77 385.947 859.714 386.148 859.589 386.307C859.465 386.466 859.283 386.569 859.083 386.593L859.078 386.606ZM1011.28 350.054C1011.09 350.121 1010.88 350.11 1010.7 350.022C1010.52 349.935 1010.38 349.779 1010.31 349.589C1010.25 349.398 1010.26 349.189 1010.34 349.007C1010.43 348.825 1010.59 348.685 1010.78 348.618C1013.54 347.288 1016.33 345.905 1019.07 344.508C1019.16 344.461 1019.26 344.434 1019.36 344.426C1019.47 344.418 1019.57 344.431 1019.67 344.462C1019.76 344.494 1019.85 344.545 1019.93 344.612C1020.01 344.678 1020.07 344.76 1020.12 344.851C1020.17 344.942 1020.19 345.042 1020.2 345.144C1020.21 345.246 1020.2 345.348 1020.16 345.446C1020.13 345.543 1020.08 345.633 1020.01 345.71C1019.95 345.788 1019.87 345.852 1019.78 345.898C1017.03 347.298 1014.23 348.687 1011.45 350.024C1011.4 350.051 1011.34 350.071 1011.28 350.086L1011.28 350.054ZM840.523 386.562C840.461 386.576 840.397 386.582 840.334 386.582C837.239 386.51 834.141 386.402 831.04 386.257C830.834 386.248 830.641 386.157 830.503 386.006C830.364 385.854 830.292 385.653 830.301 385.448C830.311 385.243 830.401 385.05 830.553 384.911C830.705 384.773 830.905 384.701 831.11 384.71C834.198 384.853 837.285 384.961 840.37 385.035C840.571 385.015 840.771 385.075 840.928 385.203C841.084 385.331 841.183 385.516 841.203 385.717C841.223 385.918 841.163 386.119 841.035 386.275C840.907 386.432 840.722 386.531 840.521 386.551L840.523 386.562ZM1027.81 341.645C1027.64 341.683 1027.47 341.666 1027.31 341.596C1027.15 341.526 1027.03 341.406 1026.94 341.256C1026.89 341.167 1026.86 341.069 1026.85 340.968C1026.84 340.866 1026.85 340.764 1026.88 340.666C1026.91 340.568 1026.96 340.478 1027.02 340.4C1027.09 340.321 1027.17 340.257 1027.26 340.211C1029.98 338.749 1032.68 337.258 1035.36 335.74C1035.45 335.69 1035.55 335.658 1035.65 335.645C1035.75 335.633 1035.86 335.641 1035.96 335.669C1036.06 335.696 1036.15 335.743 1036.23 335.806C1036.31 335.869 1036.38 335.948 1036.43 336.037C1036.48 336.127 1036.51 336.225 1036.52 336.327C1036.53 336.429 1036.53 336.532 1036.5 336.631C1036.47 336.729 1036.42 336.822 1036.36 336.902C1036.3 336.983 1036.22 337.051 1036.13 337.101C1033.44 338.623 1030.73 340.118 1028 341.586C1027.94 341.623 1027.87 341.651 1027.8 341.67L1027.81 341.645ZM821.981 385.739C821.908 385.755 821.834 385.761 821.76 385.755C818.668 385.551 815.578 385.316 812.488 385.049C812.283 385.032 812.094 384.934 811.962 384.778C811.829 384.621 811.765 384.418 811.782 384.214C811.799 384.009 811.897 383.82 812.054 383.688C812.211 383.555 812.413 383.491 812.618 383.508C815.7 383.774 818.782 384.008 821.863 384.212C822.065 384.196 822.265 384.262 822.419 384.394C822.573 384.525 822.668 384.713 822.683 384.915C822.699 385.117 822.634 385.317 822.502 385.471C822.37 385.625 822.182 385.72 821.98 385.736L821.981 385.739ZM1043.94 332.515C1043.75 332.59 1043.54 332.587 1043.35 332.507C1043.17 332.427 1043.02 332.276 1042.94 332.088C1042.87 331.899 1042.87 331.689 1042.95 331.502C1043.03 331.316 1043.18 331.169 1043.37 331.093C1046.02 329.517 1048.66 327.913 1051.28 326.284C1051.45 326.175 1051.66 326.141 1051.86 326.187C1052.06 326.233 1052.23 326.357 1052.34 326.532C1052.45 326.706 1052.49 326.916 1052.44 327.116C1052.39 327.316 1052.27 327.489 1052.09 327.598C1049.46 329.23 1046.82 330.838 1044.16 332.422C1044.09 332.474 1044.02 332.514 1043.93 332.54L1043.94 332.515ZM803.494 384.168C803.411 384.186 803.326 384.191 803.241 384.183C800.162 383.85 797.082 383.497 794.002 383.125C793.798 383.1 793.613 382.995 793.486 382.833C793.36 382.672 793.303 382.466 793.328 382.263C793.354 382.059 793.459 381.874 793.62 381.747C793.782 381.621 793.988 381.564 794.191 381.59C797.248 381.972 800.314 382.33 803.388 382.665C803.489 382.659 803.589 382.673 803.685 382.706C803.78 382.738 803.867 382.79 803.943 382.856C804.018 382.923 804.079 383.004 804.124 383.095C804.168 383.185 804.193 383.283 804.199 383.384C804.205 383.484 804.192 383.585 804.159 383.68C804.126 383.775 804.075 383.863 804.008 383.938C803.941 384.013 803.86 384.075 803.77 384.119C803.679 384.163 803.581 384.188 803.48 384.195L803.494 384.168ZM1059.69 322.747C1059.5 322.825 1059.29 322.826 1059.1 322.749C1058.91 322.672 1058.76 322.523 1058.68 322.336C1058.61 322.148 1058.6 321.937 1058.68 321.748C1058.76 321.56 1058.91 321.41 1059.1 321.331C1061.68 319.651 1064.25 317.944 1066.8 316.21C1066.97 316.095 1067.18 316.052 1067.38 316.091C1067.58 316.129 1067.76 316.246 1067.88 316.416C1067.99 316.585 1068.03 316.794 1068 316.995C1067.96 317.196 1067.84 317.374 1067.67 317.49C1065.11 319.228 1062.52 320.941 1059.92 322.628C1059.85 322.685 1059.76 322.727 1059.67 322.751L1059.69 322.747ZM785.058 381.887C784.968 381.909 784.874 381.913 784.782 381.9C781.713 381.466 778.646 381.001 775.582 380.504C775.379 380.471 775.198 380.36 775.078 380.195C774.958 380.029 774.908 379.822 774.941 379.62C774.973 379.418 775.084 379.237 775.25 379.117C775.415 378.997 775.622 378.947 775.824 378.979C778.881 379.463 781.937 379.921 784.993 380.356C785.197 380.347 785.395 380.419 785.546 380.557C785.696 380.695 785.785 380.887 785.794 381.09C785.803 381.294 785.73 381.493 785.592 381.643C785.455 381.793 785.263 381.882 785.059 381.891L785.058 381.887ZM1075.02 312.365C1074.84 312.405 1074.66 312.383 1074.5 312.303C1074.34 312.223 1074.21 312.09 1074.14 311.927C1074.06 311.763 1074.05 311.58 1074.1 311.407C1074.14 311.235 1074.25 311.084 1074.39 310.98C1076.91 309.202 1079.42 307.4 1081.9 305.574C1082.07 305.452 1082.28 305.402 1082.48 305.433C1082.68 305.464 1082.86 305.574 1082.98 305.739C1083.11 305.904 1083.16 306.111 1083.13 306.313C1083.09 306.516 1082.98 306.698 1082.82 306.819C1080.32 308.651 1077.81 310.458 1075.29 312.241C1075.21 312.3 1075.11 312.343 1075.02 312.365ZM766.707 378.99C766.607 379.014 766.504 379.016 766.403 378.998C763.353 378.464 760.305 377.904 757.258 377.317C757.057 377.279 756.879 377.162 756.763 376.992C756.648 376.823 756.605 376.614 756.643 376.413C756.682 376.211 756.799 376.033 756.969 375.918C757.138 375.803 757.347 375.759 757.548 375.798C760.589 376.383 763.63 376.942 766.669 377.476C766.769 377.473 766.868 377.49 766.961 377.526C767.054 377.562 767.139 377.616 767.211 377.684C767.283 377.753 767.341 377.835 767.381 377.926C767.421 378.017 767.444 378.115 767.446 378.214C767.449 378.313 767.431 378.412 767.396 378.505C767.36 378.598 767.306 378.683 767.238 378.755C767.169 378.827 767.087 378.885 766.996 378.926C766.905 378.966 766.807 378.988 766.707 378.99ZM1089.95 301.387C1089.77 301.457 1089.57 301.456 1089.4 301.385C1089.22 301.314 1089.07 301.178 1088.99 301.004C1088.91 300.83 1088.9 300.632 1088.96 300.449C1089.02 300.267 1089.14 300.114 1089.31 300.021C1091.76 298.151 1094.2 296.259 1096.62 294.347C1096.7 294.284 1096.79 294.237 1096.89 294.21C1096.99 294.182 1097.09 294.174 1097.19 294.186C1097.29 294.197 1097.39 294.229 1097.48 294.279C1097.56 294.328 1097.64 294.394 1097.71 294.474C1097.77 294.554 1097.82 294.645 1097.84 294.742C1097.87 294.84 1097.88 294.942 1097.87 295.043C1097.85 295.144 1097.82 295.241 1097.77 295.33C1097.72 295.418 1097.66 295.496 1097.58 295.559C1095.15 297.481 1092.71 299.378 1090.25 301.249C1090.16 301.314 1090.06 301.359 1089.95 301.383L1089.95 301.387ZM748.466 375.483C748.358 375.508 748.245 375.508 748.137 375.485C745.104 374.856 742.075 374.205 739.05 373.531C738.95 373.513 738.854 373.473 738.769 373.417C738.684 373.36 738.611 373.286 738.555 373.2C738.499 373.114 738.461 373.018 738.444 372.917C738.427 372.816 738.43 372.712 738.454 372.613C738.497 372.411 738.619 372.235 738.792 372.124C738.965 372.012 739.175 371.973 739.376 372.015C742.396 372.688 745.418 373.338 748.443 373.965C748.644 373.963 748.837 374.041 748.98 374.182C749.123 374.322 749.204 374.514 749.206 374.714C749.208 374.915 749.13 375.108 748.99 375.251C748.849 375.394 748.658 375.476 748.457 375.478L748.466 375.483ZM1104.49 289.898C1104.31 289.966 1104.12 289.965 1103.94 289.896C1103.77 289.827 1103.62 289.694 1103.54 289.524C1103.46 289.354 1103.44 289.159 1103.49 288.978C1103.55 288.796 1103.67 288.641 1103.83 288.544C1106.22 286.593 1108.59 284.621 1110.95 282.627C1111.1 282.495 1111.3 282.43 1111.51 282.448C1111.61 282.456 1111.71 282.484 1111.8 282.531C1111.89 282.578 1111.97 282.641 1112.03 282.719C1112.1 282.796 1112.15 282.886 1112.18 282.983C1112.21 283.079 1112.22 283.181 1112.21 283.282C1112.21 283.383 1112.18 283.482 1112.13 283.572C1112.08 283.662 1112.02 283.742 1111.94 283.808C1109.58 285.806 1107.2 287.784 1104.81 289.744C1104.72 289.818 1104.61 289.871 1104.49 289.898ZM730.334 371.451C730.219 371.478 730.1 371.477 729.985 371.449C726.98 370.737 723.969 370.001 720.952 369.24C720.854 369.215 720.762 369.171 720.68 369.111C720.599 369.05 720.53 368.974 720.478 368.887C720.426 368.8 720.392 368.704 720.377 368.604C720.363 368.503 720.368 368.401 720.393 368.303C720.417 368.205 720.461 368.112 720.522 368.031C720.582 367.95 720.658 367.881 720.745 367.829C720.832 367.777 720.928 367.743 721.029 367.728C721.129 367.713 721.231 367.718 721.329 367.743C724.33 368.49 727.333 369.22 730.338 369.935C730.526 369.953 730.7 370.04 730.826 370.18C730.953 370.32 731.022 370.502 731.022 370.69C731.021 370.879 730.95 371.06 730.822 371.199C730.694 371.338 730.52 371.424 730.332 371.44L730.334 371.451ZM1118.66 277.946C1118.49 278.014 1118.3 278.015 1118.12 277.949C1117.95 277.883 1117.8 277.755 1117.72 277.589C1117.63 277.423 1117.61 277.232 1117.66 277.051C1117.7 276.87 1117.82 276.714 1117.97 276.611C1120.29 274.581 1122.6 272.534 1124.9 270.47C1124.97 270.402 1125.06 270.349 1125.15 270.315C1125.25 270.281 1125.35 270.266 1125.45 270.272C1125.55 270.277 1125.65 270.302 1125.75 270.345C1125.84 270.389 1125.92 270.45 1125.99 270.526C1126.06 270.601 1126.11 270.689 1126.14 270.785C1126.18 270.881 1126.19 270.982 1126.19 271.083C1126.18 271.185 1126.16 271.284 1126.11 271.376C1126.07 271.468 1126.01 271.55 1125.93 271.618C1123.63 273.691 1121.32 275.745 1118.99 277.779C1118.89 277.854 1118.77 277.906 1118.65 277.929L1118.66 277.946ZM712.326 366.938C712.204 366.967 712.077 366.965 711.956 366.933C708.962 366.146 705.973 365.338 702.988 364.511C702.79 364.456 702.623 364.326 702.521 364.148C702.42 363.97 702.394 363.759 702.448 363.561C702.503 363.364 702.633 363.196 702.811 363.095C702.989 362.994 703.2 362.968 703.397 363.022C706.378 363.843 709.363 364.647 712.352 365.435C712.541 365.456 712.715 365.547 712.84 365.691C712.965 365.834 713.031 366.019 713.026 366.209C713.02 366.399 712.943 366.58 712.81 366.716C712.676 366.852 712.497 366.932 712.307 366.942L712.326 366.938ZM1132.43 265.508C1132.26 265.562 1132.08 265.554 1131.91 265.486C1131.75 265.418 1131.61 265.294 1131.53 265.137C1131.45 264.979 1131.42 264.798 1131.46 264.624C1131.5 264.451 1131.6 264.296 1131.74 264.188C1134 262.09 1136.25 259.972 1138.48 257.834C1138.62 257.692 1138.82 257.615 1139.03 257.619C1139.23 257.623 1139.43 257.709 1139.57 257.857C1139.71 258.005 1139.79 258.203 1139.79 258.408C1139.78 258.614 1139.7 258.809 1139.55 258.951C1137.31 261.094 1135.06 263.217 1132.79 265.321C1132.69 265.42 1132.56 265.488 1132.42 265.517L1132.43 265.508ZM694.44 362.012C694.311 362.042 694.177 362.038 694.05 362C691.071 361.143 688.1 360.268 685.136 359.376C685.038 359.349 684.946 359.302 684.866 359.238C684.786 359.174 684.719 359.095 684.671 359.005C684.623 358.915 684.593 358.816 684.584 358.714C684.575 358.612 684.587 358.509 684.619 358.412C684.646 358.314 684.693 358.223 684.756 358.143C684.82 358.063 684.899 357.998 684.989 357.949C685.078 357.901 685.177 357.871 685.278 357.862C685.38 357.853 685.482 357.864 685.579 357.895C688.539 358.773 691.505 359.649 694.478 360.523C694.675 360.58 694.842 360.712 694.941 360.891C695.041 361.071 695.065 361.282 695.009 361.48C694.968 361.611 694.893 361.729 694.792 361.822C694.69 361.915 694.566 361.98 694.432 362.01L694.44 362.012ZM1145.84 252.698C1145.67 252.753 1145.49 252.747 1145.33 252.682C1145.17 252.618 1145.03 252.498 1144.94 252.343C1144.86 252.188 1144.83 252.009 1144.86 251.836C1144.9 251.663 1144.99 251.507 1145.13 251.395C1147.33 249.228 1149.51 247.052 1151.68 244.865C1151.75 244.793 1151.84 244.735 1151.93 244.695C1152.03 244.656 1152.13 244.635 1152.23 244.634C1152.33 244.633 1152.43 244.652 1152.53 244.69C1152.62 244.729 1152.71 244.785 1152.78 244.856C1152.85 244.928 1152.91 245.013 1152.95 245.106C1152.99 245.2 1153.01 245.3 1153.01 245.402C1153.01 245.504 1152.99 245.604 1152.95 245.699C1152.92 245.793 1152.86 245.879 1152.79 245.951C1150.61 248.157 1148.42 250.344 1146.21 252.512C1146.11 252.611 1145.97 252.676 1145.82 252.698L1145.84 252.698ZM676.672 356.68C676.542 356.709 676.406 356.702 676.28 356.661C673.321 355.745 670.37 354.812 667.428 353.864C667.232 353.801 667.07 353.664 666.976 353.482C666.883 353.299 666.865 353.087 666.927 352.892C666.99 352.697 667.128 352.535 667.31 352.441C667.492 352.347 667.704 352.33 667.899 352.392C670.841 353.336 673.788 354.266 676.739 355.184C676.915 355.219 677.073 355.315 677.185 355.455C677.297 355.596 677.355 355.771 677.35 355.951C677.344 356.13 677.274 356.302 677.153 356.435C677.033 356.568 676.868 356.653 676.69 356.676L676.672 356.68ZM1158.88 239.5C1158.71 239.555 1158.53 239.55 1158.37 239.487C1158.2 239.423 1158.07 239.305 1157.98 239.153C1157.9 239.001 1157.87 238.823 1157.9 238.651C1157.93 238.479 1158.02 238.322 1158.15 238.208C1160.29 235.98 1162.41 233.74 1164.53 231.486C1164.67 231.337 1164.86 231.249 1165.07 231.242C1165.27 231.236 1165.47 231.311 1165.62 231.451C1165.77 231.591 1165.86 231.785 1165.86 231.99C1165.87 232.195 1165.79 232.394 1165.65 232.544C1163.54 234.803 1161.41 237.048 1159.26 239.281C1159.15 239.396 1159.01 239.474 1158.86 239.504L1158.88 239.5ZM659.008 351.007C658.871 351.04 658.727 351.034 658.593 350.989C655.652 350.014 652.714 349.031 649.78 348.039C649.585 347.973 649.425 347.832 649.335 347.648C649.244 347.464 649.23 347.251 649.297 347.056C649.363 346.862 649.504 346.701 649.688 346.611C649.873 346.52 650.085 346.507 650.28 346.573C653.2 347.568 656.128 348.552 659.066 349.525C659.239 349.565 659.392 349.664 659.498 349.805C659.605 349.947 659.659 350.121 659.65 350.298C659.641 350.475 659.571 350.643 659.451 350.773C659.331 350.903 659.169 350.987 658.993 351.01L659.008 351.007ZM1171.56 225.952C1171.4 226.005 1171.22 226 1171.06 225.938C1170.9 225.877 1170.77 225.763 1170.68 225.615C1170.59 225.467 1170.56 225.294 1170.58 225.124C1170.61 224.954 1170.69 224.797 1170.81 224.68C1172.9 222.397 1174.97 220.101 1177.02 217.791C1177.16 217.638 1177.35 217.545 1177.55 217.533C1177.76 217.521 1177.96 217.591 1178.11 217.727C1178.27 217.863 1178.36 218.055 1178.37 218.26C1178.38 218.465 1178.31 218.666 1178.18 218.819C1176.12 221.132 1174.05 223.434 1171.96 225.722C1171.85 225.842 1171.7 225.924 1171.54 225.956L1171.56 225.952ZM641.447 345.035C641.305 345.067 641.158 345.057 641.022 345.007L639.591 344.511C637.149 343.65 634.708 342.784 632.269 341.912C632.173 341.878 632.085 341.826 632.01 341.758C631.935 341.69 631.874 341.608 631.83 341.516C631.787 341.425 631.762 341.325 631.756 341.224C631.751 341.123 631.766 341.022 631.8 340.926C631.834 340.83 631.887 340.743 631.955 340.667C632.023 340.592 632.105 340.531 632.197 340.487C632.288 340.444 632.387 340.419 632.489 340.414C632.59 340.409 632.691 340.423 632.787 340.457C635.226 341.329 637.666 342.196 640.105 343.057L641.534 343.558C641.705 343.6 641.857 343.7 641.962 343.842C642.067 343.984 642.119 344.159 642.109 344.335C642.099 344.512 642.028 344.679 641.907 344.808C641.786 344.937 641.624 345.02 641.448 345.042L641.447 345.035ZM1183.88 212.088C1183.72 212.138 1183.55 212.133 1183.39 212.073C1183.23 212.013 1183.1 211.902 1183.01 211.757C1182.92 211.612 1182.88 211.442 1182.91 211.274C1182.93 211.106 1183 210.949 1183.12 210.83C1185.15 208.493 1187.16 206.146 1189.16 203.789C1189.3 203.633 1189.49 203.535 1189.69 203.518C1189.89 203.501 1190.1 203.566 1190.25 203.698C1190.41 203.831 1190.51 204.02 1190.53 204.224C1190.54 204.429 1190.48 204.632 1190.34 204.788C1188.34 207.151 1186.32 209.503 1184.29 211.843C1184.18 211.965 1184.04 212.051 1183.88 212.088ZM623.951 338.804C623.806 338.836 623.654 338.827 623.514 338.775C620.605 337.716 617.699 336.65 614.796 335.579C614.701 335.544 614.613 335.491 614.539 335.422C614.464 335.353 614.404 335.27 614.361 335.178C614.319 335.086 614.295 334.986 614.291 334.884C614.287 334.783 614.303 334.682 614.338 334.587C614.373 334.491 614.426 334.404 614.495 334.329C614.564 334.255 614.647 334.194 614.739 334.152C614.832 334.109 614.931 334.085 615.033 334.081C615.134 334.077 615.235 334.093 615.331 334.128C618.235 335.202 621.139 336.266 624.044 337.321C624.215 337.365 624.365 337.467 624.468 337.609C624.572 337.751 624.623 337.925 624.612 338.101C624.601 338.277 624.529 338.443 624.408 338.571C624.287 338.7 624.126 338.782 623.951 338.804ZM606.539 332.364C606.391 332.397 606.237 332.388 606.095 332.337C603.196 331.249 600.3 330.157 597.409 329.06C597.217 328.987 597.062 328.842 596.978 328.655C596.894 328.468 596.887 328.255 596.96 328.063C597.032 327.871 597.178 327.716 597.365 327.632C597.552 327.548 597.765 327.541 597.957 327.614C600.85 328.708 603.743 329.799 606.638 330.888C606.805 330.935 606.95 331.038 607.05 331.179C607.15 331.321 607.199 331.493 607.187 331.666C607.175 331.839 607.105 332.002 606.987 332.129C606.869 332.256 606.711 332.339 606.539 332.364ZM1195.89 197.919C1195.73 197.969 1195.55 197.965 1195.4 197.906C1195.24 197.847 1195.1 197.737 1195.02 197.594C1194.93 197.451 1194.89 197.282 1194.91 197.115C1194.93 196.948 1195 196.792 1195.12 196.671C1197.09 194.287 1199.05 191.893 1200.99 189.49C1201.06 189.411 1201.14 189.345 1201.23 189.297C1201.32 189.248 1201.41 189.218 1201.51 189.207C1201.61 189.196 1201.72 189.205 1201.81 189.234C1201.91 189.263 1202 189.31 1202.08 189.374C1202.16 189.438 1202.23 189.517 1202.27 189.606C1202.32 189.695 1202.35 189.793 1202.36 189.893C1202.37 189.994 1202.37 190.096 1202.34 190.194C1202.31 190.291 1202.26 190.382 1202.2 190.46C1200.25 192.869 1198.29 195.268 1196.31 197.656C1196.2 197.79 1196.05 197.885 1195.89 197.923L1195.89 197.919ZM589.203 325.778C589.053 325.812 588.897 325.8 588.753 325.745C585.865 324.637 582.977 323.525 580.089 322.409C579.994 322.372 579.908 322.317 579.834 322.247C579.761 322.177 579.702 322.093 579.661 322C579.579 321.812 579.574 321.599 579.648 321.408C579.723 321.217 579.87 321.063 580.057 320.981C580.245 320.898 580.458 320.893 580.649 320.967C583.531 322.082 586.418 323.193 589.309 324.301C589.477 324.348 589.623 324.451 589.724 324.594C589.824 324.736 589.872 324.909 589.86 325.083C589.847 325.257 589.775 325.421 589.655 325.548C589.536 325.674 589.376 325.756 589.203 325.778ZM1207.59 183.466C1207.48 183.493 1207.36 183.494 1207.25 183.468C1207.13 183.443 1207.03 183.392 1206.94 183.32C1206.86 183.258 1206.79 183.181 1206.74 183.093C1206.69 183.004 1206.65 182.906 1206.64 182.804C1206.63 182.703 1206.64 182.6 1206.67 182.501C1206.69 182.403 1206.74 182.312 1206.81 182.233C1208.73 179.804 1210.63 177.367 1212.51 174.924C1212.64 174.762 1212.82 174.656 1213.03 174.63C1213.23 174.604 1213.44 174.66 1213.6 174.785C1213.76 174.911 1213.87 175.096 1213.89 175.299C1213.92 175.503 1213.86 175.708 1213.74 175.87C1211.84 178.322 1209.93 180.764 1208.01 183.197C1207.9 183.338 1207.74 183.436 1207.57 183.474L1207.59 183.466ZM571.886 319.088C571.736 319.123 571.579 319.111 571.436 319.055L562.787 315.684C562.693 315.647 562.606 315.592 562.533 315.521C562.46 315.451 562.402 315.367 562.361 315.274C562.32 315.181 562.299 315.081 562.297 314.979C562.295 314.878 562.313 314.777 562.35 314.683C562.387 314.588 562.442 314.502 562.513 314.429C562.583 314.356 562.667 314.297 562.76 314.257C562.853 314.216 562.953 314.194 563.055 314.192C563.156 314.19 563.257 314.208 563.352 314.245L571.996 317.613C572.162 317.662 572.307 317.766 572.406 317.908C572.505 318.051 572.551 318.223 572.538 318.395C572.525 318.568 572.453 318.731 572.335 318.857C572.216 318.983 572.057 319.065 571.886 319.088ZM1218.94 168.775C1218.79 168.823 1218.62 168.818 1218.46 168.761C1218.31 168.705 1218.18 168.6 1218.09 168.462C1218 168.325 1217.96 168.162 1217.97 167.998C1217.98 167.834 1218.05 167.679 1218.15 167.555C1220.02 165.083 1221.88 162.603 1223.72 160.115C1223.84 159.95 1224.02 159.84 1224.23 159.809C1224.43 159.779 1224.64 159.83 1224.8 159.952C1224.97 160.074 1225.08 160.256 1225.11 160.459C1225.14 160.662 1225.09 160.868 1224.96 161.033C1223.12 163.521 1221.26 166.01 1219.39 168.503C1219.28 168.644 1219.12 168.74 1218.94 168.775ZM554.577 312.353C554.428 312.388 554.271 312.376 554.128 312.32L545.484 308.936C545.293 308.861 545.14 308.714 545.058 308.526C544.976 308.338 544.972 308.126 545.047 307.935C545.121 307.744 545.269 307.591 545.457 307.509C545.645 307.427 545.858 307.423 546.048 307.498L554.688 310.878C554.854 310.927 554.999 311.031 555.098 311.173C555.196 311.316 555.243 311.488 555.23 311.66C555.217 311.833 555.145 311.996 555.026 312.122C554.908 312.248 554.749 312.33 554.577 312.353ZM1230 153.829C1229.85 153.874 1229.68 153.868 1229.53 153.813C1229.38 153.757 1229.25 153.654 1229.16 153.519C1229.07 153.384 1229.03 153.224 1229.04 153.062C1229.04 152.901 1229.11 152.747 1229.21 152.622C1231.02 150.111 1232.82 147.598 1234.62 145.082C1234.73 144.916 1234.91 144.802 1235.11 144.767C1235.31 144.732 1235.52 144.777 1235.68 144.894C1235.85 145.01 1235.96 145.188 1236 145.388C1236.03 145.587 1235.99 145.793 1235.87 145.959C1234.08 148.483 1232.27 151.001 1230.45 153.513C1230.35 153.669 1230.19 153.78 1230 153.825L1230 153.829ZM537.29 305.574C537.14 305.61 536.981 305.599 536.837 305.542L528.192 302.17C528.001 302.096 527.847 301.948 527.764 301.76C527.682 301.572 527.678 301.359 527.752 301.168C527.827 300.976 527.975 300.823 528.163 300.74C528.351 300.658 528.564 300.653 528.756 300.728L537.401 304.1C537.497 304.135 537.585 304.189 537.659 304.259C537.733 304.329 537.793 304.413 537.834 304.507C537.874 304.6 537.896 304.701 537.897 304.803C537.897 304.906 537.877 305.007 537.838 305.101C537.794 305.219 537.72 305.325 537.625 305.408C537.529 305.49 537.414 305.548 537.29 305.574ZM519.987 298.861C519.836 298.897 519.678 298.886 519.534 298.829C516.652 297.714 513.768 296.603 510.881 295.494C510.787 295.458 510.7 295.403 510.626 295.333C510.553 295.264 510.493 295.18 510.452 295.088C510.41 294.995 510.388 294.895 510.385 294.794C510.382 294.692 510.399 294.591 510.436 294.496C510.472 294.402 510.526 294.315 510.596 294.241C510.666 294.168 510.749 294.108 510.842 294.067C510.935 294.026 511.035 294.003 511.136 294C511.238 293.997 511.339 294.014 511.433 294.051C514.321 295.156 517.208 296.268 520.094 297.388C520.19 297.422 520.278 297.476 520.353 297.546C520.428 297.616 520.487 297.7 520.528 297.794C520.57 297.887 520.592 297.988 520.593 298.09C520.594 298.192 520.574 298.294 520.535 298.388C520.491 298.505 520.419 298.609 520.326 298.691C520.232 298.773 520.12 298.831 519.998 298.859L519.987 298.861ZM502.66 292.212C502.512 292.247 502.357 292.236 502.215 292.182C499.326 291.084 496.433 289.99 493.535 288.899C493.44 288.863 493.353 288.809 493.279 288.74C493.205 288.67 493.146 288.587 493.104 288.494C493.062 288.402 493.039 288.302 493.036 288.2C493.033 288.099 493.05 287.998 493.086 287.903C493.122 287.808 493.176 287.721 493.246 287.647C493.315 287.573 493.399 287.513 493.491 287.471C493.584 287.43 493.684 287.407 493.785 287.403C493.887 287.4 493.988 287.417 494.083 287.453C496.977 288.539 499.87 289.633 502.762 290.735C502.93 290.782 503.076 290.886 503.176 291.028C503.276 291.17 503.324 291.342 503.312 291.515C503.3 291.689 503.229 291.853 503.11 291.98C502.991 292.107 502.832 292.189 502.66 292.212ZM485.29 285.685C485.143 285.719 484.99 285.708 484.849 285.654C481.95 284.579 479.049 283.512 476.146 282.454C476.049 282.419 475.961 282.366 475.885 282.297C475.809 282.228 475.748 282.144 475.704 282.051C475.66 281.959 475.635 281.858 475.631 281.756C475.626 281.653 475.641 281.551 475.676 281.454C475.711 281.358 475.765 281.269 475.834 281.193C475.903 281.117 475.986 281.056 476.079 281.012C476.172 280.969 476.272 280.944 476.375 280.939C476.477 280.934 476.58 280.95 476.676 280.985C479.582 282.045 482.486 283.113 485.388 284.19C485.557 284.235 485.705 284.337 485.807 284.48C485.909 284.622 485.959 284.795 485.947 284.97C485.935 285.144 485.864 285.309 485.744 285.437C485.624 285.564 485.464 285.647 485.291 285.669L485.29 285.685ZM467.866 279.325C467.722 279.357 467.572 279.348 467.434 279.299C464.526 278.255 461.613 277.221 458.695 276.197C458.501 276.13 458.343 275.988 458.254 275.804C458.165 275.619 458.153 275.407 458.221 275.214C458.288 275.021 458.43 274.862 458.615 274.773C458.799 274.685 459.011 274.673 459.205 274.74C462.122 275.762 465.039 276.796 467.955 277.844C468.126 277.887 468.275 277.989 468.379 278.131C468.482 278.272 468.533 278.446 468.522 278.621C468.512 278.796 468.44 278.963 468.32 279.091C468.201 279.219 468.04 279.302 467.866 279.325ZM450.352 273.184C450.212 273.215 450.066 273.207 449.931 273.159C447.007 272.157 444.08 271.167 441.148 270.187C441.052 270.155 440.962 270.104 440.886 270.038C440.809 269.971 440.746 269.891 440.7 269.8C440.655 269.709 440.628 269.61 440.621 269.509C440.613 269.407 440.626 269.306 440.658 269.209C440.69 269.113 440.741 269.024 440.807 268.947C440.874 268.87 440.955 268.807 441.046 268.762C441.136 268.716 441.235 268.689 441.337 268.682C441.438 268.675 441.54 268.687 441.636 268.719C444.573 269.7 447.505 270.692 450.432 271.696C450.605 271.736 450.759 271.836 450.867 271.978C450.974 272.12 451.027 272.296 451.017 272.474C451.008 272.651 450.936 272.82 450.814 272.95C450.692 273.08 450.528 273.163 450.352 273.184ZM432.746 267.291C432.616 267.318 432.48 267.31 432.354 267.268C429.412 266.314 426.468 265.374 423.519 264.448C423.323 264.386 423.16 264.25 423.065 264.068C422.969 263.886 422.95 263.673 423.012 263.478C423.073 263.282 423.21 263.118 423.392 263.023C423.574 262.928 423.786 262.909 423.982 262.97C426.939 263.9 429.888 264.843 432.83 265.799C433.004 265.838 433.159 265.936 433.268 266.078C433.376 266.219 433.431 266.394 433.423 266.572C433.415 266.751 433.344 266.92 433.223 267.051C433.102 267.182 432.938 267.266 432.761 267.288L432.746 267.291ZM415.041 261.724C414.911 261.753 414.776 261.748 414.65 261.709C411.693 260.812 408.732 259.935 405.766 259.077C405.568 259.02 405.402 258.886 405.304 258.705C405.205 258.525 405.183 258.313 405.24 258.115C405.298 257.918 405.432 257.752 405.613 257.654C405.793 257.555 406.006 257.532 406.203 257.59C409.178 258.464 412.146 259.349 415.108 260.244C415.284 260.278 415.442 260.374 415.554 260.515C415.666 260.655 415.724 260.831 415.718 261.01C415.713 261.19 415.643 261.361 415.522 261.494C415.401 261.627 415.237 261.713 415.059 261.736L415.041 261.724ZM397.228 256.519C397.099 256.55 396.965 256.547 396.838 256.511C393.864 255.675 390.883 254.859 387.895 254.063C387.797 254.037 387.705 253.992 387.624 253.93C387.544 253.868 387.476 253.791 387.425 253.703C387.375 253.615 387.342 253.518 387.328 253.417C387.315 253.316 387.322 253.214 387.348 253.116C387.374 253.018 387.42 252.926 387.482 252.845C387.543 252.765 387.621 252.697 387.709 252.646C387.797 252.596 387.894 252.563 387.994 252.549C388.095 252.536 388.198 252.543 388.296 252.569C391.29 253.369 394.277 254.187 397.256 255.024C397.355 255.049 397.448 255.094 397.529 255.156C397.61 255.218 397.678 255.296 397.728 255.385C397.779 255.473 397.811 255.572 397.822 255.673C397.833 255.775 397.824 255.877 397.794 255.975C397.76 256.111 397.689 256.234 397.59 256.333C397.491 256.432 397.367 256.503 397.232 256.537L397.228 256.519ZM379.299 251.743C379.18 251.77 379.056 251.769 378.937 251.74C376.566 251.134 374.192 250.544 371.815 249.968L369.937 249.515C369.737 249.467 369.564 249.342 369.457 249.166C369.35 248.991 369.317 248.781 369.365 248.581C369.414 248.381 369.539 248.209 369.714 248.102C369.89 247.995 370.1 247.962 370.3 248.01L372.179 248.466C374.563 249.046 376.942 249.638 379.318 250.242C379.501 250.267 379.669 250.358 379.789 250.498C379.91 250.637 379.975 250.816 379.973 251.001C379.97 251.186 379.901 251.363 379.776 251.5C379.652 251.636 379.482 251.723 379.299 251.743ZM25.529 324.075C25.4135 324.102 25.2933 324.102 25.1779 324.074C25.0625 324.047 24.9552 323.992 24.8647 323.916C24.7845 323.852 24.718 323.773 24.6692 323.683C24.6205 323.593 24.5905 323.494 24.5811 323.392C24.5717 323.29 24.5831 323.188 24.6146 323.09C24.6461 322.993 24.697 322.903 24.7642 322.826C26.7252 320.469 28.7826 318.11 30.8808 315.811C30.9492 315.735 31.0318 315.675 31.1238 315.631C31.2158 315.588 31.3154 315.563 31.4169 315.559C31.5184 315.554 31.6199 315.569 31.7156 315.604C31.8112 315.638 31.899 315.691 31.9741 315.76C32.0493 315.828 32.1103 315.911 32.1535 316.003C32.1967 316.095 32.2214 316.194 32.2261 316.296C32.2308 316.397 32.2154 316.499 32.1809 316.594C32.1465 316.69 32.0934 316.778 32.025 316.853C29.9427 319.136 27.9005 321.477 25.9509 323.816C25.8425 323.948 25.6924 324.039 25.5253 324.075L25.529 324.075ZM361.245 247.422C361.132 247.446 361.016 247.446 360.903 247.422C357.891 246.748 354.87 246.096 351.84 245.467C351.639 245.426 351.463 245.306 351.351 245.134C351.238 244.963 351.199 244.754 351.24 244.553C351.282 244.352 351.402 244.177 351.573 244.064C351.745 243.952 351.954 243.912 352.155 243.954C355.195 244.58 358.224 245.233 361.242 245.911C361.438 245.916 361.625 245.998 361.762 246.139C361.899 246.28 361.975 246.469 361.976 246.665C361.976 246.861 361.9 247.05 361.764 247.191C361.627 247.333 361.441 247.415 361.245 247.422ZM343.063 243.649C342.959 243.671 342.851 243.674 342.747 243.655C339.714 243.073 336.675 242.518 333.628 241.988C333.426 241.953 333.246 241.839 333.128 241.671C333.009 241.503 332.963 241.295 332.998 241.093C333.033 240.89 333.147 240.71 333.315 240.592C333.483 240.474 333.691 240.428 333.894 240.463C336.946 240.996 339.994 241.554 343.037 242.136C343.237 242.132 343.432 242.208 343.576 242.348C343.72 242.487 343.803 242.678 343.807 242.879C343.81 243.08 343.734 243.274 343.594 243.418C343.455 243.563 343.264 243.646 343.063 243.649ZM38.0309 310.374C37.8673 310.411 37.6961 310.395 37.5429 310.326C37.3897 310.258 37.2628 310.141 37.1814 309.995C37.0999 309.848 37.0683 309.679 37.0913 309.513C37.1142 309.347 37.1905 309.192 37.3086 309.073C39.4841 306.892 41.7473 304.723 44.0219 302.62C44.1733 302.483 44.3729 302.411 44.577 302.421C44.781 302.431 44.9728 302.522 45.11 302.673C45.2472 302.824 45.3187 303.024 45.3088 303.228C45.2988 303.432 45.2081 303.623 45.0568 303.761C42.7907 305.85 40.547 308.003 38.3912 310.168C38.2917 310.27 38.1656 310.342 38.0272 310.375L38.0309 310.374ZM324.778 240.462C324.682 240.484 324.583 240.487 324.486 240.47C321.432 239.989 318.376 239.535 315.316 239.11C315.113 239.081 314.929 238.973 314.805 238.81C314.682 238.646 314.628 238.44 314.657 238.236C314.685 238.033 314.793 237.849 314.956 237.726C315.12 237.602 315.327 237.548 315.53 237.576C318.603 238.007 321.669 238.462 324.727 238.942C324.931 238.935 325.13 239.009 325.279 239.148C325.429 239.287 325.517 239.48 325.524 239.684C325.531 239.888 325.457 240.086 325.318 240.236C325.179 240.385 324.986 240.473 324.782 240.48L324.778 240.462ZM51.6738 297.787C51.4993 297.851 51.3072 297.849 51.1342 297.78C50.9613 297.712 50.8195 297.583 50.7361 297.416C50.6527 297.25 50.6336 297.059 50.6823 296.88C50.731 296.7 50.8441 296.545 51 296.444C53.3511 294.455 55.7817 292.476 58.2255 290.571C58.3055 290.509 58.3971 290.463 58.4949 290.436C58.5927 290.409 58.6948 290.401 58.7956 290.413C58.8963 290.426 58.9937 290.458 59.082 290.508C59.1703 290.558 59.248 290.625 59.3105 290.705C59.373 290.785 59.419 290.876 59.4461 290.974C59.4732 291.072 59.4809 291.174 59.4685 291.274C59.4561 291.375 59.424 291.473 59.374 291.561C59.324 291.649 59.2572 291.727 59.1772 291.789C56.7502 293.682 54.3353 295.646 52.001 297.623C51.9069 297.703 51.7946 297.76 51.6738 297.787ZM306.391 237.883C306.304 237.903 306.214 237.907 306.126 237.893C303.058 237.521 299.989 237.175 296.918 236.855C296.817 236.845 296.719 236.815 296.63 236.767C296.541 236.718 296.462 236.653 296.398 236.574C296.334 236.496 296.286 236.405 296.257 236.308C296.228 236.211 296.219 236.109 296.229 236.008C296.239 235.907 296.27 235.809 296.318 235.72C296.366 235.631 296.431 235.552 296.51 235.488C296.589 235.424 296.679 235.376 296.777 235.347C296.874 235.318 296.976 235.309 297.077 235.319C300.158 235.639 303.237 235.986 306.312 236.359C306.515 236.348 306.715 236.418 306.866 236.554C307.017 236.69 307.108 236.881 307.119 237.084C307.13 237.287 307.059 237.486 306.923 237.638C306.787 237.789 306.596 237.88 306.393 237.891L306.391 237.883ZM66.3085 286.373C66.2178 286.414 66.1199 286.436 66.0204 286.44C65.9208 286.443 65.8217 286.426 65.7286 286.391C65.6354 286.356 65.5502 286.303 65.4776 286.235C65.405 286.167 65.3465 286.085 65.3055 285.994C65.2645 285.903 65.2418 285.806 65.2386 285.706C65.2355 285.607 65.252 285.507 65.2871 285.414C65.3223 285.321 65.3755 285.236 65.4436 285.163C65.5117 285.091 65.5935 285.032 65.6842 284.991C68.1916 283.196 70.7731 281.419 73.363 279.714C73.5374 279.599 73.7502 279.558 73.9547 279.601C74.1591 279.643 74.3385 279.764 74.4532 279.939C74.5679 280.113 74.6087 280.326 74.5664 280.53C74.5242 280.735 74.4025 280.914 74.2281 281.029C71.6549 282.723 69.0866 284.489 66.5954 286.253C66.5087 286.318 66.4092 286.363 66.3037 286.385L66.3085 286.373ZM287.931 235.972C287.854 235.99 287.775 235.996 287.695 235.991C284.614 235.731 281.535 235.498 278.456 235.294C278.355 235.287 278.256 235.261 278.165 235.216C278.074 235.171 277.992 235.109 277.925 235.033C277.858 234.957 277.807 234.868 277.774 234.772C277.742 234.676 277.728 234.575 277.735 234.473C277.741 234.372 277.767 234.273 277.812 234.182C277.857 234.091 277.919 234.01 277.995 233.943C278.072 233.876 278.16 233.824 278.256 233.792C278.352 233.759 278.454 233.745 278.555 233.752C281.649 233.955 284.739 234.188 287.826 234.45C287.926 234.443 288.026 234.456 288.122 234.488C288.217 234.519 288.305 234.57 288.381 234.636C288.457 234.702 288.519 234.782 288.564 234.872C288.609 234.962 288.635 235.059 288.642 235.16C288.649 235.26 288.636 235.36 288.605 235.456C288.573 235.551 288.522 235.639 288.456 235.715C288.39 235.791 288.31 235.853 288.22 235.898C288.13 235.942 288.033 235.969 287.932 235.976L287.931 235.972ZM269.413 234.757C269.344 234.773 269.274 234.78 269.204 234.778C266.119 234.634 263.033 234.524 259.948 234.448C259.846 234.448 259.745 234.426 259.651 234.386C259.557 234.345 259.473 234.286 259.403 234.211C259.332 234.137 259.278 234.05 259.243 233.954C259.207 233.858 259.192 233.756 259.197 233.654C259.197 233.552 259.218 233.451 259.259 233.357C259.299 233.264 259.358 233.179 259.431 233.109C259.505 233.038 259.593 232.983 259.688 232.948C259.784 232.912 259.886 232.896 259.987 232.9C263.082 232.972 266.178 233.083 269.276 233.234C269.375 233.225 269.476 233.236 269.572 233.266C269.667 233.296 269.756 233.344 269.833 233.408C269.91 233.473 269.973 233.551 270.02 233.64C270.066 233.729 270.095 233.826 270.104 233.926C270.113 234.025 270.102 234.126 270.072 234.222C270.042 234.317 269.993 234.406 269.929 234.483C269.865 234.56 269.786 234.623 269.697 234.67C269.609 234.716 269.512 234.745 269.412 234.754L269.413 234.757ZM81.8182 276.163C81.6298 276.239 81.419 276.238 81.2319 276.158C81.0449 276.079 80.8969 275.929 80.8207 275.741C80.7444 275.552 80.7461 275.341 80.8254 275.154C80.9046 274.967 81.055 274.819 81.2433 274.743C83.8998 273.143 86.6159 271.583 89.3204 270.092C89.5 269.993 89.7115 269.97 89.9084 270.027C90.1053 270.084 90.2716 270.217 90.3705 270.396C90.4694 270.576 90.493 270.787 90.4359 270.984C90.3789 271.181 90.2459 271.347 90.0664 271.446C87.3786 272.925 84.6809 274.481 82.0449 276.069C81.9736 276.116 81.895 276.15 81.8125 276.172L81.8182 276.163ZM250.87 234.292C250.816 234.312 250.759 234.325 250.701 234.33C247.611 234.314 244.524 234.334 241.44 234.39C241.235 234.393 241.037 234.315 240.89 234.172C240.743 234.03 240.658 233.835 240.655 233.63C240.651 233.425 240.729 233.227 240.872 233.08C241.014 232.933 241.209 232.848 241.414 232.845C244.504 232.793 247.602 232.775 250.707 232.79C250.908 232.768 251.109 232.827 251.266 232.954C251.423 233.081 251.524 233.265 251.545 233.466C251.567 233.666 251.508 233.867 251.381 234.024C251.254 234.182 251.07 234.282 250.869 234.303L250.87 234.292ZM98.093 267.221C97.9235 267.264 97.7444 267.247 97.5862 267.173C97.4279 267.099 97.3002 266.972 97.225 266.814C97.1774 266.724 97.1485 266.625 97.14 266.524C97.1315 266.422 97.1436 266.32 97.1756 266.223C97.2076 266.127 97.2588 266.038 97.3261 265.961C97.3934 265.885 97.4753 265.823 97.5672 265.779C100.308 264.38 103.147 263.037 105.954 261.74C106.046 261.697 106.146 261.673 106.247 261.669C106.349 261.665 106.45 261.681 106.545 261.716C106.641 261.751 106.728 261.804 106.803 261.873C106.877 261.942 106.938 262.025 106.98 262.117C107.023 262.209 107.047 262.308 107.051 262.41C107.055 262.511 107.039 262.612 107.004 262.708C106.969 262.803 106.915 262.89 106.847 262.965C106.778 263.04 106.695 263.1 106.603 263.142C103.795 264.436 101 265.785 98.2649 267.159C98.2058 267.189 98.1431 267.211 98.0784 267.225L98.093 267.221ZM232.306 234.614L232.166 234.646C229.091 234.764 225.967 234.924 222.921 235.116C222.718 235.129 222.519 235.061 222.366 234.926C222.214 234.792 222.121 234.603 222.108 234.4C222.096 234.197 222.164 233.998 222.299 233.845C222.433 233.693 222.622 233.6 222.825 233.588C225.883 233.396 229.011 233.235 232.112 233.115C232.312 233.089 232.514 233.144 232.673 233.267C232.833 233.39 232.937 233.571 232.963 233.771C232.989 233.97 232.934 234.172 232.812 234.332C232.689 234.491 232.507 234.595 232.307 234.621L232.306 234.614ZM114.929 259.45C114.734 259.513 114.523 259.495 114.341 259.402C114.16 259.308 114.023 259.146 113.961 258.952C113.898 258.757 113.916 258.546 114.009 258.364C114.103 258.183 114.265 258.046 114.46 257.983C117.29 256.789 120.202 255.615 123.087 254.506C123.18 254.47 123.28 254.452 123.38 254.454C123.481 254.457 123.58 254.479 123.671 254.519C123.763 254.56 123.846 254.618 123.916 254.69C123.985 254.763 124.039 254.848 124.076 254.942C124.112 255.035 124.129 255.135 124.127 255.236C124.125 255.336 124.103 255.435 124.062 255.527C124.022 255.618 123.964 255.701 123.891 255.771C123.818 255.84 123.733 255.894 123.639 255.931C120.787 257.029 117.878 258.198 115.055 259.391C115.015 259.414 114.972 259.434 114.929 259.45ZM213.788 235.775L213.685 235.798C210.601 236.065 207.499 236.371 204.474 236.707C204.373 236.721 204.269 236.714 204.171 236.687C204.072 236.66 203.98 236.613 203.9 236.549C203.82 236.486 203.753 236.406 203.705 236.316C203.656 236.226 203.626 236.127 203.617 236.025C203.604 235.924 203.611 235.821 203.638 235.723C203.666 235.625 203.713 235.533 203.776 235.453C203.84 235.374 203.919 235.308 204.009 235.259C204.099 235.211 204.198 235.182 204.3 235.173C207.344 234.833 210.453 234.525 213.552 234.258C213.754 234.227 213.961 234.277 214.126 234.397C214.291 234.518 214.401 234.699 214.433 234.901C214.465 235.103 214.415 235.309 214.294 235.475C214.173 235.64 213.992 235.75 213.79 235.782L213.788 235.775ZM132.245 252.768C132.048 252.825 131.837 252.801 131.657 252.702C131.478 252.603 131.346 252.436 131.289 252.239C131.233 252.043 131.257 251.831 131.356 251.652C131.455 251.473 131.621 251.34 131.818 251.284C134.724 250.27 137.695 249.284 140.651 248.353C140.847 248.291 141.059 248.31 141.241 248.405C141.423 248.5 141.559 248.663 141.621 248.859C141.682 249.054 141.664 249.267 141.569 249.448C141.474 249.63 141.31 249.767 141.114 249.829C138.173 250.753 135.217 251.736 132.328 252.742L132.245 252.768ZM195.346 237.81L195.279 237.825C192.223 238.245 189.145 238.708 186.124 239.201C185.922 239.234 185.715 239.186 185.548 239.066C185.382 238.947 185.27 238.766 185.237 238.564C185.204 238.362 185.252 238.155 185.372 237.988C185.491 237.822 185.672 237.71 185.874 237.677C188.906 237.181 191.999 236.714 195.071 236.294C195.272 236.258 195.48 236.303 195.648 236.419C195.817 236.536 195.932 236.715 195.968 236.916C196.005 237.117 195.96 237.325 195.843 237.493C195.727 237.662 195.548 237.777 195.347 237.813L195.346 237.81ZM149.948 247.192C149.85 247.217 149.748 247.222 149.648 247.208C149.547 247.194 149.451 247.16 149.364 247.108C149.276 247.057 149.2 246.988 149.14 246.907C149.079 246.826 149.035 246.734 149.009 246.636C148.984 246.538 148.979 246.436 148.993 246.335C149.007 246.235 149.041 246.139 149.093 246.051C149.197 245.875 149.367 245.748 149.566 245.697C152.528 244.861 155.555 244.056 158.556 243.304C158.754 243.263 158.96 243.298 159.134 243.402C159.308 243.506 159.436 243.672 159.494 243.866C159.521 243.964 159.528 244.067 159.514 244.169C159.5 244.27 159.466 244.367 159.413 244.455C159.361 244.543 159.291 244.619 159.208 244.679C159.125 244.739 159.031 244.781 158.931 244.804C155.946 245.553 152.933 246.354 149.985 247.183L149.948 247.192ZM177.037 240.81L177.012 240.816C173.972 241.399 170.924 242.026 167.944 242.681C167.744 242.726 167.534 242.69 167.361 242.581C167.187 242.472 167.064 242.298 167.019 242.098C166.973 241.898 167.009 241.689 167.118 241.515C167.228 241.342 167.401 241.219 167.601 241.173C170.591 240.493 173.663 239.884 176.713 239.299C176.914 239.257 177.123 239.296 177.295 239.408C177.466 239.52 177.586 239.696 177.628 239.897C177.67 240.097 177.631 240.307 177.519 240.478C177.407 240.65 177.231 240.77 177.03 240.812L177.037 240.81Z" fill="#204AF4" fill-opacity="0.92"/>
<path d="M1233.87 182.725L1250.67 99.2344L1176.27 150.703C1176.26 150.71 1176.25 150.72 1176.24 150.732C1176.24 150.744 1176.23 150.757 1176.23 150.77C1176.24 150.783 1176.24 150.796 1176.25 150.807C1176.25 150.818 1176.26 150.827 1176.27 150.833L1233.76 182.774C1233.77 182.781 1233.78 182.784 1233.79 182.785C1233.81 182.786 1233.82 182.784 1233.83 182.779C1233.84 182.774 1233.85 182.767 1233.86 182.757C1233.87 182.748 1233.87 182.737 1233.87 182.725Z" fill="#719BFF"/>
<path d="M1247.39 104.938L1211.44 170.373L1206.9 183.677C1206.9 183.691 1206.89 183.704 1206.88 183.714C1206.86 183.723 1206.85 183.729 1206.83 183.73C1206.82 183.731 1206.8 183.727 1206.79 183.719C1206.78 183.711 1206.77 183.699 1206.76 183.685L1196.52 162.109C1196.52 162.08 1196.51 162.05 1198.97 159.227L1247.39 104.938Z" fill="#B1C0FB"/>
<path d="M1207.05 183.666L1217.87 174.059C1217.87 174.05 1217.88 174.039 1217.88 174.027C1217.89 174.016 1217.89 174.003 1217.88 173.991C1217.88 173.979 1217.87 173.968 1217.87 173.959C1217.86 173.949 1217.85 173.942 1217.84 173.938L1211.5 170.416C1211.49 170.41 1211.48 170.406 1211.47 170.404C1211.46 170.402 1211.45 170.402 1211.44 170.404C1211.43 170.407 1211.42 170.412 1211.41 170.418C1211.4 170.425 1211.39 170.434 1211.39 170.443L1206.91 183.569C1206.9 183.588 1206.9 183.61 1206.9 183.632C1206.9 183.654 1206.92 183.674 1206.94 183.687C1206.95 183.699 1206.98 183.704 1207 183.7C1207.02 183.697 1207.04 183.684 1207.05 183.666Z" fill="#5388F2"/>
<path d="M970.14 342.495C970.37 373.565 995.737 398.567 1026.8 398.337C1057.86 398.107 1082.85 372.733 1082.63 341.663C1082.4 310.593 1057.03 285.592 1025.97 285.821C994.905 286.051 969.91 311.425 970.14 342.495Z" fill="#FF784B"/>
<path d="M993.595 375.367C1011.97 393.48 1041.55 393.261 1059.66 374.878C1077.77 356.495 1077.55 326.909 1059.17 308.796C1040.79 290.682 1011.21 290.901 993.107 309.284C974.998 327.667 975.217 357.254 993.595 375.367Z" fill="white"/>
<path d="M1002.6 366.219C1015.93 379.355 1037.38 379.197 1050.51 365.865C1063.65 352.533 1063.49 331.077 1050.16 317.941C1036.83 304.805 1015.38 304.964 1002.25 318.295C989.117 331.627 989.275 353.083 1002.6 366.219Z" fill="#FF784B"/>
<path d="M1008.44 353.074C1014.52 363.021 1027.51 366.154 1037.45 360.072C1047.4 353.989 1050.53 340.995 1044.45 331.048C1038.37 321.101 1025.38 317.968 1015.43 324.05C1005.49 330.132 1002.36 343.126 1008.44 353.074Z" fill="white"/>
<path d="M1016.17 342.154C1016.21 347.8 1020.82 352.342 1026.46 352.3C1032.1 352.259 1036.64 347.648 1036.6 342.003C1036.56 336.358 1031.95 331.815 1026.31 331.857C1020.66 331.899 1016.12 336.509 1016.17 342.154Z" fill="#FF784B"/>
<path d="M1065.58 277.146L1059.49 286.157L1060.88 288.955L1030.54 333.234L1027.47 327.542C1027.43 327.488 1027.38 327.447 1027.32 327.424C1027.25 327.4 1027.19 327.395 1027.12 327.409C1027.05 327.423 1026.99 327.456 1026.95 327.504C1026.9 327.551 1026.87 327.611 1026.85 327.677L1025.86 342.754C1025.86 342.81 1025.88 342.865 1025.91 342.915C1025.93 342.964 1025.97 343.006 1026.02 343.037C1026.07 343.068 1026.12 343.087 1026.18 343.092C1026.23 343.098 1026.29 343.091 1026.34 343.07L1039.95 336.545C1040.02 336.515 1040.07 336.463 1040.11 336.399C1040.14 336.335 1040.15 336.262 1040.14 336.191C1040.13 336.119 1040.09 336.054 1040.04 336.005C1039.99 335.955 1039.92 335.925 1039.85 335.918L1033.88 335.228L1064.08 291.146L1067.29 291.4L1073.38 282.389L1068 281.966L1065.58 277.146Z" fill="black"/>
</g>
</svg>
