<svg width="61" height="60" viewBox="0 0 61 60" fill="none" xmlns="http://www.w3.org/2000/svg">
<g clip-path="url(#clip0_1129_1693)">
<mask id="mask0_1129_1693" style="mask-type:alpha" maskUnits="userSpaceOnUse" x="0" y="0" width="61" height="60">
<path d="M30.5 60C47.0685 60 60.5 46.5685 60.5 30C60.5 13.4315 47.0685 0 30.5 0C13.9315 0 0.5 13.4315 0.5 30C0.5 46.5685 13.9315 60 30.5 60Z" fill="black"/>
</mask>
<g mask="url(#mask0_1129_1693)">
<path d="M30.5 60C47.0685 60 60.5 46.5685 60.5 30C60.5 13.4315 47.0685 0 30.5 0C13.9315 0 0.5 13.4315 0.5 30C0.5 46.5685 13.9315 60 30.5 60Z" fill="black"/>
<path d="M50.336 52.5067L23.5473 18H18.5V41.99H22.5379V23.1279L47.1663 54.9483C48.2777 54.2047 49.3363 53.3883 50.336 52.5067Z" fill="url(#paint0_linear_1129_1693)"/>
<path d="M42.834 18H38.834V42H42.834V18Z" fill="url(#paint1_linear_1129_1693)"/>
</g>
</g>
<defs>
<linearGradient id="paint0_linear_1129_1693" x1="36.8333" y1="38.8333" x2="48.6667" y2="53.5" gradientUnits="userSpaceOnUse">
<stop stop-color="white"/>
<stop offset="1" stop-color="white" stop-opacity="0"/>
</linearGradient>
<linearGradient id="paint1_linear_1129_1693" x1="40.834" y1="18" x2="40.767" y2="35.625" gradientUnits="userSpaceOnUse">
<stop stop-color="white"/>
<stop offset="1" stop-color="white" stop-opacity="0"/>
</linearGradient>
<clipPath id="clip0_1129_1693">
<rect width="60" height="60" fill="white" transform="translate(0.5)"/>
</clipPath>
</defs>
</svg>
