<svg width="93" height="103" viewBox="0 0 93 103" fill="none" xmlns="http://www.w3.org/2000/svg">
<g opacity="0.31">
<path d="M34.5083 75.4514H57.5357C58.5121 75.4514 59.2856 76.2762 59.2228 77.2507L58.7736 88.819C58.7158 90.4773 57.7266 92.3329 56.3308 94.5232C55.6107 95.6531 55.1038 97.1239 53.3535 98.1347C52.6753 98.5263 51.9095 98.8276 51.1135 99.0883C50.3855 101.212 48.3934 102.749 46.0227 102.749C43.6521 102.749 41.6599 101.212 40.932 99.0883C40.1363 98.8279 39.3705 98.5263 38.692 98.1347C36.9417 97.1242 36.4351 95.6531 35.715 94.5232C34.3607 92.3986 33.3959 90.5899 33.2909 88.9693C33.2721 88.9693 32.8208 77.2486 32.8208 77.2486C32.7592 76.275 33.5325 75.4514 34.5083 75.4514Z" fill="#B1B2F2"/>
<path d="M29.813 62.7792C25.2633 58.478 22.4238 52.3868 22.4238 45.6311C22.4238 32.3561 33.3851 21.6408 46.7508 22.043C58.9732 22.4106 69.0224 32.2801 69.5956 44.4947C69.9548 52.1483 66.6652 59.0455 61.3182 63.6C59.426 65.2117 57.9277 67.1898 56.7066 69.3548C56.4753 69.7652 56.1681 70.164 55.7908 75.4479H36.2571C35.9198 70.2047 35.6364 69.8499 35.4154 69.4852C33.9002 66.9811 31.9402 64.7901 29.813 62.7792Z" fill="#FAC634"/>
<path d="M46.0208 12.4537C45.2757 12.4537 44.6719 11.8495 44.6719 11.1047V1.34895C44.6719 0.603838 45.276 0 46.0208 0C46.7656 0 47.3698 0.603838 47.3698 1.34895V11.1047C47.3698 11.8495 46.7656 12.4537 46.0208 12.4537Z" fill="#FAC634"/>
<path d="M63.4797 17.1319C63.2509 17.1319 63.019 17.0734 62.8065 16.9506C62.1614 16.5781 61.9404 15.7532 62.3126 15.1078L67.1905 6.65912C67.5628 6.01402 68.3879 5.79181 69.0333 6.1653C69.6784 6.53785 69.8993 7.36266 69.5271 8.00806L64.6492 16.4568C64.3995 16.89 63.946 17.1319 63.4797 17.1319Z" fill="#FAC634"/>
<path d="M76.2607 29.9122C75.7944 29.9122 75.3409 29.67 75.0912 29.2374C74.7186 28.5923 74.9396 27.7672 75.585 27.3947L84.0337 22.5168C84.6788 22.1436 85.5042 22.3655 85.8764 23.0106C86.249 23.6557 86.028 24.4808 85.3829 24.8534L76.9342 29.7313C76.7214 29.8538 76.4895 29.9122 76.2607 29.9122Z" fill="#FAC634"/>
<path d="M90.6926 47.37H80.9368C80.1917 47.37 79.5879 46.7658 79.5879 46.021C79.5879 45.2762 80.1921 44.6721 80.9368 44.6721H90.6926C91.4377 44.6721 92.0416 45.2762 92.0416 46.021C92.0416 46.7661 91.4377 47.37 90.6926 47.37Z" fill="#FAC634"/>
<path d="M84.7067 69.7065C84.478 69.7065 84.246 69.6483 84.0335 69.5252L75.5848 64.6473C74.9397 64.2747 74.7187 63.4499 75.0909 62.8045C75.4635 62.1594 76.2889 61.9385 76.9337 62.311L85.3825 67.1889C86.0276 67.5615 86.2485 68.3863 85.876 69.0317C85.6266 69.4642 85.1731 69.7065 84.7067 69.7065Z" fill="#FAC634"/>
<path d="M7.33393 69.7065C6.86761 69.7065 6.41413 69.4645 6.1644 69.0317C5.79185 68.3866 6.01281 67.5615 6.65821 67.1889L15.1069 62.311C15.7523 61.9385 16.5774 62.1594 16.9497 62.8045C17.3222 63.4496 17.1013 64.2747 16.4559 64.6473L8.00747 69.5252C7.79463 69.648 7.56303 69.7065 7.33393 69.7065Z" fill="#FAC634"/>
<path d="M11.1047 47.37H1.34896C0.60385 47.37 0 46.7658 0 46.021C0 45.2762 0.604162 44.6721 1.34896 44.6721H11.1047C11.8498 44.6721 12.4537 45.2762 12.4537 46.021C12.4537 46.7661 11.8498 47.37 11.1047 47.37Z" fill="#FAC634"/>
<path d="M15.78 29.9119C15.5512 29.9119 15.3192 29.8535 15.1067 29.7307L6.658 24.8528C6.01291 24.4802 5.79196 23.6554 6.1642 23.01C6.53675 22.3652 7.36218 22.1433 8.00696 22.5162L16.4553 27.3941C17.1004 27.7666 17.3214 28.5914 16.9492 29.2368C16.7001 29.6697 16.2463 29.9119 15.78 29.9119Z" fill="#FAC634"/>
<path d="M28.5653 17.1316C28.099 17.1316 27.6455 16.8894 27.3958 16.4569L22.5179 8.00813C22.1454 7.36304 22.3663 6.53792 23.0118 6.16537C23.6572 5.79187 24.482 6.01378 24.8545 6.65919L29.7324 15.1079C30.1049 15.753 29.884 16.5781 29.2386 16.9507C29.0261 17.0735 28.7944 17.1316 28.5653 17.1316Z" fill="#FAC634"/>
<path d="M55.5159 82.9326L36.8411 78.4354L36.5254 79.7468L55.2003 84.244L55.5159 82.9326ZM36.5254 84.244L55.2003 88.7412L55.5156 87.4298L36.8407 82.9326L36.5254 84.244ZM36.5254 88.7412L55.2003 93.2384L55.5156 91.927L36.8407 87.4298L36.5254 88.7412Z" fill="#C2C3F2"/>
<path d="M52.7834 47.767H47.6299V42.6135C47.6299 39.7718 49.9418 37.4599 52.7834 37.4599C55.6251 37.4599 57.937 39.7718 57.937 42.6135C57.937 45.4551 55.6248 47.767 52.7834 47.767ZM48.9788 46.4181H52.7834C54.8812 46.4181 56.588 44.7116 56.588 42.6135C56.588 40.5157 54.8816 38.8089 52.7834 38.8089C50.6856 38.8089 48.9788 40.5154 48.9788 42.6135V46.4181Z" fill="white"/>
<path d="M44.4172 47.7667H39.2639C36.4223 47.7667 34.1104 45.4548 34.1104 42.6131C34.1104 39.7715 36.4223 37.4596 39.2639 37.4596C42.1056 37.4596 44.4172 39.7715 44.4172 42.6131V47.7667ZM39.2639 38.8085C37.1661 38.8085 35.4593 40.515 35.4593 42.6131C35.4593 44.7109 37.1658 46.4177 39.2639 46.4177H43.0682V42.6131C43.0682 40.5153 41.3614 38.8085 39.2639 38.8085Z" fill="white"/>
<path d="M48.9806 75.4509H47.6316V47.7666H44.4193V75.4509H43.0703V46.4177H48.9806V75.4509Z" fill="white"/>
</g>
</svg>
