<svg width="265" height="318" viewBox="0 0 265 318" fill="none" xmlns="http://www.w3.org/2000/svg">
<g opacity="0.08">
<path d="M3.0038 370.245C4.85676 370.381 6.71303 370.494 8.57021 370.583C11.9662 370.745 15.3674 370.826 18.7692 370.826C33.1134 370.826 47.448 369.381 61.3762 366.531C74.9497 363.753 88.3023 359.608 101.061 354.211C113.588 348.913 125.671 342.355 136.973 334.719C148.167 327.157 158.694 318.471 168.261 308.904C177.828 299.337 186.513 288.81 194.076 277.616C201.711 266.314 208.27 254.231 213.568 241.704C218.964 228.946 223.11 215.593 225.887 202.02C228.737 188.091 230.182 173.757 230.182 159.413C230.182 145.069 228.737 130.734 225.887 116.806C223.11 103.232 218.965 89.8803 213.568 77.1215C208.27 64.5941 201.711 52.5119 194.076 41.2098C186.514 30.0147 177.828 19.4877 168.261 9.92127C158.694 0.354736 148.167 -8.33056 136.973 -15.894C125.671 -23.5291 113.588 -30.0871 101.061 -35.3861C88.3023 -40.7826 74.9498 -44.9275 61.3762 -47.7048C47.448 -50.5553 33.1134 -52 18.7693 -52C15.3517 -52 11.9342 -51.918 8.52355 -51.7549C6.69657 -51.6668 4.87126 -51.5564 3.04866 -51.4217C3.0254 -51.1067 3.00198 -50.7874 2.97963 -50.4637C4.84452 -50.6036 6.71562 -50.7184 8.5935 -50.8072C11.9653 -50.9686 15.3579 -51.0505 18.7693 -51.0505C134.82 -51.0505 229.233 43.3633 229.233 159.413C229.233 275.463 134.82 369.877 18.7692 369.877C15.3732 369.877 11.9963 369.796 8.63924 369.636C6.73116 369.546 4.82896 369.429 2.93478 369.287L3.0038 370.245Z" fill="white" fill-opacity="0.62"/>
<path d="M57.1638 346.108C69.4049 343.603 81.4448 339.865 92.9504 335C104.245 330.222 115.137 324.31 125.325 317.427C135.413 310.612 144.9 302.784 153.521 294.164C162.142 285.543 169.968 276.056 176.784 265.967C183.668 255.779 189.579 244.887 194.356 233.593C199.223 222.087 202.96 210.047 205.465 197.806C208.034 185.252 209.336 172.335 209.336 159.412C209.336 146.489 208.034 133.572 205.465 121.017C202.96 108.777 199.223 96.7363 194.356 85.2314C189.579 73.9371 183.668 63.0442 176.784 52.8562C169.968 42.7676 162.142 33.2814 153.521 24.6607C144.9 16.0392 135.413 8.21251 125.325 1.39649C115.137 -5.48598 104.245 -11.3986 92.9504 -16.1754C81.4447 -21.042 69.4047 -24.7796 57.1638 -27.2841C44.6095 -29.8532 31.692 -31.1555 18.7692 -31.1555C15.7572 -31.1555 12.7453 -31.0847 9.73864 -30.9441C7.09868 -30.8198 4.46307 -30.642 1.83429 -30.4099C1.53057 -23.8614 1.24318 -16.5818 0.974801 -8.64896C4.1568 -8.98469 7.3654 -9.23056 10.5974 -9.38431C13.3055 -9.51464 16.03 -9.5802 18.7693 -9.5802C111.952 -9.58019 187.761 66.2295 187.761 159.412C187.761 252.595 111.952 328.404 18.7693 328.404C16.0371 328.404 13.3193 328.339 10.6189 328.209C7.3723 328.056 4.14984 327.809 0.954102 327.472C1.21991 335.394 1.50473 342.674 1.80588 349.232C4.45445 349.466 7.10909 349.645 9.76808 349.769C12.7654 349.91 15.7669 349.98 18.7693 349.98C31.692 349.98 44.6095 348.677 57.1638 346.108Z" fill="white" fill-opacity="0.62"/>
<path d="M139.984 159.057L75.9305 159.057C75.9305 159.057 99.2326 144.534 116.465 144.534C133.698 144.534 139.984 159.057 139.984 159.057Z" fill="#F19250"/>
<path d="M136.409 155.481C136.409 155.481 131.452 150.387 121.994 150.387C107.666 150.387 100.535 159.057 100.535 159.057L136.409 159.057L136.409 155.481Z" fill="#F5CC48"/>
<path d="M139.984 159.058L75.9305 159.058C75.9305 159.058 99.2326 173.581 116.465 173.581C133.698 173.581 139.984 159.058 139.984 159.058Z" fill="#E1884A"/>
<path d="M136.409 162.634C136.409 162.634 131.452 167.728 121.994 167.728C107.666 167.728 100.535 159.058 100.535 159.058L136.409 159.058L136.409 162.634Z" fill="#E2BD41"/>
<path d="M129.446 173.035L129.446 145.174C129.446 144.404 130.071 143.779 130.841 143.779L134.782 143.779C135.552 143.779 136.177 144.404 136.177 145.174L136.177 173.035C136.177 173.806 135.552 174.43 134.782 174.43L130.841 174.43C130.071 174.43 129.446 173.806 129.446 173.035Z" fill="#C6C6C5"/>
<path d="M138.605 174.43L138.605 143.779L131.875 143.779L131.875 174.43L138.605 174.43Z" fill="#B8B7B7"/>
<path d="M264.819 159.105L133.024 159.105L133.024 141.227C133.024 141.227 173.623 131.949 211.414 131.949C220.733 131.949 228.704 133.6 235.424 136.088L235.424 136.089C241.052 138.172 245.804 140.844 249.737 143.623L249.737 143.623L249.737 143.624C260.15 150.984 264.819 159.105 264.819 159.105Z" fill="white"/>
<path d="M211.414 186.259C173.623 186.259 133.024 176.981 133.024 176.981L133.024 159.104L264.819 159.104C264.819 159.104 260.288 166.986 250.198 174.256C246.235 177.112 241.414 179.874 235.674 182.027C228.902 184.567 220.849 186.259 211.414 186.259Z" fill="#F1F2F3"/>
<path d="M235.672 182.027C236.635 176.492 237.625 168.5 237.604 159.105C237.588 152.072 237.005 144.253 235.421 136.089C241.05 138.172 245.801 140.844 249.734 143.623L249.735 143.623L249.735 143.624C250.593 148.044 251.268 153.297 251.358 159.105C251.431 163.838 251.116 168.939 250.195 174.257C246.232 177.113 241.412 179.874 235.672 182.027Z" fill="#F15A29"/>
<path d="M206.345 159.105C206.345 166.016 211.947 171.618 218.858 171.618C225.769 171.618 231.371 166.016 231.371 159.105C231.371 152.194 225.769 146.592 218.858 146.592C211.947 146.592 206.345 152.194 206.345 159.105Z" fill="#F15A29"/>
<path d="M218.86 170.33C212.661 170.33 207.635 165.304 207.635 159.105C207.635 155.415 209.416 152.141 212.165 150.095C214.034 148.704 216.351 147.881 218.86 147.881C225.059 147.881 230.084 152.906 230.084 159.105C230.084 163.716 227.304 167.678 223.328 169.405C221.959 170 220.448 170.33 218.86 170.33Z" fill="#30B4A7"/>
<path d="M218.861 170.329C212.662 170.329 207.636 165.304 207.636 159.104C207.636 155.414 209.417 152.14 212.166 150.094C213.536 149.499 215.047 149.169 216.636 149.169C222.835 149.169 227.86 154.194 227.86 160.393C227.86 164.084 226.079 167.358 223.329 169.404C221.96 169.999 220.449 170.329 218.861 170.329Z" fill="#4FC1B7"/>
<path d="M165.317 159.104L111.432 159.104C111.432 159.104 129.534 155.062 139.89 155.062C150.246 155.062 163.128 155.483 165.317 159.104Z" fill="#F15A29"/>
<path d="M165.317 159.104L111.432 159.104C111.432 159.104 129.534 163.146 139.89 163.146C150.246 163.146 163.128 162.725 165.317 159.104Z" fill="#E25626"/>
<path d="M235.675 182.027C236.638 176.492 237.628 168.5 237.606 159.104L251.361 159.104C251.434 163.837 251.119 168.939 250.198 174.256C246.235 177.112 241.415 179.874 235.675 182.027Z" fill="#E05526"/>
<path d="M248.158 144.49C248.158 144.721 248.345 144.907 248.575 144.907C248.805 144.907 248.992 144.721 248.992 144.49C248.992 144.26 248.805 144.073 248.575 144.073C248.345 144.073 248.158 144.26 248.158 144.49Z" fill="white"/>
<path d="M249.409 151.156C249.179 151.156 248.992 150.969 248.992 150.738C248.992 150.508 249.179 150.321 249.409 150.321C249.639 150.321 249.826 150.508 249.826 150.738C249.826 150.969 249.639 151.156 249.409 151.156Z" fill="white"/>
<path d="M249.409 156.989C249.409 157.22 249.596 157.406 249.826 157.406C250.056 157.406 250.243 157.22 250.243 156.989C250.243 156.759 250.056 156.572 249.826 156.572C249.596 156.572 249.409 156.759 249.409 156.989Z" fill="white"/>
<path d="M237.382 138.988C237.382 139.219 237.568 139.406 237.799 139.406C238.029 139.406 238.216 139.219 238.216 138.988C238.216 138.758 238.029 138.571 237.799 138.571C237.568 138.571 237.382 138.758 237.382 138.988Z" fill="white"/>
<path d="M238.217 145.236C238.217 145.467 238.403 145.654 238.634 145.654C238.864 145.654 239.051 145.467 239.051 145.236C239.051 145.006 238.864 144.819 238.634 144.819C238.403 144.819 238.217 145.006 238.217 145.236Z" fill="white"/>
<path d="M238.632 151.487C238.632 151.718 238.818 151.905 239.049 151.905C239.279 151.905 239.466 151.718 239.466 151.487C239.466 151.257 239.279 151.07 239.049 151.07C238.818 151.07 238.632 151.257 238.632 151.487Z" fill="white"/>
<path d="M238.831 156.989C238.831 157.22 239.018 157.406 239.248 157.406C239.478 157.406 239.665 157.22 239.665 156.989C239.665 156.759 239.478 156.572 239.248 156.572C239.018 156.572 238.831 156.759 238.831 156.989Z" fill="white"/>
<path d="M248.158 173.877C248.158 174.107 248.345 174.294 248.575 174.294C248.805 174.294 248.992 174.107 248.992 173.877C248.992 173.647 248.805 173.46 248.575 173.46C248.345 173.46 248.158 173.647 248.158 173.877Z" fill="white"/>
<path d="M249.409 167.211C249.179 167.211 248.992 167.398 248.992 167.628C248.992 167.858 249.179 168.045 249.409 168.045C249.639 168.045 249.826 167.858 249.826 167.628C249.826 167.398 249.639 167.211 249.409 167.211Z" fill="white"/>
<path d="M249.409 161.378C249.409 161.608 249.596 161.795 249.826 161.795C250.056 161.795 250.243 161.608 250.243 161.378C250.243 161.148 250.056 160.961 249.826 160.961C249.596 160.961 249.409 161.148 249.409 161.378Z" fill="white"/>
<path d="M237.382 179.379C237.382 179.609 237.568 179.796 237.799 179.796C238.029 179.796 238.216 179.609 238.216 179.379C238.216 179.149 238.029 178.962 237.799 178.962C237.568 178.962 237.382 179.149 237.382 179.379Z" fill="white"/>
<path d="M238.634 172.713C238.403 172.713 238.217 172.9 238.217 173.13C238.217 173.36 238.403 173.547 238.634 173.547C238.864 173.547 239.051 173.36 239.051 173.13C239.051 172.9 238.864 172.713 238.634 172.713Z" fill="white"/>
<path d="M238.632 166.88C238.632 167.11 238.818 167.297 239.049 167.297C239.279 167.297 239.466 167.11 239.466 166.88C239.466 166.65 239.279 166.463 239.049 166.463C238.818 166.463 238.632 166.65 238.632 166.88Z" fill="white"/>
<path d="M238.831 161.378C238.831 161.608 239.018 161.795 239.248 161.795C239.478 161.795 239.665 161.608 239.665 161.378C239.665 161.148 239.478 160.961 239.248 160.961C239.018 160.961 238.831 161.148 238.831 161.378Z" fill="white"/>
<path d="M135.007 143.021L127.841 139.208L111.432 130.476C111.432 130.476 142.585 121.635 148.226 124.666C151.05 126.184 155.33 128.904 158.901 131.242C162.462 133.575 165.317 135.527 165.317 135.527L135.007 143.021Z" fill="#F15A29"/>
<path d="M135.007 143.021L127.841 139.208L158.901 131.242C162.462 133.575 165.317 135.527 165.317 135.527L135.007 143.021Z" fill="#E25626"/>
<path d="M159.222 135.186C158.946 135.186 158.721 134.962 158.721 134.685C158.721 134.408 158.946 134.184 159.222 134.184C159.499 134.184 159.724 134.408 159.724 134.685C159.724 134.962 159.499 135.186 159.222 135.186Z" fill="white"/>
<path d="M152.522 136.784C152.245 136.784 152.021 136.559 152.021 136.282C152.021 136.006 152.245 135.781 152.522 135.781C152.799 135.781 153.023 136.006 153.023 136.282C153.023 136.559 152.799 136.784 152.522 136.784Z" fill="white"/>
<path d="M145.039 138.442C144.762 138.442 144.538 138.217 144.538 137.941C144.538 137.664 144.762 137.439 145.039 137.439C145.316 137.439 145.54 137.664 145.54 137.941C145.54 138.217 145.316 138.442 145.039 138.442Z" fill="white"/>
<path d="M138.039 140.138C137.762 140.138 137.538 139.914 137.538 139.637C137.538 139.36 137.762 139.136 138.039 139.136C138.316 139.136 138.54 139.36 138.54 139.637C138.54 139.914 138.316 140.138 138.039 140.138Z" fill="white"/>
<path d="M135.007 175.2L127.841 179.014L111.432 187.746C111.432 187.746 142.585 196.587 148.226 193.555C151.05 192.037 155.33 189.317 158.901 186.979C162.462 184.647 165.317 182.694 165.317 182.694L135.007 175.2Z" fill="#E25626"/>
<path d="M135.007 175.2L127.841 179.014L158.901 186.979C162.462 184.647 165.317 182.694 165.317 182.694L135.007 175.2Z" fill="#C74D28"/>
<path d="M159.222 183.035C158.946 183.035 158.721 183.26 158.721 183.536C158.721 183.813 158.946 184.038 159.222 184.038C159.499 184.038 159.724 183.813 159.724 183.536C159.724 183.26 159.499 183.035 159.222 183.035Z" fill="white"/>
<path d="M152.522 181.437C152.245 181.437 152.021 181.662 152.021 181.939C152.021 182.215 152.245 182.44 152.522 182.44C152.799 182.44 153.023 182.215 153.023 181.939C153.023 181.662 152.799 181.437 152.522 181.437Z" fill="white"/>
<path d="M145.039 179.779C144.762 179.779 144.538 180.004 144.538 180.281C144.538 180.557 144.762 180.782 145.039 180.782C145.316 180.782 145.54 180.557 145.54 180.281C145.54 180.004 145.316 179.779 145.039 179.779Z" fill="white"/>
<path d="M138.039 178.083C137.762 178.083 137.538 178.307 137.538 178.584C137.538 178.861 137.762 179.085 138.039 179.085C138.316 179.085 138.54 178.861 138.54 178.584C138.54 178.307 138.316 178.083 138.039 178.083Z" fill="white"/>
</g>
</svg>
