<svg width="134" height="134" viewBox="0 0 134 134" fill="none" xmlns="http://www.w3.org/2000/svg">
<path d="M11.1412 67.4948C11.371 98.5651 36.7379 123.566 67.7997 123.337C98.8615 123.107 123.856 97.7332 123.626 66.6629C123.396 35.5927 98.0294 10.5915 66.9676 10.8212C35.9057 11.051 10.9114 36.4246 11.1412 67.4948Z" fill="#FF784B"/>
<path d="M34.5963 100.366C52.9745 118.48 82.5526 118.261 100.661 99.8777C118.769 81.4945 118.551 51.9084 100.172 33.7951C81.794 15.6818 52.2158 15.9005 34.1075 34.2837C15.9992 52.6668 16.218 82.2531 34.5963 100.366Z" fill="white"/>
<path d="M43.6046 91.2192C56.9327 104.355 78.3831 104.197 91.5154 90.8649C104.648 77.5332 104.489 56.077 91.161 42.941C77.8329 29.8051 56.3824 29.9637 43.2501 43.2953C30.1178 56.627 30.2765 78.0832 43.6046 91.2192Z" fill="#FF784B"/>
<path d="M49.4366 78.0732C55.5171 88.0203 68.5077 91.1533 78.4521 85.0712C88.3964 78.9891 91.5287 65.995 85.4482 56.0479C79.3677 46.1008 66.377 42.9676 56.4326 49.0498C46.4883 55.1319 43.3561 68.1261 49.4366 78.0732Z" fill="white"/>
<path d="M57.1662 67.154C57.2079 72.7993 61.8169 77.3418 67.4606 77.3001C73.1044 77.2584 77.6457 72.6481 77.6039 67.0028C77.5622 61.3576 72.9532 56.8151 67.3094 56.8568C61.6657 56.8986 57.1244 61.5087 57.1662 67.154Z" fill="#FF784B"/>
<path d="M106.577 2.1463L100.488 11.1567L101.877 13.9547L71.5395 58.2342L68.4758 52.5421C68.4355 52.4882 68.3807 52.4472 68.3178 52.4236C68.2548 52.4 68.1865 52.3949 68.1208 52.4091C68.0551 52.4233 67.9949 52.4561 67.9472 52.5035C67.8996 52.5509 67.8666 52.611 67.8521 52.6766L66.8616 67.7538C66.8633 67.8101 66.8786 67.8653 66.9061 67.9145C66.9335 67.9636 66.9724 68.0055 67.0195 68.0365C67.0665 68.0675 67.1203 68.0866 67.1763 68.0924C67.2323 68.0982 67.2889 68.0905 67.3413 68.0698L80.9552 61.5452C81.0208 61.5147 81.0745 61.4634 81.1082 61.3994C81.1418 61.3354 81.1535 61.262 81.1414 61.1907C81.1293 61.1194 81.0941 61.054 81.0412 61.0046C80.9884 60.9553 80.9207 60.9248 80.8488 60.9176L74.8776 60.228L105.084 16.146L108.29 16.3997L114.382 7.3891L109.006 6.96555L106.577 2.1463Z" fill="black"/>
</svg>
