<svg width="64" height="89" viewBox="0 0 64 89" fill="none" xmlns="http://www.w3.org/2000/svg">
<path d="M6.2116 69.5257C9.7636 69.5257 11.7636 71.5737 11.7636 75.2217C11.7636 78.8537 9.8116 80.8857 6.3076 80.8857H2.5796V69.5257H6.2116ZM4.2756 79.3177H6.2116C8.7556 79.3177 10.0036 77.9737 10.0036 75.2217C10.0036 72.4377 8.7556 71.0937 6.2116 71.0937H4.2756V79.3177ZM13.1832 72.4057H14.7032L14.7512 74.0057C15.0232 72.9177 15.6632 72.4057 16.7672 72.4057H17.5832V73.7817H16.7512C15.4392 73.7817 14.8472 74.5017 14.8472 75.9257V80.8857H13.1832V72.4057ZM22.1048 81.0777C19.6728 81.0777 18.0888 79.3497 18.0888 76.6457C18.0888 73.9417 19.6728 72.2137 22.1048 72.2137C24.5368 72.2137 26.1208 73.9417 26.1208 76.6457C26.1208 79.3497 24.5368 81.0777 22.1048 81.0777ZM19.8168 76.6457C19.8168 78.5017 20.6488 79.6217 22.1048 79.6217C23.5608 79.6217 24.3928 78.5017 24.3928 76.6457C24.3928 74.7897 23.5608 73.6697 22.1048 73.6697C20.6488 73.6697 19.8168 74.7897 19.8168 76.6457ZM27.7238 83.2857V72.4057H29.2758L29.3238 73.6377C29.7878 72.7257 30.6678 72.2137 31.8998 72.2137C34.3958 72.2137 35.5478 74.2777 35.5478 76.6457C35.5478 79.0137 34.3958 81.0777 31.8998 81.0777C30.7318 81.0777 29.8678 80.6137 29.3878 79.7337V83.2857H27.7238ZM29.2278 76.6457C29.2278 78.1657 29.9158 79.6217 31.5158 79.6217C33.1318 79.6217 33.7878 78.1817 33.7878 76.6457C33.7878 75.1257 33.1318 73.6697 31.5158 73.6697C29.8998 73.6697 29.2278 75.1257 29.2278 76.6457ZM36.9707 69.5257H38.6347V73.5097C39.1307 72.6617 39.9947 72.2137 41.2107 72.2137C43.6427 72.2137 44.7947 74.2777 44.7947 76.6457C44.7947 79.0137 43.6427 81.0777 41.2107 81.0777C39.9307 81.0777 39.0347 80.5657 38.5707 79.7017L38.5227 80.8857H36.9707V69.5257ZM38.5067 76.6457C38.5067 78.1657 39.1627 79.6217 40.7947 79.6217C42.4107 79.6217 43.0667 78.1657 43.0667 76.6457C43.0667 75.0617 42.4267 73.6217 40.7947 73.6217C39.1627 73.6217 38.5067 75.0777 38.5067 76.6457ZM49.9548 81.0777C47.5228 81.0777 45.9388 79.3497 45.9388 76.6457C45.9388 73.9417 47.5228 72.2137 49.9548 72.2137C52.3868 72.2137 53.9708 73.9417 53.9708 76.6457C53.9708 79.3497 52.3868 81.0777 49.9548 81.0777ZM47.6668 76.6457C47.6668 78.5017 48.4988 79.6217 49.9548 79.6217C51.4108 79.6217 52.2428 78.5017 52.2428 76.6457C52.2428 74.7897 51.4108 73.6697 49.9548 73.6697C48.4988 73.6697 47.6668 74.7897 47.6668 76.6457ZM60.3602 72.4057H62.3282L59.3842 76.5497L62.4562 80.8857H60.5042L58.3762 77.7497L56.2322 80.8857H54.2802L57.3682 76.5497L54.4242 72.4057H56.3602L58.3762 75.3497L60.3602 72.4057Z" fill="#161616"/>
<g clip-path="url(#clip0_687_3780)">
<path d="M31.7122 15.0372L16.7339 24.5768L31.7122 34.1168L16.7339 43.6565L1.75562 34.1168L16.7339 24.5768L1.75562 15.0372L16.7339 5.49756L31.7122 15.0372Z" fill="#0061FF"/>
<path d="M16.6892 46.8214L31.6675 37.2817L46.6458 46.8214L31.6675 56.361L16.6892 46.8214Z" fill="#0061FF"/>
<path d="M31.7122 34.1168L46.6904 24.5768L31.7122 15.0372L46.6904 5.49756L61.6687 15.0372L46.6904 24.5768L61.6687 34.1168L46.6904 43.6565L31.7122 34.1168Z" fill="#0061FF"/>
</g>
<defs>
<clipPath id="clip0_687_3780">
<rect width="59.9131" height="59.9131" fill="white" transform="translate(1.75562 0.972656)"/>
</clipPath>
</defs>
</svg>
