<svg width="50" height="18" viewBox="0 0 50 18" fill="none" xmlns="http://www.w3.org/2000/svg">
<path d="M19.4169 0.0742188C19.5869 0.0742188 19.7568 0.168639 19.8513 0.319712C19.9268 0.489669 19.9268 0.659626 19.8513 0.810699L10.447 17.0888C10.3525 17.221 10.2015 17.3343 10.0126 17.3343C9.84267 17.3343 9.67271 17.221 9.59718 17.0888L0.192886 0.810699C0.0984652 0.659626 0.0984652 0.489669 0.192886 0.319712C0.287306 0.168639 0.438379 0.0742188 0.608336 0.0742188H19.4169Z" fill="#1D5B99"/>
<path d="M7.46435 10.1206C7.93645 8.40212 6.89782 6.60812 5.1416 6.13602L7.46435 10.1206ZM6.27465 4.79525C8.2386 5.66392 9.4283 7.72229 9.1828 9.81843L6.27465 4.79525ZM7.42658 3.5489C9.57937 4.71971 10.9013 7.02357 10.8446 9.44074L7.42658 3.5489ZM12.4686 9.00641C12.3742 6.30598 10.939 3.79439 8.63516 2.3592L12.4686 9.00641ZM9.84375 1.20727C12.2987 2.88795 13.8472 5.58838 14.0927 8.53431L9.84375 1.20727ZM15.6789 8.02443C15.3201 4.87079 13.6583 1.96263 11.0901 0.0742188L15.6789 8.02443ZM12.9785 0.0742188L16.6231 6.4004L16.9253 5.87164C16.321 3.68109 15.1691 1.67937 13.5828 0.0742188H12.9785Z" fill="white"/>
<path d="M44.3809 11.1593C46.0427 11.1593 48.8375 10.2529 48.8375 10.2529C48.9886 10.1962 49.1585 10.1018 49.1774 9.83743V2.60482C49.1774 2.41597 48.9886 2.18937 48.7809 2.18937H46.5903V8.85546C46.5903 8.85546 45.6839 9.08207 45.3628 9.08207C44.1165 9.08207 43.9654 7.91125 43.9654 7.53357V2.18937H41.8693C41.6049 2.18937 41.4349 2.34044 41.4349 2.60482V8.45889C41.4349 9.10095 41.9259 11.1593 44.3809 11.1593ZM36.3173 1.83057C34.6367 1.83057 31.8607 2.737 31.8607 2.737C31.6907 2.81254 31.5208 2.88808 31.5019 3.17134V10.404C31.5019 10.5928 31.6907 10.8194 31.8985 10.8194H34.089V4.13443C34.089 4.13443 34.9955 3.9267 35.3354 3.9267C36.5817 3.9267 36.7139 5.09752 36.7139 5.49409V10.8194H38.81C39.0744 10.8194 39.2444 10.6494 39.2444 10.404V4.54988C39.2444 3.88894 38.7723 1.83057 36.3173 1.83057ZM22.0032 2.64258C21.9465 2.41597 22.0787 2.18937 22.3431 2.18937H24.647L26.0633 8.06233C26.0821 8.17563 26.1199 8.27005 26.1199 8.27005H26.1388C26.1388 8.27005 26.1766 8.13786 26.1955 8.06233L27.6118 2.18937H29.8967C30.18 2.18937 30.3122 2.41597 30.2367 2.64258L27.6873 10.5361C27.6118 10.8005 27.3663 10.8194 27.2341 10.8194H24.9491C24.8358 10.8194 24.6281 10.8005 24.5148 10.5361L22.0032 2.64258Z" fill="black"/>
</svg>
