<svg width="74" height="82" viewBox="0 0 74 82" fill="none" xmlns="http://www.w3.org/2000/svg">
<g opacity="0.3">
<path d="M36.1721 77.147L51.0067 70.9151L47.4909 62.3833L32.5981 68.6396L36.1721 77.147Z" fill="#E3E7FF"/>
<path d="M43.7962 9.14921C37.9982 7.23312 31.5757 7.75564 24.5284 10.7162C19.4407 12.8535 15.5132 15.6256 12.7458 19.0328C9.91723 22.4045 8.2919 26.0951 7.86936 30.1052C7.37855 34.0982 8.04032 38.0725 9.85493 42.0285L25.7797 35.3386C24.8091 33.0284 24.7022 30.9202 25.4591 29.0144C26.2159 27.1086 27.7818 25.6565 30.1569 24.6587C32.3761 23.7264 34.3908 23.6512 36.2005 24.4332C38.0026 25.2336 39.3887 26.7888 40.3593 29.0991C41.7386 32.3825 41.3626 35.2129 39.2309 37.5895C37.0862 39.9715 33.4892 42.223 28.4406 44.3439L23.3009 46.5031L31.0131 64.8614L45.8478 58.6294L42.8681 51.1548C49.4987 48.293 54.1229 44.2892 56.7403 39.1433C59.3285 33.9641 59.325 28.2854 56.7297 22.1076C53.9051 15.3846 49.594 11.065 43.7962 9.14921Z" fill="#E3E7FF"/>
</g>
</svg>
