<svg width="188" height="189" viewBox="0 0 188 189" fill="none" xmlns="http://www.w3.org/2000/svg">
<path d="M162.09 28.6788C162.798 28.6788 163.506 28.4088 164.046 27.8683L187.19 4.72515C188.27 3.64458 188.27 1.89258 187.19 0.81238C186.109 -0.268189 184.357 -0.268189 183.277 0.81238L160.134 23.9555C159.053 25.0361 159.053 26.7881 160.134 27.8683C160.674 28.4084 161.382 28.6788 162.09 28.6788Z" fill="white"/>
<path d="M187.902 38.7375C187.5 37.2633 185.979 36.3941 184.504 36.7966L172.933 39.9535C171.459 40.3556 170.589 41.8766 170.992 43.3509C171.328 44.5812 172.443 45.3903 173.66 45.3903C173.9 45.3903 174.146 45.3585 174.39 45.2917L185.961 42.1349C187.435 41.7331 188.304 40.2117 187.902 38.7375Z" fill="white"/>
<path d="M144.403 17.0085C144.647 17.0752 144.892 17.107 145.133 17.107C146.35 17.107 147.465 16.2979 147.801 15.0676L150.958 3.49601C151.36 2.0218 150.491 0.500375 149.017 0.0986206C147.543 -0.30461 146.022 0.565305 145.62 2.03951L142.463 13.6111C142.06 15.0853 142.929 16.6064 144.403 17.0085Z" fill="white"/>
<path d="M24.604 27.8683C25.1441 28.4084 25.8524 28.6788 26.5603 28.6788C27.2683 28.6788 27.9766 28.4088 28.5167 27.8683C29.5973 26.7877 29.5973 25.0357 28.5167 23.9555L5.37359 0.81238C4.29302 -0.268189 2.54102 -0.268189 1.46082 0.81238C0.380248 1.89295 0.380248 3.64495 1.46082 4.72515L24.604 27.8683Z" fill="white"/>
<path d="M15.7176 39.9536L4.14602 36.7967C2.67181 36.3939 1.15038 37.2634 0.748629 38.7376C0.346505 40.2118 1.21531 41.7333 2.68952 42.135L14.2611 45.2919C14.5049 45.3586 14.7499 45.3904 14.9912 45.3904C16.2079 45.3904 17.3231 44.5813 17.6589 43.351C18.0606 41.8768 17.1918 40.3557 15.7176 39.9536Z" fill="white"/>
<path d="M40.8525 15.0674C41.1882 16.2978 42.3035 17.1068 43.5202 17.1068C43.7611 17.1068 44.0064 17.0751 44.2503 17.0083C45.7245 16.6062 46.5937 15.0851 46.1912 13.6109L43.0343 2.03936C42.6322 0.565521 41.1126 -0.304394 39.6369 0.0984677C38.1627 0.500591 37.2935 2.02165 37.696 3.49586L40.8525 15.0674Z" fill="white"/>
<path d="M164.046 161.02C162.966 159.94 161.214 159.94 160.134 161.02C159.053 162.101 159.053 163.853 160.134 164.933L183.277 188.076C183.817 188.616 184.525 188.887 185.233 188.887C185.941 188.887 186.649 188.617 187.19 188.076C188.27 186.996 188.27 185.244 187.19 184.164L164.046 161.02Z" fill="white"/>
<path d="M185.961 146.752L174.389 143.595C172.914 143.193 171.394 144.062 170.992 145.536C170.59 147.011 171.458 148.532 172.933 148.934L184.504 152.091C184.748 152.157 184.993 152.189 185.234 152.189C186.451 152.189 187.566 151.38 187.902 150.15C188.304 148.675 187.435 147.154 185.961 146.752Z" fill="white"/>
<path d="M147.801 173.819C147.399 172.345 145.878 171.475 144.404 171.878C142.929 172.28 142.06 173.801 142.463 175.275L145.619 186.847C145.955 188.077 147.07 188.886 148.287 188.886C148.528 188.886 148.773 188.854 149.017 188.788C150.491 188.385 151.361 186.864 150.958 185.39L147.801 173.819Z" fill="white"/>
<path d="M24.604 161.02L1.46082 184.164C0.380248 185.244 0.380248 186.996 1.46082 188.076C2.00092 188.616 2.70925 188.887 3.4172 188.887C4.12516 188.887 4.83349 188.617 5.37359 188.076L28.5167 164.933C29.5973 163.853 29.5973 162.101 28.5167 161.02C27.4362 159.94 25.6842 159.94 24.604 161.02Z" fill="white"/>
<path d="M14.2612 143.596L2.68965 146.753C1.21544 147.155 0.346264 148.676 0.748756 150.15C1.08447 151.38 2.19972 152.189 3.41642 152.189C3.65733 152.189 3.90266 152.158 4.14652 152.091L15.7181 148.934C17.1923 148.532 18.0615 147.011 17.659 145.537C17.2572 144.062 15.7362 143.192 14.2612 143.596Z" fill="white"/>
<path d="M44.2501 171.878C42.7759 171.475 41.2549 172.344 40.8527 173.819L37.6959 185.39C37.2938 186.864 38.1626 188.386 39.6368 188.788C39.8806 188.854 40.1256 188.886 40.3669 188.886C41.5836 188.886 42.6988 188.077 43.0345 186.847L46.1914 175.275C46.5935 173.801 45.7243 172.28 44.2501 171.878Z" fill="white"/>
</svg>
