<svg width="57" height="57" viewBox="0 0 57 57" fill="none" xmlns="http://www.w3.org/2000/svg">
<path d="M1.61743 55.5406L5.41063 41.7085C3.06713 37.6646 1.83543 33.0648 1.83543 28.3669C1.84633 13.641 13.8254 1.67285 28.5404 1.67285C35.6799 1.67285 42.3943 4.45235 47.4301 9.49905C52.4768 14.5457 55.2563 21.2492 55.2454 28.3887C55.2345 43.1037 43.2554 55.0828 28.5404 55.0828H28.5295C24.0605 55.0828 19.6678 53.9601 15.7656 51.8346L1.61743 55.5406Z" fill="url(#paint0_linear_687_3718)"/>
<path d="M0.647461 56.5101L4.57146 42.1766C2.15166 37.991 0.887261 33.2277 0.887261 28.3554C0.887261 13.1063 13.3024 0.702148 28.5515 0.702148C35.9525 0.702148 42.8958 3.59065 48.1169 8.81175C53.338 14.0437 56.2156 20.987 56.2156 28.3772C56.2047 43.6263 43.8005 56.0305 28.5515 56.0305H28.5406C23.9081 56.0305 19.3628 54.8642 15.3189 52.6624L0.647461 56.5101ZM15.9947 47.6593L16.834 48.1607C20.3656 50.2535 24.4095 51.3653 28.5406 51.3653H28.5515C41.2281 51.3653 51.5395 41.0539 51.5395 28.3772C51.5395 22.2405 49.1524 16.4635 44.8142 12.1144C40.476 7.76535 34.6991 5.37825 28.5624 5.37825C15.8748 5.37825 5.56336 15.6896 5.56336 28.3663C5.56336 32.7045 6.77326 36.9337 9.07316 40.5961L9.61816 41.4681L7.29646 49.9483L15.9947 47.6593Z" fill="url(#paint1_linear_687_3718)"/>
<path fill-rule="evenodd" clip-rule="evenodd" d="M21.6299 16.7907C21.1067 15.6354 20.5617 15.6136 20.0712 15.5918C19.6679 15.57 19.2101 15.5808 18.7414 15.5808C18.2836 15.5808 17.5315 15.7552 16.8993 16.4419C16.2671 17.1286 14.4795 18.8072 14.4795 22.208C14.4795 25.6088 16.9538 28.9006 17.3026 29.3584C17.6514 29.8162 22.0877 37.0211 29.1073 39.7897C34.9497 42.0896 36.1378 41.6318 37.4022 41.5228C38.6666 41.4138 41.4897 39.8551 42.0674 38.2419C42.6451 36.6287 42.6451 35.2444 42.4707 34.961C42.2963 34.6776 41.8385 34.5032 41.1409 34.1544C40.4542 33.8056 37.0534 32.1379 36.4212 31.909C35.789 31.6801 35.3312 31.5602 34.8625 32.2578C34.4047 32.9445 33.0749 34.5032 32.6716 34.961C32.2683 35.4188 31.865 35.4842 31.1783 35.1354C30.4916 34.7866 28.2571 34.0563 25.6193 31.7019C23.5592 29.8707 22.1749 27.6035 21.7716 26.9168C21.3683 26.2301 21.728 25.8486 22.0768 25.5107C22.382 25.2055 22.7635 24.7041 23.1123 24.3008C23.4611 23.8975 23.5701 23.6141 23.799 23.1454C24.0279 22.6876 23.9189 22.2843 23.7445 21.9355C23.5919 21.5758 22.2512 18.1641 21.6299 16.7907Z" fill="white"/>
<defs>
<linearGradient id="paint0_linear_687_3718" x1="28.4312" y1="55.5451" x2="28.4312" y2="1.66915" gradientUnits="userSpaceOnUse">
<stop stop-color="#20B038"/>
<stop offset="1" stop-color="#60D66A"/>
</linearGradient>
<linearGradient id="paint1_linear_687_3718" x1="28.4316" y1="56.5101" x2="28.4316" y2="0.702148" gradientUnits="userSpaceOnUse">
<stop stop-color="#F9F9F9"/>
<stop offset="1" stop-color="white"/>
</linearGradient>
</defs>
</svg>
