<svg width="106" height="26" viewBox="0 0 106 26" fill="none" xmlns="http://www.w3.org/2000/svg">
<path d="M27.7363 9.15674H38.4132V11.1387H34.2093V22.3112H31.9051V11.1387H27.7188L27.7363 9.15674ZM37.9558 12.7874H39.9259V14.629H39.961C40.0314 14.3659 40.1545 14.1203 40.3304 13.8748C40.5063 13.6292 40.7174 13.4012 40.9812 13.2083C41.2275 12.9978 41.5089 12.84 41.8255 12.7172C42.1246 12.5944 42.4412 12.5243 42.7578 12.5243C43.004 12.5243 43.1799 12.5418 43.2679 12.5418C43.3558 12.5593 43.4614 12.5769 43.5493 12.5769V14.5939C43.4086 14.5588 43.2503 14.5413 43.092 14.5237C42.9337 14.5062 42.793 14.4887 42.6346 14.4887C42.2829 14.4887 41.9487 14.5588 41.6321 14.6991C41.3154 14.8394 41.0516 15.0499 40.8053 15.313C40.5767 15.5936 40.3832 15.9269 40.2425 16.3303C40.1018 16.7337 40.0314 17.2072 40.0314 17.7334V22.2585H37.9207L37.9558 12.7874ZM53.2235 22.3112H51.148V20.9782H51.1128C50.849 21.4693 50.462 21.8376 49.9519 22.1358C49.4418 22.4339 48.9141 22.5742 48.3864 22.5742C47.1376 22.5742 46.2229 22.2761 45.66 21.6447C45.0972 21.0308 44.8157 20.0837 44.8157 18.8384V12.7874H46.9265V18.6279C46.9265 19.4698 47.0848 20.0661 47.419 20.3994C47.7356 20.7502 48.1929 20.9256 48.7734 20.9256C49.2131 20.9256 49.5825 20.8554 49.8815 20.7151C50.1805 20.5748 50.4268 20.3994 50.6027 20.1714C50.7962 19.9434 50.9193 19.6627 51.0073 19.347C51.0952 19.0313 51.1304 18.6805 51.1304 18.3122V12.7874H53.2411V22.3112H53.2235ZM56.8118 19.2593C56.8822 19.8732 57.1108 20.2941 57.5154 20.5572C57.9199 20.8028 58.4124 20.9256 58.9753 20.9256C59.1688 20.9256 59.3975 20.908 59.6437 20.8729C59.89 20.8379 60.1362 20.7852 60.3473 20.6975C60.5759 20.6098 60.7518 20.4871 60.8926 20.3117C61.0333 20.1363 61.1036 19.9258 61.086 19.6627C61.0685 19.3996 60.9805 19.1716 60.787 18.9962C60.5935 18.8208 60.3649 18.6981 60.0834 18.5753C59.802 18.4701 59.4678 18.3824 59.0984 18.3122C58.729 18.2421 58.3597 18.1544 57.9727 18.0667C57.5857 17.979 57.1988 17.8737 56.8294 17.751C56.46 17.6282 56.1434 17.4703 55.8444 17.2423C55.5629 17.0318 55.3167 16.7688 55.1584 16.4355C54.9825 16.1023 54.8945 15.7164 54.8945 15.2253C54.8945 14.6991 55.0177 14.2782 55.2815 13.9274C55.5278 13.5766 55.862 13.296 56.2489 13.0855C56.6359 12.8751 57.0756 12.7172 57.5506 12.6295C58.0255 12.5418 58.4828 12.5067 58.9049 12.5067C59.3974 12.5067 59.8724 12.5593 60.3121 12.6646C60.7518 12.7698 61.174 12.9277 61.5258 13.1732C61.8952 13.4012 62.1942 13.7169 62.4228 14.0853C62.6691 14.4536 62.8098 14.9096 62.8802 15.4358H60.6815C60.5759 14.9271 60.3473 14.5939 59.9955 14.4185C59.6261 14.2431 59.2216 14.1554 58.7466 14.1554C58.6059 14.1554 58.4124 14.173 58.219 14.1905C58.0079 14.2256 57.832 14.2607 57.6385 14.3308C57.4626 14.401 57.3043 14.5062 57.1812 14.629C57.058 14.7517 56.9877 14.9271 56.9877 15.1376C56.9877 15.4007 57.0756 15.5936 57.2515 15.7515C57.4274 15.9093 57.6561 16.0321 57.9551 16.1549C58.2365 16.2601 58.5707 16.3478 58.9401 16.418C59.3095 16.4881 59.6965 16.5758 60.0834 16.6635C60.4704 16.7512 60.8398 16.8565 61.2092 16.9792C61.5785 17.102 61.9128 17.2599 62.1942 17.4879C62.4756 17.6983 62.7219 17.9614 62.8978 18.2771C63.0737 18.5928 63.1616 18.9962 63.1616 19.4523C63.1616 20.0135 63.0385 20.4871 62.7746 20.8905C62.5108 21.2763 62.1766 21.6096 61.772 21.8551C61.3675 22.1007 60.8926 22.2761 60.4001 22.3989C59.89 22.5041 59.3974 22.5742 58.9049 22.5742C58.3069 22.5742 57.744 22.5041 57.2339 22.3638C56.7238 22.2235 56.2665 22.013 55.8971 21.7499C55.5278 21.4693 55.2287 21.136 55.0177 20.7151C54.8066 20.3117 54.6835 19.8206 54.6659 19.2418H56.7942V19.2593H56.8118ZM63.7596 12.7874H65.3603V9.91092H67.471V12.7698H69.3707V14.3308H67.471V19.4172C67.471 19.6452 67.4886 19.8206 67.5062 19.996C67.5238 20.1538 67.5766 20.2941 67.6293 20.3994C67.6997 20.5046 67.8052 20.5923 67.9284 20.6449C68.0691 20.6975 68.245 20.7326 68.4912 20.7326C68.6319 20.7326 68.7902 20.7326 68.931 20.7151C69.0717 20.6975 69.23 20.68 69.3707 20.6449V22.2761C69.142 22.3112 68.9134 22.3287 68.6847 22.3462C68.456 22.3813 68.245 22.3813 67.9987 22.3813C67.4359 22.3813 66.9961 22.3287 66.6619 22.2235C66.3277 22.1182 66.0639 21.9604 65.8704 21.7674C65.6769 21.557 65.5538 21.3114 65.4834 21.0132C65.4131 20.7151 65.3779 20.3468 65.3603 19.9609V14.3483H63.7596V12.7523V12.7874ZM70.8482 12.7874H72.8358V14.0853H72.871C73.17 13.524 73.5746 13.1381 74.1023 12.8926C74.63 12.647 75.1928 12.5243 75.826 12.5243C76.5824 12.5243 77.2332 12.647 77.7961 12.9277C78.3589 13.1908 78.8163 13.5415 79.1856 14.0151C79.555 14.4711 79.8365 15.0148 80.0124 15.6287C80.1882 16.2426 80.2938 16.9091 80.2938 17.5931C80.2938 18.2421 80.2058 18.8559 80.0475 19.4523C79.8716 20.0486 79.6254 20.5923 79.2912 21.0483C78.957 21.5043 78.5348 21.8727 78.0071 22.1533C77.4795 22.4339 76.8814 22.5742 76.1778 22.5742C75.8788 22.5742 75.5622 22.5392 75.2632 22.4865C74.9642 22.4339 74.6651 22.3462 74.3837 22.2235C74.1023 22.1007 73.8384 21.9428 73.6098 21.7499C73.3635 21.557 73.17 21.329 73.0117 21.0834H72.9765V25.8365H70.8658V12.7874H70.8482ZM78.2182 17.558C78.2182 17.1371 78.1655 16.7161 78.0423 16.3127C77.9368 15.9093 77.7609 15.5586 77.5322 15.2428C77.3036 14.9271 77.0221 14.6816 76.7055 14.4887C76.3713 14.2957 75.9844 14.208 75.5622 14.208C74.6827 14.208 74.0143 14.5062 73.557 15.1201C73.1173 15.7339 72.8886 16.5583 72.8886 17.5756C72.8886 18.0667 72.9414 18.5051 73.0645 18.9085C73.1876 19.3119 73.3459 19.6627 73.5922 19.9609C73.8208 20.2591 74.1023 20.4871 74.4365 20.6625C74.7707 20.8379 75.1401 20.9256 75.5798 20.9256C76.0723 20.9256 76.4593 20.8203 76.7935 20.6274C77.1277 20.4345 77.3915 20.1714 77.6202 19.8732C77.8312 19.5575 77.9896 19.2067 78.0775 18.8033C78.1655 18.3824 78.2182 17.979 78.2182 17.558ZM81.9296 9.15674H84.0403V11.1387H81.9296V9.15674ZM81.9296 12.7874H84.0403V22.3112H81.9296V12.7874ZM85.9224 9.15674H88.0332V22.3112H85.9224V9.15674ZM94.4709 22.5742C93.7146 22.5742 93.0286 22.4515 92.4305 22.1884C91.8325 21.9253 91.34 21.592 90.9179 21.1536C90.5133 20.7151 90.1967 20.1714 89.9856 19.5575C89.7745 18.9436 89.6514 18.2596 89.6514 17.5405C89.6514 16.8214 89.7569 16.1549 89.9856 15.541C90.1967 14.9271 90.5133 14.401 90.9179 13.9449C91.3224 13.5065 91.8325 13.1557 92.4305 12.9101C93.0286 12.6646 93.7146 12.5243 94.4709 12.5243C95.2273 12.5243 95.9133 12.647 96.5113 12.9101C97.1094 13.1557 97.6019 13.5065 98.024 13.9449C98.4286 14.3834 98.7452 14.9271 98.9562 15.541C99.1673 16.1549 99.2905 16.8214 99.2905 17.5405C99.2905 18.2771 99.1849 18.9436 98.9562 19.5575C98.7276 20.1714 98.4286 20.6975 98.024 21.1536C97.6194 21.592 97.1094 21.9428 96.5113 22.1884C95.9133 22.4339 95.2449 22.5742 94.4709 22.5742ZM94.4709 20.908C94.9282 20.908 95.3504 20.8028 95.6846 20.6098C96.0364 20.4169 96.3002 20.1538 96.5289 19.8381C96.7576 19.5224 96.9159 19.1541 97.0214 18.7682C97.1269 18.3648 97.1797 17.9614 97.1797 17.5405C97.1797 17.1371 97.1269 16.7337 97.0214 16.3303C96.9159 15.9269 96.7576 15.5761 96.5289 15.2604C96.3002 14.9447 96.0188 14.6991 95.6846 14.5062C95.3328 14.3133 94.9282 14.208 94.4709 14.208C94.0136 14.208 93.5915 14.3133 93.2573 14.5062C92.9055 14.6991 92.6416 14.9622 92.413 15.2604C92.1843 15.5761 92.026 15.9269 91.9204 16.3303C91.8149 16.7337 91.7621 17.1371 91.7621 17.5405C91.7621 17.9614 91.8149 18.3648 91.9204 18.7682C92.026 19.1716 92.1843 19.5224 92.413 19.8381C92.6416 20.1538 92.923 20.4169 93.2573 20.6098C93.609 20.8203 94.0136 20.908 94.4709 20.908ZM99.9237 12.7874H101.524V9.91092H103.635V12.7698H105.535V14.3308H103.635V19.4172C103.635 19.6452 103.653 19.8206 103.67 19.996C103.688 20.1538 103.741 20.2941 103.793 20.3994C103.864 20.5046 103.969 20.5923 104.092 20.6449C104.233 20.6975 104.409 20.7326 104.655 20.7326C104.796 20.7326 104.954 20.7326 105.095 20.7151C105.236 20.6975 105.394 20.68 105.535 20.6449V22.2761C105.306 22.3112 105.077 22.3287 104.849 22.3462C104.62 22.3813 104.409 22.3813 104.163 22.3813C103.6 22.3813 103.16 22.3287 102.826 22.2235C102.492 22.1182 102.228 21.9604 102.034 21.7674C101.841 21.557 101.718 21.3114 101.647 21.0132C101.577 20.7151 101.542 20.3468 101.524 19.9609V14.3483H99.9237V12.7523V12.7874Z" fill="black"/>
<path d="M25.2761 9.15548H15.6195L12.6469 0L9.65664 9.15548L0 9.13794L7.80974 14.8031L4.81953 23.9586L12.6293 18.2934L20.439 23.9586L17.4664 14.8031L25.2761 9.15548Z" fill="#00B67A"/>
<path d="M18.1364 16.8733L17.468 14.8037L12.6484 18.294L18.1364 16.8733Z" fill="#005128"/>
</svg>
