<svg width="206" height="50" viewBox="0 0 206 50" fill="none" xmlns="http://www.w3.org/2000/svg">
<path d="M202.504 36.9513C201.677 36.9513 200.976 36.6986 200.402 36.1932C199.827 35.6878 199.54 34.9641 199.54 34.0222C199.54 33.0574 199.827 32.2993 200.402 31.7479C200.999 31.1966 201.699 30.9209 202.504 30.9209C203.308 30.9209 203.997 31.1966 204.571 31.7479C205.145 32.2763 205.433 33.0229 205.433 33.9878C205.433 34.9527 205.145 35.6878 204.571 36.1932C203.997 36.6986 203.308 36.9513 202.504 36.9513Z" fill="#FFFBF9"/>
<path d="M187.383 36.7418C185.545 36.7418 183.937 36.3742 182.559 35.6391C181.18 34.881 180.112 33.8127 179.354 32.4343C178.596 31.033 178.217 29.3789 178.217 27.4722C178.217 25.5195 178.596 23.8424 179.354 22.4411C180.135 21.0168 181.215 19.9255 182.593 19.1674C183.972 18.4093 185.557 18.0303 187.349 18.0303C189.186 18.0303 190.783 18.4208 192.138 19.2019C193.494 19.983 194.551 21.0742 195.309 22.4755C196.067 23.8769 196.446 25.5539 196.446 27.5066C196.446 29.4134 196.067 31.0674 195.309 32.4688C194.574 33.8472 193.528 34.9039 192.173 35.6391C190.84 36.3742 189.244 36.7418 187.383 36.7418ZM187.314 32.331C188.371 32.331 189.221 32.1012 189.864 31.6418C190.507 31.1823 190.967 30.585 191.242 29.8499C191.541 29.0918 191.69 28.2992 191.69 27.4722C191.69 26.6451 191.541 25.8526 191.242 25.0945C190.967 24.3364 190.507 23.7161 189.864 23.2337C189.244 22.7282 188.394 22.4755 187.314 22.4755C186.28 22.4755 185.442 22.7282 184.799 23.2337C184.155 23.7161 183.684 24.3364 183.386 25.0945C183.11 25.8526 182.972 26.6451 182.972 27.4722C182.972 28.3222 183.11 29.1147 183.386 29.8499C183.684 30.585 184.155 31.1823 184.799 31.6418C185.442 32.1012 186.28 32.331 187.314 32.331Z" fill="#FFFBF9"/>
<path d="M149.572 36.4973V18.3372H153.914L154.328 20.3703C154.787 19.7271 155.293 19.2446 155.844 18.923C156.418 18.5784 156.993 18.3487 157.567 18.2338C158.141 18.119 158.67 18.0615 159.152 18.0615C160.232 18.0615 161.185 18.2683 162.012 18.6818C162.839 19.0953 163.505 19.7615 164.011 20.6804C164.493 20.0142 165.022 19.4973 165.596 19.1298C166.17 18.7392 166.779 18.4636 167.422 18.3027C168.066 18.1419 168.72 18.0615 169.386 18.0615C170.788 18.0615 171.913 18.3602 172.763 18.9575C173.636 19.5318 174.268 20.3358 174.659 21.3696C175.072 22.4034 175.279 23.6095 175.279 24.9879V36.4973H170.455V26.2629C170.455 25.8494 170.432 25.4244 170.386 24.9879C170.34 24.5514 170.225 24.1379 170.041 23.7473C169.88 23.3568 169.628 23.0352 169.283 22.7825C168.961 22.5298 168.502 22.4034 167.905 22.4034C167.33 22.4034 166.848 22.5298 166.457 22.7825C166.067 23.0352 165.757 23.3798 165.527 23.8163C165.297 24.2298 165.125 24.6892 165.01 25.1946C164.918 25.6771 164.872 26.171 164.872 26.6764V36.4973H160.048V26.2284C160.048 25.8379 160.025 25.4244 159.979 24.9879C159.933 24.5514 159.83 24.1379 159.669 23.7473C159.508 23.3568 159.244 23.0352 158.876 22.7825C158.532 22.5298 158.049 22.4034 157.429 22.4034C156.579 22.4034 155.924 22.6561 155.465 23.1615C155.028 23.644 154.741 24.2298 154.603 24.919C154.466 25.5852 154.397 26.2054 154.397 26.7798V36.4973H149.572Z" fill="#FFFBF9"/>
<path d="M135.74 36.7385C134.913 36.7385 134.109 36.6352 133.328 36.4284C132.57 36.1987 131.892 35.8541 131.295 35.3946C130.698 34.9352 130.227 34.3608 129.882 33.6716C129.538 32.9825 129.365 32.1784 129.365 31.2595C129.365 30.0189 129.618 29.0311 130.123 28.296C130.629 27.5379 131.306 26.9635 132.156 26.573C133.006 26.1825 133.983 25.9183 135.086 25.7804C136.211 25.6426 137.371 25.5737 138.566 25.5737H141.185C141.185 24.9075 141.058 24.3217 140.806 23.8162C140.576 23.2879 140.22 22.8858 139.738 22.6102C139.255 22.3115 138.635 22.1622 137.877 22.1622C137.394 22.1622 136.923 22.2311 136.464 22.369C136.027 22.4838 135.66 22.6561 135.361 22.8858C135.063 23.1156 134.867 23.4142 134.775 23.7818H129.882C130.02 22.771 130.342 21.9095 130.847 21.1973C131.352 20.4622 131.984 19.8649 132.742 19.4054C133.5 18.946 134.327 18.6129 135.223 18.4061C136.142 18.1764 137.084 18.0615 138.049 18.0615C140.691 18.0615 142.644 18.8196 143.907 20.3358C145.171 21.8291 145.802 23.9541 145.802 26.7108V36.4973H141.461L141.392 34.1541C140.817 34.9581 140.163 35.5439 139.427 35.9115C138.715 36.2791 138.026 36.5088 137.36 36.6007C136.694 36.6926 136.154 36.7385 135.74 36.7385ZM136.843 32.9135C137.647 32.9135 138.382 32.7527 139.048 32.4311C139.715 32.1095 140.243 31.673 140.633 31.1216C141.024 30.5703 141.219 29.95 141.219 29.2608V28.8129H137.911C137.429 28.8129 136.958 28.8358 136.498 28.8818C136.062 28.9277 135.66 29.0196 135.292 29.1575C134.948 29.2723 134.672 29.4676 134.465 29.7433C134.258 30.0189 134.155 30.3865 134.155 30.846C134.155 31.3054 134.27 31.696 134.5 32.0176C134.752 32.3162 135.086 32.546 135.499 32.7068C135.913 32.8446 136.361 32.9135 136.843 32.9135Z" fill="#FFFBF9"/>
<path d="M109.124 36.5005V18.3404H113.638L113.879 20.4424C114.385 19.8222 114.959 19.3397 115.602 18.9951C116.269 18.6276 116.935 18.3749 117.601 18.237C118.29 18.0992 118.911 18.0303 119.462 18.0303C121.208 18.0303 122.563 18.4093 123.528 19.1674C124.516 19.9255 125.217 20.9478 125.63 22.2343C126.067 23.4978 126.285 24.9107 126.285 26.4728V36.5005H121.461V27.0931C121.461 26.5418 121.415 25.9904 121.323 25.4391C121.231 24.8877 121.058 24.3823 120.806 23.9228C120.576 23.4634 120.243 23.0958 119.806 22.8201C119.37 22.5445 118.796 22.4066 118.083 22.4066C117.165 22.4066 116.395 22.6364 115.775 23.0958C115.154 23.5553 114.695 24.1755 114.396 24.9566C114.098 25.7377 113.948 26.5992 113.948 27.5411V36.5005H109.124Z" fill="#FFFBF9"/>
<path d="M95.9137 44.8629C94.5123 44.8629 93.1454 44.6791 91.813 44.3115C90.4806 43.944 89.2285 43.3237 88.0569 42.4507L89.6765 38.5913C90.4117 39.1426 91.2502 39.5791 92.1921 39.9007C93.1339 40.2453 94.1792 40.4176 95.3279 40.4176C97.0968 40.4176 98.4062 40.0041 99.2562 39.1771C100.129 38.3501 100.566 37.1555 100.566 35.5933V34.6284C100.175 35.1568 99.6812 35.5818 99.0839 35.9034C98.5096 36.2021 97.8894 36.4203 97.2231 36.5582C96.5569 36.696 95.8907 36.7649 95.2245 36.7649C93.4785 36.7649 92.0772 36.3974 91.0204 35.6622C89.9637 34.9271 89.1941 33.9278 88.7117 32.6642C88.2522 31.3778 88.0225 29.919 88.0225 28.2879V18.3291H92.8468V27.2886C92.8468 27.8859 92.8812 28.4832 92.9502 29.0805C93.0191 29.6778 93.1799 30.2291 93.4326 30.7345C93.6853 31.2399 94.0644 31.6534 94.5698 31.9751C95.0752 32.2737 95.7529 32.423 96.6029 32.423C97.7056 32.423 98.5326 32.1588 99.0839 31.6305C99.6353 31.0791 100.003 30.3899 100.187 29.5629C100.393 28.7359 100.497 27.8744 100.497 26.9784V18.3291H105.321V33.8703C105.321 35.5244 105.16 37.0291 104.839 38.3845C104.54 39.7399 104.023 40.9001 103.288 41.8649C102.576 42.8298 101.611 43.5649 100.393 44.0703C99.1988 44.5987 97.7056 44.8629 95.9137 44.8629Z" fill="#FFFBF9"/>
<path d="M63.3994 36.495V12.0977H72.6001C75.1501 12.0977 77.321 12.5801 79.1129 13.545C80.9278 14.5098 82.3062 15.8997 83.2481 17.7146C84.2129 19.5294 84.6954 21.7463 84.6954 24.3652C84.6954 26.9382 84.2244 29.1321 83.2825 30.947C82.3636 32.7389 81.0082 34.1173 79.2163 35.0821C77.4244 36.024 75.2305 36.495 72.6345 36.495H63.3994ZM68.3271 31.9463H72.6001C74.3001 31.9463 75.667 31.6247 76.7008 30.9814C77.7345 30.3382 78.4927 29.4423 78.9751 28.2936C79.4575 27.145 79.6987 25.824 79.6987 24.3308C79.6987 22.8835 79.4575 21.5855 78.9751 20.4368C78.5156 19.2652 77.7575 18.3463 76.7008 17.6801C75.667 17.0139 74.2656 16.6808 72.4967 16.6808H68.3271V31.9463Z" fill="#FFFBF9"/>
<rect width="50.6757" height="50" rx="18" fill="#F2CC4D"/>
<path fill-rule="evenodd" clip-rule="evenodd" d="M19.5838 30.4228C20.6558 31.4948 22.0216 32.2248 23.5085 32.5206C24.9954 32.8163 26.5366 32.6645 27.9373 32.0844C29.3379 31.5042 30.535 30.5217 31.3773 29.2612C32.2196 28.0007 32.6691 26.5187 32.6691 25.0026C32.6691 23.4866 32.2196 22.0046 31.3773 20.744C30.535 19.4835 29.3379 18.501 27.9373 17.9209C26.5366 17.3407 24.9954 17.1889 23.5085 17.4847L22.9029 14.4401L23.5085 17.4847C22.0216 17.7804 20.6558 18.5105 19.5838 19.5825L15.1937 15.1924C17.134 13.2521 19.606 11.9308 22.2973 11.3955C24.9885 10.8601 27.7781 11.1349 30.3131 12.185C32.8482 13.235 35.015 15.0133 36.5395 17.2948C38.064 19.5763 38.8776 22.2587 38.8776 25.0026C38.8776 27.7466 38.064 30.4289 36.5395 32.7105C35.015 34.992 32.8482 36.7702 30.3131 37.8203C27.7781 38.8703 24.9885 39.1451 22.2973 38.6098C19.606 38.0745 17.134 36.7531 15.1937 34.8128L19.5838 30.4228Z" fill="#1A1C1F"/>
</svg>
