<svg width="239" height="238" viewBox="0 0 239 238" fill="none" xmlns="http://www.w3.org/2000/svg">
<path d="M119.304 237.645C103.633 237.657 88.1135 234.58 73.6332 228.589C59.1528 222.598 45.9958 213.811 34.9149 202.73C23.8339 191.649 15.0466 178.492 9.0555 164.011C3.06444 149.531 -0.0127181 134.012 3.95066e-05 118.341H3.09247C3.09247 182.424 55.2264 234.555 119.304 234.555C183.381 234.555 235.518 182.421 235.518 118.341H238.611C238.624 134.012 235.547 149.532 229.556 164.013C223.564 178.493 214.777 191.651 203.696 202.732C192.614 213.813 179.457 222.6 164.976 228.591C150.495 234.582 134.975 237.658 119.304 237.645Z" fill="#E5D6FF"/>
<path d="M1.54663 119.412C1.40457 119.412 1.26389 119.384 1.13264 119.329C1.00139 119.275 0.88215 119.195 0.781698 119.095C0.681246 118.994 0.601561 118.875 0.547197 118.744C0.492833 118.613 0.464844 118.472 0.464844 118.33V118.03C0.466394 117.744 0.580943 117.47 0.783564 117.268C0.986185 117.066 1.26047 116.952 1.54663 116.951C1.68869 116.952 1.82927 116.98 1.96037 117.035C2.09147 117.089 2.21049 117.169 2.31067 117.27C2.41085 117.371 2.49023 117.49 2.54424 117.622C2.59825 117.753 2.62583 117.894 2.62545 118.036V118.33C2.62545 118.616 2.51187 118.891 2.30963 119.094C2.10739 119.297 1.83303 119.411 1.54663 119.412Z" fill="#939393"/>
<path d="M4.03449 95.2218C3.96033 95.2227 3.88632 95.2148 3.81402 95.1983C3.67492 95.1696 3.54282 95.1137 3.42537 95.0338C3.30791 94.954 3.20738 94.8517 3.12954 94.7329C3.0517 94.6141 2.9981 94.4811 2.97179 94.3415C2.94548 94.2019 2.947 94.0585 2.97624 93.9196L3.10263 93.3316C3.12698 93.1877 3.18025 93.0501 3.25919 92.9273C3.33812 92.8044 3.44111 92.6989 3.56194 92.6169C3.68277 92.5349 3.81891 92.4782 3.96222 92.4503C4.10554 92.4224 4.25303 92.4237 4.39581 92.4543C4.53858 92.4849 4.67367 92.5441 4.79297 92.6282C4.91227 92.7124 5.01329 92.8199 5.08994 92.9442C5.1666 93.0685 5.21731 93.2069 5.23901 93.3513C5.2607 93.4957 5.25296 93.643 5.21622 93.7843L5.09274 94.3722C5.04025 94.6136 4.90653 94.8296 4.71392 94.9842C4.52131 95.1389 4.28149 95.2227 4.03449 95.2218ZM234.552 95.1277C234.304 95.1277 234.064 95.0424 233.871 94.8861C233.678 94.7298 233.545 94.5121 233.494 94.2693L233.371 93.6814C233.334 93.5401 233.326 93.3928 233.348 93.2485C233.369 93.1041 233.42 92.9656 233.497 92.8413C233.573 92.717 233.674 92.6095 233.794 92.5254C233.913 92.4412 234.048 92.382 234.191 92.3514C234.334 92.3208 234.481 92.3195 234.625 92.3474C234.768 92.3754 234.904 92.432 235.025 92.514C235.146 92.596 235.249 92.7016 235.328 92.8244C235.407 92.9472 235.46 93.0848 235.484 93.2287L235.611 93.8167C235.67 94.0973 235.615 94.39 235.458 94.6304C235.302 94.8707 235.056 95.039 234.776 95.0983C234.703 95.1167 234.628 95.1266 234.552 95.1277ZM11.5775 71.7902C11.4264 71.7905 11.2771 71.7584 11.1395 71.6961C10.8776 71.5791 10.6727 71.3631 10.5697 71.0953C10.4666 70.8276 10.4739 70.5299 10.5898 70.2675L10.8367 69.7149C10.8933 69.5831 10.9755 69.4639 11.0785 69.3642C11.1815 69.2645 11.3033 69.1863 11.4369 69.1341C11.5704 69.0819 11.7129 69.0567 11.8563 69.0601C11.9996 69.0635 12.1409 69.0953 12.2718 69.1538C12.4027 69.2122 12.5207 69.2961 12.6189 69.4006C12.7171 69.505 12.7935 69.6279 12.8438 69.7622C12.8941 69.8965 12.9172 70.0394 12.9118 70.1827C12.9063 70.3259 12.8725 70.4667 12.8121 70.5967L12.5682 71.1435C12.4834 71.3356 12.3446 71.499 12.1687 71.6138C11.9929 71.7286 11.7875 71.7899 11.5775 71.7902ZM226.995 71.7079C226.785 71.7084 226.58 71.6482 226.404 71.5344C226.228 71.4207 226.089 71.2583 226.004 71.0671L225.763 70.5232C225.663 70.2647 225.666 69.9776 225.772 69.7213C225.877 69.465 226.077 69.2591 226.33 69.1459C226.584 69.0328 226.87 69.0211 227.132 69.1133C227.393 69.2055 227.609 69.3945 227.735 69.6414L227.982 70.194C228.097 70.4565 228.104 70.7539 228.001 71.0214C227.898 71.2889 227.694 71.505 227.433 71.6227C227.294 71.6793 227.145 71.7073 226.995 71.705V71.7079ZM23.868 50.4487C23.6681 50.4498 23.4717 50.3955 23.3008 50.2918C23.1299 50.1881 22.991 50.0391 22.8997 49.8612C22.8083 49.6834 22.768 49.4837 22.7833 49.2844C22.7985 49.085 22.8688 48.8938 22.9861 48.732L23.3418 48.2411C23.4236 48.1216 23.5286 48.0197 23.6506 47.9416C23.7725 47.8634 23.9089 47.8105 24.0517 47.7861C24.1944 47.7616 24.3406 47.7661 24.4816 47.7992C24.6226 47.8323 24.7556 47.8934 24.8725 47.9788C24.9895 48.0643 25.0881 48.1723 25.1625 48.2966C25.2369 48.4209 25.2855 48.5588 25.3056 48.7023C25.3257 48.8457 25.3168 48.9917 25.2794 49.1316C25.242 49.2716 25.1769 49.4025 25.0879 49.5168L24.7381 49.9989C24.6372 50.1389 24.5042 50.2526 24.3502 50.3303C24.1962 50.4081 24.0258 50.4477 23.8533 50.4458L23.868 50.4487ZM214.728 50.3899C214.556 50.3909 214.386 50.3508 214.233 50.2731C214.079 50.1954 213.947 50.0823 213.846 49.9431L213.487 49.4492C213.396 49.3353 213.33 49.2042 213.291 49.0638C213.252 48.9235 213.242 48.7767 213.262 48.6324C213.281 48.4881 213.329 48.3492 213.403 48.2239C213.478 48.0987 213.576 47.9898 213.694 47.9036C213.811 47.8175 213.945 47.756 214.087 47.7227C214.228 47.6895 214.375 47.6851 214.519 47.7101C214.662 47.735 214.799 47.7886 214.922 47.8677C215.044 47.9469 215.149 48.0498 215.23 48.1705L215.589 48.6614C215.706 48.8233 215.776 49.0145 215.792 49.2138C215.807 49.4132 215.767 49.6128 215.675 49.7907C215.584 49.9685 215.445 50.1176 215.274 50.2213C215.103 50.325 214.907 50.3793 214.707 50.3781L214.728 50.3899ZM40.2827 32.1056C40.0641 32.1057 39.8505 32.0396 39.6702 31.9159C39.4899 31.7922 39.3513 31.6168 39.2726 31.4128C39.194 31.2087 39.179 30.9857 39.2297 30.773C39.2805 30.5603 39.3944 30.3679 39.5566 30.2213L40.0064 29.8156C40.22 29.6238 40.5011 29.5248 40.7878 29.5402C41.0744 29.5556 41.3432 29.6843 41.535 29.8979C41.7268 30.1115 41.8259 30.3926 41.8104 30.6793C41.795 30.9659 41.6663 31.2347 41.4527 31.4265L41.0088 31.8263C40.8103 32.0069 40.5512 32.1066 40.2827 32.1056ZM198.275 32.0615C198.004 32.0582 197.745 31.9533 197.549 31.7675L197.105 31.3707C196.891 31.1793 196.761 30.9107 196.745 30.624C196.729 30.3374 196.828 30.0561 197.019 29.8421C197.211 29.6281 197.479 29.4989 197.766 29.4829C198.053 29.4669 198.334 29.5654 198.548 29.7568L199.001 30.1654C199.163 30.3121 199.277 30.5044 199.328 30.7171C199.378 30.9298 199.363 31.1529 199.285 31.3569C199.206 31.5609 199.068 31.7364 198.887 31.8601C198.707 31.9837 198.493 32.0499 198.275 32.0497V32.0615ZM60.1456 17.5839C59.9077 17.5844 59.6761 17.5065 59.487 17.3621C59.2978 17.2177 59.1615 17.0149 59.0992 16.7852C59.0369 16.5555 59.0521 16.3117 59.1425 16.0916C59.2328 15.8714 59.3932 15.6871 59.5989 15.5674L60.125 15.2734C60.2484 15.1966 60.386 15.1455 60.5296 15.123C60.6732 15.1006 60.8198 15.1073 60.9607 15.1428C61.1017 15.1783 61.234 15.2418 61.3498 15.3295C61.4657 15.4173 61.5627 15.5275 61.635 15.6536C61.7073 15.7796 61.7535 15.9189 61.7707 16.0632C61.788 16.2075 61.7761 16.3538 61.7355 16.4934C61.695 16.6329 61.6268 16.7629 61.535 16.8755C61.4431 16.9882 61.3295 17.0811 61.201 17.1489L60.6895 17.4428C60.5238 17.5369 60.3362 17.5856 60.1456 17.5839ZM178.397 17.5457C178.207 17.5456 178.02 17.4949 177.856 17.3987L177.339 17.1048C177.09 16.9617 176.908 16.7257 176.834 16.4487C176.759 16.1717 176.797 15.8763 176.94 15.6276C177.084 15.3789 177.32 15.1972 177.597 15.1225C177.874 15.0478 178.169 15.0863 178.418 15.2293L178.944 15.5233C179.149 15.643 179.31 15.8273 179.4 16.0475C179.491 16.2676 179.506 16.5115 179.443 16.7412C179.381 16.9708 179.245 17.1736 179.056 17.318C178.867 17.4624 178.635 17.5404 178.397 17.5398V17.5457ZM82.5836 7.50403C82.326 7.50425 82.0767 7.41249 81.8807 7.24527C81.6846 7.07806 81.5547 6.84638 81.5143 6.5919C81.4739 6.33743 81.5257 6.07687 81.6603 5.85716C81.7949 5.63745 82.0034 5.473 82.2485 5.3934L82.8364 5.20526C83.1062 5.12814 83.3954 5.15885 83.6429 5.2909C83.8905 5.42295 84.077 5.646 84.1632 5.913C84.2494 6.17999 84.2285 6.47005 84.1049 6.72193C83.9813 6.9738 83.7647 7.1678 83.5008 7.26298L82.9335 7.44818C82.8205 7.48514 82.7024 7.50399 82.5836 7.50403ZM155.936 7.47464C155.821 7.47433 155.707 7.45649 155.597 7.42173L155.03 7.23654C154.769 7.13958 154.555 6.94561 154.434 6.69503C154.312 6.44445 154.292 6.15657 154.377 5.89136C154.462 5.62615 154.646 5.40404 154.891 5.2713C155.136 5.13857 155.423 5.10544 155.692 5.17881L156.279 5.36693C156.525 5.44661 156.734 5.6113 156.868 5.83133C157.003 6.05135 157.054 6.31222 157.013 6.56689C156.973 6.82156 156.842 7.05328 156.646 7.22026C156.449 7.38724 156.199 7.47849 155.941 7.47757L155.936 7.47464ZM106.647 2.33915C106.37 2.33967 106.103 2.23367 105.902 2.04303C105.7 1.8524 105.58 1.5917 105.565 1.31477C105.55 1.03784 105.642 0.765851 105.822 0.554949C106.003 0.344048 106.257 0.210357 106.533 0.181488L107.138 0.116808C107.424 0.0879614 107.709 0.173806 107.932 0.355453C108.154 0.537101 108.295 0.799667 108.324 1.0854C108.353 1.37114 108.267 1.65664 108.086 1.87908C107.904 2.10152 107.641 2.2427 107.356 2.27154C107.159 2.28918 106.959 2.30975 106.768 2.33326L106.647 2.33915ZM131.86 2.33915H131.743L131.155 2.27743C131.01 2.26762 130.869 2.22884 130.74 2.16341C130.61 2.09798 130.495 2.00723 130.402 1.89654C130.308 1.78585 130.238 1.65749 130.195 1.51908C130.152 1.38066 130.137 1.23499 130.151 1.09077C130.166 0.946539 130.209 0.806683 130.279 0.679484C130.348 0.552285 130.442 0.440349 130.556 0.350322C130.67 0.260295 130.8 0.194017 130.94 0.155419C131.08 0.11682 131.226 0.106693 131.369 0.125635L131.975 0.187355C132.25 0.216201 132.504 0.349675 132.684 0.56026C132.865 0.770845 132.957 1.04249 132.943 1.31919C132.928 1.59588 132.808 1.85653 132.607 2.04739C132.407 2.23826 132.14 2.3448 131.863 2.34503L131.86 2.33915Z" fill="#D5C7ED"/>
</svg>
