<svg width="85" height="24" viewBox="0 0 85 24" fill="none" xmlns="http://www.w3.org/2000/svg">
<path d="M62.5664 18.4903C64.1024 18.4903 65.3476 17.2476 65.3476 15.7146C65.3476 14.1817 64.1024 12.939 62.5664 12.939C61.0303 12.939 59.7852 14.1817 59.7852 15.7146C59.7852 17.2476 61.0303 18.4903 62.5664 18.4903Z" fill="#E62415"/>
<path d="M22.0824 0H25.7628V23.687H22.0824V0ZM39.1669 16.3826C39.1669 20.0557 36.1557 20.3478 35.2356 20.3478C32.9353 20.3478 32.6008 18.1983 32.6008 16.9043V7.74261H28.8995V16.8835C28.8785 19.1583 29.5268 21.0365 30.7815 22.2887C31.921 23.3024 33.3726 23.8983 34.897 23.9779C36.4215 24.0576 37.9276 23.6164 39.1669 22.727V23.687H42.8682V7.74261H39.1669V16.3826ZM50.8563 2.37913H47.155V7.74261H44.5829V11.2278H47.155V23.687H50.8563V11.2278H53.8885V7.74261H50.8563V2.37913ZM65.8707 19.1583C65.0342 19.9096 63.9259 20.327 62.7131 20.327C62.0969 20.3444 61.4837 20.2357 60.9112 20.0078C60.3387 19.7798 59.819 19.4373 59.3841 19.0013C58.9492 18.5653 58.6084 18.0451 58.3825 17.4727C58.1566 16.9004 58.0505 16.2879 58.0708 15.673C58.0708 12.9809 59.9737 11.1026 62.7131 11.1026C63.905 11.1026 65.0342 11.4991 65.8916 12.2504L66.4771 12.7513L69.0701 10.1635L68.4219 9.57913C66.8516 8.18135 64.8172 7.41532 62.7131 7.42956C57.9035 7.42956 54.4113 10.8939 54.4113 15.6522C54.3857 16.7491 54.5827 17.8399 54.9903 18.859C55.3979 19.878 56.0078 20.8043 56.7833 21.5821C57.5587 22.3599 58.4838 22.9732 59.5028 23.3852C60.5218 23.7971 61.6138 23.9991 62.7131 23.9791C64.9088 23.9791 66.9581 23.207 68.4637 21.8087L69.091 21.2243L66.4562 18.6365L65.8707 19.1583ZM82.9552 9.14087C81.8157 8.12714 80.3641 7.5313 78.8396 7.45163C77.3152 7.37195 75.8091 7.81321 74.5698 8.70261V0H70.8685V23.687H74.5698V15.0678C74.5698 11.3948 77.581 11.1026 78.5011 11.1026C80.8014 11.1026 81.1359 13.2522 81.1359 14.5461V23.7078H84.8372V14.5461C84.9489 12.5671 84.2724 10.6243 82.9552 9.14087ZM16.6245 18.0104C15.9044 18.7487 15.0425 19.3343 14.0903 19.7324C13.1382 20.1304 12.1153 20.3326 11.083 20.327C6.79618 20.327 3.68039 16.967 3.68039 12.3548C3.68039 7.72174 6.79618 4.36174 11.083 4.36174C13.1532 4.36174 15.1189 5.17565 16.6036 6.65739L17.1891 7.24174L19.7612 4.67478L19.1966 4.09044C18.1356 3.01343 16.8691 2.15941 15.472 1.57875C14.0749 0.998088 12.5755 0.702549 11.0621 0.709565C4.76778 0.709565 0 5.71826 0 12.3757C0 18.9913 4.76778 24 11.0621 24C14.1779 24 17.0636 22.7896 19.1966 20.5983L19.7612 20.0139L17.21 17.4052L16.6245 18.0104Z" fill="#17313B"/>
</svg>
