<svg width="142" height="144" viewBox="0 0 142 144" fill="none" xmlns="http://www.w3.org/2000/svg">
<g opacity="0.14">
<path d="M110.911 16.0333C135.539 36.3639 140.581 59.6623 124.456 79.1956C104.126 103.824 74.5814 87.7166 59.8586 105.551L31.4942 82.135C52.3867 56.8275 73.3126 69.5341 84.1099 56.4556C88.1756 51.5298 87.6207 47.3584 82.5262 43.1526C76.2424 37.9642 69.8493 39.8272 62.2776 48.9992L33.0637 24.8822C55.6386 -2.46405 84.4153 -5.84059 110.911 16.0333ZM40.8445 134.121C32.2914 144.482 19.2688 145.726 8.90748 137.173C-1.28275 128.76 -2.52786 115.738 6.02519 105.376C14.438 95.1861 27.4607 93.941 37.6509 102.354C48.0122 110.907 49.2573 123.93 40.8445 134.121Z" fill="#E4E8FF"/>
<path d="M117.914 15.3179C142.542 35.6496 147.585 58.9468 131.46 78.4802C111.129 103.108 81.5851 87.0012 66.8623 104.836L38.4978 81.4195C59.3904 56.112 80.3162 68.8187 91.1135 55.7402C95.1792 50.8144 94.6243 46.643 89.5298 42.4372C83.246 37.2488 76.8529 39.1117 69.2812 48.2837L40.0673 24.1667C62.641 -3.18067 91.4177 -6.55603 117.914 15.3179ZM47.8469 133.404C39.2939 143.766 26.2712 145.01 15.9099 136.457C5.71969 128.044 4.47458 115.021 13.0276 104.66C21.4405 94.4695 34.4631 93.2244 44.6533 101.637C55.0158 110.191 56.2598 123.214 47.8469 133.404Z" stroke="#3147FF" stroke-width="2" stroke-miterlimit="10"/>
</g>
</svg>
