<svg width="22" height="22" viewBox="0 0 22 22" fill="none" xmlns="http://www.w3.org/2000/svg">
<path d="M21.6943 9.1126L21.1773 10.3915C21.014 10.8269 21.014 11.2895 21.1773 11.7249L21.6943 13.0038C21.9936 13.7657 21.7487 14.6365 21.0684 15.1263L19.9256 15.9155C19.5446 16.1876 19.2997 16.5957 19.1908 17.0311L18.9459 18.3917C18.7827 19.208 18.1024 19.8067 17.2861 19.8339L15.8983 19.8883C15.4357 19.9155 15.0003 20.106 14.6738 20.4325L13.7214 21.4394C13.1499 22.038 12.2519 22.1741 11.5444 21.7659L10.3471 21.0584C9.93897 20.8135 9.47637 20.7591 9.01378 20.8679L7.65321 21.1945C6.86408 21.3849 6.02052 21.004 5.63956 20.2693L5.0137 19.0176C4.79601 18.6094 4.44226 18.2828 4.00688 18.1468L2.70073 17.7114C1.9116 17.4393 1.4218 16.6774 1.50343 15.861L1.63949 14.4732C1.69391 14.0107 1.55785 13.5481 1.25853 13.1943L0.387763 12.1059C-0.129254 11.4528 -0.129254 10.5548 0.387763 9.90173L1.25853 8.81327C1.55785 8.45953 1.69391 7.99693 1.63949 7.53434L1.50343 6.14656C1.4218 5.33021 1.9116 4.56829 2.70073 4.29618L4.00688 3.8608C4.44226 3.72474 4.79601 3.3982 5.0137 2.99003L5.63956 1.73831C6.02052 1.0036 6.83687 0.62264 7.65321 0.81312L9.01378 1.13966C9.44916 1.2485 9.93897 1.19408 10.3471 0.949177L11.5444 0.24168C12.2519 -0.166491 13.1499 -0.0576454 13.7214 0.568217L14.6738 1.57504C15.0003 1.90158 15.4357 2.11927 15.8983 2.11927L17.2861 2.17369C18.1024 2.2009 18.8099 2.79955 18.9459 3.61589L19.1908 4.97647C19.2725 5.43906 19.5446 5.84723 19.9256 6.09213L21.0684 6.88126C21.7487 7.47992 22.0208 8.35068 21.6943 9.1126Z" fill="#204AF4"/>
<path d="M9.17746 15.2352C8.7965 15.2352 8.41554 15.0719 8.14343 14.7726L4.742 10.8813C4.2522 10.3099 4.30662 9.46633 4.85085 8.94931C5.42229 8.45951 6.26584 8.51393 6.78286 9.05816L9.34073 11.9698L15.3 7.18057C15.8715 6.71798 16.7422 6.79961 17.2048 7.39826C17.6674 7.99691 17.5858 8.84047 16.9871 9.30306L10.021 14.9358C9.77611 15.1263 9.47679 15.2352 9.17746 15.2352Z" fill="white"/>
</svg>
