<svg width="284" height="274" viewBox="0 0 284 274" fill="none" xmlns="http://www.w3.org/2000/svg">
<path d="M192.883 206.696C195.244 208.14 198.328 207.397 199.771 205.037C201.215 202.676 200.472 199.592 198.112 198.148C195.751 196.704 192.667 197.447 191.223 199.808C189.78 202.168 190.523 205.252 192.883 206.696Z" fill="#FF7322"/>
<path d="M107.919 64.3802C110.28 65.8241 113.364 65.0811 114.808 62.7206C116.252 60.3602 115.508 57.2761 113.148 55.8322C110.788 54.3883 107.704 55.1313 106.26 57.4918C104.816 59.8522 105.559 62.9363 107.919 64.3802Z" fill="#FFC9C8"/>
<path d="M38.8267 111.653L37.2767 110.74L38.1911 109.187C38.3727 108.877 38.424 108.507 38.334 108.159C38.2439 107.811 38.0197 107.513 37.7104 107.33C37.5569 107.239 37.3871 107.18 37.2107 107.155C37.0342 107.13 36.8546 107.141 36.6822 107.185C36.5097 107.23 36.3477 107.308 36.2055 107.415C36.0632 107.523 35.9435 107.657 35.8531 107.81L34.9407 109.36L33.3875 108.446C33.0774 108.263 32.7076 108.211 32.3593 108.302C32.011 108.392 31.7127 108.617 31.5302 108.927C31.3476 109.237 31.2957 109.607 31.3859 109.955C31.476 110.303 31.7009 110.601 32.0109 110.784L33.5642 111.698L32.6498 113.252C32.5591 113.405 32.4996 113.574 32.4746 113.75C32.4496 113.926 32.4597 114.105 32.5043 114.277C32.5489 114.449 32.627 114.611 32.7343 114.753C32.8415 114.895 32.9757 115.014 33.1292 115.104C33.2823 115.194 33.4518 115.254 33.628 115.279C33.8042 115.304 33.9836 115.294 34.156 115.25C34.3283 115.206 34.4902 115.128 34.6324 115.021C34.7746 114.914 34.8942 114.78 34.9845 114.626L35.8989 113.073L37.4521 113.987C37.6057 114.088 37.7782 114.157 37.9592 114.19C38.1402 114.222 38.3258 114.217 38.5049 114.176C38.684 114.134 38.8528 114.057 39.001 113.948C39.1492 113.839 39.2737 113.701 39.367 113.543C39.4603 113.384 39.5203 113.208 39.5436 113.026C39.5669 112.844 39.5528 112.658 39.5023 112.482C39.4517 112.305 39.3658 112.14 39.2497 111.998C39.1335 111.855 38.9896 111.738 38.8267 111.653Z" fill="#56AF5A"/>
<path d="M212.087 146.931L210.83 146.189L211.57 144.936C211.717 144.684 211.758 144.385 211.686 144.103C211.613 143.821 211.432 143.579 211.182 143.43C211.058 143.357 210.921 143.309 210.778 143.289C210.635 143.269 210.49 143.278 210.35 143.314C210.211 143.35 210.08 143.413 209.965 143.5C209.85 143.587 209.753 143.696 209.68 143.82L208.938 145.077L207.681 144.335C207.557 144.262 207.42 144.214 207.277 144.194C207.134 144.174 206.989 144.182 206.849 144.218C206.71 144.254 206.579 144.318 206.464 144.405C206.349 144.491 206.252 144.6 206.179 144.724C206.106 144.848 206.058 144.986 206.038 145.129C206.018 145.271 206.026 145.417 206.062 145.556C206.099 145.696 206.162 145.827 206.249 145.942C206.336 146.057 206.444 146.154 206.568 146.227L207.825 146.969L207.083 148.225C207.01 148.35 206.962 148.487 206.942 148.63C206.922 148.772 206.931 148.918 206.967 149.057C207.003 149.197 207.066 149.328 207.153 149.443C207.24 149.558 207.349 149.655 207.473 149.728C207.597 149.801 207.735 149.849 207.877 149.869C208.02 149.889 208.165 149.88 208.305 149.844C208.444 149.808 208.575 149.745 208.69 149.658C208.805 149.571 208.902 149.462 208.975 149.338L209.717 148.081L210.971 148.821C211.095 148.894 211.232 148.943 211.375 148.963C211.518 148.983 211.663 148.975 211.802 148.939C211.942 148.903 212.073 148.84 212.188 148.753C212.303 148.667 212.4 148.558 212.474 148.434C212.547 148.31 212.595 148.173 212.615 148.03C212.635 147.887 212.627 147.742 212.591 147.602C212.555 147.463 212.492 147.332 212.406 147.217C212.319 147.101 212.211 147.004 212.087 146.931Z" fill="url(#paint0_linear_593_1895)"/>
<path d="M92.1577 84.1817L91.3387 83.6807L91.8397 82.8617C91.9361 82.6964 91.9631 82.4996 91.9149 82.3144C91.8666 82.1292 91.747 81.9707 91.5822 81.8734C91.4166 81.7768 91.2195 81.7495 91.0339 81.7973C90.8482 81.8452 90.689 81.9643 90.5907 82.1289L90.0897 82.948L89.2706 82.447C89.1888 82.3905 89.0963 82.3515 88.9987 82.3324C88.9012 82.3133 88.8008 82.3145 88.7037 82.3359C88.6067 82.3572 88.5151 82.3984 88.4346 82.4567C88.3542 82.515 88.2866 82.5893 88.2361 82.6749C88.1855 82.7605 88.1532 82.8555 88.141 82.9542C88.1289 83.0528 88.1371 83.1529 88.1653 83.2482C88.1935 83.3435 88.241 83.432 88.3049 83.5081C88.3688 83.5842 88.4477 83.6464 88.5366 83.6907L89.3556 84.1917L88.8546 85.0108C88.8064 85.0925 88.7748 85.183 88.7616 85.277C88.7484 85.3709 88.754 85.4666 88.7779 85.5584C88.8018 85.6503 88.8437 85.7365 88.901 85.8121C88.9584 85.8877 89.0301 85.9512 89.1121 85.999C89.1934 86.0476 89.2836 86.0796 89.3773 86.0931C89.4711 86.1066 89.5666 86.1014 89.6583 86.0778C89.75 86.0541 89.8362 86.0125 89.9117 85.9554C89.9872 85.8982 90.0507 85.8266 90.0984 85.7448L90.5994 84.9257L91.4184 85.4268C91.5838 85.5244 91.7812 85.5523 91.9671 85.5044C92.153 85.4564 92.3123 85.3366 92.4099 85.1713C92.5075 85.0059 92.5354 84.8085 92.4875 84.6226C92.4396 84.4366 92.3198 84.2774 92.1544 84.1798L92.1577 84.1817Z" fill="url(#paint1_linear_593_1895)"/>
<path d="M254.8 157.564L253.547 156.824L254.285 155.565C254.359 155.442 254.407 155.304 254.427 155.162C254.448 155.019 254.44 154.874 254.404 154.735C254.368 154.596 254.305 154.465 254.218 154.35C254.132 154.235 254.023 154.138 253.899 154.065C253.648 153.918 253.348 153.877 253.066 153.949C252.785 154.022 252.543 154.203 252.393 154.453L251.655 155.711L250.398 154.969C250.147 154.822 249.848 154.78 249.566 154.853C249.284 154.926 249.043 155.108 248.896 155.359C248.748 155.61 248.706 155.909 248.779 156.191C248.852 156.473 249.034 156.714 249.285 156.861L250.539 157.601L249.802 158.857C249.729 158.981 249.68 159.118 249.66 159.261C249.639 159.403 249.647 159.549 249.683 159.688C249.718 159.828 249.781 159.959 249.868 160.075C249.954 160.19 250.062 160.287 250.186 160.361C250.438 160.508 250.737 160.55 251.019 160.478C251.302 160.405 251.543 160.224 251.692 159.973L252.431 158.714L253.687 159.456C253.812 159.529 253.949 159.577 254.092 159.597C254.235 159.617 254.38 159.609 254.519 159.572C254.659 159.536 254.79 159.473 254.905 159.386C255.02 159.299 255.117 159.191 255.19 159.066C255.263 158.942 255.311 158.805 255.331 158.662C255.351 158.519 255.342 158.374 255.306 158.235C255.27 158.095 255.207 157.964 255.12 157.849C255.033 157.734 254.924 157.637 254.8 157.564Z" fill="white"/>
<path d="M118.528 189.828L117.134 182.792L110.225 184.723C98.7571 187.741 91.405 199.698 93.8867 211.294L95.2812 218.33L102.19 216.399C113.658 213.381 121.01 201.424 118.528 189.828Z" fill="#FFAC1A"/>
<path d="M133.653 225.902C135.747 223.986 137.444 221.597 138.874 219.272C142.55 213.294 144.362 206.626 144.436 199.806C144.508 187.035 138.092 174.393 126.467 167.245C114.843 160.097 100.666 160.076 89.3017 165.904C83.5172 168.984 78.1166 173.673 74.4404 179.652C73.011 181.976 71.709 184.838 70.88 187.303C67.018 173.486 68.66 157.789 76.8293 144.503C83.3646 133.875 92.6724 126.554 103.284 122.323C118.595 116.404 136.17 117.599 151.115 126.789C166.061 135.979 175.122 151.391 176.686 167.457C177.698 178.836 175.429 190.715 168.83 201.075C160.993 214.564 147.726 223.113 133.653 225.902Z" fill="#FFAC1A"/>
<path d="M127.88 202.901C171.948 184.456 196.338 136.976 183.358 88.4862L180.787 78.8956L171.069 80.9297C121.94 91.2284 90.5755 134.42 94.0023 182.07L127.88 202.901Z" fill="#035389"/>
<path d="M94.916 159.745C93.833 167.089 93.6186 174.509 94.0044 182.07L127.55 202.697C134.535 199.897 140.996 196.089 147.061 191.808L94.916 159.745Z" fill="#015288"/>
<path d="M186.679 121.423C187.263 110.797 186.314 99.6862 183.36 88.4864L180.789 78.8959L171.071 80.93C159.743 83.3479 149.4 87.5149 140.181 92.8311L186.679 121.423Z" fill="#FF7322"/>
<path d="M94.0059 182.073C94.109 184.883 94.5442 187.897 94.9156 190.642L119.493 205.755C122.379 204.783 124.997 203.876 127.551 202.7L94.0059 182.073Z" fill="#FFD200"/>
<path d="M159.654 150.916C168.988 143.821 170.802 130.502 163.706 121.168C156.611 111.835 143.292 110.021 133.959 117.116C124.625 124.212 122.811 137.531 129.907 146.864C137.002 156.198 150.321 158.012 159.654 150.916Z" fill="#035389"/>
<path d="M161.282 130.566C163.189 138.563 158.252 146.593 150.254 148.501C142.256 150.408 134.226 145.47 132.319 137.472C130.412 129.475 135.349 121.445 143.347 119.538C151.345 117.63 159.375 122.568 161.282 130.566Z" fill="#BAE6DD"/>
<path d="M125.619 64.69C125.331 64.5138 125.24 64.1367 125.416 63.8488L127.669 60.166C127.845 59.878 128.222 59.7872 128.51 59.9633C128.798 60.1396 128.889 60.5166 128.713 60.8046L126.46 64.4873C126.284 64.7754 125.907 64.8662 125.619 64.69Z" fill="#4C8EB4"/>
<path d="M128.578 63.9703L124.895 61.7175C124.607 61.5413 124.516 61.1641 124.692 60.876C124.869 60.588 125.246 60.4971 125.534 60.6734L129.217 62.9263C129.505 63.1025 129.596 63.4796 129.42 63.7676C129.243 64.0558 128.866 64.1466 128.578 63.9703Z" fill="#4C8EB4"/>
<path d="M207.536 87.8023C207.248 87.6261 207.157 87.249 207.333 86.9611L209.586 83.2783C209.762 82.9903 210.139 82.8995 210.427 83.0756C210.715 83.2519 210.806 83.6289 210.63 83.9169L208.377 87.5996C208.201 87.8877 207.824 87.9785 207.536 87.8023Z" fill="#4C8EB4"/>
<path d="M210.509 87.0918L206.826 84.8389C206.538 84.6628 206.447 84.2857 206.623 83.9975C206.799 83.7096 207.176 83.6187 207.464 83.7949L211.147 86.0477C211.435 86.224 211.526 86.6011 211.35 86.8891C211.174 87.1772 210.797 87.2681 210.509 87.0918Z" fill="#4C8EB4"/>
<path d="M173.182 50.3891C174.086 50.9419 175.267 50.6574 175.82 49.7536C176.373 48.8497 176.088 47.6688 175.184 47.1159C174.281 46.563 173.1 46.8475 172.547 47.7513C171.994 48.6552 172.278 49.8362 173.182 50.3891Z" fill="#738598"/>
<path d="M191.713 163.623C192.617 164.176 193.798 163.892 194.351 162.988C194.904 162.084 194.62 160.903 193.716 160.35C192.812 159.797 191.631 160.082 191.078 160.986C190.525 161.89 190.81 163.071 191.713 163.623Z" fill="#738598"/>
<defs>
<linearGradient id="paint0_linear_593_1895" x1="206.166" y1="144.735" x2="212.459" y2="148.442" gradientUnits="userSpaceOnUse">
<stop stop-color="#6CEFFC"/>
<stop offset="1" stop-color="#C7FFFE"/>
</linearGradient>
<linearGradient id="paint1_linear_593_1895" x1="88.2883" y1="82.6947" x2="92.3933" y2="85.2057" gradientUnits="userSpaceOnUse">
<stop stop-color="#5900D7"/>
<stop offset="1" stop-color="#454DEF"/>
</linearGradient>
</defs>
</svg>
