<svg width="156" height="178" viewBox="0 0 156 178" fill="none" xmlns="http://www.w3.org/2000/svg">
<g opacity="0.11">
<path d="M109.03 26.8233C134.761 39.9177 143.794 59.4831 133.409 79.8905C120.314 105.621 91.0771 97.2215 81.5951 115.854L51.9603 100.773C65.416 74.3321 86.3808 81.4266 93.3343 67.7628C95.9533 62.6165 94.643 59.0452 89.3196 56.336C82.7537 52.9947 77.4796 55.8961 72.6032 65.4784L42.0809 49.9456C56.6195 21.3758 81.3474 12.7354 109.03 26.8233ZM70.4373 144.804C64.9284 155.63 53.6822 159.289 42.8576 153.781C32.2106 148.363 28.5503 137.116 34.059 126.292C39.4772 115.645 50.7236 111.984 61.3705 117.402C72.1952 122.911 75.8556 134.158 70.4373 144.804Z" fill="#E4E8FF"/>
<path d="M115.069 24.8135C140.799 37.908 149.832 57.4733 139.447 77.8807C126.353 103.612 97.1152 95.2118 87.6332 113.844L57.9984 98.763C71.4541 72.3224 92.4189 79.4169 99.3724 65.753C101.991 60.6067 100.681 57.0354 95.3577 54.3263C88.7918 50.9849 83.5177 53.8863 78.6413 63.4686L48.119 47.9358C62.658 19.3662 87.3854 10.7256 115.069 24.8135ZM76.4751 142.795C70.9662 153.62 59.7201 157.28 48.8954 151.772C38.2485 146.353 34.5881 135.107 40.0968 124.282C45.515 113.635 56.7614 109.975 67.4084 115.393C78.233 120.902 81.8936 132.148 76.4751 142.795Z" stroke="#3147FF" stroke-width="3" stroke-miterlimit="10"/>
</g>
</svg>
