<svg width="143" height="142" viewBox="0 0 143 142" fill="none" xmlns="http://www.w3.org/2000/svg">
<g opacity="0.11">
<path d="M124.214 88.6359C114.524 112.33 97.8947 121.743 79.1017 114.058C55.4071 104.368 60.6924 77.9174 43.5338 70.9003L54.6944 43.6105C79.043 53.5684 74.3058 72.6124 86.8889 77.7588C91.6279 79.6963 94.6882 78.2774 96.6928 73.3759C99.1659 67.33 96.2163 62.8811 87.3919 59.2723L98.8864 31.1654C125.196 41.9248 134.64 63.144 124.214 88.6359ZM17.136 63.1577C7.16739 59.0813 3.11138 49.411 7.18774 39.4424C11.1976 29.6382 20.8676 25.5813 30.8362 29.6577C40.6404 33.6675 44.6973 43.3375 40.6874 53.1417C36.6111 63.1103 26.9411 67.1672 17.136 63.1577Z" fill="#E4E8FF"/>
<path d="M126.431 93.8253C116.74 117.52 100.112 126.932 81.3185 119.247C57.6239 109.557 62.9092 83.1069 45.7506 76.0898L56.9112 48.8C81.2598 58.7578 76.5226 77.8019 89.1057 82.9483C93.8447 84.8858 96.905 83.4669 98.9096 78.5654C101.383 72.5195 98.4331 68.0705 89.6087 64.4618L101.103 36.3548C127.414 47.1131 136.856 68.3326 126.431 93.8253ZM19.3534 68.3459C9.38479 64.2696 5.32879 54.5993 9.40515 44.6307C13.415 34.8265 23.085 30.7696 33.0536 34.8459C42.8578 38.8558 46.9147 48.5258 42.9049 58.33C38.8279 68.2998 29.1576 72.3558 19.3534 68.3459Z" stroke="#3147FF" stroke-width="2" stroke-miterlimit="10"/>
</g>
</svg>
