<svg width="91" height="90" viewBox="0 0 91 90" fill="none" xmlns="http://www.w3.org/2000/svg">
<path d="M72.1871 35.8875C74.0433 31.2189 76.9682 26.6063 80.8776 22.1625C82.1151 20.7563 82.2839 18.7313 81.2714 17.1563C80.4838 15.9188 79.1902 15.2439 77.7839 15.2439C77.3901 15.2439 76.9963 15.2718 76.6026 15.4126C68.334 17.8313 49.0119 26.4094 48.4775 53.9157C48.2808 64.5188 56.0432 73.6312 66.1401 74.6719C71.737 75.2344 77.3057 73.4064 81.4401 69.6938C85.5744 65.9532 87.937 60.6094 87.937 55.0407C87.937 45.7594 81.3557 37.6313 72.1871 35.8875Z" fill="#ECF0FF"/>
<path d="M21.2526 74.6719C26.8215 75.2344 32.3902 73.4064 36.5244 69.6938C40.6589 65.9532 43.0215 60.6094 43.0215 55.0407C43.0215 45.7594 36.4402 37.6313 27.2714 35.8875C29.1277 31.2189 32.0527 26.6063 35.9621 22.1625C37.1996 20.7563 37.3683 18.7314 36.3557 17.1564C35.5683 15.9189 34.2745 15.2439 32.8682 15.2439C32.4746 15.2439 32.0808 15.2719 31.687 15.4126C23.4183 17.8314 4.0964 26.4094 3.56202 53.9158L3.56202 54.3094C3.56202 64.7438 11.2401 73.6312 21.2526 74.6719Z" fill="#ECF0FF"/>
</svg>
