<svg width="40" height="40" viewBox="0 0 40 40" fill="none" xmlns="http://www.w3.org/2000/svg">
<rect x="0.567383" y="0.546631" width="39.4326" height="38.9068" rx="8" fill="#F2CC4D"/>
<path fill-rule="evenodd" clip-rule="evenodd" d="M15.6883 24.3596C16.5451 25.2165 17.6368 25.8 18.8252 26.0364C20.0137 26.2728 21.2456 26.1514 22.3651 25.6877C23.4846 25.224 24.4415 24.4387 25.1147 23.4312C25.7879 22.4237 26.1472 21.2391 26.1472 20.0274C26.1472 18.8157 25.7879 17.6311 25.1147 16.6236C24.4415 15.6161 23.4846 14.8308 22.3651 14.3671C21.2456 13.9034 20.0137 13.782 18.8252 14.0184C17.6368 14.2548 16.5451 14.8383 15.6883 15.6952L12.1601 12.167C13.7148 10.6124 15.6955 9.55366 17.8518 9.12474C20.0082 8.69581 22.2433 8.91595 24.2745 9.75732C26.3057 10.5987 28.0419 12.0235 29.2633 13.8515C30.4848 15.6796 31.1368 17.8288 31.1368 20.0274C31.1368 22.226 30.4848 24.3752 29.2633 26.2033C28.0419 28.0313 26.3057 29.4561 24.2745 30.2975C22.2433 31.1388 20.0082 31.359 17.8518 30.9301L18.3385 28.4832L17.8518 30.9301C15.6955 30.5011 13.7148 29.4424 12.1601 27.8878L15.6883 24.3596Z" fill="#191B1E"/>
</svg>
