<svg width="17" height="18" viewBox="0 0 17 18" fill="none" xmlns="http://www.w3.org/2000/svg">
<path d="M5.14679 12.2429C5.3425 12.4386 5.65981 12.4386 5.85552 12.2429L11.5352 6.56313C11.731 6.36742 11.731 6.05016 11.5352 5.85444C11.3395 5.65872 11.0222 5.65872 10.8265 5.85444L5.14679 11.5341C4.95107 11.7298 4.95107 12.0472 5.14679 12.2429Z" fill="white"/>
<path d="M11.181 12.7236C11.4578 12.7236 11.6822 12.4993 11.6822 12.2225L11.6822 6.20864C11.6822 5.93187 11.4578 5.70749 11.181 5.70749L5.16717 5.70749C4.89038 5.70749 4.66602 5.93187 4.66602 6.20864C4.66602 6.48547 4.89038 6.70979 5.16717 6.70979L10.6799 6.70979L10.6799 12.2225C10.6799 12.4993 10.9042 12.7236 11.181 12.7236Z" fill="white"/>
</svg>
