<svg width="43" height="60" viewBox="0 0 43 60" fill="none" xmlns="http://www.w3.org/2000/svg">
<g clip-path="url(#clip0_1129_1483)">
<path d="M4.20312 0H6.89844V2.67188H9.38281V0H12.0781V8.08594H9.38281V5.39062H6.92188V8.08594H4.20312V0ZM15.6406 2.69531H13.2617V0H20.7266V2.69531H18.3359V8.08594H15.6406V2.69531ZM21.9102 0H24.7344L26.4687 2.84766L28.2031 0H31.0273V8.08594H28.332V4.07812L26.4453 6.98438L24.5586 4.07812V8.08594H21.9102V0ZM32.3633 0H35.0586V5.41406H38.8789V8.08594H32.3633V0Z" fill="black"/>
<path d="M4.10937 55.1953L0.242188 11.7891H42.7578L38.8906 55.1719L21.4648 60" fill="#FF4C1E"/>
<path d="M21.5 56.3086V15.3516H38.8789L35.5625 52.3828L21.5 56.3086Z" fill="#FF651E"/>
<path d="M8.14062 20.6602H21.5L23.4864 23.3203L21.5 25.9805H13.9766L14.4688 31.4297H21.5L23.4864 34.1893L21.5 36.7383H9.59375L8.14062 20.6602ZM9.82812 39.4102H15.1719L15.5469 43.6641L21.5 45.2578L23.7414 47.9133L21.5 50.8125L10.5781 47.7656L9.82812 39.4102Z" fill="#EBEBEB"/>
<path d="M34.8125 20.6602H21.4766V25.9805H34.3203L34.8125 20.6602ZM33.8398 31.4297H21.4766V36.75H28.0391L27.418 43.6641L21.4766 45.2578V50.7891L32.375 47.7656L33.8398 31.4297Z" fill="white"/>
</g>
<defs>
<clipPath id="clip0_1129_1483">
<rect width="43" height="60" fill="white"/>
</clipPath>
</defs>
</svg>
