<svg width="14" height="14" viewBox="0 0 14 14" fill="none" xmlns="http://www.w3.org/2000/svg">
<path d="M6.99849 4.77358C5.77433 4.77358 4.77533 5.77258 4.77533 6.99675C4.77533 8.22091 5.77433 9.21991 6.99849 9.21991C8.22265 9.21991 9.22166 8.22091 9.22166 6.99675C9.22166 5.77258 8.22265 4.77358 6.99849 4.77358ZM13.6663 6.99675C13.6663 6.07612 13.6747 5.16384 13.623 4.24489C13.5713 3.1775 13.3278 2.23019 12.5472 1.44966C11.765 0.667468 10.8194 0.425638 9.75202 0.373937C8.8314 0.322235 7.91911 0.330574 7.00016 0.330574C6.07954 0.330574 5.16726 0.322235 4.2483 0.373937C3.18092 0.425638 2.23361 0.669136 1.45308 1.44966C0.670886 2.23186 0.429056 3.1775 0.377355 4.24489C0.325653 5.16551 0.333992 6.07779 0.333992 6.99675C0.333992 7.9157 0.325653 8.82965 0.377355 9.7486C0.429056 10.816 0.672554 11.7633 1.45308 12.5438C2.23528 13.326 3.18092 13.5679 4.2483 13.6196C5.16892 13.6713 6.08121 13.6629 7.00016 13.6629C7.92078 13.6629 8.83307 13.6713 9.75202 13.6196C10.8194 13.5679 11.7667 13.3244 12.5472 12.5438C13.3294 11.7616 13.5713 10.816 13.623 9.7486C13.6763 8.82965 13.6663 7.91737 13.6663 6.99675ZM6.99849 10.4174C5.10555 10.4174 3.57785 8.88969 3.57785 6.99675C3.57785 5.1038 5.10555 3.5761 6.99849 3.5761C8.89144 3.5761 10.4191 5.1038 10.4191 6.99675C10.4191 8.88969 8.89144 10.4174 6.99849 10.4174ZM10.5592 4.23488C10.1173 4.23488 9.76036 3.87797 9.76036 3.43601C9.76036 2.99404 10.1173 2.63713 10.5592 2.63713C11.0012 2.63713 11.3581 2.99404 11.3581 3.43601C11.3582 3.54095 11.3377 3.64489 11.2976 3.74188C11.2575 3.83886 11.1986 3.92698 11.1244 4.00119C11.0502 4.0754 10.9621 4.13424 10.8651 4.17434C10.7681 4.21444 10.6642 4.23501 10.5592 4.23488Z" fill="white"/>
</svg>
