<svg width="54" height="55" viewBox="0 0 54 55" fill="none" xmlns="http://www.w3.org/2000/svg">
<path fill-rule="evenodd" clip-rule="evenodd" d="M12.997 12.9457C14.383 14.0718 14.9028 13.9863 17.506 13.8119L42.0445 12.3382C42.5654 12.3382 42.1323 11.8196 41.959 11.7329L37.8843 8.78657C37.1035 8.18019 36.0629 7.48607 34.0694 7.65932L10.3094 9.39182C9.44315 9.47732 9.26991 9.91044 9.61528 10.2581L12.997 12.9457Z" fill="white"/>
<path fill-rule="evenodd" clip-rule="evenodd" d="M14.4697 18.664V44.4828C14.4697 45.8699 15.1627 46.3896 16.7242 46.3041L43.6916 44.7438C45.2531 44.6583 45.4275 43.7031 45.4275 42.5759V16.9304C45.4275 15.8054 44.9944 15.1979 44.0392 15.2845L15.858 16.9304C14.8174 17.017 14.4697 17.5379 14.4697 18.664Z" fill="white"/>
<path fill-rule="evenodd" clip-rule="evenodd" d="M12.9971 12.9461C14.3831 14.0722 14.9029 13.9867 17.5061 13.8123L42.0446 12.3386C42.5655 12.3386 42.1324 11.82 41.9591 11.7333L37.8844 8.78696C37.1036 8.18058 36.063 7.48646 34.0695 7.65971L10.3095 9.39221C9.44325 9.47771 9.27 9.91083 9.61538 10.2585L12.9971 12.9461ZM14.4698 18.6645V44.4832C14.4698 45.8703 15.1628 46.3901 16.7242 46.3046L43.6916 44.7442C45.2531 44.6587 45.4275 43.7036 45.4275 42.5763V16.9308C45.4275 15.8058 44.9944 15.1983 44.0392 15.285L15.858 16.9308C14.8174 17.0175 14.4698 17.5383 14.4698 18.6645ZM41.0918 20.0493C41.265 20.8301 41.0918 21.6097 40.3099 21.6975L39.0105 21.9562V41.0171C37.8821 41.6235 36.8415 41.97 35.9753 41.97C34.587 41.97 34.2394 41.5368 33.1999 40.2375L24.7005 26.895V39.8043L27.3904 40.4107C27.3904 40.4107 27.3904 41.97 25.2202 41.97L19.2386 42.3165C19.0654 41.97 19.2386 41.1037 19.845 40.9305L21.4065 40.4973V23.43L19.2386 23.2567C19.0642 22.476 19.4974 21.351 20.7124 21.2632L27.1294 20.8301L35.9741 34.347V22.3893L33.7185 22.1306C33.5452 21.1766 34.2383 20.4836 35.1056 20.3981L41.0918 20.0493ZM8.31262 7.05446L33.0266 5.23421C36.0619 4.97433 36.8426 5.14871 38.7495 6.53358L46.6391 12.0787C47.9408 13.0327 48.375 13.2926 48.375 14.331V44.742C48.375 46.6477 47.6809 47.775 45.2531 47.9471L16.5521 49.6807C14.7296 49.7673 13.8623 49.5075 12.9082 48.2947L7.09875 40.7572C6.05812 39.3701 5.625 38.3317 5.625 37.1178V10.0852C5.625 8.52708 6.31912 7.22658 8.31262 7.05446Z" fill="#424242"/>
</svg>
