<svg width="23" height="22" viewBox="0 0 23 22" fill="none" xmlns="http://www.w3.org/2000/svg">
<path d="M22.4378 10.9998C22.4381 10.7613 22.385 10.5258 22.2823 10.3105C22.1795 10.0953 22.0299 9.90589 21.8442 9.75617L20.4355 8.58274L21.0805 6.90427C21.1642 6.68169 21.1974 6.44335 21.1779 6.20638C21.1584 5.96941 21.0866 5.73972 20.9677 5.53383C20.8487 5.32794 20.6857 5.15097 20.4901 5.01567C20.2946 4.88036 20.0715 4.79008 19.8369 4.75133L18.0299 4.43929L17.7492 2.66313C17.7104 2.42849 17.6201 2.20537 17.4848 2.00982C17.3494 1.81427 17.1724 1.65116 16.9665 1.53222C16.7605 1.41329 16.5308 1.3415 16.2938 1.32201C16.0568 1.30253 15.8184 1.33583 15.5958 1.41953L13.875 2.05354L12.7439 0.655838C12.5892 0.477975 12.3981 0.33537 12.1836 0.237647C11.969 0.139924 11.736 0.0893555 11.5003 0.0893555C11.2646 0.0893555 11.0316 0.139924 10.817 0.237647C10.6025 0.33537 10.4114 0.477975 10.2567 0.655838L9.08327 2.06422L7.40523 1.41953C7.18261 1.33577 6.94418 1.30241 6.70712 1.32187C6.47006 1.34132 6.24026 1.4131 6.03427 1.53204C5.82829 1.65098 5.65123 1.81411 5.51587 2.00969C5.38051 2.20528 5.2902 2.42845 5.25145 2.66313L4.93979 4.47053L3.16443 4.75055C2.92975 4.78933 2.70658 4.87964 2.51098 5.01499C2.31538 5.15034 2.15221 5.32737 2.03321 5.53333C1.91422 5.73929 1.84235 5.96906 1.82279 6.20612C1.80323 6.44318 1.83645 6.68162 1.92007 6.90431L2.55408 8.6255L1.15564 9.75617C0.971946 9.90723 0.824005 10.0971 0.722459 10.3122C0.620913 10.5272 0.568285 10.7621 0.568359 11C0.568434 11.2378 0.62121 11.4726 0.722891 11.6876C0.824572 11.9026 0.972632 12.0924 1.15642 12.2434L2.56519 13.4168L1.92007 15.0952C1.83643 15.3178 1.80317 15.5562 1.82269 15.7931C1.84221 16.0301 1.91401 16.2598 2.03294 16.4657C2.15186 16.6716 2.31495 16.8486 2.51047 16.9839C2.70599 17.1192 2.92907 17.2095 3.16367 17.2482L4.9707 17.5603L5.25145 19.3364C5.2903 19.571 5.38065 19.7941 5.51601 19.9896C5.65136 20.1851 5.82837 20.3481 6.03428 20.4671C6.2402 20.586 6.46991 20.6578 6.7069 20.6773C6.94388 20.6968 7.18225 20.6636 7.40485 20.58L9.12566 19.946L10.2567 21.3437C10.4076 21.5276 10.5974 21.6757 10.8125 21.7774C11.0275 21.8792 11.2624 21.9319 11.5003 21.9319C11.7382 21.9319 11.9731 21.8792 12.1882 21.7774C12.4032 21.6757 12.593 21.5276 12.7439 21.3437L13.9173 19.9353L15.5955 20.58C15.8181 20.6637 16.0565 20.6971 16.2936 20.6776C16.5306 20.6581 16.7604 20.5863 16.9664 20.4674C17.1723 20.3485 17.3494 20.1853 17.4848 19.9898C17.6201 19.7942 17.7105 19.5711 17.7492 19.3364L18.0609 17.529L19.8363 17.249C20.0709 17.2102 20.2941 17.1199 20.4897 16.9846C20.6853 16.8492 20.8485 16.6722 20.9675 16.4662C21.0865 16.2603 21.1583 16.0305 21.1779 15.7934C21.1975 15.5564 21.1642 15.3179 21.0806 15.0952L20.4466 13.374L21.8451 12.2434C22.0304 12.0935 22.1799 11.904 22.2825 11.6888C22.3851 11.4736 22.4381 11.2382 22.4378 10.9998Z" fill="white"/>
<path d="M10.0309 14.684C9.52626 14.6853 9.03495 14.5222 8.63128 14.2194L6.73422 12.7965C6.5685 12.6722 6.45897 12.4871 6.42971 12.282C6.40045 12.0769 6.45387 11.8686 6.57821 11.7028C6.70255 11.5371 6.88763 11.4276 7.09273 11.3983C7.29783 11.3691 7.50616 11.4225 7.67188 11.5468L9.56854 12.9697C9.73296 13.0913 9.93824 13.144 10.1409 13.1168C10.3436 13.0896 10.5277 12.9846 10.6542 12.824L15.18 7.00427C15.243 6.92327 15.3214 6.85547 15.4106 6.80475C15.4998 6.75403 15.5982 6.72138 15.7 6.70866C15.8018 6.69594 15.9052 6.70341 16.0041 6.73063C16.1031 6.75786 16.1957 6.80431 16.2767 6.86733C16.3577 6.93035 16.4255 7.0087 16.4762 7.09793C16.527 7.18715 16.5596 7.28549 16.5723 7.38733C16.585 7.48917 16.5776 7.59251 16.5504 7.69147C16.5231 7.79042 16.4767 7.88305 16.4137 7.96405L11.8875 13.7838C11.667 14.0652 11.3851 14.2926 11.0633 14.4486C10.7416 14.6046 10.3885 14.6851 10.0309 14.684Z" fill="#FF7322"/>
</svg>
