<svg width="26" height="26" viewBox="0 0 26 26" fill="none" xmlns="http://www.w3.org/2000/svg">
<path d="M13.0005 12.4538C15.3506 12.4538 17.2626 10.5421 17.2626 8.19223C17.2626 5.84237 15.3506 3.93066 13.0005 3.93066C10.6503 3.93066 8.73828 5.84237 8.73828 8.19223C8.73828 10.5421 10.6503 12.4538 13.0005 12.4538ZM13.0005 5.4539C14.5106 5.4539 15.7392 6.68235 15.7392 8.19223C15.7392 9.70216 14.5106 10.9306 13.0005 10.9306C11.4903 10.9306 10.2617 9.70216 10.2617 8.19223C10.2617 6.68235 11.4903 5.4539 13.0005 5.4539Z" fill="#615CF6"/>
<path d="M8.35948 15.8504C9.51399 17.4133 9.05015 16.8055 12.3756 21.5533C12.6778 21.9865 13.3206 21.9885 13.6245 21.5539C16.965 16.7836 16.5053 17.3878 17.6411 15.8504C18.7915 14.2928 19.9812 12.6822 20.6332 10.7949C21.5767 8.06279 21.1688 5.35955 19.4848 3.18307C19.4847 3.18307 19.4847 3.18302 19.4847 3.18302C17.9421 1.18991 15.518 0 13.0003 0C10.4826 0 8.0585 1.18991 6.51581 3.18312C4.83175 5.3596 4.42388 8.06289 5.3675 10.795C6.01933 12.6823 7.20903 14.2928 8.35948 15.8504ZM7.72065 4.11526C8.97688 2.49224 10.9506 1.52323 13.0003 1.52323C15.05 1.52323 17.0237 2.49224 18.2799 4.11526L18.2798 4.11521C19.6391 5.87184 19.9633 8.06751 19.1931 10.2977C18.6173 11.9648 17.498 13.48 16.4156 14.9454C15.5729 16.0863 15.8251 15.7374 13.0003 19.7866C10.1784 15.7414 10.4274 16.086 9.58493 14.9454C8.50253 13.48 7.38326 11.9647 6.80745 10.2977C6.0372 8.06746 6.36149 5.87184 7.72065 4.11526Z" fill="#615CF6"/>
<path d="M8.98517 19.1528C8.76052 18.7973 8.29008 18.691 7.93441 18.9157L5.76859 20.2836C5.29612 20.582 5.29566 21.2727 5.76859 21.5714L12.5936 25.8821C12.8421 26.0391 13.1587 26.039 13.4072 25.8821L20.2322 21.5714C20.7047 21.273 20.7051 20.5823 20.2322 20.2836L18.0663 18.9157C17.7106 18.691 17.2402 18.7973 17.0156 19.1528C16.7909 19.5084 16.8971 19.9788 17.2528 20.2035L18.3991 20.9275L13.0003 24.3373L7.60164 20.9275L8.74797 20.2035C9.10364 19.9789 9.20983 19.5085 8.98517 19.1528Z" fill="#615CF6"/>
</svg>
