<svg width="219" height="55" viewBox="0 0 219 55" fill="none" xmlns="http://www.w3.org/2000/svg">
<path d="M216.02 38.3989C215.179 38.3989 214.466 38.1419 213.882 37.6279C213.298 37.1139 213.006 36.3779 213.006 35.4199C213.006 34.4386 213.298 33.6675 213.882 33.1068C214.49 32.546 215.202 32.2656 216.02 32.2656C216.838 32.2656 217.539 32.546 218.123 33.1068C218.707 33.6442 218.999 34.4035 218.999 35.3849C218.999 36.3662 218.707 37.1139 218.123 37.6279C217.539 38.1419 216.838 38.3989 216.02 38.3989Z" fill="#FEFDFF"/>
<path d="M200.652 38.188C198.783 38.188 197.147 37.8142 195.745 37.0665C194.343 36.2955 193.257 35.209 192.486 33.8071C191.715 32.3818 191.329 30.6996 191.329 28.7603C191.329 26.7742 191.715 25.0686 192.486 23.6433C193.28 22.1947 194.378 21.0848 195.78 20.3138C197.182 19.5427 198.794 19.1572 200.617 19.1572C202.486 19.1572 204.11 19.5544 205.488 20.3488C206.867 21.1433 207.942 22.2531 208.713 23.6784C209.484 25.1036 209.869 26.8093 209.869 28.7953C209.869 30.7346 209.484 32.4169 208.713 33.8422C207.965 35.2441 206.902 36.3188 205.523 37.0665C204.168 37.8142 202.544 38.188 200.652 38.188ZM200.582 33.702C201.656 33.702 202.521 33.4683 203.175 33.001C203.829 32.5337 204.297 31.9262 204.577 31.1785C204.881 30.4075 205.033 29.6014 205.033 28.7603C205.033 27.9191 204.881 27.113 204.577 26.342C204.297 25.5709 203.829 24.9401 203.175 24.4494C202.544 23.9354 201.68 23.6784 200.582 23.6784C199.53 23.6784 198.677 23.9354 198.023 24.4494C197.369 24.9401 196.89 25.5709 196.586 26.342C196.306 27.113 196.166 27.9191 196.166 28.7603C196.166 29.6248 196.306 30.4309 196.586 31.1785C196.89 31.9262 197.369 32.5337 198.023 33.001C198.677 33.4683 199.53 33.702 200.582 33.702Z" fill="#FEFDFF"/>
<path d="M162.18 37.9438V19.4737H166.596L167.016 21.5415C167.484 20.8873 167.998 20.3967 168.558 20.0695C169.142 19.7191 169.727 19.4854 170.311 19.3686C170.895 19.2518 171.432 19.1934 171.923 19.1934C173.021 19.1934 173.991 19.4036 174.832 19.8242C175.673 20.2448 176.351 20.9224 176.865 21.857C177.355 21.1794 177.893 20.6537 178.477 20.2798C179.061 19.8826 179.68 19.6022 180.334 19.4387C180.989 19.2751 181.654 19.1934 182.332 19.1934C183.757 19.1934 184.902 19.4971 185.767 20.1046C186.655 20.6887 187.297 21.5065 187.694 22.5579C188.115 23.6094 188.325 24.836 188.325 26.2379V37.9438H183.418V27.5347C183.418 27.1141 183.395 26.6819 183.348 26.2379C183.302 25.794 183.185 25.3734 182.998 24.9762C182.834 24.579 182.577 24.2519 182.227 23.9949C181.9 23.7379 181.432 23.6093 180.825 23.6093C180.241 23.6093 179.75 23.7379 179.353 23.9949C178.956 24.2519 178.64 24.6024 178.407 25.0463C178.173 25.4669 177.998 25.9342 177.881 26.4482C177.788 26.9389 177.741 27.4412 177.741 27.9552V37.9438H172.834V27.4996C172.834 27.1024 172.811 26.6819 172.764 26.2379C172.717 25.794 172.612 25.3734 172.449 24.9762C172.285 24.579 172.016 24.2519 171.643 23.9949C171.292 23.7379 170.801 23.6093 170.171 23.6093C169.306 23.6093 168.64 23.8664 168.173 24.3804C167.729 24.8711 167.437 25.4669 167.297 26.1678C167.156 26.8454 167.086 27.4763 167.086 28.0604V37.9438H162.18Z" fill="#FEFDFF"/>
<path d="M148.115 38.1891C147.274 38.1891 146.456 38.084 145.661 37.8737C144.89 37.64 144.201 37.2896 143.594 36.8223C142.986 36.355 142.507 35.7708 142.157 35.0699C141.806 34.3689 141.631 33.5512 141.631 32.6166C141.631 31.3549 141.888 30.3502 142.402 29.6025C142.916 28.8314 143.605 28.2473 144.47 27.8501C145.334 27.4529 146.327 27.1842 147.449 27.044C148.594 26.9038 149.774 26.8337 150.989 26.8337H153.652C153.652 26.1561 153.524 25.5603 153.267 25.0463C153.033 24.5089 152.671 24.1 152.18 23.8196C151.689 23.5159 151.059 23.364 150.288 23.364C149.797 23.364 149.318 23.4341 148.851 23.5743C148.407 23.6911 148.033 23.8664 147.729 24.1C147.425 24.3337 147.227 24.6374 147.133 25.0112H142.157C142.297 23.9832 142.624 23.107 143.138 22.3827C143.652 21.635 144.294 21.0275 145.066 20.5602C145.837 20.0929 146.678 19.7541 147.589 19.5438C148.524 19.3102 149.482 19.1934 150.463 19.1934C153.15 19.1934 155.136 19.9644 156.421 21.5065C157.706 23.0252 158.349 25.1865 158.349 27.9903V37.9438H153.933L153.862 35.5606C153.278 36.3783 152.612 36.9741 151.865 37.348C151.14 37.7218 150.439 37.9555 149.762 38.0489C149.084 38.1424 148.535 38.1891 148.115 38.1891ZM149.236 34.2988C150.054 34.2988 150.802 34.1353 151.479 33.8082C152.157 33.4811 152.694 33.0371 153.091 32.4764C153.489 31.9156 153.687 31.2848 153.687 30.5838V30.1282H150.323C149.832 30.1282 149.353 30.1516 148.886 30.1983C148.442 30.245 148.033 30.3385 147.659 30.4787C147.309 30.5955 147.028 30.7941 146.818 31.0745C146.608 31.3548 146.502 31.7287 146.502 32.196C146.502 32.6633 146.619 33.0605 146.853 33.3876C147.11 33.6914 147.449 33.925 147.869 34.0886C148.29 34.2287 148.746 34.2988 149.236 34.2988Z" fill="#FEFDFF"/>
<path d="M121.045 37.9427V19.4727H125.636L125.881 21.6106C126.396 20.9797 126.98 20.489 127.634 20.1386C128.311 19.7647 128.989 19.5077 129.667 19.3675C130.368 19.2273 130.998 19.1572 131.559 19.1572C133.335 19.1572 134.713 19.5427 135.695 20.3138C136.699 21.0848 137.412 22.1246 137.833 23.433C138.277 24.7181 138.499 26.155 138.499 27.7439V37.9427H133.592V28.3747C133.592 27.814 133.545 27.2532 133.452 26.6924C133.358 26.1317 133.183 25.6177 132.926 25.1504C132.692 24.6831 132.354 24.3092 131.91 24.0288C131.466 23.7485 130.882 23.6083 130.157 23.6083C129.223 23.6083 128.44 23.8419 127.809 24.3092C127.178 24.7765 126.711 25.4074 126.407 26.2018C126.103 26.9962 125.952 27.8724 125.952 28.8303V37.9427H121.045Z" fill="#FEFDFF"/>
<path d="M107.616 46.4593C106.19 46.4593 104.8 46.2724 103.445 45.8985C102.09 45.5247 100.817 44.8938 99.6249 44.0059L101.272 40.0806C102.02 40.6414 102.873 41.0853 103.831 41.4124C104.789 41.7629 105.852 41.9381 107.02 41.9381C108.819 41.9381 110.151 41.5176 111.015 40.6764C111.903 39.8353 112.347 38.6203 112.347 37.0315V36.0501C111.95 36.5875 111.448 37.0198 110.84 37.3469C110.256 37.6507 109.625 37.8726 108.948 38.0128C108.27 38.153 107.592 38.2231 106.915 38.2231C105.139 38.2231 103.714 37.8493 102.639 37.1016C101.564 36.3539 100.781 35.3375 100.291 34.0524C99.8235 32.744 99.5898 31.2603 99.5898 29.6014V19.4727H104.497V28.585C104.497 29.1925 104.532 29.8 104.602 30.4075C104.672 31.015 104.835 31.5757 105.092 32.0898C105.349 32.6038 105.735 33.0244 106.249 33.3515C106.763 33.6552 107.452 33.8071 108.317 33.8071C109.438 33.8071 110.279 33.5384 110.84 33.001C111.401 32.4402 111.775 31.7393 111.962 30.8982C112.172 30.057 112.277 29.1808 112.277 28.2696V19.4727H117.184V35.2791C117.184 36.9614 117.02 38.4918 116.693 39.8703C116.389 41.2489 115.864 42.4288 115.116 43.4101C114.392 44.3915 113.41 45.1391 112.172 45.6532C110.957 46.1906 109.438 46.4593 107.616 46.4593Z" fill="#FEFDFF"/>
<path d="M74.5479 37.9426V13.1289H83.9055C86.4991 13.1289 88.7071 13.6196 90.5295 14.6009C92.3754 15.5822 93.7773 16.9958 94.7352 18.8417C95.7166 20.6875 96.2072 22.9422 96.2072 25.6058C96.2072 28.2227 95.7282 30.4541 94.7703 32.2999C93.8357 34.1224 92.4571 35.5243 90.6347 36.5056C88.8122 37.4636 86.5808 37.9426 83.9406 37.9426H74.5479ZM79.5596 33.3163H83.9055C85.6346 33.3163 87.0248 32.9892 88.0762 32.335C89.1276 31.6807 89.8987 30.7695 90.3893 29.6013C90.88 28.433 91.1253 27.0895 91.1253 25.5708C91.1253 24.0988 90.88 22.7787 90.3893 21.6104C89.922 20.4188 89.151 19.4842 88.0762 18.8066C87.0248 18.129 85.5995 17.7902 83.8004 17.7902H79.5596V33.3163Z" fill="#FEFDFF"/>
<rect width="54.7625" height="54.0324" rx="8" fill="#615CF6"/>
<path fill-rule="evenodd" clip-rule="evenodd" d="M20.9982 33.0717C22.1881 34.2616 23.7042 35.072 25.3547 35.4003C27.0052 35.7286 28.716 35.5601 30.2707 34.9161C31.8254 34.2721 33.1543 33.1816 34.0892 31.7823C35.0242 30.3831 35.5232 28.7381 35.5232 27.0553C35.5232 25.3724 35.0242 23.7274 34.0892 22.3282C33.1543 20.929 31.8254 19.8384 30.2707 19.1944C28.716 18.5504 27.0052 18.3819 25.3547 18.7102C23.7042 19.0385 22.1881 19.8489 20.9982 21.0388L16.0984 16.139C18.2574 13.98 21.0082 12.5097 24.0029 11.914C26.9975 11.3184 30.1016 11.6241 32.9225 12.7925C35.7434 13.961 38.1544 15.9397 39.8508 18.4784C41.5471 21.0172 42.4525 24.0019 42.4525 27.0553C42.4525 30.1086 41.5471 33.0933 39.8508 35.6321C38.1544 38.1708 35.7434 40.1495 32.9225 41.318C30.1016 42.4864 26.9975 42.7922 24.0029 42.1965L24.6788 38.7984L24.0029 42.1965C21.0082 41.6008 18.2574 40.1305 16.0984 37.9715L20.9982 33.0717Z" fill="white"/>
</svg>
