<svg width="27" height="21" viewBox="0 0 27 21" fill="none" xmlns="http://www.w3.org/2000/svg">
<g clip-path="url(#clip0_1229_862)">
<path d="M20.0489 21.0435H6.13741C2.75324 21.0435 0 18.2902 0 14.9061V6.51827C0 3.1341 2.75324 0.380859 6.13741 0.380859H20.0489C23.433 0.380859 26.1863 3.1341 26.1863 6.51827V14.9061C26.1863 18.2902 23.433 21.0435 20.0489 21.0435ZM6.13741 2.42666C3.8813 2.42666 2.0458 4.26216 2.0458 6.51827V14.9061C2.0458 17.1622 3.8813 18.9977 6.13741 18.9977H20.0489C22.305 18.9977 24.1405 17.1622 24.1405 14.9061V6.51827C24.1405 4.26216 22.305 2.42666 20.0489 2.42666H6.13741ZM16.8414 12.523L21.8973 8.66094C22.3463 8.31802 22.4322 7.67609 22.0893 7.22714C21.7463 6.77819 21.1044 6.69227 20.6555 7.03519L15.6001 10.8968C14.1404 12.0102 12.1018 12.011 10.6411 10.8996L5.74237 7.09161C5.29633 6.74484 4.65364 6.8254 4.30698 7.27143C3.96027 7.71747 4.04077 8.36011 4.48681 8.70682L9.38932 12.5177C9.39177 12.5197 9.39428 12.5216 9.39678 12.5235C10.4925 13.3592 11.8054 13.777 13.1186 13.777C14.4318 13.777 15.7453 13.3589 16.8414 12.523Z" fill="#615CF6"/>
</g>
<defs>
<clipPath id="clip0_1229_862">
<rect width="26.1863" height="20.83" fill="white"/>
</clipPath>
</defs>
</svg>
