<svg width="21" height="20" viewBox="0 0 21 20" fill="none" xmlns="http://www.w3.org/2000/svg">
<g clip-path="url(#clip0_1172_4)">
<path d="M14.7704 4.86386L6.97087 4.86389C6.61944 4.86386 6.33451 5.14879 6.33451 5.50025C6.33451 5.85171 6.61941 6.13661 6.97087 6.13661L13.2343 6.13664L5.32141 14.0504C5.07293 14.2988 5.07296 14.7017 5.32146 14.9502C5.56997 15.1988 5.97294 15.1987 6.22142 14.9502L14.1341 7.03665L14.1341 13.2998C14.1341 13.6513 14.419 13.9362 14.7705 13.9362C14.9462 13.9362 15.1053 13.865 15.2205 13.7498C15.3356 13.6347 15.4069 13.4756 15.4068 13.2999L15.4068 5.50022C15.4068 5.33145 15.3398 5.16958 15.2204 5.05024C15.1011 4.93091 14.9392 4.86383 14.7704 4.86386Z" fill="#161616"/>
</g>
<defs>
<clipPath id="clip0_1172_4">
<rect width="14" height="14" fill="white" transform="translate(0.371094 10) rotate(-45)"/>
</clipPath>
</defs>
</svg>
