<svg width="15" height="14" viewBox="0 0 15 14" fill="none" xmlns="http://www.w3.org/2000/svg">
<g clip-path="url(#clip0_687_3811)">
<path d="M13.8741 6.55013L8.35898 1.03502C8.11051 0.786503 7.70756 0.786503 7.45904 1.03502C7.21052 1.28354 7.21052 1.68645 7.45904 1.93497L11.8879 6.36389L0.696826 6.36449C0.345426 6.36449 0.0605469 6.64941 0.0605469 7.00085C0.0605469 7.35229 0.345511 7.63721 0.696953 7.63717L11.8878 7.63658L7.45908 12.0653C7.21056 12.3138 7.21056 12.7168 7.45908 12.9653C7.5833 13.0895 7.74617 13.1517 7.90903 13.1517C8.0719 13.1517 8.23477 13.0895 8.35898 12.9653L13.8741 7.45008C13.9935 7.33074 14.0605 7.16889 14.0605 7.00013C14.0605 6.83136 13.9935 6.66947 13.8741 6.55013Z" fill="#161616"/>
</g>
<defs>
<clipPath id="clip0_687_3811">
<rect width="14" height="14" fill="white" transform="translate(0.0605469)"/>
</clipPath>
</defs>
</svg>
