<svg width="76" height="77" viewBox="0 0 76 77" fill="none" xmlns="http://www.w3.org/2000/svg">
<g clip-path="url(#clip0_1229_639)">
<path d="M64.9845 10.3992C58.5639 3.97866 50.027 0.443 40.9474 0.443359C39.4595 0.443359 38.2539 1.64933 38.2539 3.13685C38.2539 4.62438 39.4599 5.83035 40.9474 5.83035C48.5883 5.82999 55.772 8.8054 61.1752 14.2086C66.5787 19.6117 69.5541 26.7958 69.5538 34.437C69.5538 35.9246 70.7594 37.1305 72.2472 37.1305C73.7348 37.1305 74.9407 35.9246 74.9407 34.4374C74.9411 25.3567 71.4054 16.8198 64.9845 10.3992Z" fill="#131210"/>
<path d="M53.9045 34.4375C53.9045 35.9251 55.1105 37.131 56.5984 37.1307C58.0859 37.1307 59.2915 35.9247 59.2915 34.4372C59.2908 24.324 51.0617 16.0952 40.9478 16.0938C40.9474 16.0938 40.9481 16.0938 40.9478 16.0938C39.4602 16.0938 38.2543 17.2994 38.2539 18.7869C38.2539 20.2744 39.4595 21.4804 40.947 21.4807C48.0913 21.4818 53.9038 27.294 53.9045 34.4375Z" fill="#131210"/>
<path d="M47.9447 48.1709C43.8391 47.9583 41.7475 51.0117 40.7444 52.4784C39.9044 53.7062 40.219 55.3823 41.4469 56.2223C42.6748 57.0623 44.3509 56.7477 45.1909 55.5199C46.376 53.7871 46.9129 53.5145 47.6412 53.549C49.9724 53.823 59.1536 60.551 60.073 62.6548C60.3035 63.2743 60.2949 63.8816 60.0475 64.6203C59.0835 67.4811 57.4879 69.4916 55.4322 70.4339C53.4793 71.3292 51.0849 71.2481 48.5096 70.2001C38.8931 66.2806 30.4916 60.8106 23.5388 53.9418C23.5359 53.939 23.533 53.9365 23.5305 53.9336C16.6761 46.9876 11.2162 38.5968 7.30309 28.9951C6.25478 26.4176 6.17362 24.0229 7.06894 22.0703C8.0113 20.0146 10.0217 18.419 12.8801 17.4561C13.6213 17.2076 14.2275 17.1997 14.8413 17.4281C16.9526 18.3507 23.6803 27.5316 23.9518 29.8365C23.9905 30.5921 23.7158 31.1287 21.9844 32.3116C20.7562 33.1506 20.4405 34.8266 21.2798 36.0549C22.1187 37.2831 23.7945 37.5984 25.0231 36.7595C26.4905 35.7575 29.5431 33.6717 29.3312 29.5521C29.0978 25.2489 20.7271 13.8533 16.7274 12.3827C14.9487 11.7197 13.0776 11.7082 11.1641 12.3503C6.85884 13.8002 3.74947 16.3852 2.17216 19.8257C0.642258 23.1635 0.690741 27.036 2.31402 31.0267C6.50187 41.3022 12.3611 50.2931 19.7287 57.7504C19.7467 57.7688 19.765 57.7867 19.7837 57.8043C27.2357 65.1583 36.2161 71.0067 46.478 75.1896C48.533 76.0253 50.5567 76.4437 52.492 76.4437C54.3143 76.4437 56.0589 76.073 57.6772 75.3311C61.118 73.7541 63.7027 70.6451 65.1536 66.3369C65.7943 64.4271 65.7839 62.5567 65.126 60.7862C63.6503 56.7758 52.2546 48.4051 47.9447 48.1709Z" fill="#131210"/>
</g>
<defs>
<clipPath id="clip0_1229_639">
<rect width="76" height="76" fill="white" transform="translate(0 0.443359)"/>
</clipPath>
</defs>
</svg>
