<svg width="22" height="22" viewBox="0 0 22 22" fill="none" xmlns="http://www.w3.org/2000/svg">
<g clip-path="url(#clip0_1224_51)">
<path d="M11 0.5C6.65694 0.5 3.125 4.03194 3.125 8.375C3.125 13.8337 10.2335 21.0052 10.5354 21.3084C10.664 21.4357 10.832 21.5 11 21.5C11.168 21.5 11.336 21.4357 11.4646 21.3084C11.7665 21.0052 18.875 13.8337 18.875 8.375C18.875 4.03194 15.3431 0.5 11 0.5ZM11 19.8948C9.43288 18.2174 4.4375 12.5448 4.4375 8.375C4.4375 4.75644 7.38144 1.8125 11 1.8125C14.6186 1.8125 17.5625 4.75644 17.5625 8.375C17.5625 12.5409 12.5671 18.2174 11 19.8948Z" fill="#F2CC4D"/>
<path d="M11 4.4375C8.82912 4.4375 7.0625 6.20412 7.0625 8.375C7.0625 10.5459 8.82912 12.3125 11 12.3125C13.1709 12.3125 14.9375 10.5459 14.9375 8.375C14.9375 6.20412 13.1709 4.4375 11 4.4375ZM11 11C9.55231 11 8.375 9.82269 8.375 8.375C8.375 6.92731 9.55231 5.75 11 5.75C12.4477 5.75 13.625 6.92731 13.625 8.375C13.625 9.82269 12.4477 11 11 11Z" fill="#F2CC4D"/>
</g>
<defs>
<clipPath id="clip0_1224_51">
<rect width="21" height="21" fill="white" transform="translate(0.5 0.5)"/>
</clipPath>
</defs>
</svg>
