<svg width="60" height="18" viewBox="0 0 60 18" fill="none" xmlns="http://www.w3.org/2000/svg">
<path d="M0.322906 18V0.647999H6.70691C7.97091 0.647999 9.10291 0.867999 10.1029 1.308C11.1029 1.74 11.8909 2.38 12.4669 3.228C13.0509 4.076 13.3429 5.112 13.3429 6.336C13.3429 7.488 13.0869 8.472 12.5749 9.288C12.0629 10.104 11.3429 10.728 10.4149 11.16C9.49491 11.592 8.41091 11.808 7.16291 11.808H3.85091V18H0.322906ZM3.81491 9.096H7.06691C7.94691 9.096 8.66691 8.816 9.22691 8.256C9.78691 7.688 10.0669 6.988 10.0669 6.156C10.0669 5.292 9.77091 4.608 9.17891 4.104C8.58691 3.592 7.86691 3.336 7.01891 3.336H3.81491V9.096ZM15.9792 18V0.647999H19.5072V15.036H27.0432V18H15.9792ZM28.8983 18L35.1023 0.647999H38.8103L45.0143 18H41.5223L40.1063 13.98H33.8543L32.4143 18H28.8983ZM34.6463 10.92H39.2543L36.9623 4.02L34.6463 10.92ZM49.8418 18V10.692L43.8178 0.647999H47.6098L51.6058 7.68L55.5538 0.647999H59.3818L53.3458 10.704V18H49.8418Z" fill="#161616"/>
</svg>
