<svg width="58" height="58" viewBox="0 0 58 58" fill="none" xmlns="http://www.w3.org/2000/svg">
<path d="M23.7462 55.4024C23.6124 55.4024 23.479 55.3734 23.3549 55.3158C23.293 55.2868 16.9873 52.2464 10.9684 45.6159C7.59666 41.9016 4.97389 37.7882 3.1728 33.3906C0.932064 27.9189 -0.0357637 21.9909 0.295997 15.771C0.319583 15.3314 0.648637 14.9687 1.08402 14.9029C6.86934 14.0287 12.249 11.8262 17.0731 8.35706C20.4963 5.89515 22.4969 3.58636 23.0285 2.93754C23.2049 2.72255 23.4682 2.59766 23.7466 2.59766C24.0246 2.59766 24.2883 2.72255 24.4646 2.93754L24.5017 2.98316C25.5542 4.27811 29.5319 8.75069 36.5344 11.9326C37.0011 12.1445 37.2072 12.6947 36.9953 13.1614C36.7834 13.6281 36.2332 13.8346 35.7665 13.6223C32.4323 12.1073 29.3695 10.1524 26.6624 7.81147C25.8709 7.12668 24.7813 6.12135 23.7381 4.94859C22.7277 6.05639 20.8543 7.92361 18.1565 9.86351C15.9251 11.4682 13.5293 12.8378 11.0361 13.9336C8.18207 15.1879 5.18463 16.0892 2.11565 16.6159C1.73246 27.1332 5.17071 36.4673 12.3426 44.3681C14.6479 46.9077 17.3724 49.2908 20.2213 51.2593C21.8763 52.4027 23.1434 53.1134 23.7477 53.4331C24.9441 52.8048 28.7071 50.6789 32.759 46.8668C39.0021 40.9925 42.9821 34.0414 44.5875 26.206C44.6904 25.7037 45.1815 25.3805 45.683 25.4833C46.1852 25.5862 46.5089 26.0765 46.4056 26.5787C45.4811 31.0904 43.769 35.3889 41.3167 39.355C39.3467 42.5415 36.8952 45.5235 34.0308 48.2185C28.8459 53.0967 24.1843 55.2938 24.1379 55.3154C24.0134 55.3734 23.8796 55.4024 23.7462 55.4024Z" fill="#59C2B9"/>
<path d="M23.7469 49.9755C23.6131 49.9755 23.4797 49.9465 23.3556 49.8889C23.3065 49.866 18.3076 47.456 13.545 42.2089C10.8763 39.2687 8.79987 36.0122 7.37384 32.5303C5.59904 28.1969 4.83266 23.5028 5.09521 18.579C5.1188 18.1393 5.44785 17.7766 5.88324 17.7109C10.4049 17.0277 14.6095 15.3062 18.3803 12.5945C21.0549 10.6709 22.6151 8.87093 23.0292 8.36478C23.2055 8.1498 23.4689 8.0249 23.7473 8.0249C24.0257 8.0249 24.289 8.1498 24.4653 8.36478L24.5032 8.41157C25.5105 9.65547 29.3222 13.9007 36.0893 16.2988C36.5722 16.4701 36.8251 17.0002 36.6542 17.4835C36.4829 17.9665 35.9528 18.2194 35.4695 18.0484C32.2029 16.8908 29.2055 15.2065 26.5606 13.0415C25.7935 12.4136 24.7414 11.4836 23.7368 10.3696C22.9063 11.2621 21.4733 12.6568 19.4645 14.1017C17.6971 15.3727 15.7997 16.4573 13.825 17.3254C11.6133 18.2975 9.29325 19.0016 6.91757 19.4227C6.6585 27.5809 9.34855 34.8247 14.92 40.9627C18.6796 45.1043 22.5343 47.355 23.7488 48.0058C24.8183 47.4366 27.9198 45.6487 31.1558 42.5012C36.2629 37.5345 39.3292 31.6436 40.2695 24.993C40.3415 24.4857 40.8109 24.1323 41.3182 24.2042C41.8255 24.2757 42.1789 24.7455 42.107 25.2528C39.6718 42.478 24.294 49.8177 24.139 49.89C24.0141 49.9465 23.8803 49.9755 23.7469 49.9755Z" fill="#59C2B9"/>
<path d="M46.2674 27.3485C43.1958 27.3485 40.3077 26.1526 38.1358 23.9814C35.9635 21.8099 34.7676 18.9227 34.7676 15.8518C34.7676 12.7808 35.9639 9.8936 38.1358 7.72208C40.3077 5.55056 43.1958 4.35498 46.2674 4.35498C49.3391 4.35498 52.2272 5.55094 54.3991 7.72208C56.5714 9.8936 57.7673 12.7808 57.7673 15.8518C57.7673 18.9227 56.571 21.8099 54.3991 23.9814C52.2268 26.1526 49.3391 27.3485 46.2674 27.3485ZM46.2674 6.2106C40.9496 6.2106 36.6236 10.5355 36.6236 15.8514C36.6236 21.1673 40.95 25.4921 46.2674 25.4921C51.5849 25.4921 55.9113 21.1677 55.9113 15.8518C55.9113 10.5359 51.5849 6.2106 46.2674 6.2106Z" fill="#59C2B9"/>
<path d="M43.3518 20.3423C43.1008 20.3423 42.851 20.2409 42.6685 20.0422L40.2155 17.3742C39.8687 16.9968 39.8934 16.4099 40.2704 16.063C40.6474 15.7162 41.2348 15.7409 41.5816 16.1179L43.4272 18.1251L51.0337 11.5854C51.4223 11.2513 52.0081 11.2954 52.3422 11.684C52.6762 12.0726 52.6322 12.6584 52.2436 12.9929L43.9565 20.118C43.7814 20.268 43.566 20.3423 43.3518 20.3423Z" fill="#59C2B9"/>
<path d="M24.2474 34.0413C21.4379 34.0413 19.1523 31.7557 19.1523 28.9462C19.1523 26.1367 21.4379 23.8511 24.2474 23.8511C27.057 23.8511 29.3425 26.1367 29.3425 28.9462C29.3425 31.7557 27.0566 34.0413 24.2474 34.0413ZM24.2474 25.7075C22.4614 25.7075 21.0083 27.1605 21.0083 28.9466C21.0083 30.7326 22.4614 32.1857 24.2474 32.1857C26.0335 32.1857 27.4865 30.7326 27.4865 28.9466C27.4865 27.1605 26.0331 25.7075 24.2474 25.7075Z" fill="#59C2B9"/>
<path d="M25.415 40.2443H22.592C22.1195 40.2443 21.722 39.8889 21.6698 39.4191L21.4405 37.3648C20.9034 37.1858 20.3857 36.9561 19.8919 36.6773L18.322 37.9316C17.9528 38.2267 17.4207 38.1973 17.0866 37.8628L15.0903 35.8664C14.7562 35.5324 14.7264 35.0003 15.0214 34.631L16.3423 32.9784C16.0898 32.4847 15.8853 31.97 15.7302 31.4379L13.706 31.2121C13.2362 31.1595 12.8809 30.7624 12.8809 30.2899V27.4669C12.8809 26.994 13.2362 26.5969 13.706 26.5447L15.7723 26.3142C15.9405 25.7709 16.1609 25.2466 16.4308 24.7455L15.1935 23.1973C14.8985 22.828 14.9279 22.296 15.2623 21.9619L17.2587 19.9655C17.5928 19.6311 18.1248 19.6017 18.4941 19.8967L20.0415 21.1333C20.572 20.8467 21.1284 20.6167 21.7053 20.4446L21.9134 18.5813C21.966 18.1115 22.3631 17.7561 22.8356 17.7561H25.6586C26.1311 17.7561 26.5286 18.1115 26.5808 18.5813L26.7888 20.4446C27.3971 20.6259 27.9821 20.8719 28.5381 21.18L29.9286 20.0688C30.2978 19.7737 30.8299 19.8031 31.164 20.1376L33.1603 22.134C33.4944 22.468 33.5242 23.0005 33.2291 23.3694L32.0896 24.7954C32.394 25.368 32.6325 25.9697 32.8038 26.5942L34.5446 26.7883C35.0144 26.8409 35.3697 27.238 35.3697 27.7105V30.5335C35.3697 31.0064 35.0144 31.4035 34.5446 31.4557L32.6956 31.6622C32.5022 32.2646 32.2455 32.8423 31.9276 33.3902L33.0571 34.8035C33.3521 35.1728 33.3227 35.7048 32.9883 36.0389L30.9919 38.0353C30.6578 38.3693 30.1254 38.3991 29.7565 38.1041L28.2238 36.8791C27.6878 37.1483 27.1283 37.3613 26.5499 37.5164L26.3376 39.4195C26.285 39.8889 25.8879 40.2443 25.415 40.2443ZM23.4221 38.3883H24.5848L24.7782 36.6545C24.8234 36.2481 25.1297 35.919 25.5318 35.8448C26.35 35.6936 27.1279 35.3997 27.8433 34.9717C28.1754 34.773 28.5965 34.8012 28.8993 35.0432L30.2665 36.136L31.0886 35.3139L30.0647 34.0325C29.8091 33.7127 29.7932 33.263 30.026 32.9258C30.5171 32.2144 30.8678 31.4294 31.0688 30.5923C31.1601 30.2122 31.4799 29.9303 31.8681 29.887L33.5133 29.7034V28.5406L31.9458 28.3659C31.5414 28.3206 31.2138 28.0175 31.1373 27.6181C30.973 26.7597 30.652 25.948 30.1838 25.2068C29.9726 24.8723 29.9966 24.4408 30.2433 24.1319L31.2606 22.859L30.4386 22.0369L29.1916 23.0337C28.8776 23.2847 28.4372 23.3048 28.1016 23.0836C27.3785 22.6072 26.5843 22.2728 25.741 22.0903C25.3516 22.006 25.0593 21.6823 25.0152 21.2864L24.8284 19.6125H23.6657L23.479 21.2864C23.4349 21.6823 23.1426 22.006 22.7532 22.0903C21.9377 22.267 21.1671 22.586 20.4626 23.038C20.1274 23.253 19.6928 23.2305 19.3819 22.9819L17.9837 21.8644L17.1616 22.6865L18.2795 24.0851C18.5277 24.396 18.5505 24.8306 18.3359 25.1654C17.9002 25.8452 17.5877 26.588 17.4079 27.3729C17.3198 27.7576 16.9985 28.0442 16.6064 28.0882L14.7369 28.297V29.4598L16.5758 29.6651C16.9741 29.7095 17.2989 30.0046 17.3813 30.3966C17.544 31.1723 17.8364 31.9101 18.2493 32.5887C18.4519 32.9216 18.4249 33.3458 18.1817 33.6505L16.99 35.1418L17.812 35.9639L19.2431 34.8201C19.5594 34.5672 20.0036 34.5487 20.34 34.7749C21.009 35.2246 21.7432 35.5521 22.5216 35.7489C22.8967 35.8436 23.1735 36.1611 23.2164 36.5458L23.4221 38.3883Z" fill="#59C2B9"/>
</svg>
