<svg width="30" height="30" viewBox="0 0 30 30" fill="none" xmlns="http://www.w3.org/2000/svg">
<path d="M8.97459 14.7993C8.97458 15.1508 9.25955 15.4358 9.61108 15.4358L19.8126 15.4358C20.1642 15.4358 20.4491 15.1509 20.4491 14.7994C20.4491 14.4478 20.1641 14.1628 19.8126 14.1628L9.61108 14.1628C9.25955 14.1628 8.97458 14.4478 8.97459 14.7993Z" fill="white"/>
<path d="M13.9622 20.6502C14.2108 20.8988 14.6138 20.8988 14.8624 20.6502L20.2632 15.2494C20.5118 15.0008 20.5118 14.5978 20.2632 14.3492L14.8624 8.94841C14.6138 8.69984 14.2108 8.69985 13.9622 8.94841C13.7136 9.19702 13.7137 9.59997 13.9622 9.84854L18.913 14.7993L13.9622 19.7501C13.7137 19.9987 13.7136 20.4016 13.9622 20.6502Z" fill="white"/>
</svg>
