<svg width="24" height="24" viewBox="0 0 24 24" fill="none" xmlns="http://www.w3.org/2000/svg">
<path d="M7.14741 16.8535C7.4403 17.1464 7.91517 17.1464 8.20807 16.8535L16.7081 8.35349C17.001 8.06059 17.001 7.58579 16.7081 7.29289C16.4152 6.99999 15.9403 6.99999 15.6474 7.29289L7.14741 15.7928C6.85451 16.0857 6.85451 16.5606 7.14741 16.8535Z" fill="white"/>
<path d="M16.1778 17.5732C16.592 17.5732 16.9278 17.2375 16.9278 16.8232V7.8232C16.9278 7.409 16.592 7.0732 16.1778 7.0732H7.17773C6.76351 7.0732 6.42773 7.409 6.42773 7.8232C6.42773 8.2375 6.76351 8.5732 7.17773 8.5732H15.4278V16.8232C15.4278 17.2375 15.7635 17.5732 16.1778 17.5732Z" fill="white"/>
</svg>
