<svg width="29" height="29" viewBox="0 0 29 29" fill="none" xmlns="http://www.w3.org/2000/svg">
<path d="M20.4199 14.5933C20.4199 14.2417 20.135 13.9568 19.7835 13.9568L9.58189 13.9568C9.23035 13.9568 8.94543 14.2417 8.94543 14.5932C8.94543 14.9448 9.23041 15.2297 9.58195 15.2297L19.7835 15.2298C20.135 15.2298 20.4199 14.9448 20.4199 14.5933Z" fill="#3147FF"/>
<path d="M15.4323 8.74235C15.1837 8.49379 14.7807 8.49378 14.5322 8.74235L9.13131 14.1432C8.88275 14.3918 8.88275 14.7948 9.13131 15.0433L14.5322 20.4442C14.7807 20.6927 15.1837 20.6927 15.4323 20.4442C15.6809 20.1956 15.6809 19.7926 15.4323 19.544L10.4815 14.5933L15.4323 9.64249C15.6809 9.39392 15.6809 8.99097 15.4323 8.74235Z" fill="#3147FF"/>
</svg>
