<svg width="63" height="62" viewBox="0 0 63 62" fill="none" xmlns="http://www.w3.org/2000/svg">
<path d="M31.425 34.4533C32.1374 34.4533 32.8339 34.2421 33.4263 33.8462C34.0186 33.4504 34.4803 32.8878 34.753 32.2296C35.0256 31.5714 35.097 30.8471 34.958 30.1484C34.819 29.4496 34.4759 28.8078 33.9721 28.304C33.4683 27.8002 32.8265 27.4571 32.1277 27.3181C31.429 27.1792 30.7047 27.2505 30.0465 27.5231C29.3883 27.7958 28.8257 28.2575 28.4299 28.8499C28.034 29.4422 27.8228 30.1387 27.8228 30.8511C27.8244 31.806 28.2045 32.7213 28.8796 33.3965C29.5548 34.0716 30.4701 34.4517 31.425 34.4533ZM31.425 29.7289C31.6469 29.7289 31.8639 29.7947 32.0484 29.9181C32.233 30.0414 32.3768 30.2166 32.4618 30.4217C32.5467 30.6267 32.5689 30.8524 32.5256 31.0701C32.4823 31.2877 32.3754 31.4877 32.2185 31.6446C32.0615 31.8016 31.8616 31.9085 31.6439 31.9518C31.4262 31.9951 31.2006 31.9728 30.9955 31.8879C30.7905 31.803 30.6152 31.6591 30.4919 31.4746C30.3686 31.29 30.3028 31.0731 30.3028 30.8511C30.3124 30.5594 30.4347 30.2828 30.6439 30.0793C30.8532 29.8758 31.1331 29.7614 31.425 29.7599V29.7289ZM60.6394 30.9999C60.6394 26.9389 54.613 24.0683 46.615 22.5059C49.436 14.8799 50.0994 8.21493 46.646 6.10693C44.166 4.58173 40.3592 5.94573 35.7216 10.0501C34.4593 11.1833 33.2569 12.3815 32.1194 13.6399C31.0716 12.3067 29.954 11.0297 28.7714 9.81453C24.4314 5.39393 20.761 3.76953 18.1508 5.11493C15.5406 6.46033 14.7594 10.3787 15.8134 16.4795C16.1852 18.453 16.6717 20.4031 17.2704 22.3199C8.83217 23.8575 2.35938 26.7901 2.35938 30.9999C2.35938 35.0609 8.38578 37.9315 16.3838 39.4939C13.5628 47.1199 12.8994 53.7849 16.3528 55.8929C17.0346 56.3065 17.8184 56.5212 18.6158 56.5129C20.9284 56.5129 23.8734 54.9753 27.2958 51.9621C28.5521 50.8244 29.7482 49.6221 30.8794 48.3599C31.9271 49.6932 33.0447 50.9701 34.2274 52.1853C37.5754 55.6015 40.5266 57.3437 42.9074 57.3437C43.584 57.3516 44.2523 57.1941 44.8542 56.8849C47.4644 55.5395 48.2704 51.6087 47.1854 45.5079C46.8233 43.5393 46.3471 41.5933 45.7594 39.6799C54.1666 38.1423 60.6394 35.2097 60.6394 30.9999ZM37.3646 11.9039C40.6382 9.00853 42.9818 7.99173 44.383 7.99173C44.7229 7.97979 45.0596 8.06127 45.3564 8.22733C47.1172 9.29993 46.9994 14.5203 44.1474 22.0719C41.9836 21.7371 39.7082 21.4891 37.4018 21.3341C36.1618 19.3067 34.9218 17.3971 33.6384 15.6363C34.8096 14.3235 36.0537 13.0774 37.3646 11.9039ZM21.6972 33.4799C22.032 34.1681 22.373 34.8625 22.7264 35.5507C23.179 36.4187 23.6316 37.2743 24.1028 38.1113C22.5817 37.9832 21.135 37.8179 19.7628 37.6153C20.3394 36.2575 20.9594 34.8811 21.6972 33.4799ZM20.5378 24.3101C21.7344 24.1489 23.0178 24.0125 24.3074 23.9009C23.892 24.5519 23.4766 25.2029 23.0674 25.8725C22.6582 26.5421 22.28 27.1869 21.8956 27.8503C21.4058 26.6599 20.9594 25.4695 20.5378 24.3101ZM23.148 30.6961C23.768 29.5429 24.4562 28.3649 25.1878 27.1621C25.9194 25.9593 26.651 24.8247 27.4012 23.7087C28.7238 23.6467 30.0899 23.6157 31.4994 23.6157C33.0308 23.6157 34.5126 23.6529 35.9324 23.7211C36.664 24.9611 37.3749 26.259 38.0652 27.6147C38.6852 28.8547 39.3052 30.0947 39.8508 31.3347C39.2308 32.4879 38.5426 33.6659 37.811 34.8687C37.0794 36.0715 36.3478 37.1999 35.5976 38.2911C34.2749 38.3531 32.9088 38.3841 31.4994 38.3841C29.968 38.3841 28.4862 38.3469 27.0664 38.2787C26.3348 37.0387 25.6238 35.7409 24.9336 34.3851C24.295 33.1513 23.7122 31.9175 23.148 30.6961ZM39.9252 36.1273C40.3282 35.4763 40.7126 34.8129 41.097 34.1495C41.593 35.3461 42.0518 36.5303 42.461 37.6897C41.2644 37.8509 39.981 37.9873 38.6914 38.0989C39.1068 37.4479 39.5222 36.7969 39.9252 36.1273ZM41.3016 28.5509C40.9668 27.8627 40.6258 27.1683 40.2724 26.4801C39.8198 25.6121 39.3672 24.7565 38.896 23.9195C40.4129 24.0477 41.8596 24.213 43.236 24.4155C42.6594 25.7423 42.0394 27.1187 41.3016 28.5509ZM34.401 21.1853C33.4338 21.1481 32.4604 21.1357 31.4994 21.1357C30.7306 21.1357 29.9556 21.1357 29.1806 21.1357C30.1044 19.8957 31.0406 18.6557 31.9768 17.5273C32.7952 18.7053 33.6012 19.9205 34.401 21.1853ZM19.2792 7.30353C19.5301 7.18201 19.8065 7.12247 20.0852 7.12993C21.4616 7.12993 23.8052 8.27693 26.992 11.5381C28.2201 12.7914 29.3752 14.1142 30.4516 15.4999C28.9636 17.2669 27.4818 19.2199 26.0372 21.2783C23.892 21.4147 21.7778 21.6255 19.7442 21.8983C19.1256 19.9659 18.6286 17.9967 18.2562 16.0021C17.2704 10.4965 18.1384 7.89253 19.2792 7.30353ZM4.83938 30.9999C4.83938 28.8733 9.65057 26.1701 18.0454 24.6945C18.7212 26.6227 19.4962 28.6067 20.3828 30.6155C19.2358 32.7979 18.1942 35.0051 17.2828 37.1627C9.37157 35.6623 4.83938 33.0583 4.83938 30.9999ZM25.6342 50.0959C21.4182 53.8159 18.7398 54.4359 17.6424 53.7725C15.8816 52.6999 15.9994 47.4795 18.8514 39.9279C21.0152 40.2627 23.2906 40.5107 25.597 40.6657C26.837 42.6931 28.077 44.6027 29.3604 46.3635C28.1891 47.6764 26.9451 48.9225 25.6342 50.0959ZM28.5978 40.7959C29.565 40.8331 30.5384 40.8455 31.4994 40.8455H33.8182C32.8944 42.0855 31.9582 43.3255 31.022 44.4539C30.2036 43.2945 29.3976 42.0793 28.5978 40.8145V40.7959ZM43.7196 54.6963C42.5726 55.3163 39.95 54.4793 36.0068 50.4617C34.7787 49.2084 33.6236 47.8857 32.5472 46.4999C34.0352 44.7329 35.517 42.7799 36.9616 40.7215C39.1068 40.5851 41.221 40.3743 43.2546 40.1015C43.8731 42.034 44.3701 44.0032 44.7426 45.9977C45.7594 51.5033 44.8604 54.1073 43.7196 54.6963ZM44.9596 37.3363C44.2838 35.4081 43.5088 33.4241 42.6222 31.4153C43.7692 29.2329 44.8108 27.0257 45.7222 24.8681C53.6272 26.3375 58.1594 28.9415 58.1594 30.9999C58.1594 33.0583 53.3482 35.8297 44.9534 37.3053L44.9596 37.3363Z" fill="#61DAFB"/>
</svg>
