<svg width="54" height="55" viewBox="0 0 54 55" fill="none" xmlns="http://www.w3.org/2000/svg">
<g clip-path="url(#clip0_687_3660)">
<path d="M44.9121 10.8576C44.8748 10.5849 44.636 10.4341 44.4391 10.4177C44.2422 10.4012 40.3983 10.3428 40.3983 10.3428C40.3983 10.3428 37.1835 7.2206 36.8659 6.90282C36.5483 6.58505 35.928 6.68144 35.6872 6.75232C35.6836 6.75337 35.0839 6.9391 34.0717 7.25245C33.9029 6.7038 33.6538 6.02996 33.2987 5.35285C32.154 3.16923 30.4782 2.0134 28.4527 2.01044C28.4503 2.01044 28.4482 2.01044 28.4458 2.01044C28.3054 2.01044 28.1655 2.02363 28.0254 2.03639C27.9659 1.96467 27.9057 1.89359 27.8423 1.82577C26.9605 0.881929 25.8281 0.422085 24.4727 0.461847C21.8562 0.536835 19.2519 2.4261 17.1395 5.78127C15.6525 8.14271 14.5228 11.1092 14.2015 13.4052C11.198 14.3353 9.09652 14.9862 9.05106 15.0004C7.53495 15.4762 7.48727 15.5238 7.28847 16.9522C7.13796 18.0336 3.17139 48.71 3.17139 48.71L36.4187 54.4593L50.8283 50.8777C50.8283 50.8777 44.9494 11.1302 44.9121 10.8576ZM16.0641 12.8283C16.9631 8.62471 20.4853 2.31841 24.523 2.20229C25.1373 2.18942 25.6546 2.32421 26.0964 2.61499C25.3898 2.98192 24.7062 3.50926 24.0651 4.19692C22.4033 5.97955 21.1304 8.74747 20.6228 11.4166C19.0386 11.9071 17.4894 12.3869 16.0641 12.8283ZM28.0869 9.10543C26.3452 9.64469 24.4437 10.2335 22.5362 10.8242C23.0732 8.76983 24.0897 6.72448 25.3389 5.3845C25.8036 4.88605 26.4537 4.32981 27.2234 4.01224C27.9476 5.52118 28.1044 7.6603 28.0869 9.10543ZM29.8261 8.56691C29.8068 7.24212 29.6486 5.39947 29.0315 3.80658C31.0165 4.18268 31.9939 6.42874 32.4064 7.76798C31.6414 8.00476 30.77 8.27455 29.8261 8.56691Z" fill="#95BF47"/>
<path d="M44.439 10.4175C44.242 10.401 40.3981 10.3426 40.3981 10.3426C40.3981 10.3426 37.1833 7.22039 36.8658 6.90261C36.7473 6.78407 36.5867 6.72342 36.4194 6.69727L36.4203 54.4588L50.8282 50.8775C50.8282 50.8775 44.9493 11.13 44.912 10.8574C44.8747 10.5847 44.6359 10.4339 44.439 10.4175Z" fill="#5E8E3E"/>
<path d="M28.4335 17.8266L26.7598 24.0874C26.7598 24.0874 24.893 23.2373 22.6797 23.377C19.4345 23.582 19.4001 25.629 19.4324 26.142C19.6092 28.9421 26.9754 29.5539 27.3894 36.1122C27.7152 41.2719 24.6526 44.8013 20.2397 45.08C14.9442 45.4143 12.0283 42.2896 12.0283 42.2896L13.1504 37.5155C13.1504 37.5155 16.0849 39.7295 18.4339 39.5812C19.9682 39.4843 20.5164 38.2364 20.4608 37.3539C20.2301 33.7013 14.2319 33.9164 13.8529 27.9149C13.534 22.8638 16.8508 17.7468 24.1695 17.2846C26.9894 17.1067 28.4335 17.8266 28.4335 17.8266Z" fill="white"/>
</g>
<defs>
<clipPath id="clip0_687_3660">
<rect width="54" height="54" fill="white" transform="translate(0 0.459473)"/>
</clipPath>
</defs>
</svg>
