<svg width="90" height="32" viewBox="0 0 90 32" fill="none" xmlns="http://www.w3.org/2000/svg">
<g clip-path="url(#clip0_1122_310)">
<path fill-rule="evenodd" clip-rule="evenodd" d="M21.9458 10.3215H11.5303V13.4046H18.9175C18.5524 17.7281 14.9464 19.5719 11.5428 19.5719C7.18813 19.5719 3.38816 16.1542 3.38816 11.3636C3.38816 6.6968 7.01065 3.10306 11.5523 3.10306C15.0565 3.10306 17.1214 5.33123 17.1214 5.33123L19.285 3.09575C19.285 3.09575 16.5078 0.0112305 11.4417 0.0112305C4.99107 0.0108827 0 5.44219 0 11.3086C0 17.0568 4.69434 22.6624 11.6063 22.6624C17.6849 22.662 22.1345 18.5083 22.1345 12.3657C22.1345 11.0697 21.9458 10.3208 21.9458 10.3208V10.3215Z" fill="#176BEF"/>
<path fill-rule="evenodd" clip-rule="evenodd" d="M30.5198 10.9483C32.6217 10.9483 34.6134 12.6433 34.6134 15.3744C34.6134 18.0482 32.6301 19.7911 30.5104 19.7911C28.1812 19.7911 26.3433 17.9306 26.3433 15.3536C26.3433 12.8315 28.1578 10.9483 30.5198 10.9483ZM30.4773 8.08887C26.2035 8.08887 23.1406 11.4217 23.1406 15.3094C23.1406 19.2537 26.1118 22.6489 30.5275 22.6489C34.5252 22.6489 37.8007 19.6009 37.8007 15.3939C37.8007 10.572 33.9906 8.08887 30.4773 8.08887Z" fill="#FF3E30"/>
<path fill-rule="evenodd" clip-rule="evenodd" d="M46.4785 10.9483C48.5807 10.9483 50.5724 12.6433 50.5724 15.3744C50.5724 18.0482 48.5887 19.7911 46.4691 19.7911C44.1402 19.7911 42.3026 17.9306 42.3026 15.3536C42.3026 12.8315 44.1172 10.9483 46.4785 10.9483ZM46.4363 8.08887C42.1628 8.08887 39.0996 11.4217 39.0996 15.3094C39.0996 19.2537 42.0704 22.6489 46.4865 22.6489C50.4842 22.6489 53.7593 19.6009 53.7593 15.3939C53.7593 10.572 49.9496 8.08887 46.4363 8.08887Z" fill="#F7B529"/>
<path fill-rule="evenodd" clip-rule="evenodd" d="M62.3688 10.9506C64.2921 10.9506 66.2671 12.5885 66.2671 15.3861C66.2671 18.2299 64.2959 19.7972 62.3262 19.7972C60.2352 19.7972 58.2892 18.1033 58.2892 15.4132C58.2892 12.6181 60.3101 10.9506 62.3688 10.9506ZM62.0846 8.09668C58.1619 8.09668 55.0781 11.5242 55.0781 15.3711C55.0781 19.7527 58.6532 22.6588 62.0169 22.6588C64.0972 22.6588 65.2032 21.8351 66.0202 20.8901V22.3252C66.0202 24.8372 64.4909 26.3415 62.1833 26.3415C59.9541 26.3412 58.8362 24.688 58.4478 23.7495L55.6426 24.9193C56.6378 27.0177 58.641 29.2066 62.2066 29.2066C66.107 29.2066 69.0795 26.7558 69.0795 21.6163V8.53424H66.0202V9.76764C65.0794 8.75616 63.7924 8.09668 62.0846 8.09668Z" fill="#176BEF"/>
<path fill-rule="evenodd" clip-rule="evenodd" d="M82.8119 10.879C84.1453 10.879 85.1049 11.5857 85.5125 12.4337L78.9775 15.1586C78.6957 13.049 80.6993 10.879 82.8119 10.879ZM82.6843 8.07861C78.9837 8.07861 75.877 11.0157 75.877 15.3492C75.877 19.935 79.3401 22.6546 83.0396 22.6546C86.1276 22.6546 88.0227 20.9694 89.1542 19.4595L86.6307 17.785C85.9762 18.7986 84.8817 19.7889 83.0553 19.7889C81.004 19.7889 80.0605 18.6682 79.4757 17.583L89.2619 13.5322L88.7539 12.345C87.8082 10.0205 85.6028 8.07896 82.6847 8.07896L82.6843 8.07861Z" fill="#FF3E30"/>
<path fill-rule="evenodd" clip-rule="evenodd" d="M71.2129 22.2226H74.4274V0.76416H71.2129V22.2226Z" fill="#179C52"/>
</g>
<defs>
<clipPath id="clip0_1122_310">
<rect width="89.2632" height="32" fill="white"/>
</clipPath>
</defs>
</svg>
