<svg width="106" height="21" viewBox="0 0 106 21" fill="none" xmlns="http://www.w3.org/2000/svg">
<g clip-path="url(#clip0_1122_293)">
<path d="M0.396484 20.3618H20.1972V0.383125H0.396484V20.3618ZM21.8473 20.3618H41.6481V0.383125H21.8473V20.3618ZM43.2981 20.3618H63.0989V0.383125H43.2981V20.3618ZM64.7489 20.3618H84.5497V0.383125H64.7489V20.3618ZM86.1997 20.3618H106V0.383125H86.1997V20.3618Z" fill="#00B67A"/>
<path d="M10.2974 6.8983L13.3088 7.66831L14.567 3.75582L10.2974 6.8983ZM17.2277 11.9554H11.9269L10.2974 16.9917L8.66801 11.9554H3.36719L7.65735 8.83374L6.02791 3.79744L10.3181 6.91911L12.9582 8.83374L17.2277 11.9554ZM31.7483 6.8983L34.7596 7.66831L36.0178 3.75582L31.7483 6.8983ZM38.6785 11.9554H33.3777L31.7483 16.9917L30.1188 11.9554H24.818L29.1082 8.83374L27.4787 3.79744L31.7689 6.91911L34.409 8.83374L38.6785 11.9554ZM53.1991 6.8983L56.2104 7.66831L57.4686 3.75582L53.1991 6.8983ZM60.1293 11.9554H54.8285L53.1991 16.9917L51.5696 11.9554H46.2688L50.559 8.83374L48.9295 3.79744L53.2197 6.91911L55.8598 8.83374L60.1293 11.9554ZM74.6499 6.8983L77.6612 7.66831L78.9194 3.75582L74.6499 6.8983ZM81.5801 11.9554H76.2793L74.6499 16.9917L73.0204 11.9554H67.7196L72.0098 8.83374L70.3803 3.79744L74.6705 6.91911L77.3106 8.83374L81.5801 11.9554ZM96.1007 6.8983L99.1121 7.66831L100.37 3.75582L96.1007 6.8983ZM103.031 11.9554H97.7301L96.1007 16.9917L94.4713 11.9554H89.1704L93.4606 8.83374L91.8312 3.79744L96.1213 6.91911L98.7614 8.83374L103.031 11.9554Z" fill="white"/>
</g>
<defs>
<clipPath id="clip0_1122_293">
<rect width="105.604" height="19.9893" fill="white" transform="matrix(1 0 0 -1 0.396484 20.3687)"/>
</clipPath>
</defs>
</svg>
