<svg width="23" height="24" viewBox="0 0 23 24" fill="none" xmlns="http://www.w3.org/2000/svg">
<path d="M22.5782 11.5919C21.86 11.46 21.1644 11.2803 20.5104 11.0578C15.7164 9.42669 13.0064 5.46392 12.1148 0.36249C12.0301 -0.120797 11.341 -0.120863 11.2564 0.36249C10.2201 6.29035 6.77126 10.4824 0.822747 11.5994C0.349667 11.6882 0.349796 12.378 0.823006 12.4666C6.71661 13.5695 10.2258 17.7536 11.2585 23.6342C11.3235 24.0047 11.7102 24.0066 11.6882 23.998C11.8996 23.9977 12.0804 23.8438 12.1169 23.6333C12.6427 20.6007 14.1188 16.4808 18.166 14.0753C19.4589 13.3075 20.9437 12.764 22.5791 12.4595C22.7861 12.421 22.9364 12.2383 22.9361 12.0253C22.9359 11.8123 22.7852 11.6299 22.5782 11.5919Z" fill="#F4A32C"/>
</svg>
