<svg width="44" height="44" viewBox="0 0 44 44" fill="none" xmlns="http://www.w3.org/2000/svg">
<g clip-path="url(#clip0_1205_906)">
<path d="M28.4537 27.341C28.1201 27.0033 27.58 26.9934 27.2289 27.3186C27.2289 27.3186 24.7227 29.7711 24.5568 29.9245C24.5157 29.9652 24.4705 29.9973 24.4189 30.0234C21.8127 31.3434 12.4055 21.2719 14.2001 19.3781L16.8817 16.7504C17.2292 16.4085 17.2306 15.8499 16.8938 15.5092L8.11731 6.5598C7.95488 6.39334 7.73176 6.29874 7.49911 6.2969C7.26555 6.29507 7.04335 6.38692 6.87578 6.54917C2.48091 10.8636 -4.5644 15.2023 11.8945 31.99C28.1384 48.5558 32.7953 42.2775 37.2787 37.4561C37.6008 37.1112 37.592 36.575 37.2631 36.2395L28.4537 27.341Z" stroke="#258D78" stroke-miterlimit="10" stroke-linecap="round" stroke-linejoin="round"/>
<path d="M36.0778 20.7967C36.3147 13.5896 30.4544 7.74113 23.2588 7.97763" stroke="#258D78" stroke-miterlimit="10" stroke-linecap="round" stroke-linejoin="round"/>
<path d="M42.2919 20.7975C42.5247 10.1653 33.9017 1.53118 23.2588 1.76438" stroke="#258D78" stroke-miterlimit="10" stroke-linecap="round" stroke-linejoin="round"/>
<path d="M23.2588 14.1936C27.018 13.9462 30.1109 17.0415 29.8636 20.7983" stroke="#258D78" stroke-miterlimit="10" stroke-linecap="round" stroke-linejoin="round"/>
</g>
<defs>
<clipPath id="clip0_1205_906">
<rect width="44" height="44" fill="white"/>
</clipPath>
</defs>
</svg>
