<svg width="57" height="56" viewBox="0 0 57 56" fill="none" xmlns="http://www.w3.org/2000/svg">
<g clip-path="url(#clip0_1129_1688)">
<path d="M5.96875 0H51.0312C54.0515 0 56.5 2.44847 56.5 5.46875V50.5312C56.5 53.5515 54.0515 56 51.0312 56H5.96875C2.94847 56 0.5 53.5515 0.5 50.5312V5.46875C0.5 2.44847 2.94847 0 5.96875 0Z" fill="#3178C6"/>
<path d="M5.96875 0H51.0312C54.0515 0 56.5 2.44847 56.5 5.46875V50.5312C56.5 53.5515 54.0515 56 51.0312 56H5.96875C2.94847 56 0.5 53.5515 0.5 50.5312V5.46875C0.5 2.44847 2.94847 0 5.96875 0Z" fill="#3178C6"/>
<path fill-rule="evenodd" clip-rule="evenodd" d="M35.1652 44.562V50.0374C36.0553 50.4937 37.108 50.8359 38.3234 51.064C39.5388 51.2922 40.8197 51.4062 42.1663 51.4062C44.4871 51.4062 47.0278 51.0743 49.0134 49.7892C50.9891 48.5105 51.9062 46.3833 51.9062 44.0829C51.9062 42.3726 51.3757 40.7269 50.1774 39.4803C48.3804 37.611 45.8553 36.8529 43.587 35.7416C42.4507 35.1848 40.8825 34.3206 40.8825 32.8583C40.8825 32.482 40.9795 32.1427 41.1735 31.8404C41.9536 30.6249 43.6862 30.3774 45.0079 30.3774C46.5082 30.3774 48.091 30.7133 49.4841 31.3355C49.9691 31.5523 50.417 31.8032 50.8278 32.0884V26.9723C49.9948 26.6529 49.0847 26.4162 48.0976 26.2622C47.1105 26.1082 45.9778 26.0312 44.6997 26.0312C43.3987 26.0312 42.1663 26.171 41.0023 26.4505C39.8384 26.7299 38.8142 27.1662 37.9297 27.7594C37.0452 28.3526 36.3463 29.1083 35.8328 30.0266C35.3193 30.9448 35.0625 32.0427 35.0625 33.3203C35.0625 34.9515 35.5332 36.3432 36.4747 37.4954C37.4161 38.6474 38.8455 39.6227 40.7627 40.4213C42.0524 40.9487 43.3935 41.4692 44.5542 42.2521C45.3586 42.7946 46.0862 43.5512 46.0862 44.5791C46.0862 45.3251 45.6644 45.9576 45.0506 46.3501C44.1425 46.9306 42.9795 47.0601 41.9265 47.0601C40.7397 47.0601 39.5644 46.852 38.4003 46.4356C37.2364 46.0193 36.158 45.3948 35.1652 44.562ZM25.9603 31.0715H32.9844V26.5781H13.4062V31.0715H20.396V51.0781H25.9603V31.0715Z" fill="white"/>
</g>
<defs>
<clipPath id="clip0_1129_1688">
<rect width="56" height="56" fill="white" transform="translate(0.5)"/>
</clipPath>
</defs>
</svg>
