<svg width="73" height="22" viewBox="0 0 73 22" fill="none" xmlns="http://www.w3.org/2000/svg">
<g clip-path="url(#clip0_1224_94)">
<path d="M20.0144 14.0313C18.8347 14.0313 17.7293 13.5491 16.725 12.7642L16.9696 11.6562L16.9802 11.6151C17.198 10.4353 17.8888 8.45503 20.0144 8.45503C21.6085 8.45503 22.9051 9.7068 22.9051 11.2457C22.8997 12.7795 21.6032 14.0313 20.0144 14.0313ZM20.0144 5.62849C17.2989 5.62849 15.1948 7.33164 14.3393 10.1326C13.0321 8.2396 12.0436 5.9671 11.4645 4.05359H8.54192V11.3945C8.54192 12.8411 7.31972 14.0209 5.82121 14.0209C4.3227 14.0209 3.10064 12.8411 3.10064 11.3945V4.05359H0.177768V11.3945C0.167135 14.4007 2.70184 16.8681 5.81568 16.8681C8.92966 16.8681 11.4644 14.4007 11.4644 11.3945V10.1634C12.0329 11.3073 12.729 12.4615 13.5739 13.4876L11.7831 21.6132H14.7748L16.0713 15.719C17.2085 16.4218 18.5157 16.8631 20.0142 16.8631C23.2184 16.8631 25.8275 14.3289 25.8275 11.2354C25.8275 8.14722 23.2185 5.62849 20.0144 5.62849Z" fill="#6FDA44"/>
<path d="M34.7483 5.94661L36.6347 13.2875L38.7125 5.94661H41.1886L37.9951 16.5553H35.5188L33.5582 9.16814L31.6026 16.5501H29.1264L25.9326 5.94155H28.4089L30.4866 13.2824L32.373 5.94155H34.7482V5.94675L34.7483 5.94661ZM47.1135 5.62854C43.8987 5.62854 41.295 8.14726 41.295 11.2457C41.295 14.3494 43.904 16.8631 47.1135 16.8631C50.3284 16.8631 52.9374 14.3494 52.9374 11.2457C52.9374 8.1422 50.3284 5.62854 47.1135 5.62854ZM47.1135 14.5546C45.2219 14.5546 43.6915 13.0771 43.6915 11.2509C43.6915 9.42462 45.2271 7.9473 47.1135 7.9473C49.0053 7.9473 50.5356 9.42462 50.5356 11.2509C50.5356 13.0721 49.0053 14.5546 47.1135 14.5546ZM60.0101 8.32176C58.347 8.32176 57.0025 9.62472 57.0025 11.2252V16.5501H54.5102V5.94661H57.0025V7.5779C57.0025 7.5779 58.0653 5.94141 60.2492 5.94141H61.0144V8.32176H60.0101ZM68.3741 10.8354C70.1434 9.87094 71.3444 8.03955 71.3444 5.94141H68.8521C68.8521 7.71121 67.3644 9.14761 65.5312 9.14761H65.1963V0.826904H62.7043V16.5499H65.1963V11.5536H65.494C65.7384 11.5536 66.0573 11.7075 66.2007 11.8972L69.7396 16.5501H72.726L68.3741 10.8354Z" fill="black"/>
</g>
<defs>
<clipPath id="clip0_1224_94">
<rect width="72.5932" height="20.9403" fill="white" transform="translate(0.147461 0.806335)"/>
</clipPath>
</defs>
</svg>
