<svg width="539" height="318" viewBox="0 0 539 318" fill="none" xmlns="http://www.w3.org/2000/svg">
<path d="M490.157 -67.8447H488.649V337H490.157V-67.8447Z" fill="url(#paint0_linear_1186_165)" fill-opacity="0.17"/>
<path d="M378.995 -67.8447H377.851V336.923H378.995V-67.8447Z" fill="url(#paint1_linear_1186_165)" fill-opacity="0.17"/>
<path d="M267.838 -91H266.694V336.923H267.838V-91Z" fill="url(#paint2_linear_1186_165)" fill-opacity="0.17"/>
<path d="M156.681 -91H155.537V336.923H156.681V-91Z" fill="url(#paint3_linear_1186_165)" fill-opacity="0.17"/>
<path d="M42.983 -91H42.2289V337H42.983V-91Z" fill="url(#paint4_linear_1186_165)" fill-opacity="0.17"/>
<path d="M539 309.824H0V310.993H539V309.824Z" fill="url(#paint5_linear_1186_165)" fill-opacity="0.17"/>
<path d="M539 230.426H0V231.595H539V230.426Z" fill="url(#paint6_linear_1186_165)" fill-opacity="0.17"/>
<path d="M539 151.028H0V152.197H539V151.028Z" fill="url(#paint7_linear_1186_165)" fill-opacity="0.17"/>
<path d="M539 69.0271H0V70.1962H539V69.0271Z" fill="url(#paint8_linear_1186_165)" fill-opacity="0.17"/>
<path d="M539 -12.9817H0V-11.8126H539V-12.9817Z" fill="url(#paint9_linear_1186_165)" fill-opacity="0.17"/>
<defs>
<linearGradient id="paint0_linear_1186_165" x1="135.268" y1="223.464" x2="360.205" y2="31.6989" gradientUnits="userSpaceOnUse">
<stop stop-color="#054235"/>
<stop offset="0.430949" stop-color="#0DA888"/>
<stop offset="1" stop-color="#064739"/>
</linearGradient>
<linearGradient id="paint1_linear_1186_165" x1="135.268" y1="223.464" x2="360.205" y2="31.6989" gradientUnits="userSpaceOnUse">
<stop stop-color="#054235"/>
<stop offset="0.430949" stop-color="#0DA888"/>
<stop offset="1" stop-color="#064739"/>
</linearGradient>
<linearGradient id="paint2_linear_1186_165" x1="135.268" y1="223.464" x2="360.205" y2="31.6989" gradientUnits="userSpaceOnUse">
<stop stop-color="#054235"/>
<stop offset="0.430949" stop-color="#0DA888"/>
<stop offset="1" stop-color="#064739"/>
</linearGradient>
<linearGradient id="paint3_linear_1186_165" x1="135.268" y1="223.464" x2="360.205" y2="31.6989" gradientUnits="userSpaceOnUse">
<stop stop-color="#054235"/>
<stop offset="0.430949" stop-color="#0DA888"/>
<stop offset="1" stop-color="#064739"/>
</linearGradient>
<linearGradient id="paint4_linear_1186_165" x1="135.268" y1="223.464" x2="360.205" y2="31.6989" gradientUnits="userSpaceOnUse">
<stop stop-color="#054235"/>
<stop offset="0.430949" stop-color="#0DA888"/>
<stop offset="1" stop-color="#064739"/>
</linearGradient>
<linearGradient id="paint5_linear_1186_165" x1="135.268" y1="223.464" x2="360.205" y2="31.6989" gradientUnits="userSpaceOnUse">
<stop stop-color="#054235"/>
<stop offset="0.430949" stop-color="#0DA888"/>
<stop offset="1" stop-color="#064739"/>
</linearGradient>
<linearGradient id="paint6_linear_1186_165" x1="135.268" y1="223.464" x2="360.205" y2="31.6989" gradientUnits="userSpaceOnUse">
<stop stop-color="#054235"/>
<stop offset="0.430949" stop-color="#0DA888"/>
<stop offset="1" stop-color="#064739"/>
</linearGradient>
<linearGradient id="paint7_linear_1186_165" x1="135.268" y1="223.464" x2="360.205" y2="31.6989" gradientUnits="userSpaceOnUse">
<stop stop-color="#054235"/>
<stop offset="0.430949" stop-color="#0DA888"/>
<stop offset="1" stop-color="#064739"/>
</linearGradient>
<linearGradient id="paint8_linear_1186_165" x1="135.268" y1="223.464" x2="360.205" y2="31.6989" gradientUnits="userSpaceOnUse">
<stop stop-color="#054235"/>
<stop offset="0.430949" stop-color="#0DA888"/>
<stop offset="1" stop-color="#064739"/>
</linearGradient>
<linearGradient id="paint9_linear_1186_165" x1="135.268" y1="223.464" x2="360.205" y2="31.6989" gradientUnits="userSpaceOnUse">
<stop stop-color="#054235"/>
<stop offset="0.430949" stop-color="#0DA888"/>
<stop offset="1" stop-color="#064739"/>
</linearGradient>
</defs>
</svg>
