<svg width="22" height="18" viewBox="0 0 22 18" fill="none" xmlns="http://www.w3.org/2000/svg">
<path d="M19.7975 0.870117H2.2033C1.17008 0.870117 0.327148 1.71214 0.327148 2.74627V15.254C0.327148 16.2846 1.16633 17.1301 2.2033 17.1301H19.7975C20.8281 17.1301 21.6736 16.2909 21.6736 15.254V2.74627C21.6736 1.71564 20.8344 0.870117 19.7975 0.870117ZM19.5384 2.12089L11.0402 10.6192L2.46842 2.12089H19.5384ZM1.57792 14.995V2.9993L7.60158 8.97131L1.57792 14.995ZM2.46234 15.8793L8.48979 9.85189L10.6018 11.9458C10.8463 12.1882 11.2408 12.1874 11.4843 11.9438L13.5436 9.88454L19.5384 15.8793H2.46234ZM20.4228 14.9949L14.428 9.00012L20.4228 3.00526V14.9949Z" fill="#F2CC4D"/>
</svg>
