<svg width="1223" height="243" viewBox="0 0 1223 243" fill="none" xmlns="http://www.w3.org/2000/svg">
<path d="M919.636 233.361C916.574 234.058 913.542 234.706 910.54 235.306C910.44 235.329 910.337 235.331 910.236 235.312C910.135 235.294 910.039 235.255 909.953 235.199C909.868 235.142 909.795 235.068 909.739 234.983C909.683 234.897 909.645 234.8 909.627 234.699C909.599 234.499 909.646 234.296 909.757 234.128C909.869 233.96 910.038 233.838 910.234 233.786C913.219 233.189 916.236 232.545 919.208 231.869C919.409 231.822 919.62 231.854 919.799 231.957C919.977 232.061 920.109 232.229 920.168 232.426C920.197 232.524 920.207 232.626 920.196 232.727C920.185 232.828 920.154 232.926 920.104 233.015C920.054 233.103 919.987 233.181 919.907 233.244C919.826 233.306 919.734 233.351 919.636 233.377L919.636 233.361ZM928.674 231.178C928.575 231.202 928.473 231.206 928.372 231.19C928.272 231.174 928.176 231.139 928.089 231.086C927.914 230.979 927.789 230.806 927.741 230.607C927.694 230.408 927.727 230.198 927.834 230.023C927.941 229.848 928.113 229.723 928.313 229.675C931.288 228.913 934.301 228.1 937.265 227.251C937.461 227.2 937.671 227.227 937.848 227.326C938.026 227.424 938.159 227.588 938.219 227.782C938.249 227.88 938.259 227.983 938.248 228.085C938.237 228.187 938.206 228.285 938.156 228.375C938.106 228.464 938.038 228.542 937.957 228.604C937.876 228.667 937.783 228.712 937.684 228.737C934.709 229.585 931.684 230.4 928.695 231.169L928.674 231.178ZM901.435 236.985L901.387 236.996C898.356 237.514 895.268 238 892.206 238.448C892.105 238.465 892.002 238.462 891.902 238.438C891.803 238.414 891.709 238.37 891.627 238.309C891.545 238.248 891.477 238.171 891.425 238.083C891.374 237.994 891.341 237.896 891.328 237.795C891.311 237.694 891.315 237.59 891.339 237.49C891.363 237.391 891.407 237.297 891.468 237.215C891.53 237.132 891.607 237.064 891.696 237.012C891.785 236.961 891.884 236.929 891.986 236.917C895.034 236.475 898.106 235.99 901.125 235.47C901.326 235.43 901.535 235.471 901.706 235.585C901.876 235.699 901.995 235.876 902.035 236.077C902.075 236.278 902.033 236.487 901.919 236.658C901.805 236.828 901.628 236.947 901.427 236.987L901.435 236.985ZM946.547 226.094C946.349 226.147 946.138 226.12 945.96 226.017C945.782 225.915 945.652 225.746 945.599 225.548C945.546 225.35 945.573 225.139 945.676 224.961C945.778 224.783 945.947 224.653 946.145 224.6C949.074 223.686 952.042 222.72 954.957 221.728C955.151 221.662 955.363 221.675 955.548 221.766C955.732 221.856 955.872 222.016 955.939 222.21C956.005 222.404 955.991 222.617 955.901 222.801C955.81 222.985 955.65 223.126 955.456 223.192C952.526 224.188 949.549 225.159 946.609 226.076L946.547 226.094ZM883.083 239.643L882.995 239.663C879.944 240.023 876.836 240.354 873.756 240.64C873.655 240.652 873.552 240.643 873.453 240.613C873.355 240.584 873.264 240.535 873.185 240.47C873.107 240.405 873.042 240.324 872.996 240.233C872.949 240.141 872.921 240.042 872.915 239.94C872.903 239.838 872.912 239.736 872.941 239.638C872.97 239.54 873.019 239.449 873.084 239.371C873.149 239.292 873.229 239.228 873.32 239.181C873.41 239.134 873.51 239.106 873.611 239.099C876.68 238.816 879.773 238.473 882.812 238.127C883.014 238.092 883.221 238.138 883.389 238.256C883.556 238.374 883.67 238.553 883.705 238.755C883.74 238.957 883.694 239.164 883.576 239.332C883.458 239.499 883.278 239.613 883.077 239.648L883.083 239.643ZM964.127 220.111C963.931 220.169 963.72 220.147 963.54 220.049C963.361 219.952 963.227 219.787 963.169 219.591C963.111 219.395 963.134 219.184 963.231 219.004C963.329 218.825 963.494 218.691 963.69 218.633C966.555 217.594 969.47 216.462 972.34 215.325C972.433 215.288 972.533 215.269 972.634 215.27C972.734 215.272 972.833 215.293 972.926 215.332C973.018 215.372 973.102 215.429 973.172 215.501C973.242 215.573 973.297 215.659 973.335 215.752C973.372 215.845 973.39 215.945 973.389 216.045C973.388 216.146 973.367 216.245 973.327 216.337C973.287 216.43 973.23 216.513 973.158 216.584C973.086 216.654 973.001 216.709 972.907 216.746C970.027 217.89 967.102 219.008 964.222 220.07L964.127 220.111ZM864.619 241.361C864.58 241.374 864.541 241.383 864.501 241.388C861.446 241.594 858.307 241.773 855.221 241.909C855.017 241.918 854.818 241.845 854.668 241.708C854.518 241.57 854.429 241.378 854.42 241.175C854.411 240.971 854.484 240.772 854.621 240.622C854.759 240.472 854.951 240.382 855.155 240.374C858.226 240.241 861.342 240.064 864.397 239.857C864.599 239.827 864.805 239.879 864.97 240C865.134 240.122 865.243 240.304 865.274 240.507C865.304 240.709 865.252 240.915 865.13 241.079C865.008 241.244 864.826 241.353 864.624 241.383L864.619 241.361ZM981.377 213.258C981.185 213.321 980.977 213.305 980.798 213.214C980.618 213.122 980.482 212.964 980.419 212.772C980.357 212.581 980.373 212.373 980.464 212.193C980.555 212.013 980.714 211.877 980.905 211.815C983.734 210.613 986.574 209.363 989.365 208.096C989.457 208.052 989.557 208.026 989.66 208.021C989.762 208.017 989.864 208.032 989.96 208.068C990.056 208.104 990.143 208.159 990.217 208.23C990.291 208.3 990.35 208.385 990.39 208.48C990.474 208.667 990.481 208.88 990.408 209.072C990.336 209.264 990.19 209.42 990.004 209.506C987.192 210.781 984.318 212.039 981.493 213.24L981.377 213.258ZM846.078 242.163C846.028 242.18 845.976 242.192 845.923 242.198C842.836 242.264 839.739 242.286 836.636 242.279C836.534 242.279 836.433 242.259 836.339 242.22C836.245 242.181 836.16 242.124 836.088 242.052C836.016 241.98 835.959 241.894 835.92 241.8C835.881 241.706 835.861 241.605 835.861 241.503C835.861 241.402 835.881 241.301 835.92 241.207C835.959 241.113 836.016 241.027 836.088 240.955C836.16 240.883 836.245 240.826 836.339 240.787C836.434 240.748 836.534 240.728 836.636 240.728C839.738 240.728 842.835 240.706 845.899 240.641C846.099 240.617 846.3 240.673 846.459 240.797C846.618 240.921 846.721 241.103 846.745 241.303C846.77 241.504 846.714 241.705 846.589 241.864C846.465 242.023 846.283 242.125 846.083 242.15L846.078 242.163ZM998.283 205.611C998.093 205.678 997.884 205.666 997.702 205.579C997.52 205.492 997.38 205.336 997.313 205.145C997.246 204.955 997.258 204.746 997.345 204.564C997.432 204.382 997.588 204.242 997.779 204.175C1000.54 202.845 1003.33 201.462 1006.07 200.064C1006.16 200.018 1006.26 199.99 1006.36 199.983C1006.47 199.975 1006.57 199.987 1006.67 200.019C1006.76 200.051 1006.85 200.102 1006.93 200.168C1007.01 200.235 1007.07 200.316 1007.12 200.407C1007.17 200.499 1007.19 200.598 1007.2 200.7C1007.21 200.802 1007.2 200.905 1007.16 201.002C1007.13 201.099 1007.08 201.189 1007.01 201.267C1006.95 201.345 1006.87 201.408 1006.78 201.455C1004.03 202.855 1001.23 204.244 998.451 205.58C998.396 205.607 998.339 205.628 998.279 205.643L998.283 205.611ZM827.523 242.118C827.461 242.132 827.397 242.139 827.334 242.138C824.239 242.067 821.141 241.959 818.04 241.814C817.834 241.804 817.641 241.714 817.503 241.562C817.364 241.41 817.292 241.21 817.301 241.005C817.311 240.8 817.401 240.607 817.553 240.468C817.705 240.33 817.905 240.257 818.11 240.267C821.198 240.409 824.285 240.518 827.37 240.591C827.571 240.571 827.771 240.632 827.928 240.76C828.084 240.888 828.183 241.073 828.203 241.274C828.223 241.475 828.163 241.676 828.035 241.832C827.907 241.988 827.722 242.087 827.521 242.107L827.523 242.118ZM1014.81 197.202C1014.64 197.24 1014.47 197.223 1014.31 197.153C1014.15 197.082 1014.03 196.963 1013.94 196.813C1013.89 196.724 1013.86 196.626 1013.85 196.524C1013.84 196.423 1013.85 196.32 1013.88 196.223C1013.91 196.125 1013.96 196.034 1014.02 195.956C1014.09 195.878 1014.17 195.814 1014.26 195.768C1016.98 194.305 1019.68 192.815 1022.36 191.297C1022.45 191.247 1022.55 191.214 1022.65 191.202C1022.75 191.19 1022.86 191.198 1022.96 191.225C1023.06 191.253 1023.15 191.299 1023.23 191.363C1023.31 191.426 1023.38 191.505 1023.43 191.594C1023.48 191.683 1023.51 191.782 1023.52 191.883C1023.53 191.985 1023.53 192.089 1023.5 192.187C1023.47 192.286 1023.42 192.378 1023.36 192.459C1023.3 192.54 1023.22 192.607 1023.13 192.658C1020.44 194.18 1017.73 195.675 1015 197.142C1014.94 197.18 1014.87 197.208 1014.8 197.226L1014.81 197.202ZM808.981 241.296C808.908 241.312 808.834 241.317 808.76 241.312C805.668 241.108 802.578 240.872 799.488 240.606C799.283 240.589 799.094 240.491 798.962 240.334C798.829 240.178 798.765 239.975 798.782 239.77C798.799 239.566 798.897 239.377 799.054 239.244C799.211 239.112 799.414 239.047 799.618 239.065C802.7 239.33 805.782 239.565 808.863 239.769C809.065 239.753 809.265 239.818 809.419 239.95C809.573 240.082 809.668 240.27 809.683 240.472C809.699 240.674 809.634 240.874 809.502 241.028C809.37 241.182 809.182 241.277 808.98 241.292L808.981 241.296ZM1030.94 188.072C1030.75 188.147 1030.54 188.144 1030.35 188.064C1030.17 187.984 1030.02 187.833 1029.94 187.645C1029.87 187.456 1029.87 187.245 1029.95 187.059C1030.03 186.872 1030.18 186.725 1030.37 186.65C1033.02 185.073 1035.66 183.47 1038.28 181.841C1038.45 181.732 1038.66 181.697 1038.86 181.744C1039.06 181.79 1039.23 181.914 1039.34 182.088C1039.45 182.263 1039.49 182.473 1039.44 182.673C1039.39 182.873 1039.27 183.046 1039.09 183.155C1036.46 184.787 1033.82 186.395 1031.16 187.978C1031.09 188.03 1031.02 188.07 1030.93 188.096L1030.94 188.072ZM790.494 239.725C790.411 239.743 790.326 239.748 790.241 239.74C787.162 239.406 784.082 239.054 781.002 238.682C780.798 238.657 780.613 238.552 780.486 238.39C780.36 238.228 780.303 238.023 780.328 237.819C780.354 237.616 780.459 237.43 780.62 237.304C780.782 237.178 780.988 237.121 781.191 237.146C784.248 237.529 787.314 237.887 790.388 238.222C790.489 238.216 790.589 238.229 790.685 238.262C790.78 238.295 790.867 238.346 790.943 238.413C791.018 238.48 791.079 238.561 791.124 238.651C791.168 238.742 791.193 238.84 791.199 238.94C791.205 239.041 791.192 239.141 791.159 239.236C791.126 239.332 791.075 239.419 791.008 239.495C790.941 239.57 790.86 239.631 790.77 239.675C790.679 239.719 790.581 239.745 790.48 239.751L790.494 239.725ZM1046.69 178.303C1046.5 178.382 1046.29 178.383 1046.1 178.306C1045.91 178.229 1045.76 178.08 1045.68 177.892C1045.61 177.705 1045.6 177.493 1045.68 177.305C1045.76 177.117 1045.91 176.967 1046.1 176.888C1048.68 175.207 1051.25 173.5 1053.8 171.767C1053.97 171.652 1054.18 171.609 1054.38 171.647C1054.58 171.686 1054.76 171.803 1054.88 171.972C1054.99 172.142 1055.03 172.35 1055 172.552C1054.96 172.753 1054.84 172.931 1054.67 173.046C1052.11 174.784 1049.52 176.497 1046.92 178.185C1046.85 178.241 1046.76 178.283 1046.67 178.308L1046.69 178.303ZM772.058 237.444C771.968 237.465 771.874 237.469 771.782 237.457C768.713 237.023 765.646 236.557 762.582 236.06C762.379 236.028 762.198 235.917 762.078 235.751C761.958 235.586 761.908 235.379 761.941 235.177C761.973 234.975 762.084 234.794 762.25 234.673C762.415 234.553 762.622 234.504 762.824 234.536C765.881 235.019 768.937 235.478 771.993 235.912C772.197 235.904 772.395 235.976 772.546 236.114C772.696 236.252 772.785 236.443 772.794 236.647C772.803 236.85 772.73 237.049 772.592 237.2C772.455 237.35 772.263 237.439 772.059 237.448L772.058 237.444ZM1062.02 167.922C1061.84 167.961 1061.66 167.939 1061.5 167.859C1061.34 167.779 1061.21 167.646 1061.14 167.483C1061.06 167.32 1061.05 167.137 1061.1 166.964C1061.14 166.791 1061.25 166.64 1061.39 166.536C1063.91 164.759 1066.42 162.957 1068.9 161.13C1069.07 161.009 1069.28 160.958 1069.48 160.989C1069.68 161.02 1069.86 161.13 1069.98 161.296C1070.11 161.461 1070.16 161.667 1070.13 161.87C1070.09 162.072 1069.98 162.255 1069.82 162.376C1067.32 164.207 1064.81 166.015 1062.29 167.798C1062.21 167.857 1062.11 167.899 1062.02 167.922ZM753.707 234.547C753.607 234.57 753.504 234.573 753.403 234.554C750.353 234.021 747.305 233.46 744.258 232.874C744.057 232.836 743.879 232.719 743.763 232.549C743.648 232.379 743.605 232.171 743.643 231.969C743.682 231.768 743.799 231.59 743.969 231.475C744.138 231.359 744.347 231.316 744.548 231.355C747.589 231.94 750.63 232.499 753.669 233.032C753.769 233.03 753.868 233.047 753.961 233.083C754.054 233.118 754.139 233.172 754.211 233.241C754.283 233.309 754.341 233.391 754.381 233.482C754.421 233.573 754.444 233.671 754.446 233.771C754.449 233.87 754.431 233.969 754.396 234.062C754.36 234.155 754.306 234.24 754.238 234.312C754.169 234.384 754.087 234.442 753.996 234.482C753.905 234.523 753.807 234.545 753.707 234.547ZM1076.95 156.944C1076.77 157.014 1076.57 157.013 1076.4 156.942C1076.22 156.871 1076.07 156.734 1075.99 156.561C1075.91 156.387 1075.9 156.188 1075.96 156.006C1076.02 155.823 1076.14 155.67 1076.31 155.578C1078.76 153.707 1081.2 151.816 1083.62 149.903C1083.7 149.841 1083.79 149.794 1083.89 149.766C1083.99 149.739 1084.09 149.73 1084.19 149.742C1084.29 149.754 1084.39 149.786 1084.48 149.835C1084.56 149.885 1084.64 149.951 1084.71 150.031C1084.77 150.11 1084.82 150.201 1084.84 150.299C1084.87 150.397 1084.88 150.499 1084.87 150.6C1084.85 150.7 1084.82 150.798 1084.77 150.886C1084.72 150.975 1084.66 151.053 1084.58 151.116C1082.15 153.038 1079.71 154.935 1077.25 156.806C1077.16 156.87 1077.06 156.916 1076.95 156.94L1076.95 156.944ZM735.466 231.04C735.358 231.065 735.246 231.065 735.137 231.041C732.104 230.413 729.075 229.762 726.05 229.088C725.95 229.069 725.854 229.03 725.769 228.973C725.684 228.916 725.611 228.843 725.555 228.757C725.499 228.671 725.462 228.574 725.444 228.473C725.427 228.372 725.43 228.269 725.454 228.169C725.497 227.968 725.619 227.792 725.792 227.68C725.965 227.568 726.175 227.529 726.376 227.572C729.396 228.244 732.418 228.894 735.443 229.522C735.643 229.52 735.837 229.598 735.98 229.738C736.123 229.879 736.204 230.07 736.206 230.271C736.208 230.471 736.13 230.664 735.99 230.808C735.849 230.951 735.658 231.032 735.457 231.034L735.466 231.04ZM1091.49 145.454C1091.31 145.523 1091.12 145.522 1090.94 145.453C1090.77 145.384 1090.62 145.251 1090.54 145.081C1090.46 144.911 1090.44 144.716 1090.49 144.534C1090.55 144.353 1090.67 144.198 1090.83 144.101C1093.22 142.15 1095.59 140.177 1097.95 138.184C1098.1 138.052 1098.3 137.987 1098.51 138.004C1098.61 138.013 1098.71 138.041 1098.8 138.088C1098.89 138.134 1098.97 138.198 1099.03 138.276C1099.1 138.353 1099.15 138.443 1099.18 138.539C1099.21 138.636 1099.22 138.738 1099.21 138.839C1099.21 138.94 1099.18 139.038 1099.13 139.129C1099.08 139.219 1099.02 139.299 1098.94 139.364C1096.58 141.362 1094.2 143.341 1091.81 145.301C1091.72 145.375 1091.61 145.427 1091.49 145.454ZM717.334 227.008C717.219 227.035 717.1 227.034 716.985 227.006C713.98 226.294 710.969 225.557 707.952 224.796C707.854 224.772 707.762 224.728 707.68 224.667C707.599 224.607 707.53 224.531 707.478 224.444C707.426 224.357 707.392 224.261 707.377 224.16C707.363 224.06 707.368 223.958 707.393 223.86C707.417 223.761 707.461 223.669 707.522 223.588C707.582 223.506 707.658 223.438 707.745 223.386C707.832 223.334 707.928 223.299 708.029 223.284C708.129 223.27 708.231 223.275 708.329 223.3C711.33 224.046 714.333 224.777 717.338 225.491C717.526 225.51 717.7 225.597 717.826 225.737C717.953 225.877 718.022 226.059 718.022 226.247C718.021 226.435 717.95 226.617 717.822 226.755C717.694 226.894 717.52 226.98 717.332 226.997L717.334 227.008ZM1105.66 133.502C1105.49 133.57 1105.3 133.572 1105.12 133.506C1104.95 133.44 1104.8 133.312 1104.72 133.146C1104.63 132.98 1104.61 132.788 1104.66 132.608C1104.7 132.427 1104.82 132.27 1104.97 132.167C1107.29 130.138 1109.6 128.091 1111.9 126.027C1111.97 125.959 1112.06 125.906 1112.15 125.872C1112.25 125.838 1112.35 125.823 1112.45 125.828C1112.55 125.833 1112.65 125.859 1112.75 125.902C1112.84 125.946 1112.92 126.007 1112.99 126.082C1113.06 126.158 1113.11 126.246 1113.14 126.342C1113.18 126.437 1113.19 126.539 1113.19 126.64C1113.18 126.741 1113.16 126.841 1113.11 126.933C1113.07 127.024 1113.01 127.107 1112.93 127.175C1110.63 129.248 1108.32 131.302 1105.99 133.335C1105.89 133.411 1105.77 133.463 1105.65 133.486L1105.66 133.502ZM699.326 222.494C699.204 222.523 699.077 222.521 698.956 222.489C695.962 221.702 692.973 220.895 689.988 220.067C689.79 220.013 689.623 219.882 689.521 219.704C689.42 219.526 689.394 219.316 689.448 219.118C689.503 218.921 689.633 218.753 689.811 218.652C689.989 218.551 690.2 218.524 690.397 218.579C693.378 219.4 696.363 220.204 699.352 220.992C699.541 221.013 699.715 221.104 699.84 221.247C699.965 221.391 700.031 221.576 700.026 221.766C700.02 221.956 699.943 222.137 699.81 222.273C699.676 222.409 699.497 222.489 699.307 222.499L699.326 222.494ZM1119.43 121.065C1119.26 121.119 1119.08 121.111 1118.91 121.043C1118.75 120.975 1118.61 120.851 1118.53 120.694C1118.45 120.536 1118.42 120.354 1118.46 120.181C1118.5 120.007 1118.6 119.853 1118.74 119.745C1121 117.647 1123.25 115.529 1125.48 113.391C1125.62 113.249 1125.82 113.171 1126.03 113.175C1126.23 113.18 1126.43 113.265 1126.57 113.413C1126.71 113.561 1126.79 113.76 1126.79 113.965C1126.78 114.17 1126.7 114.365 1126.55 114.508C1124.31 116.65 1122.06 118.773 1119.79 120.878C1119.69 120.977 1119.56 121.045 1119.42 121.074L1119.43 121.065ZM681.44 217.569C681.311 217.598 681.177 217.594 681.05 217.557C678.071 216.699 675.1 215.825 672.136 214.933C672.038 214.905 671.946 214.859 671.866 214.795C671.786 214.731 671.719 214.652 671.671 214.561C671.623 214.471 671.593 214.372 671.584 214.271C671.575 214.169 671.587 214.066 671.619 213.969C671.646 213.871 671.693 213.779 671.756 213.7C671.82 213.62 671.899 213.554 671.989 213.506C672.078 213.458 672.177 213.428 672.278 213.419C672.38 213.409 672.482 213.421 672.579 213.452C675.539 214.329 678.505 215.205 681.478 216.08C681.675 216.136 681.842 216.269 681.941 216.448C682.041 216.627 682.065 216.839 682.009 217.036C681.968 217.168 681.893 217.286 681.792 217.379C681.69 217.472 681.566 217.537 681.432 217.567L681.44 217.569ZM1132.84 108.254C1132.67 108.309 1132.49 108.304 1132.33 108.239C1132.17 108.174 1132.03 108.054 1131.94 107.9C1131.86 107.745 1131.83 107.566 1131.86 107.393C1131.9 107.22 1131.99 107.064 1132.13 106.952C1134.33 104.785 1136.51 102.608 1138.68 100.422C1138.75 100.349 1138.84 100.292 1138.93 100.252C1139.03 100.212 1139.13 100.191 1139.23 100.191C1139.33 100.19 1139.43 100.209 1139.53 100.247C1139.62 100.285 1139.71 100.342 1139.78 100.413C1139.85 100.484 1139.91 100.569 1139.95 100.663C1139.99 100.756 1140.01 100.857 1140.01 100.959C1140.01 101.06 1139.99 101.161 1139.95 101.255C1139.92 101.35 1139.86 101.435 1139.79 101.508C1137.61 103.714 1135.42 105.9 1133.21 108.069C1133.11 108.168 1132.97 108.232 1132.82 108.255L1132.84 108.254ZM663.672 212.237C663.542 212.265 663.406 212.259 663.28 212.218C660.321 211.301 657.37 210.369 654.428 209.42C654.232 209.358 654.07 209.22 653.976 209.038C653.883 208.856 653.865 208.644 653.927 208.449C653.99 208.254 654.128 208.091 654.31 207.998C654.492 207.904 654.704 207.886 654.899 207.949C657.841 208.892 660.788 209.823 663.739 210.741C663.915 210.776 664.073 210.872 664.185 211.012C664.297 211.152 664.356 211.328 664.35 211.508C664.344 211.687 664.274 211.859 664.153 211.992C664.033 212.124 663.868 212.21 663.69 212.233L663.672 212.237ZM1145.88 95.0568C1145.71 95.1114 1145.53 95.1065 1145.37 95.0432C1145.2 94.9799 1145.07 94.8621 1144.98 94.7097C1144.9 94.5573 1144.87 94.3799 1144.9 94.2076C1144.93 94.0354 1145.02 93.8789 1145.15 93.765C1147.29 91.5371 1149.41 89.2965 1151.53 87.0431C1151.67 86.8935 1151.86 86.8057 1152.07 86.7991C1152.27 86.7925 1152.47 86.8675 1152.62 87.0077C1152.77 87.148 1152.86 87.3419 1152.86 87.5468C1152.87 87.7517 1152.79 87.9509 1152.65 88.1005C1150.54 90.3594 1148.41 92.6051 1146.26 94.8376C1146.15 94.9522 1146.01 95.0303 1145.86 95.061L1145.88 95.0568ZM646.008 206.564C645.871 206.596 645.727 206.59 645.593 206.546C642.652 205.571 639.714 204.588 636.78 203.596C636.585 203.53 636.425 203.389 636.335 203.205C636.244 203.02 636.23 202.807 636.297 202.613C636.363 202.418 636.504 202.258 636.688 202.167C636.873 202.077 637.085 202.063 637.28 202.13C640.2 203.125 643.128 204.108 646.066 205.081C646.239 205.121 646.392 205.221 646.498 205.362C646.605 205.503 646.659 205.678 646.65 205.855C646.641 206.031 646.571 206.199 646.451 206.33C646.331 206.46 646.169 206.544 645.993 206.567L646.008 206.564ZM1158.56 81.5089C1158.4 81.5612 1158.22 81.5563 1158.06 81.4951C1157.9 81.4338 1157.77 81.3197 1157.68 81.1717C1157.59 81.0236 1157.56 80.8504 1157.58 80.6804C1157.61 80.5105 1157.69 80.3541 1157.81 80.2368C1159.9 77.9535 1161.97 75.6573 1164.02 73.3481C1164.16 73.1948 1164.35 73.1019 1164.55 73.0898C1164.76 73.0778 1164.96 73.1475 1165.11 73.2838C1165.27 73.4201 1165.36 73.6117 1165.37 73.8165C1165.38 74.0213 1165.31 74.2225 1165.18 74.3759C1163.12 76.6891 1161.05 78.9902 1158.96 81.279C1158.85 81.3986 1158.7 81.4805 1158.54 81.5131L1158.56 81.5089ZM628.447 200.592C628.305 200.623 628.158 200.614 628.022 200.564L626.591 200.068C624.149 199.207 621.708 198.341 619.269 197.469C619.173 197.435 619.085 197.383 619.01 197.315C618.935 197.247 618.874 197.165 618.83 197.073C618.787 196.981 618.762 196.882 618.756 196.781C618.751 196.679 618.766 196.578 618.8 196.483C618.834 196.387 618.887 196.299 618.955 196.224C619.023 196.149 619.105 196.088 619.197 196.044C619.288 196 619.387 195.975 619.489 195.97C619.59 195.965 619.691 195.98 619.787 196.014C622.226 196.886 624.666 197.752 627.105 198.614L628.534 199.114C628.705 199.156 628.857 199.257 628.962 199.399C629.067 199.541 629.119 199.715 629.109 199.892C629.099 200.068 629.028 200.236 628.907 200.365C628.786 200.494 628.624 200.577 628.448 200.599L628.447 200.592ZM1170.88 67.6443C1170.72 67.695 1170.55 67.69 1170.39 67.6301C1170.23 67.5701 1170.1 67.4586 1170.01 67.3136C1169.92 67.1686 1169.88 66.9984 1169.91 66.8303C1169.93 66.6622 1170 66.5059 1170.12 66.3866C1172.15 64.0494 1174.16 61.7025 1176.16 59.3458C1176.3 59.1892 1176.49 59.0917 1176.69 59.0746C1176.89 59.0576 1177.1 59.1224 1177.25 59.2549C1177.41 59.3874 1177.51 59.5766 1177.53 59.781C1177.54 59.9853 1177.48 60.1882 1177.34 60.3447C1175.34 62.708 1173.32 65.0598 1171.29 67.3999C1171.18 67.522 1171.04 67.6075 1170.88 67.6443ZM610.951 194.36C610.806 194.393 610.654 194.383 610.514 194.332C607.605 193.272 604.699 192.207 601.796 191.136C601.701 191.101 601.613 191.047 601.539 190.978C601.464 190.91 601.404 190.827 601.361 190.734C601.319 190.642 601.295 190.543 601.291 190.441C601.287 190.34 601.303 190.238 601.338 190.143C601.373 190.048 601.426 189.96 601.495 189.886C601.564 189.811 601.647 189.751 601.739 189.708C601.832 189.666 601.931 189.642 602.033 189.638C602.134 189.634 602.235 189.65 602.331 189.685C605.235 190.758 608.139 191.823 611.044 192.878C611.215 192.922 611.365 193.023 611.468 193.166C611.572 193.308 611.623 193.482 611.612 193.658C611.601 193.833 611.529 194 611.408 194.128C611.287 194.256 611.126 194.339 610.951 194.36ZM593.539 187.92C593.391 187.953 593.237 187.944 593.095 187.893C590.196 186.806 587.3 185.714 584.409 184.616C584.217 184.544 584.062 184.398 583.978 184.211C583.894 184.024 583.887 183.812 583.96 183.62C584.032 183.428 584.178 183.273 584.365 183.189C584.552 183.104 584.765 183.098 584.957 183.17C587.85 184.264 590.743 185.356 593.638 186.444C593.805 186.491 593.95 186.594 594.05 186.736C594.15 186.878 594.199 187.049 594.187 187.222C594.175 187.395 594.105 187.559 593.987 187.686C593.869 187.813 593.711 187.896 593.539 187.92ZM1182.89 53.4758C1182.73 53.526 1182.55 53.5213 1182.4 53.4624C1182.24 53.4036 1182.1 53.2939 1182.02 53.1507C1181.93 53.0076 1181.89 52.8391 1181.91 52.672C1181.93 52.5049 1182 52.3486 1182.12 52.228C1184.09 49.8438 1186.05 47.4499 1187.99 45.0462C1188.06 44.9673 1188.14 44.9017 1188.23 44.8532C1188.32 44.8047 1188.41 44.7742 1188.51 44.7635C1188.61 44.7528 1188.72 44.7621 1188.81 44.7908C1188.91 44.8195 1189 44.8671 1189.08 44.9308C1189.16 44.9946 1189.23 45.0732 1189.27 45.1623C1189.32 45.2514 1189.35 45.3492 1189.36 45.4501C1189.37 45.551 1189.37 45.6529 1189.34 45.7502C1189.31 45.8475 1189.26 45.9382 1189.2 46.0171C1187.25 48.4257 1185.29 50.8242 1183.31 53.2125C1183.2 53.3471 1183.05 53.4412 1182.89 53.4795L1182.89 53.4758ZM576.203 181.335C576.053 181.368 575.897 181.357 575.753 181.302C572.865 180.194 569.977 179.082 567.089 177.966C566.994 177.929 566.908 177.874 566.834 177.804C566.761 177.733 566.702 177.649 566.661 177.557C566.579 177.369 566.574 177.156 566.648 176.965C566.723 176.774 566.87 176.62 567.057 176.537C567.245 176.455 567.458 176.45 567.649 176.524C570.531 177.639 573.418 178.75 576.309 179.857C576.477 179.904 576.623 180.008 576.724 180.15C576.824 180.293 576.872 180.466 576.86 180.639C576.847 180.813 576.775 180.977 576.655 181.104C576.536 181.231 576.376 181.312 576.203 181.335ZM1194.59 39.023C1194.48 39.0498 1194.36 39.0505 1194.25 39.025C1194.13 38.9996 1194.03 38.9487 1193.94 38.8762C1193.86 38.815 1193.79 38.7378 1193.74 38.6492C1193.69 38.5606 1193.65 38.4626 1193.64 38.361C1193.63 38.2594 1193.64 38.1563 1193.67 38.0581C1193.69 37.9599 1193.74 37.8686 1193.81 37.7896C1195.73 35.3603 1197.63 32.9239 1199.51 30.4804C1199.64 30.3181 1199.82 30.2125 1200.03 30.1865C1200.23 30.1606 1200.44 30.2166 1200.6 30.3421C1200.76 30.4676 1200.87 30.6525 1200.89 30.8559C1200.92 31.0594 1200.86 31.2648 1200.74 31.427C1198.84 33.8783 1196.93 36.3204 1195.01 38.7533C1194.9 38.8943 1194.74 38.9927 1194.57 39.0309L1194.59 39.023ZM558.886 174.645C558.736 174.68 558.579 174.668 558.436 174.611L549.787 171.241C549.693 171.204 549.606 171.148 549.533 171.078C549.46 171.008 549.402 170.923 549.361 170.83C549.32 170.737 549.299 170.637 549.297 170.536C549.295 170.435 549.313 170.334 549.35 170.239C549.387 170.145 549.442 170.059 549.513 169.985C549.583 169.912 549.667 169.854 549.76 169.813C549.853 169.773 549.953 169.751 550.055 169.749C550.156 169.747 550.257 169.765 550.352 169.802L558.996 173.17C559.162 173.218 559.307 173.323 559.406 173.465C559.505 173.607 559.551 173.779 559.538 173.952C559.525 174.125 559.453 174.288 559.335 174.414C559.216 174.54 559.057 174.622 558.886 174.645ZM1205.94 24.3318C1205.79 24.3793 1205.62 24.3744 1205.46 24.318C1205.31 24.2615 1205.18 24.1566 1205.09 24.0189C1205 23.8812 1204.96 23.7182 1204.97 23.5546C1204.98 23.391 1205.05 23.2357 1205.15 23.112C1207.02 20.64 1208.88 18.1598 1210.72 15.6714C1210.84 15.5064 1211.02 15.3966 1211.23 15.3661C1211.43 15.3356 1211.64 15.3869 1211.8 15.5087C1211.97 15.6305 1212.08 15.8129 1212.11 16.0157C1212.14 16.2185 1212.09 16.4251 1211.96 16.5901C1210.12 19.0772 1208.26 21.5671 1206.39 24.0598C1206.28 24.2006 1206.12 24.297 1205.94 24.3318ZM541.577 167.91C541.428 167.945 541.271 167.933 541.128 167.876L532.484 164.493C532.293 164.418 532.14 164.27 532.058 164.083C531.976 163.895 531.972 163.682 532.047 163.491C532.121 163.301 532.269 163.147 532.457 163.065C532.645 162.983 532.858 162.979 533.048 163.054L541.688 166.435C541.854 166.483 541.999 166.588 542.098 166.73C542.196 166.872 542.243 167.044 542.23 167.217C542.217 167.39 542.145 167.553 542.026 167.679C541.908 167.805 541.749 167.886 541.577 167.91ZM1217 9.38577C1216.85 9.43087 1216.68 9.42505 1216.53 9.36917C1216.38 9.3133 1216.25 9.21029 1216.16 9.07527C1216.07 8.94026 1216.03 8.78036 1216.04 8.61899C1216.04 8.45763 1216.1 8.30327 1216.21 8.17864C1218.02 5.66762 1219.82 3.15427 1221.62 0.638457C1221.73 0.472167 1221.91 0.358903 1222.11 0.323613C1222.31 0.288322 1222.52 0.333868 1222.68 0.450249C1222.85 0.566631 1222.96 0.744322 1223 0.944201C1223.03 1.14408 1222.99 1.34977 1222.87 1.51606C1221.08 4.03981 1219.27 6.55774 1217.45 9.06987C1217.35 9.22593 1217.19 9.337 1217 9.38127L1217 9.38577ZM524.29 161.131C524.14 161.167 523.981 161.156 523.837 161.099L515.192 157.727C515.001 157.652 514.847 157.505 514.764 157.317C514.682 157.129 514.678 156.915 514.752 156.724C514.827 156.533 514.975 156.379 515.163 156.297C515.351 156.214 515.564 156.21 515.756 156.285L524.401 159.656C524.497 159.691 524.585 159.746 524.659 159.816C524.733 159.886 524.793 159.97 524.834 160.064C524.874 160.157 524.896 160.258 524.897 160.36C524.897 160.462 524.877 160.563 524.838 160.658C524.794 160.776 524.72 160.881 524.625 160.964C524.529 161.047 524.414 161.104 524.29 161.131ZM506.987 154.418C506.836 154.454 506.678 154.443 506.534 154.386C503.652 153.271 500.768 152.159 497.881 151.051C497.787 151.014 497.7 150.96 497.626 150.89C497.553 150.82 497.493 150.737 497.452 150.644C497.41 150.552 497.388 150.452 497.385 150.35C497.382 150.249 497.399 150.148 497.436 150.053C497.472 149.958 497.526 149.872 497.596 149.798C497.666 149.724 497.749 149.665 497.842 149.624C497.935 149.582 498.035 149.559 498.136 149.557C498.238 149.554 498.339 149.571 498.433 149.607C501.321 150.713 504.208 151.825 507.094 152.944C507.19 152.979 507.278 153.033 507.353 153.103C507.428 153.172 507.487 153.257 507.528 153.35C507.57 153.444 507.592 153.545 507.593 153.647C507.594 153.749 507.574 153.85 507.535 153.945C507.491 154.061 507.419 154.165 507.326 154.247C507.232 154.33 507.12 154.387 506.998 154.416L506.987 154.418ZM489.66 147.769C489.512 147.804 489.357 147.793 489.215 147.738C486.326 146.641 483.433 145.547 480.535 144.456C480.44 144.42 480.353 144.366 480.279 144.296C480.205 144.227 480.146 144.143 480.104 144.051C480.062 143.958 480.039 143.858 480.036 143.757C480.033 143.655 480.05 143.554 480.086 143.459C480.122 143.364 480.176 143.277 480.246 143.203C480.315 143.129 480.399 143.07 480.491 143.028C480.584 142.986 480.684 142.963 480.785 142.96C480.887 142.957 480.988 142.974 481.083 143.01C483.977 144.096 486.87 145.19 489.762 146.292C489.93 146.339 490.076 146.442 490.176 146.584C490.276 146.726 490.324 146.899 490.312 147.072C490.3 147.245 490.229 147.409 490.11 147.536C489.991 147.663 489.832 147.745 489.66 147.769ZM472.29 141.242C472.143 141.275 471.99 141.264 471.849 141.21C468.95 140.136 466.049 139.069 463.146 138.011C463.049 137.976 462.961 137.922 462.885 137.853C462.809 137.784 462.748 137.701 462.704 137.608C462.66 137.515 462.635 137.415 462.631 137.312C462.626 137.21 462.641 137.107 462.676 137.011C462.711 136.914 462.764 136.826 462.834 136.75C462.903 136.674 462.986 136.613 463.079 136.569C463.172 136.525 463.272 136.5 463.375 136.496C463.477 136.491 463.58 136.506 463.676 136.541C466.582 137.601 469.486 138.67 472.388 139.746C472.557 139.792 472.705 139.894 472.807 140.036C472.909 140.179 472.959 140.352 472.947 140.526C472.935 140.701 472.864 140.866 472.744 140.993C472.624 141.121 472.464 141.203 472.291 141.226L472.29 141.242ZM454.866 134.882C454.722 134.913 454.572 134.905 454.434 134.856C451.526 133.812 448.613 132.778 445.695 131.754C445.501 131.686 445.343 131.545 445.254 131.36C445.165 131.176 445.153 130.964 445.221 130.771C445.288 130.577 445.43 130.419 445.615 130.33C445.799 130.241 446.011 130.229 446.205 130.297C449.122 131.318 452.039 132.353 454.955 133.4C455.126 133.444 455.275 133.545 455.379 133.687C455.482 133.829 455.533 134.003 455.522 134.178C455.512 134.353 455.44 134.519 455.32 134.648C455.201 134.776 455.04 134.859 454.866 134.882ZM437.352 128.74C437.212 128.772 437.066 128.764 436.931 128.716C434.007 127.714 431.08 126.723 428.148 125.744C428.052 125.712 427.962 125.661 427.886 125.595C427.809 125.528 427.746 125.447 427.7 125.356C427.655 125.266 427.628 125.167 427.621 125.065C427.613 124.964 427.626 124.862 427.658 124.766C427.69 124.67 427.741 124.581 427.807 124.504C427.874 124.427 427.955 124.364 428.046 124.319C428.136 124.273 428.235 124.246 428.337 124.239C428.438 124.231 428.54 124.244 428.636 124.276C431.573 125.257 434.505 126.249 437.432 127.253C437.605 127.293 437.759 127.393 437.867 127.535C437.974 127.677 438.027 127.853 438.017 128.03C438.008 128.208 437.936 128.377 437.814 128.507C437.692 128.637 437.528 128.719 437.352 128.74ZM419.746 122.848C419.616 122.875 419.48 122.867 419.354 122.825C416.412 121.871 413.468 120.931 410.519 120.004C410.323 119.943 410.16 119.806 410.065 119.624C409.969 119.442 409.95 119.23 410.012 119.034C410.073 118.838 410.21 118.675 410.392 118.58C410.574 118.484 410.786 118.465 410.982 118.527C413.939 119.457 416.888 120.4 419.83 121.356C420.004 121.394 420.159 121.493 420.268 121.634C420.376 121.776 420.431 121.951 420.423 122.129C420.415 122.307 420.344 122.477 420.223 122.608C420.102 122.739 419.938 122.823 419.761 122.845L419.746 122.848ZM402.041 117.281C401.911 117.31 401.776 117.305 401.65 117.265C398.693 116.369 395.732 115.492 392.766 114.634C392.568 114.576 392.402 114.442 392.304 114.262C392.205 114.081 392.183 113.869 392.24 113.672C392.298 113.475 392.432 113.309 392.613 113.21C392.793 113.112 393.006 113.089 393.203 113.147C396.178 114.021 399.146 114.905 402.108 115.8C402.284 115.835 402.442 115.931 402.554 116.071C402.666 116.212 402.724 116.387 402.718 116.567C402.713 116.746 402.643 116.918 402.522 117.051C402.401 117.184 402.237 117.269 402.059 117.292L402.041 117.281ZM384.228 112.075C384.099 112.107 383.965 112.104 383.838 112.067C380.864 111.232 377.883 110.416 374.895 109.62C374.797 109.594 374.705 109.548 374.624 109.487C374.544 109.425 374.476 109.348 374.425 109.26C374.375 109.172 374.342 109.075 374.328 108.974C374.315 108.873 374.322 108.771 374.348 108.673C374.374 108.575 374.42 108.483 374.482 108.402C374.543 108.321 374.621 108.254 374.709 108.203C374.797 108.152 374.894 108.119 374.994 108.106C375.095 108.093 375.198 108.099 375.296 108.126C378.29 108.926 381.277 109.744 384.256 110.581C384.355 110.606 384.448 110.651 384.529 110.713C384.61 110.774 384.678 110.852 384.728 110.941C384.779 111.03 384.811 111.128 384.822 111.23C384.833 111.331 384.824 111.434 384.794 111.532C384.76 111.667 384.689 111.791 384.59 111.89C384.491 111.989 384.367 112.059 384.232 112.094L384.228 112.075ZM366.299 107.3C366.18 107.327 366.056 107.325 365.937 107.296C363.566 106.691 361.192 106.1 358.815 105.524L356.937 105.072C356.737 105.024 356.564 104.898 356.457 104.723C356.35 104.548 356.317 104.337 356.365 104.138C356.414 103.938 356.539 103.766 356.714 103.659C356.89 103.552 357.1 103.518 357.3 103.567L359.179 104.023C361.563 104.602 363.942 105.194 366.318 105.799C366.501 105.824 366.669 105.914 366.789 106.054C366.91 106.194 366.975 106.373 366.973 106.558C366.97 106.742 366.901 106.92 366.776 107.056C366.652 107.193 366.482 107.279 366.299 107.3ZM12.529 179.631C12.4135 179.659 12.2933 179.659 12.1779 179.631C12.0625 179.603 11.9552 179.549 11.8647 179.472C11.7845 179.409 11.718 179.33 11.6692 179.24C11.6205 179.15 11.5905 179.051 11.5811 178.949C11.5717 178.847 11.5831 178.744 11.6146 178.647C11.6461 178.55 11.697 178.46 11.7642 178.383C13.7252 176.026 15.7826 173.666 17.8808 171.367C17.9492 171.292 18.0318 171.231 18.1238 171.188C18.2158 171.145 18.3154 171.12 18.4169 171.115C18.5184 171.111 18.6199 171.126 18.7156 171.16C18.8112 171.195 18.899 171.248 18.9741 171.316C19.0493 171.385 19.1103 171.467 19.1535 171.559C19.1967 171.651 19.2214 171.751 19.2261 171.852C19.2308 171.954 19.2154 172.055 19.1809 172.151C19.1465 172.246 19.0934 172.334 19.025 172.409C16.9427 174.693 14.9005 177.034 12.9509 179.372C12.8425 179.505 12.6924 179.596 12.5253 179.632L12.529 179.631ZM348.245 102.978C348.132 103.002 348.016 103.003 347.903 102.979C344.891 102.304 341.87 101.653 338.84 101.024C338.639 100.982 338.463 100.862 338.351 100.691C338.238 100.52 338.199 100.311 338.24 100.11C338.282 99.9091 338.402 99.7333 338.573 99.6208C338.745 99.5084 338.954 99.4687 339.155 99.5104C342.195 100.137 345.224 100.789 348.242 101.467C348.438 101.473 348.625 101.555 348.762 101.696C348.899 101.837 348.975 102.025 348.976 102.222C348.976 102.418 348.9 102.607 348.764 102.748C348.627 102.889 348.441 102.972 348.245 102.978ZM330.063 99.2057C329.959 99.2281 329.851 99.2302 329.747 99.2118C326.714 98.6301 323.675 98.0744 320.628 97.5449C320.426 97.5097 320.246 97.3956 320.128 97.2277C320.009 97.0597 319.963 96.8517 319.998 96.6494C320.033 96.4471 320.147 96.2671 320.315 96.1489C320.483 96.0307 320.691 95.9842 320.894 96.0194C323.946 96.5527 326.994 97.1103 330.037 97.6923C330.237 97.6888 330.431 97.7651 330.576 97.9046C330.72 98.044 330.803 98.2351 330.807 98.4358C330.81 98.6365 330.734 98.8304 330.594 98.9748C330.455 99.1192 330.264 99.2022 330.063 99.2057ZM25.0309 165.931C24.8673 165.968 24.6961 165.951 24.5429 165.883C24.3897 165.814 24.2628 165.698 24.1814 165.551C24.0999 165.405 24.0683 165.236 24.0913 165.069C24.1142 164.903 24.1905 164.749 24.3086 164.63C26.4841 162.449 28.7473 160.279 31.0219 158.177C31.1733 158.039 31.3729 157.968 31.577 157.978C31.781 157.988 31.9728 158.078 32.11 158.23C32.2472 158.381 32.3187 158.58 32.3088 158.784C32.2988 158.988 32.2081 159.18 32.0568 159.317C29.7907 161.406 27.547 163.56 25.3912 165.725C25.2917 165.827 25.1656 165.898 25.0272 165.932L25.0309 165.931ZM311.778 96.0186C311.682 96.0405 311.583 96.0433 311.486 96.027C308.432 95.5457 305.376 95.0921 302.316 94.6662C302.113 94.6379 301.929 94.5301 301.805 94.3663C301.682 94.2026 301.628 93.9963 301.657 93.793C301.685 93.5897 301.793 93.406 301.956 93.2822C302.12 93.1585 302.327 93.1048 302.53 93.1331C305.603 93.5635 308.669 94.0189 311.727 94.4991C311.931 94.4918 312.13 94.5657 312.279 94.7048C312.429 94.8438 312.517 95.0365 312.524 95.2404C312.531 95.4444 312.457 95.6429 312.318 95.7923C312.179 95.9417 311.986 96.0297 311.782 96.037L311.778 96.0186ZM38.6738 153.343C38.4993 153.408 38.3072 153.405 38.1342 153.337C37.9613 153.269 37.8195 153.139 37.7361 152.973C37.6527 152.807 37.6336 152.616 37.6823 152.436C37.731 152.257 37.8441 152.102 38 152C40.3511 150.012 42.7817 148.033 45.2255 146.128C45.3055 146.066 45.3971 146.02 45.4949 145.992C45.5927 145.965 45.6948 145.958 45.7956 145.97C45.8963 145.982 45.9937 146.014 46.082 146.064C46.1703 146.114 46.248 146.181 46.3105 146.261C46.373 146.341 46.419 146.433 46.4461 146.53C46.4732 146.628 46.4809 146.73 46.4685 146.831C46.4561 146.932 46.424 147.029 46.374 147.117C46.324 147.206 46.2572 147.283 46.1772 147.346C43.7502 149.239 41.3353 151.203 39.001 153.18C38.9069 153.26 38.7946 153.316 38.6738 153.343ZM293.391 93.44C293.304 93.46 293.214 93.4634 293.126 93.4499C290.058 93.0777 286.989 92.7317 283.918 92.412C283.817 92.4016 283.719 92.3714 283.63 92.3232C283.541 92.275 283.462 92.2097 283.398 92.131C283.334 92.0523 283.286 91.9618 283.257 91.8647C283.228 91.7675 283.219 91.6655 283.229 91.5647C283.239 91.4638 283.27 91.366 283.318 91.2768C283.366 91.1876 283.431 91.1087 283.51 91.0448C283.589 90.9808 283.679 90.9329 283.777 90.9039C283.874 90.8749 283.976 90.8654 284.077 90.8758C287.158 91.1958 290.237 91.5422 293.312 91.9152C293.515 91.9045 293.715 91.9749 293.866 92.1109C294.017 92.247 294.108 92.4376 294.119 92.6407C294.13 92.8439 294.059 93.043 293.923 93.1943C293.787 93.3455 293.596 93.4366 293.393 93.4473L293.391 93.44ZM53.3085 141.929C53.2178 141.97 53.1199 141.993 53.0204 141.996C52.9208 141.999 52.8217 141.983 52.7286 141.948C52.6354 141.913 52.5502 141.859 52.4776 141.791C52.405 141.723 52.3465 141.641 52.3055 141.551C52.2645 141.46 52.2418 141.362 52.2386 141.263C52.2355 141.163 52.252 141.064 52.2871 140.971C52.3223 140.878 52.3755 140.793 52.4436 140.72C52.5117 140.647 52.5935 140.589 52.6842 140.548C55.1916 138.753 57.7731 136.976 60.363 135.27C60.5374 135.156 60.7502 135.115 60.9547 135.157C61.1591 135.199 61.3385 135.321 61.4532 135.495C61.5679 135.67 61.6087 135.883 61.5664 136.087C61.5242 136.291 61.4025 136.471 61.2281 136.585C58.6549 138.279 56.0866 140.046 53.5954 141.81C53.5087 141.874 53.4092 141.919 53.3037 141.942L53.3085 141.929ZM274.931 91.5291C274.854 91.5468 274.775 91.5531 274.695 91.5479C271.614 91.2873 268.535 91.0548 265.456 90.8504C265.355 90.8439 265.256 90.8175 265.165 90.7728C265.074 90.7281 264.992 90.6658 264.925 90.5896C264.858 90.5135 264.807 90.4248 264.774 90.3288C264.742 90.2327 264.728 90.1312 264.735 90.0299C264.741 89.9287 264.767 89.8297 264.812 89.7387C264.857 89.6476 264.919 89.5663 264.995 89.4993C265.072 89.4323 265.16 89.3809 265.256 89.3482C265.352 89.3154 265.454 89.3019 265.555 89.3084C268.649 89.5118 271.739 89.7446 274.826 90.0066C274.926 89.9995 275.026 90.0123 275.122 90.0442C275.217 90.0761 275.305 90.1264 275.381 90.1923C275.457 90.2582 275.519 90.3384 275.564 90.4283C275.609 90.5182 275.635 90.616 275.642 90.7162C275.649 90.8165 275.636 90.9171 275.605 91.0123C275.573 91.1076 275.522 91.1957 275.456 91.2715C275.39 91.3473 275.31 91.4094 275.22 91.4542C275.13 91.4991 275.033 91.5258 274.932 91.5328L274.931 91.5291ZM256.413 90.3139C256.344 90.3297 256.274 90.3365 256.204 90.3342C253.119 90.1908 250.033 90.0811 246.948 90.0049C246.846 90.0043 246.745 89.983 246.651 89.9423C246.557 89.9016 246.473 89.8424 246.403 89.7681C246.332 89.6939 246.278 89.6061 246.243 89.5103C246.207 89.4145 246.192 89.3124 246.197 89.2104C246.197 89.1084 246.218 89.0076 246.259 88.9139C246.299 88.8202 246.358 88.7356 246.431 88.6652C246.505 88.5948 246.593 88.5401 246.688 88.5043C246.784 88.4685 246.886 88.4525 246.987 88.4571C250.082 88.5285 253.178 88.6397 256.276 88.7907C256.375 88.7817 256.476 88.7925 256.572 88.8224C256.667 88.8523 256.756 88.9008 256.833 88.965C256.91 89.0292 256.973 89.108 257.02 89.1967C257.066 89.2855 257.095 89.3825 257.104 89.4823C257.113 89.5821 257.102 89.6826 257.072 89.7782C257.042 89.8738 256.994 89.9625 256.929 90.0394C256.865 90.1163 256.786 90.1798 256.697 90.2262C256.609 90.2727 256.512 90.3012 256.412 90.3102L256.413 90.3139ZM68.8182 131.72C68.6298 131.796 68.419 131.794 68.2319 131.715C68.0449 131.636 67.8969 131.485 67.8207 131.297C67.7444 131.109 67.7461 130.898 67.8254 130.711C67.9046 130.524 68.055 130.376 68.2433 130.3C70.8998 128.7 73.6159 127.14 76.3204 125.649C76.5 125.55 76.7115 125.526 76.9084 125.583C77.1053 125.64 77.2716 125.773 77.3705 125.953C77.4694 126.132 77.493 126.344 77.4359 126.541C77.3789 126.738 77.2459 126.904 77.0664 127.003C74.3786 128.482 71.6809 130.038 69.0449 131.625C68.9736 131.672 68.895 131.707 68.8125 131.729L68.8182 131.72ZM237.87 89.8482C237.816 89.8682 237.759 89.8812 237.701 89.8867C234.611 89.871 231.524 89.8908 228.44 89.9462C228.235 89.9496 228.037 89.8715 227.89 89.7291C227.743 89.5866 227.658 89.3915 227.655 89.1867C227.651 88.9819 227.729 88.7841 227.872 88.6368C228.014 88.4896 228.209 88.4049 228.414 88.4015C231.504 88.35 234.602 88.3316 237.707 88.3464C237.908 88.3249 238.109 88.3841 238.266 88.5108C238.423 88.6375 238.524 88.8215 238.545 89.0222C238.567 89.2229 238.508 89.424 238.381 89.5811C238.254 89.7382 238.07 89.8386 237.869 89.8601L237.87 89.8482ZM85.093 122.778C84.9235 122.821 84.7445 122.804 84.5862 122.729C84.4279 122.655 84.3002 122.528 84.225 122.371C84.1774 122.281 84.1485 122.182 84.14 122.08C84.1315 121.979 84.1436 121.877 84.1756 121.78C84.2075 121.683 84.2588 121.594 84.3261 121.518C84.3934 121.441 84.4753 121.379 84.5672 121.335C87.3083 119.937 90.1473 118.593 92.9541 117.296C93.0462 117.254 93.1459 117.23 93.2473 117.225C93.3488 117.221 93.45 117.237 93.5453 117.272C93.6405 117.307 93.7279 117.361 93.8025 117.43C93.8771 117.498 93.9375 117.581 93.9801 117.673C94.0227 117.765 94.0467 117.865 94.0508 117.966C94.0549 118.068 94.039 118.169 94.0039 118.264C93.9689 118.36 93.9154 118.447 93.8465 118.522C93.7777 118.596 93.6949 118.657 93.6027 118.699C90.7951 119.993 88 121.342 85.2649 122.716C85.2058 122.745 85.1431 122.767 85.0784 122.781L85.093 122.778ZM219.306 90.1706L219.166 90.2024C216.091 90.3203 212.967 90.4802 209.921 90.673C209.718 90.6857 209.519 90.6173 209.366 90.483C209.214 90.3486 209.121 90.1593 209.108 89.9565C209.096 89.7538 209.164 89.5543 209.299 89.402C209.433 89.2497 209.622 89.1569 209.825 89.1442C212.883 88.9527 216.011 88.7919 219.112 88.6719C219.312 88.646 219.514 88.7005 219.673 88.8234C219.833 88.9463 219.937 89.1275 219.963 89.3273C219.989 89.527 219.934 89.7288 219.812 89.8883C219.689 90.0479 219.507 90.1521 219.307 90.178L219.306 90.1706ZM101.929 115.007C101.734 115.069 101.523 115.052 101.341 114.958C101.16 114.865 101.023 114.703 100.961 114.508C100.898 114.314 100.916 114.102 101.009 113.921C101.103 113.739 101.265 113.602 101.46 113.54C104.29 112.346 107.202 111.172 110.087 110.063C110.18 110.026 110.28 110.009 110.38 110.011C110.481 110.013 110.58 110.035 110.671 110.076C110.763 110.116 110.846 110.174 110.916 110.247C110.985 110.32 111.039 110.405 111.076 110.499C111.112 110.592 111.129 110.692 111.127 110.792C111.125 110.893 111.103 110.991 111.062 111.083C111.022 111.175 110.964 111.258 110.891 111.327C110.818 111.397 110.733 111.451 110.639 111.487C107.787 112.586 104.878 113.755 102.055 114.947C102.015 114.971 101.972 114.991 101.929 115.007ZM200.788 91.3311L200.685 91.3546C197.601 91.6218 194.499 91.928 191.474 92.2633C191.373 92.2773 191.269 92.2706 191.171 92.2436C191.072 92.2166 190.98 92.1698 190.9 92.1061C190.82 92.0424 190.753 91.9631 190.705 91.8731C190.656 91.783 190.626 91.684 190.617 91.5821C190.604 91.4809 190.611 91.3781 190.638 91.2798C190.666 91.1815 190.713 91.0897 190.776 91.01C190.84 90.9303 190.919 90.8644 191.009 90.8161C191.099 90.7678 191.198 90.7383 191.3 90.7292C194.344 90.3897 197.453 90.0818 200.552 89.815C200.754 89.7835 200.961 89.8334 201.126 89.954C201.291 90.0745 201.401 90.2557 201.433 90.4577C201.465 90.6598 201.415 90.8661 201.294 91.0312C201.173 91.1964 200.992 91.307 200.79 91.3385L200.788 91.3311ZM119.245 108.325C119.048 108.381 118.837 108.357 118.657 108.258C118.478 108.159 118.346 107.993 118.289 107.796C118.233 107.599 118.257 107.388 118.356 107.209C118.455 107.029 118.621 106.897 118.818 106.84C121.724 105.827 124.695 104.841 127.651 103.909C127.847 103.848 128.059 103.866 128.241 103.961C128.423 104.056 128.559 104.22 128.621 104.415C128.682 104.611 128.664 104.823 128.569 105.005C128.474 105.187 128.31 105.324 128.114 105.385C125.173 106.31 122.217 107.292 119.328 108.298L119.245 108.325ZM182.346 93.3662L182.279 93.3813C179.223 93.8012 176.145 94.2647 173.124 94.7579C172.922 94.791 172.715 94.7425 172.548 94.623C172.382 94.5034 172.27 94.3227 172.237 94.1205C172.204 93.9183 172.252 93.7112 172.372 93.5448C172.491 93.3784 172.672 93.2663 172.874 93.2332C175.906 92.7375 178.999 92.2707 182.071 91.8511C182.272 91.8145 182.48 91.8595 182.648 91.976C182.817 92.0926 182.932 92.2712 182.968 92.4726C183.005 92.674 182.96 92.8817 182.843 93.05C182.727 93.2183 182.548 93.3334 182.347 93.3699L182.346 93.3662ZM136.948 102.748C136.85 102.773 136.748 102.779 136.648 102.765C136.547 102.75 136.451 102.716 136.364 102.665C136.276 102.613 136.2 102.545 136.14 102.464C136.079 102.383 136.035 102.291 136.009 102.192C135.984 102.094 135.979 101.992 135.993 101.892C136.007 101.792 136.041 101.695 136.093 101.608C136.197 101.432 136.367 101.305 136.566 101.254C139.528 100.417 142.555 99.6127 145.556 98.8606C145.754 98.8199 145.96 98.855 146.134 98.959C146.308 99.0631 146.436 99.2284 146.494 99.4225C146.521 99.521 146.528 99.624 146.514 99.7253C146.5 99.8266 146.466 99.924 146.413 100.012C146.361 100.099 146.291 100.175 146.208 100.235C146.125 100.295 146.031 100.338 145.931 100.36C142.946 101.109 139.933 101.911 136.985 102.74L136.948 102.748ZM164.037 96.3669L164.012 96.3728C160.972 96.9554 157.924 97.5828 154.944 98.2372C154.744 98.2827 154.534 98.2469 154.361 98.1377C154.187 98.0285 154.064 97.8549 154.019 97.655C153.973 97.4551 154.009 97.2453 154.118 97.0718C154.228 96.8983 154.401 96.7753 154.601 96.7298C157.591 96.0499 160.663 95.4405 163.713 94.8553C163.914 94.8133 164.123 94.8527 164.295 94.9648C164.466 95.077 164.586 95.2528 164.628 95.4534C164.67 95.6541 164.631 95.8633 164.519 96.0349C164.407 96.2065 164.231 96.3266 164.03 96.3686L164.037 96.3669Z" fill="#204AF4" fill-opacity="0.92"/>
</svg>
