<svg width="22" height="22" viewBox="0 0 22 22" fill="none" xmlns="http://www.w3.org/2000/svg">
<path d="M4.77952 14.4594C6.8508 16.9353 9.34417 18.8848 12.19 20.2642C13.2735 20.7777 14.7225 21.3869 16.3369 21.4913C16.437 21.4956 16.5327 21.5 16.6328 21.5C17.7163 21.5 18.5866 21.1258 19.2959 20.3556C19.3002 20.3512 19.3089 20.3425 19.3133 20.3338C19.5657 20.0292 19.8529 19.7551 20.1531 19.4635C20.3576 19.2677 20.5665 19.0632 20.7667 18.8543C21.6935 17.8883 21.6935 16.6612 20.758 15.7257L18.1428 13.1104C17.6989 12.6492 17.168 12.4055 16.6111 12.4055C16.0541 12.4055 15.5189 12.6492 15.062 13.1061L13.5041 14.6639C13.3605 14.5812 13.2126 14.5073 13.0733 14.4376C12.8993 14.3506 12.7383 14.2679 12.5947 14.1765C11.1761 13.2758 9.8881 12.1009 8.65665 10.591C8.03439 9.80336 7.61666 9.14194 7.32511 8.46747C7.73414 8.0976 8.11707 7.71032 8.48694 7.33174C8.61749 7.19685 8.75238 7.06196 8.88727 6.92706C9.35723 6.45711 9.60961 5.91318 9.60961 5.36055C9.60961 4.80792 9.36158 4.26399 8.88727 3.79403L7.59055 2.49731C7.43825 2.34501 7.29465 2.19706 7.1467 2.04476C6.85951 1.74886 6.55926 1.44426 6.26336 1.17012C5.81516 0.730626 5.28864 0.5 4.73166 0.5C4.17903 0.5 3.64815 0.730626 3.18255 1.17447L1.55511 2.80191C0.96332 3.3937 0.62826 4.11169 0.558637 4.94281C0.47596 5.9828 0.667422 7.08806 1.16349 8.42395C1.92499 10.4909 3.07376 12.4099 4.77952 14.4594ZM1.62039 5.03419C1.6726 4.45545 1.89453 3.97244 2.31226 3.5547L3.93099 1.93597C4.18338 1.69229 4.46187 1.5661 4.73166 1.5661C4.9971 1.5661 5.26688 1.69229 5.51491 1.94467C5.80646 2.21446 6.0806 2.49731 6.3765 2.79755C6.52445 2.94985 6.67675 3.10215 6.82905 3.25881L8.12577 4.55553C8.39556 4.82532 8.53481 5.09946 8.53481 5.36925C8.53481 5.63904 8.39556 5.91318 8.12577 6.18297C7.99088 6.31786 7.85598 6.45711 7.72109 6.592C7.31641 7.00104 6.93783 7.38831 6.5201 7.75818C6.51139 7.76689 6.50704 7.77124 6.49834 7.77994C6.13717 8.14111 6.19374 8.48487 6.28077 8.74596C6.28512 8.75901 6.28947 8.76772 6.29382 8.78077C6.62888 9.58578 7.09448 10.3516 7.82117 11.2654C9.1266 12.8755 10.5017 14.1243 12.016 15.086C12.2031 15.2078 12.4032 15.3036 12.5903 15.3993C12.7644 15.4863 12.9254 15.569 13.069 15.6604C13.0864 15.6691 13.0995 15.6778 13.1169 15.6865C13.2605 15.7605 13.3997 15.7953 13.539 15.7953C13.8871 15.7953 14.1133 15.5734 14.1873 15.4994L15.8147 13.8719C16.0671 13.6196 16.3413 13.4847 16.6111 13.4847C16.9418 13.4847 17.2116 13.6892 17.3813 13.8719L20.0052 16.4915C20.5273 17.0137 20.523 17.5794 19.9921 18.132C19.8094 18.3278 19.6179 18.5149 19.4134 18.7107C19.1088 19.0066 18.7911 19.3112 18.5039 19.655C18.0035 20.1946 17.4074 20.447 16.6372 20.447C16.5632 20.447 16.4849 20.4426 16.4109 20.4383C14.9836 20.3469 13.6564 19.7899 12.66 19.3156C9.95337 18.0058 7.57749 16.1477 5.6063 13.7893C3.98321 11.8355 2.891 10.0166 2.16867 8.06714C1.72047 6.87049 1.55076 5.90883 1.62039 5.03419Z" fill="#F2CC4D"/>
</svg>
