<svg width="135" height="24" viewBox="0 0 135 24" fill="none" xmlns="http://www.w3.org/2000/svg">
<path fill-rule="evenodd" clip-rule="evenodd" d="M130.633 22.9273C127.615 21.9024 122.362 21.359 116.509 21.545C114.529 21.5813 112.672 21.4614 112.36 21.2159C111.648 20.6475 112.336 18.8881 113.396 18.6594C114.519 18.3937 118.827 18.3334 121.581 18.5314C122.876 18.6354 123.869 18.6584 123.795 18.5306C123.74 18.4349 122.103 17.5913 120.215 16.6807C108.445 11.0438 93.4209 6.77516 79.5928 5.09436C64.1677 3.22832 53.1556 4.43453 23.6967 11.2245C7.33615 14.9651 0.367973 16.3913 0.165146 16.04C0.0730019 15.8804 0.127013 15.6788 0.286613 15.5867C1.08492 15.1258 18.4301 9.62439 24.2448 7.97046C49.9607 0.744281 63.5409 -0.88021 80.5816 1.20266C95.1603 3.0037 109.741 7.31561 122.048 13.3661C124.825 14.7852 125.65 15.033 125.085 14.4228C124.694 13.9672 123.391 12.0798 122.157 10.2376C119.795 6.66246 119.6 5.88127 120.909 5.1254C122.027 4.4802 122.747 4.91608 123.871 6.86369C124.461 7.8855 126.054 10.2015 127.471 12.066C135.416 22.5083 135.379 22.4444 134.193 23.3415C133.592 23.7737 132.878 23.7174 130.633 22.9273Z" fill="#D5C5EF"/>
</svg>
