<svg width="22" height="23" viewBox="0 0 22 23" fill="none" xmlns="http://www.w3.org/2000/svg">
<path d="M18.5827 0.666748H3.41602C1.62809 0.666748 0.166016 2.12935 0.166016 3.91675V19.0834C0.166016 20.8708 1.62809 22.3334 3.41602 22.3334H18.5827C20.3706 22.3334 21.8327 20.8708 21.8327 19.0834V3.91675C21.8327 2.12935 20.3706 0.666748 18.5827 0.666748ZM15.831 9.56087L10.4143 14.9775C10.1974 15.1833 9.92659 15.2917 9.64518 15.2917C9.36377 15.2917 9.09294 15.1833 8.87606 14.9775L6.16772 12.2692C5.7456 11.8466 5.7456 11.1536 6.16772 10.731C6.58984 10.3083 7.28385 10.3083 7.70597 10.731L9.64518 12.6807L14.2927 8.02262C14.7148 7.59998 15.4089 7.59998 15.831 8.02262C16.2531 8.44527 16.2531 9.13822 15.831 9.56087Z" fill="#615CF6"/>
</svg>
