<svg width="13" height="12" viewBox="0 0 13 12" fill="none" xmlns="http://www.w3.org/2000/svg">
<path d="M12.0342 4.35442C11.9975 4.24643 11.93 4.15154 11.8401 4.08146C11.7501 4.01138 11.6416 3.96919 11.5279 3.96009L8.20229 3.69584L6.7632 0.510258C6.71737 0.407657 6.64283 0.320513 6.54856 0.259342C6.4543 0.198171 6.34435 0.165589 6.23198 0.165527C6.1196 0.165466 6.00962 0.197927 5.91529 0.258994C5.82095 0.320062 5.74631 0.407124 5.70037 0.509675L4.26129 3.69584L0.935703 3.96009C0.823969 3.96894 0.71715 4.0098 0.628027 4.07777C0.538903 4.14574 0.471249 4.23794 0.433157 4.34336C0.395066 4.44877 0.38815 4.56293 0.413237 4.67217C0.438325 4.78141 0.494353 4.88111 0.57462 4.95934L3.0322 7.35509L2.16304 11.1188C2.13664 11.2327 2.1451 11.3519 2.18731 11.461C2.22953 11.57 2.30354 11.6639 2.39975 11.7303C2.49597 11.7968 2.60994 11.8328 2.72688 11.8337C2.84382 11.8346 2.95832 11.8003 3.05554 11.7353L6.23179 9.61784L9.40804 11.7353C9.5074 11.8013 9.62458 11.8353 9.74382 11.8327C9.86306 11.83 9.97864 11.791 10.075 11.7207C10.1714 11.6504 10.2439 11.5524 10.2829 11.4396C10.3219 11.3269 10.3254 11.205 10.293 11.0902L9.22604 7.35684L11.872 4.97567C12.0453 4.81934 12.1089 4.57551 12.0342 4.35442Z" fill="#F8BF39"/>
</svg>
