<svg width="54" height="53" viewBox="0 0 54 53" fill="none" xmlns="http://www.w3.org/2000/svg">
<path d="M50.3778 13.5673C47.9634 9.43047 44.6884 6.15537 40.552 3.74122C36.415 1.32695 31.8985 0.120117 26.9996 0.120117C22.1012 0.120117 17.5833 1.32732 13.4471 3.74122C9.31036 6.15525 6.0355 9.43047 3.6211 13.5673C1.20708 17.7039 0 22.2212 0 27.1189C0 33.0023 1.71648 38.2927 5.1503 42.9916C8.58375 47.6908 13.0193 50.9425 18.4565 52.7471C19.0894 52.8645 19.5579 52.7819 19.8625 52.5013C20.1673 52.2203 20.3195 51.8684 20.3195 51.447C20.3195 51.3767 20.3134 50.7442 20.3017 49.5487C20.2897 48.3532 20.284 47.3102 20.284 46.4203L19.4754 46.5602C18.9598 46.6547 18.3094 46.6947 17.5242 46.6834C16.7394 46.6724 15.9246 46.5901 15.081 46.4372C14.237 46.2856 13.4521 45.9341 12.7255 45.3833C11.9992 44.8325 11.4837 44.1116 11.1789 43.2216L10.8274 42.4126C10.593 41.874 10.2241 41.2757 9.72014 40.6199C9.21616 39.9635 8.70651 39.5185 8.19095 39.2842L7.94481 39.1079C7.78079 38.9908 7.6286 38.8496 7.48786 38.6857C7.34724 38.5218 7.24196 38.3578 7.17165 38.1936C7.10122 38.0292 7.15959 37.8943 7.34736 37.7886C7.53514 37.6828 7.8745 37.6315 8.36691 37.6315L9.06975 37.7365C9.53852 37.8304 10.1184 38.1111 10.81 38.5801C11.5013 39.0487 12.0695 39.658 12.5149 40.4076C13.0542 41.3688 13.704 42.1012 14.4661 42.6052C15.2275 43.1092 15.9953 43.3607 16.7685 43.3607C17.5418 43.3607 18.2097 43.3021 18.7724 43.1855C19.3345 43.0683 19.8619 42.8921 20.3543 42.6579C20.5652 41.0869 21.1395 39.8801 22.0767 39.0365C20.7409 38.8962 19.54 38.6847 18.4733 38.4036C17.4072 38.1221 16.3056 37.6653 15.169 37.0319C14.0319 36.3994 13.0886 35.6139 12.3388 34.6769C11.5889 33.7393 10.9735 32.5085 10.4934 30.9855C10.0131 29.4618 9.77284 27.7042 9.77284 25.7121C9.77284 22.8758 10.6988 20.4621 12.5504 18.4698C11.683 16.3374 11.7649 13.9469 12.7963 11.2985C13.476 11.0874 14.4839 11.2458 15.8197 11.773C17.1557 12.3003 18.1338 12.7521 18.7552 13.1267C19.3765 13.5011 19.8743 13.8185 20.2494 14.0758C22.4295 13.4667 24.6792 13.162 26.9993 13.162C29.3194 13.162 31.5697 13.4667 33.7499 14.0758L35.0857 13.2325C35.9993 12.6697 37.078 12.1541 38.3195 11.6853C39.5616 11.2168 40.5115 11.0877 41.168 11.2989C42.2223 13.9474 42.3162 16.3378 41.4486 18.4702C43.3001 20.4625 44.2264 22.8768 44.2264 25.7125C44.2264 27.7046 43.9853 29.4677 43.5057 31.0031C43.0255 32.5387 42.4048 33.7683 41.6433 34.6945C40.881 35.6206 39.9316 36.3999 38.7951 37.0323C37.6584 37.6652 36.5563 38.122 35.4902 38.4035C34.4236 38.685 33.2227 38.8965 31.887 39.0371C33.1053 40.0914 33.7145 41.7556 33.7145 44.0288V51.446C33.7145 51.8674 33.861 52.2192 34.1544 52.5003C34.4473 52.7809 34.9099 52.8635 35.5428 52.7459C40.9807 50.9417 45.4162 47.6898 48.8496 42.9906C52.2825 38.2917 53.9996 33.0013 53.9996 27.118C53.9984 22.2208 52.7907 17.7039 50.3778 13.5673Z" fill="black"/>
</svg>
