<svg width="15" height="14" viewBox="0 0 15 14" fill="none" xmlns="http://www.w3.org/2000/svg">
<path d="M14.713 6.55013L9.19785 1.03502C8.94937 0.786503 8.54643 0.786503 8.29791 1.03502C8.04938 1.28354 8.04938 1.68645 8.29791 1.93497L12.7268 6.36389L1.53569 6.36448C1.18429 6.36448 0.899414 6.64941 0.899414 7.00085C0.899414 7.35229 1.18438 7.63721 1.53582 7.63717L12.7267 7.63658L8.29795 12.0653C8.04943 12.3138 8.04943 12.7168 8.29795 12.9653C8.42217 13.0895 8.58503 13.1517 8.7479 13.1517C8.91077 13.1517 9.07363 13.0895 9.19785 12.9653L14.713 7.45008C14.8323 7.33074 14.8994 7.16889 14.8994 7.00013C14.8994 6.83136 14.8324 6.66947 14.713 6.55013Z" fill="white"/>
</svg>
