<svg width="22" height="22" viewBox="0 0 22 22" fill="none" xmlns="http://www.w3.org/2000/svg">
<path d="M21.5347 0.4653C21.5821 0.512728 21.6146 0.572978 21.6283 0.638638C21.6419 0.7043 21.636 0.772511 21.6114 0.834886L13.3471 21.7387C13.3205 21.806 13.2734 21.8632 13.2125 21.9022C13.1515 21.9411 13.0798 21.9598 13.0076 21.9557C12.9354 21.9515 12.8663 21.9247 12.8102 21.879C12.7542 21.8333 12.7139 21.7711 12.6952 21.7012L10.5927 13.8671C10.5725 13.7917 10.5785 13.7117 10.6098 13.6402L12.3603 9.63968L8.35993 11.3903C8.28841 11.4216 8.20838 11.4276 8.13298 11.4074L0.298777 9.30476C0.228893 9.28609 0.166679 9.24585 0.120993 9.18976C0.0753067 9.13368 0.0484762 9.06462 0.0443211 8.9924C0.0401659 8.92019 0.0588978 8.8485 0.0978501 8.78755C0.136802 8.7266 0.19399 8.67949 0.261271 8.65292L21.1651 0.388614C21.2275 0.363987 21.2957 0.358127 21.3614 0.371751C21.427 0.385376 21.4873 0.417891 21.5347 0.4653Z" fill="#F2CC4D"/>
</svg>
